<svg width="235" height="63" viewBox="0 0 235 63" fill="none" xmlns="http://www.w3.org/2000/svg">
<path d="M61.36 1H1V61.36H61.36V1Z" stroke="#251F1E" stroke-width="2"/>
<path d="M55.5576 54.8337L52.2976 54.8427V40.1297C52.2976 38.5867 51.0466 37.3347 49.5026 37.3337H39.6086C38.2236 37.3347 36.9436 38.0727 36.2486 39.2717L27.1846 54.9207L6.80664 54.9857L34.0216 7.95766L55.5576 7.80566V54.8337ZM52.1426 16.5897C52.1426 15.1057 50.1986 14.5507 49.4146 15.8107L39.6936 31.4337C39.0176 32.5197 39.7986 33.9257 41.0776 33.9257H49.2696C50.8566 33.9257 52.1426 32.6397 52.1426 31.0527V16.5897Z" fill="#251F1E"/>
<path d="M83.1055 48.1794H76.3555L88.6453 13.2703H96.4521L108.759 48.1794H102.009L92.6851 20.4294H92.4123L83.1055 48.1794ZM83.3271 34.4919H101.737V39.5714H83.3271V34.4919ZM109.997 48.1794V13.2703H123.088C125.77 13.2703 128.02 13.7362 129.838 14.668C131.668 15.5998 133.048 16.9067 133.98 18.5885C134.923 20.2589 135.395 22.2078 135.395 24.4351C135.395 26.6737 134.918 28.6169 133.963 30.2646C133.02 31.901 131.628 33.168 129.787 34.0658C127.946 34.9521 125.685 35.3953 123.003 35.3953H113.679V30.1453H122.151C123.719 30.1453 125.003 29.9294 126.003 29.4976C127.003 29.0544 127.742 28.4123 128.219 27.5714C128.707 26.7192 128.952 25.6737 128.952 24.4351C128.952 23.1964 128.707 22.1396 128.219 21.2646C127.73 20.3783 126.986 19.7078 125.986 19.2532C124.986 18.7873 123.696 18.5544 122.117 18.5544H116.321V48.1794H109.997ZM128.031 32.3612L136.673 48.1794H129.617L121.128 32.3612H128.031ZM167.737 25.0487H161.362C161.18 24.0033 160.845 23.0771 160.356 22.2703C159.867 21.4521 159.259 20.7589 158.532 20.1907C157.805 19.6226 156.975 19.1964 156.043 18.9123C155.123 18.6169 154.129 18.4692 153.061 18.4692C151.163 18.4692 149.481 18.9464 148.015 19.901C146.549 20.8442 145.401 22.2305 144.572 24.0601C143.742 25.8783 143.328 28.0998 143.328 30.7248C143.328 33.3953 143.742 35.6453 144.572 37.4748C145.413 39.293 146.561 40.668 148.015 41.5998C149.481 42.5203 151.157 42.9805 153.043 42.9805C154.089 42.9805 155.066 42.8442 155.975 42.5714C156.896 42.2873 157.72 41.8726 158.447 41.3271C159.186 40.7817 159.805 40.1112 160.305 39.3158C160.816 38.5203 161.168 37.6112 161.362 36.5885L167.737 36.6226C167.498 38.2817 166.981 39.8385 166.186 41.293C165.401 42.7476 164.373 44.0317 163.1 45.1453C161.828 46.2476 160.339 47.1112 158.634 47.7362C156.93 48.3498 155.038 48.6567 152.958 48.6567C149.89 48.6567 147.151 47.9464 144.742 46.526C142.333 45.1055 140.436 43.0544 139.049 40.3726C137.663 37.6908 136.97 34.4748 136.97 30.7248C136.97 26.9635 137.668 23.7476 139.066 21.0771C140.464 18.3953 142.367 16.3442 144.776 14.9237C147.186 13.5032 149.913 12.793 152.958 12.793C154.901 12.793 156.708 13.0657 158.379 13.6112C160.049 14.1567 161.538 14.9578 162.845 16.0146C164.151 17.0601 165.225 18.3442 166.066 19.8669C166.918 21.3783 167.475 23.1055 167.737 25.0487ZM170.168 48.1794V13.2703H176.492V28.0487H192.668V13.2703H199.009V48.1794H192.668V33.3498H176.492V48.1794H170.168ZM208.85 13.2703V48.1794H202.527V13.2703H208.85ZM212.338 48.1794V13.2703H218.662V42.8783H234.037V48.1794H212.338Z" fill="#251F1E"/>
</svg>
