<svg width="589" height="156" viewBox="0 0 589 156" fill="none" xmlns="http://www.w3.org/2000/svg">
<rect x="4" y="4" width="580.975" height="148" stroke="white" stroke-width="8"/>
<path d="M156.975 0.20163H0V155.798H156.975V0.20163Z" fill="white"/>
<path d="M94.2754 89.8071H114.602L114.522 91.4205C113.806 100.744 110.266 108.18 103.942 113.57C97.6961 118.921 89.3432 121.636 79.1197 121.636C67.9418 121.636 58.9916 117.858 52.5075 110.344C46.143 102.908 42.8813 92.6393 42.8813 79.8137V74.6996C42.8813 66.5158 44.3938 59.1982 47.2975 52.9422C50.2806 46.6077 54.5771 41.6499 60.1058 38.2675C65.6346 34.8834 72.0793 33.1525 79.3581 33.1525C89.4218 33.1525 97.6559 35.8672 103.822 41.2577C110.028 46.6077 113.647 54.2404 114.602 63.8805L114.761 65.4931H94.3942L94.3147 64.1552C93.9174 59.1593 92.5245 55.5395 90.2173 53.4147C87.9101 51.251 84.2502 50.1887 79.3581 50.1887C74.0678 50.1887 70.2097 51.9593 67.623 55.6967C64.9185 59.5126 63.5265 65.6503 63.447 73.9127V80.2076C63.447 88.863 64.7595 95.2373 67.3453 99.1319C69.8115 102.869 73.6696 104.679 79.1197 104.679C84.0921 104.679 87.7913 103.616 90.1387 101.453C92.445 99.328 93.8379 95.8661 94.1959 91.1839L94.2754 89.8062V89.8071Z" fill="black"/>
<path d="M231.662 90.1172C231.662 89.1016 231.506 88.1901 231.194 87.3828C230.907 86.5495 230.36 85.7943 229.553 85.1172C228.746 84.4141 227.613 83.724 226.155 83.0469C224.696 82.3698 222.808 81.6667 220.49 80.9375C217.912 80.1042 215.464 79.1667 213.147 78.125C210.855 77.0833 208.824 75.8724 207.053 74.4922C205.308 73.0859 203.928 71.4583 202.912 69.6094C201.923 67.7604 201.428 65.612 201.428 63.1641C201.428 60.7943 201.949 58.6458 202.99 56.7188C204.032 54.7656 205.49 53.099 207.365 51.7188C209.24 50.3125 211.454 49.2318 214.006 48.4766C216.584 47.7214 219.41 47.3438 222.483 47.3438C226.675 47.3438 230.334 48.099 233.459 49.6094C236.584 51.1198 239.006 53.1901 240.725 55.8203C242.47 58.4505 243.342 61.4583 243.342 64.8438H231.701C231.701 63.1771 231.35 61.7188 230.647 60.4688C229.97 59.1927 228.928 58.1901 227.522 57.4609C226.142 56.7318 224.397 56.3672 222.287 56.3672C220.256 56.3672 218.563 56.6797 217.209 57.3047C215.855 57.9036 214.839 58.724 214.162 59.7656C213.485 60.7812 213.147 61.9271 213.147 63.2031C213.147 64.1667 213.381 65.0391 213.85 65.8203C214.345 66.6016 215.074 67.3307 216.037 68.0078C217.001 68.6849 218.186 69.3229 219.592 69.9219C220.998 70.5208 222.626 71.1068 224.475 71.6797C227.574 72.6172 230.295 73.6719 232.639 74.8438C235.009 76.0156 236.988 77.3307 238.576 78.7891C240.165 80.2474 241.363 81.901 242.17 83.75C242.977 85.599 243.381 87.6953 243.381 90.0391C243.381 92.513 242.899 94.7266 241.936 96.6797C240.972 98.6328 239.579 100.286 237.756 101.641C235.933 102.995 233.759 104.023 231.233 104.727C228.707 105.43 225.881 105.781 222.756 105.781C219.944 105.781 217.17 105.417 214.436 104.688C211.701 103.932 209.214 102.799 206.975 101.289C204.761 99.7786 202.99 97.8516 201.662 95.5078C200.334 93.1641 199.67 90.3906 199.67 87.1875H211.428C211.428 88.9583 211.701 90.4557 212.248 91.6797C212.795 92.9036 213.563 93.8932 214.553 94.6484C215.569 95.4036 216.767 95.9505 218.147 96.2891C219.553 96.6276 221.089 96.7969 222.756 96.7969C224.787 96.7969 226.454 96.5104 227.756 95.9375C229.084 95.3646 230.061 94.5703 230.686 93.5547C231.337 92.5391 231.662 91.3932 231.662 90.1172ZM297.514 95.8594V105H267.24V95.8594H297.514ZM271.069 48.125V105H259.35V48.125H271.069ZM293.569 71.2891V80.1953H267.24V71.2891H293.569ZM297.475 48.125V57.3047H267.24V48.125H297.475ZM312.35 48.125H333.561C337.91 48.125 341.647 48.776 344.772 50.0781C347.923 51.3802 350.345 53.3073 352.037 55.8594C353.73 58.4115 354.576 61.5495 354.576 65.2734C354.576 68.3203 354.056 70.9375 353.014 73.125C351.998 75.2865 350.553 77.0964 348.678 78.5547C346.829 79.987 344.655 81.1328 342.155 81.9922L338.444 83.9453H320.006L319.928 74.8047H333.639C335.696 74.8047 337.402 74.4401 338.756 73.7109C340.11 72.9818 341.126 71.9661 341.803 70.6641C342.506 69.362 342.858 67.8516 342.858 66.1328C342.858 64.3099 342.519 62.7344 341.842 61.4062C341.165 60.0781 340.136 59.0625 338.756 58.3594C337.376 57.6562 335.644 57.3047 333.561 57.3047H324.069V105H312.35V48.125ZM344.147 105L331.178 79.6484L343.561 79.5703L356.686 104.453V105H344.147ZM391.326 93.125L404.725 48.125H417.772L397.967 105H389.373L391.326 93.125ZM378.983 48.125L392.342 93.125L394.373 105H385.701L366.014 48.125H378.983ZM469.248 95.8594V105H438.975V95.8594H469.248ZM442.803 48.125V105H431.084V48.125H442.803ZM465.303 71.2891V80.1953H438.975V71.2891H465.303ZM469.209 48.125V57.3047H438.975V48.125H469.209ZM484.084 48.125H505.295C509.644 48.125 513.381 48.776 516.506 50.0781C519.657 51.3802 522.079 53.3073 523.772 55.8594C525.464 58.4115 526.311 61.5495 526.311 65.2734C526.311 68.3203 525.79 70.9375 524.748 73.125C523.733 75.2865 522.287 77.0964 520.412 78.5547C518.563 79.987 516.389 81.1328 513.889 81.9922L510.178 83.9453H491.74L491.662 74.8047H505.373C507.431 74.8047 509.136 74.4401 510.49 73.7109C511.845 72.9818 512.86 71.9661 513.537 70.6641C514.24 69.362 514.592 67.8516 514.592 66.1328C514.592 64.3099 514.253 62.7344 513.576 61.4062C512.899 60.0781 511.871 59.0625 510.49 58.3594C509.11 57.6562 507.378 57.3047 505.295 57.3047H495.803V105H484.084V48.125ZM515.881 105L502.912 79.6484L515.295 79.5703L528.42 104.453V105H515.881Z" fill="white"/>
</svg>
