<svg viewBox="0 0 470 470" xmlns="http://www.w3.org/2000/svg">
  
  <!-- Central large cube -->
  <path d="M235,16.18l96.674,56.32L235,128.82L138.326,72.5L235,16.18z" fill="#fff"/>
  <path d="M130.927,85.549l96.573,56.261v112.64l-96.573-56.261V85.549z" fill="#fff" opacity="0.7"/>
  <path d="M339.073,198.189L242.5,254.451v-112.64l96.573-56.261V198.189z" fill="#fff" opacity="0.5"/>
  
  <!-- Lower left cube -->
  <path d="M123.427,211.18l96.674,56.32l-96.674,56.32L26.753,267.5L123.427,211.18z" fill="#fff"/>
  <path d="M19.354,280.549l96.573,56.261v112.64l-96.573-56.262V280.549z" fill="#fff" opacity="0.7"/>
  <path d="M227.5,393.189l-96.573,56.262v-112.64l96.573-56.261V393.189z" fill="#fff" opacity="0.5"/>
  
  <!-- Lower right cube -->
  <path d="M443.247,267.5l-96.674,56.32l-96.674-56.32l96.674-56.32L443.247,267.5z" fill="#fff"/>
  <path d="M242.5,280.549l96.573,56.261v112.64L242.5,393.189V280.549z" fill="#fff" opacity="0.7"/>
  <path d="M354.073,449.451v-112.64l96.573-56.261v112.64L354.073,449.451z" fill="#fff" opacity="0.5"/>
</svg>