<svg width="157" height="103" viewBox="0 0 157 103" fill="#FFFFFF" xmlns="http://www.w3.org/2000/svg">
<path d="M70.875 60.25C71.2083 58.3333 71.625 55.7083 72.125 52.375C72.7083 48.9583 73.25 45.3333 73.75 41.5C74.3333 37.5833 74.875 33.7083 75.375 29.875C75.875 26.0417 76.2917 22.75 76.625 20C75.9583 20.75 74.9167 21.9167 73.5 23.5C72.1667 25.0833 70.5833 26.875 68.75 28.875C66.9167 30.875 64.9583 32.9583 62.875 35.125C60.7917 37.2083 58.7917 39.125 56.875 40.875C54.9583 42.625 53.1667 44.0833 51.5 45.25C49.9167 46.3333 48.6667 46.875 47.75 46.875C47.6667 46.875 47.5833 46.8333 47.5 46.75C46.5 46.5833 45.0833 46.1667 43.25 45.5C41.5 44.75 39.625 43.9167 37.625 43C36.875 44.6667 36.125 46.25 35.375 47.75C34.625 49.1667 33.8333 50.4583 33 51.625C31.75 53.2917 30.5 55.2917 29.25 57.625C28 59.875 26.6667 62.3333 25.25 65C28 66.5833 30.875 67.9583 33.875 69.125C36.875 70.2917 39.8333 70.875 42.75 70.875C45.5833 70.875 48.1667 70.2917 50.5 69.125L49.375 79.625C48.9583 79.625 48.5 79.6667 48 79.75C47.5833 79.75 47.125 79.75 46.625 79.75C44.7083 79.75 42.625 79.5833 40.375 79.25C38.125 78.9167 35.8333 78.5 33.5 78C31.25 77.4167 29.0833 76.7917 27 76.125C25 75.375 23.3333 74.625 22 73.875C23.5 75.0417 25.5 76.5417 28 78.375C30.5 80.2083 33.0833 82 35.75 83.75C38.4167 85.5 41 87 43.5 88.25C46.0833 89.5 48.1667 90.125 49.75 90.125C50 90.125 50.2083 90.0833 50.375 90C52.2083 89.75 54.2083 88.5833 56.375 86.5C58.5417 84.3333 60.625 81.75 62.625 78.75C64.625 75.75 66.375 72.5833 67.875 69.25C69.375 65.9167 70.375 62.9167 70.875 60.25ZM32.625 11.125C32.5417 11.0417 32.375 11 32.125 11C30.4583 11 29.2917 11.9583 28.625 13.875C27.9583 15.7917 27.625 17.9167 27.625 20.25C27.625 22.4167 27.8333 24.4583 28.25 26.375C28.75 28.2083 29.4167 29.375 30.25 29.875C30.5 29.625 30.875 29 31.375 28C31.9583 26.9167 32.5 25.6667 33 24.25C33.5833 22.75 34.0833 21.2083 34.5 19.625C35 17.9583 35.25 16.4583 35.25 15.125C35.25 13.9583 35.0417 13.0417 34.625 12.375C34.2917 11.7083 33.625 11.2917 32.625 11.125ZM84 10.25C84.0833 11.6667 84.125 13.0833 84.125 14.5C84.2083 15.9167 84.25 17.4167 84.25 19C84.25 23.75 84.0833 28.7083 83.75 33.875C83.4167 39.0417 82.9583 43.9583 82.375 48.625C81.7917 53.2083 81.0833 57.3333 80.25 61C79.4167 64.5833 78.5417 67.2917 77.625 69.125C76.375 71.625 74.8333 74.6667 73 78.25C71.1667 81.75 69.1667 85.125 67 88.375C64.9167 91.5417 62.6667 94.25 60.25 96.5C57.9167 98.75 55.5833 99.875 53.25 99.875H52.5C50.3333 99.625 47.7083 99.0417 44.625 98.125C41.625 97.2917 38.5 96.0833 35.25 94.5C32 92.9167 28.8333 91 25.75 88.75C22.6667 86.5 20.0833 83.9167 18 81C17.25 82.75 16.5 84.5 15.75 86.25C15.0833 87.8333 14.375 89.5417 13.625 91.375C12.9583 93.2083 12.2917 95 11.625 96.75L0.75 94.5C2.25 92.1667 4 89.125 6 85.375C8.08333 81.5417 10.2083 77.3333 12.375 72.75C11.9583 72.0833 11.5417 71.4583 11.125 70.875C10.7083 70.2083 10.2917 69.5833 9.875 69C9.625 68.4167 9.5 67.75 9.5 67C9.5 66.0833 9.54167 65.4583 9.625 65.125C9.70833 64.7917 9.79167 64.5 9.875 64.25C10.125 63.75 10.4167 63.3333 10.75 63C11.0833 62.6667 11.4583 62.375 11.875 62.125C12.375 61.7917 12.9583 61.625 13.625 61.625H13.75C14.75 61.875 15.875 62.2083 17.125 62.625C19.0417 58.375 20.9167 54.1667 22.75 50C24.5833 45.75 26.2917 41.6667 27.875 37.75C25.7083 36.5 23.875 35.1667 22.375 33.75C20.9583 32.3333 20.1667 31 20 29.75C19.9167 29.1667 19.8333 28.5417 19.75 27.875C19.75 27.125 19.75 26.375 19.75 25.625C19.75 23.625 19.875 21.4583 20.125 19.125C20.4583 16.7083 20.9167 14.4167 21.5 12.25C22.1667 10 23 8 24 6.25C25.0833 4.41667 26.375 3.125 27.875 2.375C29.2917 1.70833 30.7917 1.20833 32.375 0.875C34.0417 0.458333 35.6667 0.25 37.25 0.25C39.5833 0.25 41.5833 0.708333 43.25 1.625C44.9167 2.45833 45.75 3.83333 45.75 5.75C45.75 6.75 45.625 8.29167 45.375 10.375C45.2083 12.375 44.875 14.7083 44.375 17.375C43.9583 19.9583 43.4167 22.7917 42.75 25.875C42.0833 28.875 41.2917 31.875 40.375 34.875C40.875 34.9583 41.4167 35.0417 42 35.125C42.5833 35.125 43.2083 35.125 43.875 35.125H44.25C46.75 35.125 49.4167 34.1667 52.25 32.25C55.0833 30.25 57.9167 27.875 60.75 25.125C63.5833 22.2917 66.25 19.3333 68.75 16.25C71.3333 13.1667 73.5833 10.5417 75.5 8.375C76.1667 7.79167 76.8333 7.45833 77.5 7.375C78.25 7.20833 78.9167 7.125 79.5 7.125C79.5833 7.125 79.6667 7.16667 79.75 7.25C79.8333 7.25 79.9167 7.25 80 7.25H80.25C80.75 7.33333 81.25 7.5 81.75 7.75C82.8333 8.16667 83.5833 9 84 10.25ZM146.25 75.25C146.333 75 146.375 74.5417 146.375 73.875C146.375 72.375 145.875 70.625 144.875 68.625C143.875 66.625 142.625 64.5833 141.125 62.5C139.708 60.4167 138.167 58.4167 136.5 56.5C134.917 54.5833 133.5 53 132.25 51.75C130.833 53.6667 128.917 56.1667 126.5 59.25C124.167 62.25 121.667 65.3333 119 68.5C121.333 69.3333 123.375 70 125.125 70.5C126.875 70.9167 128.208 71.125 129.125 71.125H129.25L127.75 79.125C126.083 78.9583 123.917 78.5 121.25 77.75C118.667 77 116 76.1667 113.25 75.25C112 76.75 110.792 78.125 109.625 79.375C108.542 80.625 107.542 81.7917 106.625 82.875C109.292 85.2083 112 87.25 114.75 89C117.583 90.6667 119.833 91.5833 121.5 91.75C121.667 91.8333 121.875 91.875 122.125 91.875C123.875 91.875 126 91.2917 128.5 90.125C131.083 88.875 133.583 87.4167 136 85.75C138.5 84 140.708 82.1667 142.625 80.25C144.542 78.3333 145.75 76.6667 146.25 75.25ZM101 76.75C101.667 76 102.292 75.25 102.875 74.5C103.458 73.75 104.042 73 104.625 72.25C103.792 71.9167 102.958 71.5833 102.125 71.25C101.375 70.9167 100.583 70.5833 99.75 70.25C98.9167 69.9167 98.125 69.5833 97.375 69.25C97.5417 70.4167 97.9167 71.625 98.5 72.875C99.1667 74.125 100 75.4167 101 76.75ZM139 8.5C137.75 8.66667 136.458 9.29167 135.125 10.375C133.875 11.4583 132.708 12.7917 131.625 14.375C130.625 15.9583 129.75 17.7083 129 19.625C128.333 21.5417 128 23.5 128 25.5C128 26.9167 128.208 28.2917 128.625 29.625C129.125 30.875 129.833 32.0417 130.75 33.125C130.917 33.375 131.083 33.6667 131.25 34C131.417 34.25 131.583 34.5833 131.75 35C131.75 35 131.792 35.0833 131.875 35.25C132.125 34.8333 132.375 34.4583 132.625 34.125C132.875 33.7917 133.083 33.4583 133.25 33.125C135.167 30.4583 136.917 28.125 138.5 26.125C140.083 24.0417 141.125 22.4583 141.625 21.375C143.542 17.4583 144.5 14.5417 144.5 12.625C144.5 11.2917 144.125 10.375 143.375 9.875C142.625 9.29167 141.792 8.83333 140.875 8.5C140.625 8.41667 140.25 8.375 139.75 8.375C139.417 8.375 139.167 8.41667 139 8.5ZM138.625 43.375C141.292 46.0417 143.875 48.6667 146.375 51.25C148.875 53.75 150.542 55.9583 151.375 57.875C152.292 59.9583 153 62.5833 153.5 65.75C154.083 68.9167 154.375 72.0417 154.375 75.125C154.375 76.875 154.292 78.5417 154.125 80.125C153.958 81.625 153.667 82.9583 153.25 84.125C152.833 85.2083 151.917 86.4167 150.5 87.75C149.083 89 147.375 90.2917 145.375 91.625C143.375 92.9583 141.167 94.25 138.75 95.5C136.417 96.75 134.125 97.875 131.875 98.875C129.708 99.875 127.667 100.667 125.75 101.25C123.917 101.833 122.5 102.125 121.5 102.125H121.25C120.333 102.125 119.083 101.75 117.5 101C116 100.25 114.292 99.25 112.375 98C110.542 96.75 108.583 95.3333 106.5 93.75C104.417 92.0833 102.417 90.375 100.5 88.625L98.25 90.875C97.5833 91.5417 96.75 92.375 95.75 93.375C94.8333 94.375 93.9167 95.4167 93 96.5L86.375 94.625C87.2917 93.7083 88.5417 92.3333 90.125 90.5C91.7083 88.6667 93.5417 86.4167 95.625 83.75C94.4583 82.4167 93.4583 81.1667 92.625 80C91.875 78.8333 91.3333 77.7083 91 76.625C90.6667 75.7917 90.2083 74.7917 89.625 73.625C89.0417 72.375 88.4583 71.125 87.875 69.875C87.2917 68.625 86.7917 67.375 86.375 66.125C85.9583 64.875 85.7083 63.7083 85.625 62.625C85.625 62.125 85.875 61.5417 86.375 60.875C86.7917 60.2083 87.3333 59.5833 88 59C88.5833 58.3333 89.1667 57.7917 89.75 57.375C90.4167 56.9583 90.9167 56.75 91.25 56.75C91.25 56.75 91.2917 56.7917 91.375 56.875C93.7917 58.125 96.625 59.5 99.875 61C103.208 62.4167 106.583 63.7917 110 65.125C112.667 61.625 115.292 58.125 117.875 54.625C120.542 51.125 123.083 47.6667 125.5 44.25C123.583 41.5833 121.792 38.5833 120.125 35.25C118.542 31.9167 117.75 28.5833 117.75 25.25C117.75 24.75 117.75 24.2083 117.75 23.625C117.75 23.0417 117.833 22.5 118 22C118.583 19.4167 119.667 16.8333 121.25 14.25C122.833 11.6667 124.583 9.375 126.5 7.375C128.417 5.29167 130.292 3.625 132.125 2.375C134.042 1.125 135.583 0.5 136.75 0.5H136.875C137.958 0.5 139.625 0.791667 141.875 1.375C144.125 1.875 146.333 2.75 148.5 4C150.667 5.25 152.542 6.875 154.125 8.875C155.792 10.7917 156.625 13.125 156.625 15.875C156.625 18.0417 156 20.3333 154.75 22.75C153.583 25.1667 152.083 27.5833 150.25 30C148.417 32.4167 146.458 34.7917 144.375 37.125C142.292 39.375 140.375 41.4583 138.625 43.375Z" fill="white"/>
</svg>
