<svg width="548" height="85" viewBox="0 0 548 85" fill="none" xmlns="http://www.w3.org/2000/svg">
<path d="M80.2517 7.54669C82.5673 8.45564 83.5861 11.0916 82.6599 13.2731C81.9188 15.0002 80.2517 16 78.4921 16C77.9365 16 77.288 15.9091 76.7324 15.6364C65.5259 11.0007 53.5782 8.72833 41.4455 8.72833C38.945 8.72833 37 6.72864 37 4.36533C37 2.00205 39.0376 0.00235123 41.4455 0.00235123C54.8749 -0.0885445 67.9338 2.45653 80.2517 7.54669Z" fill="#1F2DCF"/>
<path d="M80.2523 25.5933C82.5674 26.4971 83.586 29.1188 82.66 31.2881C81.9193 33.0056 80.2523 34 78.493 34C77.9375 34 77.2894 33.9096 76.7336 33.6386C65.5293 29.0284 53.6768 26.7684 41.4536 26.7684C29.138 26.7684 17.2855 29.0284 6.17372 33.5482C3.85875 34.4521 1.26601 33.4577 0.340026 31.1977C-0.58596 28.938 0.432616 26.4069 2.74758 25.5029C14.9706 20.5311 27.9344 18 41.4536 18C54.8804 18 67.9367 20.5311 80.2523 25.5933Z" fill="#1F2DCF"/>
<path d="M62.4874 38.2726C64.8777 38.8182 66.4408 41.0908 65.889 43.4546C65.3375 45.8182 63.0389 47.3636 60.6487 46.8182C54.1211 45.4545 47.5936 44.7272 41.2497 44.7272C29.022 44.7272 17.2541 47.0001 6.2216 51.6365C5.66998 51.8184 5.11835 52 4.4748 52C2.72797 52 1.0731 51 0.337599 49.2727C-0.581778 47.0001 0.429528 44.4547 2.72797 43.5456C14.8637 38.5454 27.735 36 41.1577 36C48.2371 36 55.4081 36.7272 62.4874 38.2726Z" fill="#1F2DCF"/>
<path d="M41.5542 54C44.055 54 46 56 46 58.3638C46 60.7273 43.9624 62.7273 41.5542 62.7273C29.2363 62.7273 17.3815 65.0002 6.26753 69.6365C5.71184 69.8181 5.15614 70 4.50781 70C2.74811 70 1.08102 69 0.34009 67.2728C-0.586072 64.9999 0.4327 62.4545 2.74811 61.5455C15.0661 56.5456 28.0325 54 41.5542 54Z" fill="#1F2DCF"/>
<path d="M123.689 48.7348V70.7318H113V20H123.388V39.396H123.84C124.71 37.15 126.115 35.3912 128.055 34.1196C129.996 32.8316 132.429 32.1875 135.357 32.1875C138.033 32.1875 140.367 32.7655 142.357 33.9215C144.365 35.061 145.92 36.7042 147.025 38.851C148.145 40.9813 148.697 43.5327 148.681 46.5053V70.7318H137.991V48.388C138.008 46.043 137.406 44.2181 136.185 42.9135C134.98 41.6088 133.291 40.9566 131.116 40.9566C129.661 40.9566 128.373 41.2621 127.252 41.8731C126.148 42.4841 125.278 43.3758 124.643 44.5484C124.024 45.7043 123.706 47.0998 123.689 48.7348ZM174.506 71.4749C170.609 71.4749 167.238 70.6574 164.394 69.0225C161.567 67.3711 159.384 65.0756 157.845 62.136C156.306 59.1801 155.537 55.7533 155.537 51.8559C155.537 47.9256 156.306 44.4906 157.845 41.5511C159.384 38.5951 161.567 36.2996 164.394 34.6646C167.238 33.0132 170.609 32.1875 174.506 32.1875C178.404 32.1875 181.766 33.0132 184.593 34.6646C187.437 36.2996 189.628 38.5951 191.167 41.5511C192.706 44.4906 193.476 47.9256 193.476 51.8559C193.476 55.7533 192.706 59.1801 191.167 62.136C189.628 65.0756 187.437 67.3711 184.593 69.0225C181.766 70.6574 178.404 71.4749 174.506 71.4749ZM174.556 63.3003C176.33 63.3003 177.81 62.8049 178.998 61.814C180.185 60.8067 181.08 59.436 181.683 57.702C182.301 55.9681 182.611 53.9945 182.611 51.7817C182.611 49.5687 182.301 47.5953 181.683 45.8612C181.08 44.1273 180.185 42.7566 178.998 41.7492C177.81 40.7419 176.33 40.2382 174.556 40.2382C172.767 40.2382 171.261 40.7419 170.04 41.7492C168.836 42.7566 167.924 44.1273 167.305 45.8612C166.703 47.5953 166.402 49.5687 166.402 51.7817C166.402 53.9945 166.703 55.9681 167.305 57.702C167.924 59.436 168.836 60.8067 170.04 61.814C171.261 62.8049 172.767 63.3003 174.556 63.3003ZM200.426 85V32.6829H210.965V39.0739H211.441C211.91 38.05 212.587 37.0097 213.474 35.9528C214.377 34.8794 215.548 33.9876 216.987 33.2775C218.442 32.5509 220.249 32.1875 222.407 32.1875C225.217 32.1875 227.81 32.9142 230.185 34.3674C232.56 35.8041 234.459 37.9757 235.881 40.8822C237.303 43.7723 238.014 47.3971 238.014 51.7569C238.014 56.0011 237.319 59.5846 235.931 62.5076C234.559 65.4142 232.686 67.6188 230.311 69.1215C227.952 70.6079 225.309 71.351 222.381 71.351C220.307 71.351 218.542 71.0124 217.087 70.3353C215.649 69.6582 214.469 68.8078 213.549 67.7839C212.629 66.7435 211.927 65.6949 211.441 64.6379H211.115V85H200.426ZM210.889 51.7073C210.889 53.9698 211.207 55.9432 211.843 57.6277C212.479 59.3121 213.399 60.625 214.603 61.5663C215.807 62.4911 217.271 62.9535 218.994 62.9535C220.734 62.9535 222.206 62.4828 223.41 61.5416C224.615 60.5837 225.526 59.2626 226.145 57.5782C226.781 55.8772 227.099 53.9202 227.099 51.7073C227.099 49.5109 226.789 47.5787 226.17 45.9109C225.551 44.2429 224.64 42.9383 223.435 41.997C222.231 41.0556 220.751 40.585 218.994 40.585C217.254 40.585 215.782 41.0391 214.578 41.9474C213.39 42.8556 212.479 44.1438 211.843 45.8117C211.207 47.4797 210.889 49.4449 210.889 51.7073ZM252.693 32.6829L259.769 45.9851L267.019 32.6829H277.985L266.819 51.7073L278.286 70.7318H267.371L259.769 57.5782L252.29 70.7318H241.25L252.693 51.7073L241.651 32.6829H252.693Z" fill="black"/>
</svg>
