<svg width="171" height="33" viewBox="0 0 171 33" fill="none" xmlns="http://www.w3.org/2000/svg">
<path d="M30.3248 2.90509C31.1996 3.25499 31.5845 4.26971 31.2346 5.10947C30.9546 5.77429 30.3248 6.15918 29.66 6.15918C29.4501 6.15918 29.2051 6.12419 28.9952 6.01922C24.7614 4.23472 20.2476 3.35996 15.6639 3.35996C14.7192 3.35996 13.9844 2.59018 13.9844 1.68043C13.9844 0.770686 14.7542 0.000905103 15.6639 0.000905103C20.7375 -0.0340851 25.6711 0.945637 30.3248 2.90509Z" fill="#1F2DCF"/>
<path d="M30.325 9.69284C31.1998 10.0427 31.5847 11.0575 31.2348 11.8972C30.9549 12.562 30.325 12.9469 29.6602 12.9469C29.4503 12.9469 29.2054 12.9119 28.9954 12.807C24.7616 11.0225 20.2829 10.1477 15.6641 10.1477C11.0104 10.1477 6.5317 11.0225 2.33287 12.772C1.45811 13.1219 0.478388 12.737 0.128486 11.8622C-0.221417 10.9875 0.163473 10.0078 1.03823 9.65785C5.65694 7.73338 10.5556 6.75366 15.6641 6.75366C20.7377 6.75366 25.6713 7.73339 30.325 9.69284Z" fill="#1F2DCF"/>
<path d="M23.7819 14.4171C24.6916 14.6271 25.2865 15.5018 25.0765 16.4116C24.8666 17.3213 23.9918 17.9161 23.0821 17.7062C20.5978 17.1813 18.1135 16.9014 15.6991 16.9014C11.0454 16.9014 6.56668 17.7762 2.36786 19.5607C2.15792 19.6307 1.94798 19.7006 1.70305 19.7006C1.03823 19.7006 0.408407 19.3157 0.128486 18.6509C-0.221417 17.7762 0.163473 16.7965 1.03823 16.4466C5.65694 14.5221 10.5556 13.5424 15.6641 13.5424C18.3584 13.5424 21.0876 13.8223 23.7819 14.4171Z" fill="#1F2DCF"/>
<path d="M15.6991 20.295C16.6439 20.295 17.3787 21.0648 17.3787 21.9746C17.3787 22.8843 16.6089 23.6541 15.6991 23.6541C11.0454 23.6541 6.56668 24.5289 2.36786 26.3134C2.15792 26.3833 1.94798 26.4533 1.70304 26.4533C1.03823 26.4533 0.408407 26.0684 0.128485 25.4036C-0.221417 24.5288 0.163473 23.5491 1.03823 23.1992C5.69193 21.2748 10.5906 20.295 15.6991 20.295Z" fill="#1F2DCF"/>
<mask id="path-5-outside-1_12102_145724" maskUnits="userSpaceOnUse" x="42.0488" y="6.71558" width="129" height="26" fill="black">
<rect fill="white" x="42.0488" y="6.71558" width="129" height="26"/>
<path d="M46.4613 26.868V25.5828C47.7839 27.0046 48.5247 27.1854 50.3236 27.1854C54.0271 27.1854 56.4608 24.2491 56.4608 20.3075C56.4608 16.4453 54.2651 13.5089 50.4558 13.5089C48.5247 13.5089 47.0962 14.3554 46.5142 15.2813V7.71558H43.0488V26.868H46.4613ZM53.2951 20.3912C53.2951 22.7721 51.514 24.0374 49.7151 24.0374C47.9427 24.0374 46.1306 22.7456 46.1306 20.3912C46.1306 18.0104 47.9427 16.6569 49.7151 16.6569C51.514 16.6569 53.2951 18.0104 53.2951 20.3912Z"/>
<path d="M67.4483 26.868H70.8079C70.755 26.4182 70.6757 25.5188 70.6757 24.5136V13.8528H67.1573V21.4185C67.1573 22.9264 66.2579 23.9845 64.6971 23.9845C63.057 23.9845 62.3163 22.8206 62.3163 21.3656V13.8528H58.798V22.0799C58.798 24.9104 60.5968 27.2119 63.7448 27.2119C65.1204 27.2119 66.6283 26.6828 67.3425 25.4659C67.3425 25.995 67.3954 26.6034 67.4483 26.868Z"/>
<path d="M77.6842 19.3816C77.6842 17.8737 78.5836 16.6833 80.1179 16.6833C81.811 16.6833 82.5252 17.8208 82.5252 19.2758V26.868H86.0435V18.6674C86.0435 15.8104 83.6064 13.8528 81.402 13.7779C80.6064 13.7508 78.7721 13.5089 77.6842 14.6392V13.8528H74.1659V26.868H77.6842V19.3816Z"/>
<path d="M117.547 23.2438C117.706 24.7252 119.055 27.2648 122.97 27.2648C126.383 27.2648 128.023 25.0956 128.023 22.9793C128.023 21.0746 126.727 19.5139 124.161 18.9848L122.309 18.588C121.595 18.4557 121.119 18.0589 121.119 17.424C121.119 16.6833 121.859 16.1278 122.785 16.1278C124.267 16.1278 124.822 17.1066 124.928 17.8737L127.864 17.2124C127.706 15.8104 126.462 13.456 122.759 13.456C119.955 13.456 117.891 15.3871 117.891 17.715C117.891 19.5403 119.029 21.0482 121.542 21.6037L123.261 22.0005C124.267 22.2121 124.663 22.6883 124.663 23.2703C124.663 23.9581 124.108 24.5665 122.944 24.5665C121.41 24.5665 120.643 23.6142 120.563 22.5825L117.547 23.2438Z"/>
<path d="M134.106 19.2229C134.185 17.7944 135.058 16.6833 136.539 16.6833C138.232 16.6833 138.947 17.8208 138.947 19.2758V26.868H142.465V18.6674C142.465 15.8104 140.931 13.5089 137.624 13.5089C136.381 13.5089 134.952 13.9322 134.106 14.9374V7.71558H130.587V26.868H134.106V19.2229Z"/>
<path d="M148.337 18.879C148.417 17.6886 149.422 16.313 151.247 16.313C153.258 16.313 154.104 17.5828 154.157 18.879H148.337ZM154.501 22.265C154.078 23.429 153.178 24.2491 151.538 24.2491C149.792 24.2491 148.337 23.0057 148.258 21.2863H157.57C157.57 21.2333 157.623 20.7043 157.623 20.2017C157.623 16.022 155.215 13.456 151.194 13.456C147.861 13.456 144.793 16.1543 144.793 20.3075C144.793 24.6988 147.941 27.2648 151.512 27.2648C154.713 27.2648 156.776 25.3866 157.437 23.138L154.501 22.265Z"/>
<path d="M163.647 26.868V7.71558H160.129V26.868H163.647Z"/>
<path d="M170.667 26.868V7.71558H167.149V26.868H170.667Z"/>
<path d="M108.798 32L120.563 7.71558H116.673L105.068 32H108.798Z"/>
<path d="M106.012 13.5089H102.071L104.549 19.3199L105.788 22.2254L106.407 23.6781L108.611 19.2229L107.745 17.3182L106.879 15.4136L106.012 13.5089Z"/>
<path d="M92.8309 19.3816C92.8309 17.8738 93.7303 16.6833 95.2646 16.6833C96.9576 16.6833 97.6719 17.8208 97.6719 19.2758V26.868H101.19V18.6674C101.19 15.8104 98.7531 13.8528 96.5486 13.7779C95.7531 13.7508 93.9188 13.5089 92.8309 14.6392V13.8528H89.3125V26.868H92.8309V19.3816Z"/>
</mask>
<path d="M46.4613 26.868V25.5828C47.7839 27.0046 48.5247 27.1854 50.3236 27.1854C54.0271 27.1854 56.4608 24.2491 56.4608 20.3075C56.4608 16.4453 54.2651 13.5089 50.4558 13.5089C48.5247 13.5089 47.0962 14.3554 46.5142 15.2813V7.71558H43.0488V26.868H46.4613ZM53.2951 20.3912C53.2951 22.7721 51.514 24.0374 49.7151 24.0374C47.9427 24.0374 46.1306 22.7456 46.1306 20.3912C46.1306 18.0104 47.9427 16.6569 49.7151 16.6569C51.514 16.6569 53.2951 18.0104 53.2951 20.3912Z" fill="black"/>
<path d="M67.4483 26.868H70.8079C70.755 26.4182 70.6757 25.5188 70.6757 24.5136V13.8528H67.1573V21.4185C67.1573 22.9264 66.2579 23.9845 64.6971 23.9845C63.057 23.9845 62.3163 22.8206 62.3163 21.3656V13.8528H58.798V22.0799C58.798 24.9104 60.5968 27.2119 63.7448 27.2119C65.1204 27.2119 66.6283 26.6828 67.3425 25.4659C67.3425 25.995 67.3954 26.6034 67.4483 26.868Z" fill="black"/>
<path d="M77.6842 19.3816C77.6842 17.8737 78.5836 16.6833 80.1179 16.6833C81.811 16.6833 82.5252 17.8208 82.5252 19.2758V26.868H86.0435V18.6674C86.0435 15.8104 83.6064 13.8528 81.402 13.7779C80.6064 13.7508 78.7721 13.5089 77.6842 14.6392V13.8528H74.1659V26.868H77.6842V19.3816Z" fill="black"/>
<path d="M117.547 23.2438C117.706 24.7252 119.055 27.2648 122.97 27.2648C126.383 27.2648 128.023 25.0956 128.023 22.9793C128.023 21.0746 126.727 19.5139 124.161 18.9848L122.309 18.588C121.595 18.4557 121.119 18.0589 121.119 17.424C121.119 16.6833 121.859 16.1278 122.785 16.1278C124.267 16.1278 124.822 17.1066 124.928 17.8737L127.864 17.2124C127.706 15.8104 126.462 13.456 122.759 13.456C119.955 13.456 117.891 15.3871 117.891 17.715C117.891 19.5403 119.029 21.0482 121.542 21.6037L123.261 22.0005C124.267 22.2121 124.663 22.6883 124.663 23.2703C124.663 23.9581 124.108 24.5665 122.944 24.5665C121.41 24.5665 120.643 23.6142 120.563 22.5825L117.547 23.2438Z" fill="black"/>
<path d="M134.106 19.2229C134.185 17.7944 135.058 16.6833 136.539 16.6833C138.232 16.6833 138.947 17.8208 138.947 19.2758V26.868H142.465V18.6674C142.465 15.8104 140.931 13.5089 137.624 13.5089C136.381 13.5089 134.952 13.9322 134.106 14.9374V7.71558H130.587V26.868H134.106V19.2229Z" fill="black"/>
<path d="M148.337 18.879C148.417 17.6886 149.422 16.313 151.247 16.313C153.258 16.313 154.104 17.5828 154.157 18.879H148.337ZM154.501 22.265C154.078 23.429 153.178 24.2491 151.538 24.2491C149.792 24.2491 148.337 23.0057 148.258 21.2863H157.57C157.57 21.2333 157.623 20.7043 157.623 20.2017C157.623 16.022 155.215 13.456 151.194 13.456C147.861 13.456 144.793 16.1543 144.793 20.3075C144.793 24.6988 147.941 27.2648 151.512 27.2648C154.713 27.2648 156.776 25.3866 157.437 23.138L154.501 22.265Z" fill="black"/>
<path d="M163.647 26.868V7.71558H160.129V26.868H163.647Z" fill="black"/>
<path d="M170.667 26.868V7.71558H167.149V26.868H170.667Z" fill="black"/>
<path d="M108.798 32L120.563 7.71558H116.673L105.068 32H108.798Z" fill="black"/>
<path d="M106.012 13.5089H102.071L104.549 19.3199L105.788 22.2254L106.407 23.6781L108.611 19.2229L107.745 17.3182L106.879 15.4136L106.012 13.5089Z" fill="black"/>
<path d="M92.8309 19.3816C92.8309 17.8738 93.7303 16.6833 95.2646 16.6833C96.9576 16.6833 97.6719 17.8208 97.6719 19.2758V26.868H101.19V18.6674C101.19 15.8104 98.7531 13.8528 96.5486 13.7779C95.7531 13.7508 93.9188 13.5089 92.8309 14.6392V13.8528H89.3125V26.868H92.8309V19.3816Z" fill="black"/>
<path d="M46.4613 26.868V25.5828C47.7839 27.0046 48.5247 27.1854 50.3236 27.1854C54.0271 27.1854 56.4608 24.2491 56.4608 20.3075C56.4608 16.4453 54.2651 13.5089 50.4558 13.5089C48.5247 13.5089 47.0962 14.3554 46.5142 15.2813V7.71558H43.0488V26.868H46.4613ZM53.2951 20.3912C53.2951 22.7721 51.514 24.0374 49.7151 24.0374C47.9427 24.0374 46.1306 22.7456 46.1306 20.3912C46.1306 18.0104 47.9427 16.6569 49.7151 16.6569C51.514 16.6569 53.2951 18.0104 53.2951 20.3912Z" stroke="black" stroke-width="0.2" mask="url(#path-5-outside-1_12102_145724)"/>
<path d="M67.4483 26.868H70.8079C70.755 26.4182 70.6757 25.5188 70.6757 24.5136V13.8528H67.1573V21.4185C67.1573 22.9264 66.2579 23.9845 64.6971 23.9845C63.057 23.9845 62.3163 22.8206 62.3163 21.3656V13.8528H58.798V22.0799C58.798 24.9104 60.5968 27.2119 63.7448 27.2119C65.1204 27.2119 66.6283 26.6828 67.3425 25.4659C67.3425 25.995 67.3954 26.6034 67.4483 26.868Z" stroke="black" stroke-width="0.2" mask="url(#path-5-outside-1_12102_145724)"/>
<path d="M77.6842 19.3816C77.6842 17.8737 78.5836 16.6833 80.1179 16.6833C81.811 16.6833 82.5252 17.8208 82.5252 19.2758V26.868H86.0435V18.6674C86.0435 15.8104 83.6064 13.8528 81.402 13.7779C80.6064 13.7508 78.7721 13.5089 77.6842 14.6392V13.8528H74.1659V26.868H77.6842V19.3816Z" stroke="black" stroke-width="0.2" mask="url(#path-5-outside-1_12102_145724)"/>
<path d="M117.547 23.2438C117.706 24.7252 119.055 27.2648 122.97 27.2648C126.383 27.2648 128.023 25.0956 128.023 22.9793C128.023 21.0746 126.727 19.5139 124.161 18.9848L122.309 18.588C121.595 18.4557 121.119 18.0589 121.119 17.424C121.119 16.6833 121.859 16.1278 122.785 16.1278C124.267 16.1278 124.822 17.1066 124.928 17.8737L127.864 17.2124C127.706 15.8104 126.462 13.456 122.759 13.456C119.955 13.456 117.891 15.3871 117.891 17.715C117.891 19.5403 119.029 21.0482 121.542 21.6037L123.261 22.0005C124.267 22.2121 124.663 22.6883 124.663 23.2703C124.663 23.9581 124.108 24.5665 122.944 24.5665C121.41 24.5665 120.643 23.6142 120.563 22.5825L117.547 23.2438Z" stroke="black" stroke-width="0.2" mask="url(#path-5-outside-1_12102_145724)"/>
<path d="M134.106 19.2229C134.185 17.7944 135.058 16.6833 136.539 16.6833C138.232 16.6833 138.947 17.8208 138.947 19.2758V26.868H142.465V18.6674C142.465 15.8104 140.931 13.5089 137.624 13.5089C136.381 13.5089 134.952 13.9322 134.106 14.9374V7.71558H130.587V26.868H134.106V19.2229Z" stroke="black" stroke-width="0.2" mask="url(#path-5-outside-1_12102_145724)"/>
<path d="M148.337 18.879C148.417 17.6886 149.422 16.313 151.247 16.313C153.258 16.313 154.104 17.5828 154.157 18.879H148.337ZM154.501 22.265C154.078 23.429 153.178 24.2491 151.538 24.2491C149.792 24.2491 148.337 23.0057 148.258 21.2863H157.57C157.57 21.2333 157.623 20.7043 157.623 20.2017C157.623 16.022 155.215 13.456 151.194 13.456C147.861 13.456 144.793 16.1543 144.793 20.3075C144.793 24.6988 147.941 27.2648 151.512 27.2648C154.713 27.2648 156.776 25.3866 157.437 23.138L154.501 22.265Z" stroke="black" stroke-width="0.2" mask="url(#path-5-outside-1_12102_145724)"/>
<path d="M163.647 26.868V7.71558H160.129V26.868H163.647Z" stroke="black" stroke-width="0.2" mask="url(#path-5-outside-1_12102_145724)"/>
<path d="M170.667 26.868V7.71558H167.149V26.868H170.667Z" stroke="black" stroke-width="0.2" mask="url(#path-5-outside-1_12102_145724)"/>
<path d="M108.798 32L120.563 7.71558H116.673L105.068 32H108.798Z" stroke="black" stroke-width="0.2" mask="url(#path-5-outside-1_12102_145724)"/>
<path d="M106.012 13.5089H102.071L104.549 19.3199L105.788 22.2254L106.407 23.6781L108.611 19.2229L107.745 17.3182L106.879 15.4136L106.012 13.5089Z" stroke="black" stroke-width="0.2" mask="url(#path-5-outside-1_12102_145724)"/>
<path d="M92.8309 19.3816C92.8309 17.8738 93.7303 16.6833 95.2646 16.6833C96.9576 16.6833 97.6719 17.8208 97.6719 19.2758V26.868H101.19V18.6674C101.19 15.8104 98.7531 13.8528 96.5486 13.7779C95.7531 13.7508 93.9188 13.5089 92.8309 14.6392V13.8528H89.3125V26.868H92.8309V19.3816Z" stroke="black" stroke-width="0.2" mask="url(#path-5-outside-1_12102_145724)"/>
</svg>
