<svg width="916" height="140" viewBox="0 0 916 140" fill="none" xmlns="http://www.w3.org/2000/svg">
<path d="M64.3247 0.815186L0.637939 70.0001H35.1595C40.417 70.0001 45.0451 66.5318 46.5265 61.4816L64.3247 0.815186Z" fill="#F7F8F1"/>
<path d="M41.3451 78.5165L23.5469 139.185L87.2336 69.9998H52.712C47.4546 69.9998 42.8265 73.468 41.3451 78.5182V78.5165Z" fill="#F7F8F1"/>
<path d="M191.784 71.8703L183.107 116.134H162.409L169.904 77.4357C171.835 67.4583 169.904 64.6323 163.043 64.6323C155.807 64.6323 148.802 69.1596 146.986 78.3585L139.606 116.134H118.908L136.896 23.5979H157.594L150.618 59.4417L150.733 58.9227C155.404 52.8382 162.495 47.7918 172.47 47.7918C187.085 47.7918 194.581 56.7311 191.755 71.8703H191.784Z" fill="#F7F8F1"/>
<path d="M228.136 117.952C219.199 134.908 212.598 139.06 199.279 139.06C195.128 139.06 191.381 138.541 187.374 137.647L189.824 122.508C195.013 123.546 200.173 122.249 202.623 118.5C205.333 116.049 206.256 111.896 205.477 106.071L194.609 49.8977H214.904L221.506 93.3832H221.765L242.723 49.8977H263.825L228.107 117.952H228.136Z" fill="#F7F8F1"/>
<path d="M328.543 84.1827C324.392 105.262 311.333 118.21 294.382 118.21C284.149 118.21 278.095 112.529 276.134 109.011L275.356 109.53L269.677 139.03H248.979L266.304 49.8673H287.003L285.965 55.6922C289.338 52.203 296.833 47.791 305.51 47.791C323.758 47.791 332.925 61.7767 328.543 84.1539V84.1827ZM299.687 63.3339C290.635 63.3339 283.399 70.5719 280.66 84.1827C278.325 96.4671 281.554 102.696 289.338 102.696C298.389 102.696 305.625 95.4578 308.364 81.847C310.699 69.5626 307.47 63.3339 299.687 63.3339Z" fill="#F7F8F1"/>
<path d="M373.947 95.5729H394.79C388.592 109.934 377.06 118.21 359.735 118.21C337.105 118.21 325.833 102.176 330.504 79.5109C334.511 59.9598 349.011 47.8196 369.45 47.8196C392.743 47.8196 401.795 64.8908 397.125 88.1908H349.53C347.714 98.2835 354.315 102.696 361.032 102.696C368.787 102.696 373.313 98.8026 373.976 95.5729H373.947ZM351.951 76.5408H379.107C380.779 66.1885 375.879 62.036 368.614 62.036C360.081 62.036 353.739 67.1977 351.923 76.5408H351.951Z" fill="#F7F8F1"/>
<path d="M450.917 49.3778L447.948 67.1123C437.858 65.5551 425.059 72.0433 422.32 85.8849L416.382 116.163H395.683L408.627 49.8969H429.325L427.134 60.7682L427.25 60.2492C431.92 52.867 438.118 48.7434 444.719 48.7434C447.17 48.7434 448.611 48.8587 450.917 49.3778Z" fill="#F7F8F1"/>
<path d="M518.057 84.1832C513.906 105.263 500.847 118.21 483.896 118.21C473.663 118.21 467.609 112.53 465.648 109.012L464.87 109.531L463.573 116.134H442.875L460.863 23.5977H481.561L475.479 55.6927C478.852 52.2035 486.347 47.7915 495.024 47.7915C513.272 47.7915 522.439 61.7772 518.057 84.1544V84.1832ZM489.23 63.3344C480.178 63.3344 472.942 70.5724 470.203 84.1832C467.868 96.4676 471.097 102.696 478.88 102.696C487.932 102.696 495.168 95.4583 497.907 81.8475C500.242 69.5631 497.013 63.3344 489.23 63.3344Z" fill="#F7F8F1"/>
<path d="M571.36 49.3778L568.391 67.1123C558.301 65.5551 545.501 72.0433 542.763 85.8849L536.824 116.163H516.126L529.069 49.8969H549.768L547.577 60.7682L547.692 60.2492C552.362 52.867 558.56 48.7434 565.162 48.7434C567.612 48.7434 569.054 48.8587 571.36 49.3778Z" fill="#F7F8F1"/>
<path d="M565.018 84.1825C569.169 62.9587 586.12 47.8196 608.865 47.8196C630.197 47.8196 640.172 61.9206 636.28 81.8467C632.129 103.07 615.178 118.21 592.548 118.21C569.919 118.21 561.097 104.109 564.989 84.1825H565.018ZM614.976 84.1825C618.868 70.7158 614.717 63.3336 605.002 63.3336C596.469 63.3336 589.752 69.6777 586.379 81.8467C582.487 95.3134 586.639 102.696 596.469 102.696C604.887 102.696 611.604 96.3515 614.976 84.1825Z" fill="#F7F8F1"/>
<path d="M658.305 49.8977L660.38 90.2689H660.64L679.406 49.8977H697.51L700.48 90.2689H700.739L718.583 49.8977H739.541L708.09 116.164H688.804L684.134 74.2358H683.875L662.917 116.164H643.372L637.808 49.8977H658.247H658.305Z" fill="#F7F8F1"/>
<path d="M791.806 95.1695C791.806 111.347 779.122 118.21 761.393 118.21C737.062 118.21 730.201 107.079 730.201 94.6504H749.343C748.708 101.254 753.35 103.965 760.845 103.965C767.302 103.965 771.194 101.629 771.194 97.1015C771.194 92.5742 766.524 92.1705 757.213 89.2003C745.826 85.5669 736.514 81.0396 736.514 70.4277C736.514 56.1824 749.054 47.791 765.746 47.791C788.894 47.791 794.977 59.0373 794.977 69.6491H775.951C776.326 64.3432 771.8 62.0074 765.746 62.0074C760.557 62.0074 757.069 63.5646 757.069 67.1692C757.069 71.1775 760.182 71.8407 768.974 74.5513C780.88 78.3001 791.748 83.3465 791.748 95.1406L791.806 95.1695Z" fill="#F7F8F1"/>
<path d="M838.392 95.5729H859.234C853.036 109.934 841.505 118.21 824.18 118.21C801.55 118.21 790.278 102.176 794.948 79.5109C798.955 59.9598 813.456 47.8196 833.895 47.8196C857.187 47.8196 866.239 64.8908 861.569 88.1908H813.975C812.159 98.2835 818.76 102.696 825.477 102.696C833.232 102.696 837.758 98.8026 838.421 95.5729H838.392ZM816.396 76.5408H843.552C845.224 66.1885 840.323 62.036 833.059 62.036C824.526 62.036 818.184 67.1977 816.367 76.5408H816.396Z" fill="#F7F8F1"/>
<path d="M915.362 49.3778L912.393 67.1123C902.303 65.5551 889.503 72.0433 886.765 85.8849L880.826 116.163H860.128L873.072 49.8969H893.77L891.579 60.7682L891.694 60.2492C896.365 52.867 902.563 48.7434 909.164 48.7434C911.614 48.7434 913.056 48.8587 915.362 49.3778Z" fill="#F7F8F1"/>
</svg>
