<svg xmlns="http://www.w3.org/2000/svg" width="123" height="20" viewBox="0 0 123 20" fill="none">
<g clip-path="url(#clip0_106_824)">
<path d="M20.8477 17.1995C19.7729 18.4094 18.4346 19.3749 16.9219 20H23.7293L25.7811 17.1995H20.8477Z" fill="white"></path>
<path d="M12.8892 0C7.42299 0 2.99186 4.4778 2.99186 9.99845C2.99186 12.4339 3.85849 14.6619 5.28858 16.398H9.62784C7.33419 15.2004 5.76017 12.7835 5.76017 9.99845C5.76017 6.02816 8.9572 2.79746 12.8861 2.79746C16.815 2.79746 20.0121 6.02816 20.0121 9.99845C20.0121 13.9687 16.815 17.1994 12.8861 17.1994H2.05173L0 20H12.8892C18.3554 20 22.7834 15.5222 22.7834 10.0015C22.7834 4.48089 18.3554 0 12.8892 0Z" fill="white"></path>
<path d="M32.7394 16.4165V3.5835H37.5839C38.4536 3.5835 39.2253 3.73513 39.8868 4.04149C40.5513 4.34785 41.0719 4.78108 41.4455 5.35048C41.8191 5.91987 42.0089 6.59448 42.0089 7.3774C42.0089 8.23149 41.7793 8.94943 41.3199 9.52191C40.8636 10.0944 40.2267 10.5029 39.4152 10.7504L42.8817 16.4135H39.5805L36.5519 11.1868H35.6088V16.4135H32.7363L32.7394 16.4165ZM35.6088 8.7359H37.5319C37.982 8.7359 38.3128 8.66782 38.5394 8.52857C38.766 8.38931 38.916 8.21293 39.0018 8.00559C39.0875 7.79826 39.1273 7.59092 39.1273 7.38359C39.1273 7.17625 39.0814 6.96892 39.0018 6.77087C38.916 6.56973 38.7629 6.40262 38.5394 6.26646C38.3158 6.1303 37.982 6.06532 37.5319 6.06532H35.6088V8.74209V8.7359Z" fill="white"></path>
<path d="M49.7405 16.6363C48.5554 16.6363 47.5816 16.398 46.8221 15.9214C46.0596 15.448 45.4992 14.8074 45.1348 14.0152C44.7704 13.2199 44.5928 12.341 44.5928 11.3755V3.5835H47.4407V11.391C47.4407 12.2204 47.6398 12.8609 48.0409 13.3065C48.4421 13.7521 49.0239 13.978 49.8017 13.978C50.5796 13.978 51.1553 13.7583 51.5717 13.3065C51.9882 12.8609 52.1995 12.2234 52.1995 11.391V3.5835H55.0474V11.3755C55.0474 12.3782 54.8851 13.2168 54.5575 13.8883C54.2298 14.5598 53.8041 15.0983 53.2774 15.5006C52.7507 15.9059 52.175 16.1968 51.5534 16.3732C50.9287 16.5496 50.3254 16.6394 49.7466 16.6394L49.7405 16.6363Z" fill="white"></path>
<path d="M58.2998 16.4165V3.5835H61.1661L66.5925 11.6695V3.5835H69.4588V16.4165H66.5925L61.1661 8.36765V16.4165H58.2998Z" fill="white"></path>
<path d="M73.1279 16.4165V3.5835H75.9942V13.9038H81.1818V16.4165H73.1279Z" fill="white"></path>
<path d="M89.0173 16.6363C88.1476 16.6363 87.3177 16.4847 86.5215 16.1783C85.7284 15.8719 85.0241 15.4325 84.3994 14.8569C83.7746 14.2844 83.2847 13.5851 82.9295 12.765C82.5742 11.945 82.3936 11.0228 82.3936 9.9985C82.3936 8.97421 82.5712 8.05204 82.9295 7.23199C83.2847 6.41503 83.7746 5.71876 84.3994 5.14008C85.0241 4.56759 85.7315 4.12507 86.5215 3.81871C87.3147 3.51235 88.1445 3.36072 89.0173 3.36072C89.89 3.36072 90.723 3.51235 91.5192 3.81871C92.3184 4.12507 93.0258 4.56449 93.6505 5.14008C94.2752 5.71257 94.7683 6.41193 95.1296 7.23199C95.494 8.04894 95.6717 8.97421 95.6717 9.9985C95.6717 11.0228 95.4879 11.945 95.1296 12.765C94.7683 13.582 94.2752 14.2782 93.6505 14.8569C93.0258 15.4294 92.3184 15.8719 91.5192 16.1783C90.7199 16.4847 89.887 16.6363 89.0173 16.6363ZM89.0173 14.0152C89.6083 14.0152 90.1932 13.8667 90.7597 13.5727C91.3263 13.2787 91.7979 12.8362 92.1653 12.242C92.5328 11.6479 92.7196 10.899 92.7196 9.99541C92.7196 9.0918 92.5328 8.32436 92.1561 7.7333C91.7795 7.14224 91.311 6.70282 90.7414 6.41193C90.1748 6.12414 89.5991 5.98179 89.0173 5.98179C88.4355 5.98179 87.8659 6.12414 87.3055 6.41193C86.742 6.69972 86.2765 7.13915 85.9091 7.7333C85.5416 8.32745 85.3548 9.07942 85.3548 9.99541C85.3548 10.9114 85.5385 11.6479 85.8968 12.242C86.2612 12.8362 86.7236 13.2787 87.2871 13.5727C87.8506 13.8667 88.4263 14.0152 89.0204 14.0152H89.0173Z" fill="white"></path>
<path d="M104.35 16.6363C103.481 16.6363 102.651 16.4847 101.855 16.1783C101.061 15.8719 100.357 15.4325 99.7324 14.8569C99.1077 14.2844 98.6177 13.5851 98.2625 12.765C97.9072 11.9481 97.7266 11.0228 97.7266 9.9985C97.7266 8.97421 97.9042 8.05204 98.2625 7.23199C98.6177 6.41503 99.1077 5.71876 99.7324 5.14008C100.357 4.56759 101.064 4.12507 101.855 3.81871C102.648 3.51235 103.478 3.36072 104.35 3.36072C105.223 3.36072 106.056 3.51235 106.852 3.81871C107.648 4.12507 108.359 4.56449 108.984 5.14008C109.608 5.71257 110.101 6.41193 110.463 7.23199C110.827 8.04894 111.005 8.97421 111.005 9.9985C111.005 11.0228 110.821 11.945 110.463 12.765C110.101 13.582 109.608 14.2782 108.984 14.8569C108.359 15.4294 107.651 15.8719 106.852 16.1783C106.053 16.4847 105.22 16.6363 104.35 16.6363ZM104.35 14.0152C104.941 14.0152 105.526 13.8667 106.093 13.5727C106.659 13.2787 107.131 12.8362 107.498 12.242C107.866 11.6479 108.053 10.899 108.053 9.99541C108.053 9.0918 107.866 8.32436 107.489 7.7333C107.112 7.13915 106.644 6.70282 106.074 6.41193C105.508 6.12414 104.932 5.98179 104.35 5.98179C103.768 5.98179 103.199 6.12414 102.638 6.41193C102.075 6.69972 101.61 7.13915 101.242 7.7333C100.875 8.32745 100.688 9.07942 100.688 9.99541C100.688 10.9114 100.872 11.6479 101.23 12.242C101.594 12.8362 102.057 13.2787 102.62 13.5727C103.184 13.8667 103.759 14.0152 104.353 14.0152H104.35Z" fill="white"></path>
<path d="M113.329 16.4165V3.5835H118.376C119.246 3.5835 120.033 3.74441 120.734 4.06315C121.435 4.38189 121.989 4.83988 122.394 5.43712C122.798 6.03437 123 6.7523 123 7.58164C123 8.41098 122.801 9.11344 122.409 9.71687C122.017 10.3203 121.469 10.7876 120.777 11.1218C120.085 11.4529 119.279 11.6169 118.37 11.6169H116.192V16.4227H113.326H113.329V16.4165ZM116.196 9.1351H118.302C118.979 9.1351 119.448 8.98037 119.708 8.66782C119.968 8.35527 120.097 7.99321 120.097 7.57545C120.097 7.18244 119.968 6.83586 119.708 6.52021C119.448 6.20457 118.979 6.05294 118.302 6.05294H116.196V9.1351Z" fill="white"></path>
</g>
<defs>
<clipPath id="clip0_106_824">
<rect width="123" height="20" fill="white"></rect>
</clipPath>
</defs>
</svg>