<svg width="85" height="87" viewBox="0 0 85 87" fill="none" xmlns="http://www.w3.org/2000/svg">
<path d="M71.9197 19.2942C69.5747 19.2942 67.6737 17.3922 67.6737 15.046V2.30151H17.0035V19.2914H63.4305C65.7754 19.2914 67.6764 21.1935 67.6764 23.5396V65.7644C67.6764 68.1106 65.7754 70.0126 63.4305 70.0126H21.2495C18.8711 70.0126 17.0035 68.1441 17.0035 65.7644L16.9812 48.9756C16.9812 46.5959 18.8488 44.7274 21.2272 44.7274H38.1415C38.1806 44.7274 38.2197 44.7274 38.2587 44.7274C40.4389 44.7833 42.1614 46.6072 42.1614 48.7885V61.5637H59.204V44.5738H46.5162C44.2913 44.5738 42.4377 42.8114 42.3847 40.5854C42.3847 40.5491 42.3847 40.5156 42.3847 40.4793V27.7375H16.9812V40.4793C16.9812 42.8254 15.0802 44.7274 12.7353 44.7274H0L0.0223327 70.0098H12.7576C15.1025 70.0098 17.0035 71.9118 17.0035 74.258V87H67.6764V74.258C67.6764 71.9118 69.5775 70.0098 71.9225 70.0098H84.6581V19.2942H71.9197Z" fill="white"/>
</svg>
