<svg viewBox="0 0 80 80" width="80" height="80" fill="none" xmlns="http://www.w3.org/2000/svg"><g transform="translate(0.0000, 0.0000) scale(0.919540)">
<path fill-rule="evenodd" clip-rule="evenodd" d="M43.4629 0C67.4655 0 86.924 19.4758 86.924 43.5008C86.924 54.1981 83.0659 63.9922 76.6649 71.5666L61.3129 56.2012C60.2553 57.5099 59.122 58.7697 57.9299 59.9612C54.8934 63.0004 51.4371 65.6514 47.7991 67.6686C47.2258 67.9868 46.648 68.2896 46.0673 68.5746V86.9209C45.2059 86.9714 44.3366 87 43.4629 87C19.4603 87 0.00158317 67.5257 0 43.5008C0 34.4181 2.78322 25.9962 7.53271 19.0242L34.0461 39.0545C29.1399 44.1807 25.288 49.3033 22.9592 53.5833C20.7664 57.6143 19.8878 60.5918 20.8441 61.5616C21.8129 62.5186 24.7893 61.6407 28.8137 59.4463C32.8492 57.2468 37.6383 53.6894 42.4703 49.1658L38.4521 43.1155C37.746 42.0492 37.0145 41.0368 38.0167 40.0338C39.0205 39.0308 40.0321 39.7612 41.096 40.4664L47.1468 44.491C51.659 39.6614 55.2117 34.8665 57.4121 30.8196C59.608 26.7901 60.4851 23.8111 59.521 22.8493C58.5632 21.889 55.585 22.7669 51.5575 24.9615C47.2734 27.2987 42.152 31.1476 37.0383 36.0502L16.7705 9.17299C24.137 3.42581 33.4002 0 43.4629 0ZM25.3228 65.4215C26.9994 64.9476 28.8422 64.1633 30.799 63.0953C35.8493 60.3399 41.9144 55.6953 47.7896 49.8154L47.785 49.8104L47.7896 49.8075C53.6727 43.9176 58.3128 37.8518 61.0583 32.8066C62.1238 30.8481 62.909 29.0053 63.3821 27.3304C67.0267 33.3121 65.8379 40.8768 62 47.8028C60.1874 51.0781 57.773 54.2217 54.9853 57.014C52.1954 59.8059 49.0512 62.2224 45.7804 64.0366C38.8605 67.8762 31.2993 69.0676 25.3228 65.4215Z" fill="#1E1F24"/>
</g></svg>