<svg width="79" height="80" viewBox="0 0 79 80" fill="none" xmlns="http://www.w3.org/2000/svg">
<path d="M34 15.4052C36 16.0499 38.0312 16.491 40.0937 16.7964C40.625 16.8643 41.1562 16.9321 41.6562 17C41.6875 16.7964 41.7187 16.5589 41.75 16.3553C41.9687 14.8962 42.2187 13.4032 42.4375 11.9441C42.9375 8.65269 43.4687 5.32735 44.4375 2.17166C44.625 1.59481 44.8125 1.01796 45 0.441116C43.75 0.237523 42.4687 0.101796 41.2187 0.0339316C40.9062 -5.18269e-07 40.5938 0 40.3125 0C40.0938 1.9002 39.6562 3.76647 39.0312 5.53094C38.1563 8.07585 37.0312 10.519 35.6563 12.8263C35.1563 13.6747 34.5937 14.523 34 15.4052Z" fill="url(#paint0_linear_47_740)"/>
<path d="M41.4831 22.8369C41.5477 21.8569 41.6123 20.8769 41.7415 19.8968C40.32 19.7704 38.9308 19.5491 37.5415 19.2962C35.7646 18.98 33.9877 18.5374 32.2754 18C31.9523 18.3794 31.5969 18.7587 31.2415 19.1381C28.9477 21.604 26.3631 23.7854 23.52 25.619C22.7123 26.1564 21.8723 26.6622 21 27.1364C21.5169 29.4126 21.7108 31.8153 21.5169 34.1231C21.4523 35.0715 21.3231 36.0516 21.1292 37C21.6138 36.9368 22.0662 36.8735 22.5508 36.8103C29.1092 35.9251 35.6031 34.6922 42 33.0483C41.4831 29.6656 41.2892 26.2512 41.4831 22.8369Z" fill="url(#paint1_linear_47_740)"/>
<path d="M17.6129 45.6224C17.4194 46.0935 17.1935 46.5308 17 46.9682C17.9032 47.3047 18.8065 47.6748 19.6774 48.1122C22.6452 49.5589 25.4194 51.4766 27.8065 53.7981C27.871 53.8654 27.9677 53.9327 28.0323 54C32.2581 48.1794 36.3226 42.1907 40 36C33.3226 37.7159 26.5806 38.9944 19.7419 39.8355C19.1613 41.8206 18.4516 43.7383 17.6129 45.6224Z" fill="url(#paint2_linear_47_740)"/>
<path d="M45 16.9679C46.8987 17.0344 48.8291 17.0011 50.7278 16.8348C51.5506 14.739 52.3101 12.6432 53.038 10.4809C53.7975 8.11901 54.5253 5.72383 55 3.26212C54.7152 3.12905 54.3987 2.99598 54.1139 2.86292C52.2785 2.09779 50.3797 1.46573 48.4177 1C47.3418 3.79438 46.7089 6.78835 46.1709 9.74906C45.9177 11.1795 45.6962 12.6432 45.4747 14.0737C45.3165 15.0717 45.1582 16.0031 45 16.9679Z" fill="url(#paint3_linear_47_740)"/>
<path d="M46.0946 20.0962C45.4829 20.0962 44.9018 20.0641 44.2901 20.0321C43.9537 23.3654 43.8925 26.6987 44.1984 30C45.9416 26.7308 47.532 23.3974 49 20C48.0213 20.0641 47.0426 20.0962 46.0946 20.0962Z" fill="url(#paint4_linear_47_740)"/>
<path d="M54 16C57.0513 15.4732 60.0391 14.6366 62.9315 13.4592C64.3301 12.8704 65.6968 12.2197 67 11.507C65.3472 9.92676 63.5355 8.47042 61.5648 7.2C60.357 6.39437 59.0856 5.68169 57.7188 5C56.8924 8.59437 55.621 12.0958 54.2225 15.5352C54.1271 15.6592 54.0636 15.8451 54 16Z" fill="url(#paint5_linear_47_740)"/>
<path d="M55.0649 19.3478C54.3636 19.4783 53.6623 19.5761 52.961 19.6739C52.0047 21.9891 50.9528 24.2717 49.8689 26.5217C48.9445 28.3804 47.9882 30.2065 47 32C52.2916 30.4022 57.4876 28.5435 62.588 26.3587C66.477 24.663 70.2704 22.8043 74 20.75C73.7769 20.3587 73.5537 19.9674 73.3306 19.6087C72.183 17.6848 70.8441 15.7935 69.2822 14C67.9114 14.8152 66.477 15.5652 65.0106 16.2174C61.8229 17.6522 58.5077 18.7609 55.0649 19.3478Z" fill="url(#paint6_linear_47_740)"/>
<path d="M45 34.9677C45.5801 37.5161 46.3535 40 47.3525 42.4194C48.7383 45.6774 50.5107 48.7419 52.6377 51.5806C52.7344 51.7097 52.8633 51.871 52.96 52C54.6357 49.2903 56.6016 46.7419 58.7607 44.3871C61.4678 41.4516 64.4971 38.8065 67.8164 36.6129C71.0068 34.5161 74.4229 32.7742 78 31.4194C77.71 30.1613 77.3877 28.9032 76.9688 27.6774C76.4531 26.0968 75.8086 24.5161 75.0996 23C72.7793 24.2581 70.459 25.4194 68.0742 26.5161C60.6299 29.9677 52.8955 32.7742 45 34.9677Z" fill="url(#paint7_linear_47_740)"/>
<path d="M78.611 34C78.1595 34.1643 77.6756 34.3614 77.2241 34.5585C73.5147 36.1684 70.0311 38.2382 66.8378 40.7023C63.6122 43.2649 60.7415 46.2218 58.2255 49.5072C57.0643 51.0513 55.9999 52.6612 55 54.3368C57.1289 56.6694 59.4835 58.8049 61.9672 60.7762C64.3218 62.616 66.7733 64.3244 69.2247 66C70.7407 64.2587 72.0954 62.386 73.2889 60.4148C74.7404 58.0164 75.9661 55.3552 76.9338 52.4969C77.8047 49.8686 78.4498 47.0103 78.7723 43.9877C79.1271 40.7351 79.0626 37.3511 78.611 34Z" fill="url(#paint8_linear_47_740)"/>
<path d="M46.6605 47.0802C45.106 44.1925 43.8218 41.1444 42.9094 38C38.9217 44.0642 34.5284 49.9037 30 55.5829C30.6083 56.2246 31.2166 56.8984 31.7911 57.6043C33.0753 59.1444 34.2919 60.7808 35.3733 62.4813C36.4885 64.246 37.4685 66.107 38.3134 68C39.9355 67.615 41.5914 67.3262 43.2473 67.1979C44.0584 67.1337 44.8694 67.1016 45.6805 67.1016C46.1536 67.1016 46.6267 67.1016 47.066 67.1337C47.404 65.6898 47.8095 64.2781 48.2826 62.8663C49.2627 60.0428 50.5131 57.3155 52 54.7166C49.9386 52.3422 48.1475 49.8075 46.6605 47.0802Z" fill="url(#paint9_linear_47_740)"/>
<path d="M46 70C45.7321 70 45.4976 70 45.2297 70C44.0574 70 42.9187 70.0702 41.7464 70.2456C40.8086 70.386 39.9043 70.5614 39 70.807C39.2679 71.5439 39.5024 72.2807 39.7368 73.0175C40.4402 75.2982 41.0096 77.6491 41.512 80C42.9522 79.8947 44.4258 79.7193 45.933 79.4737C45.8325 79.0526 45.7656 78.6667 45.6986 78.2456C45.4641 76.4561 45.4641 74.6667 45.6316 72.8421C45.6986 71.8597 45.8325 70.9474 46 70Z" fill="url(#paint10_linear_47_740)"/>
<path d="M62.1339 64.6191C59.1706 62.3002 56.3009 59.8489 53.7431 57C53.2128 58.0932 52.7138 59.2195 52.2459 60.3458C51.3101 62.764 50.5615 65.2485 50 67.7992C51.5908 68.0973 53.1193 68.5942 54.6165 69.1905C56.4257 69.9524 58.2037 70.8468 59.8881 71.94C60.4183 72.2712 60.9486 72.6356 61.4789 73C61.5101 72.9669 61.5725 72.9338 61.6037 72.9006C63.5376 71.5093 65.3468 69.9524 67 68.1967C66.9376 68.1304 66.844 68.0973 66.7816 68.0311C65.1908 66.971 63.6312 65.8116 62.1339 64.6191Z" fill="url(#paint11_linear_47_740)"/>
<path d="M49.4541 71C49.3586 71.4917 49.2632 71.9545 49.1995 72.4463C49.0086 73.9504 48.9131 75.4545 49.1041 76.9587C49.1677 77.3058 49.2313 77.6529 49.3268 78C52.6679 77.2479 55.9453 76.0909 59 74.5289C57.5681 73.7479 56.1044 73.0248 54.5771 72.4174C52.9224 71.8099 51.2042 71.3182 49.4541 71Z" fill="url(#paint12_linear_47_740)"/>
<path d="M26.6388 56.2546C26.7701 56.0859 26.8686 55.9509 27 55.7822C26.2447 55.0399 25.4565 54.3313 24.6026 53.6564C22.5993 52.1043 20.4647 50.8221 18.1658 49.7761C17.509 49.5061 16.8522 49.2362 16.1626 49C14.9475 51.1933 13.6338 53.319 12.1888 55.3773C10.5468 57.773 8.7734 60.0675 7 62.362C7.42693 63.0031 7.91954 63.6779 8.44499 64.3865C10.1527 66.6472 12.0903 68.7393 14.225 70.5951C14.3892 70.7301 14.5205 70.865 14.6847 71C17.6076 68.0982 20.202 64.8252 22.665 61.5184C24.0443 59.7638 25.3251 58.0092 26.6388 56.2546Z" fill="url(#paint13_linear_47_740)"/>
<path d="M36 68.8511C34.5586 65.6915 32.7569 62.6915 30.5948 59.9468C30.0707 59.2766 29.5138 58.6383 28.9241 58C28.6293 58.3511 28.3672 58.7021 28.0724 59.0532C24.9931 62.9468 22.0121 66.9362 18.5397 70.5106C18.0155 71.0213 17.5241 71.5638 17 72.0426C18.3759 73 19.85 73.8617 21.3241 74.6277C22.2741 75.1064 23.2569 75.5851 24.2397 76C24.2724 75.9681 24.3052 75.9681 24.3052 75.9362C25.2552 75.0745 26.2707 74.2447 27.2862 73.4787C28.6948 72.3936 30.169 71.4362 31.7741 70.6064C33.1828 69.9681 34.5586 69.3617 36 68.8511Z" fill="url(#paint14_linear_47_740)"/>
<path d="M35.1312 72.636C32.9672 73.6067 30.9344 74.7782 29.0328 76.251C28.3443 76.7866 27.6557 77.3556 27 77.9582C27.6557 78.1925 28.3115 78.3933 28.9672 78.5607C31.6885 79.3305 34.5738 79.7992 37.5902 79.9665C38.0492 80 38.5082 80 39 80C38.377 77.2887 37.6557 74.6109 36.7377 72C36.1803 72.2008 35.6557 72.4352 35.1312 72.636Z" fill="url(#paint15_linear_47_740)"/>
<path d="M11.3089 38.0805C12.4843 37.9783 13.6597 37.8762 14.8033 37.774C15.6927 37.7059 16.5822 37.6037 17.4399 37.5015C17.5987 36.7864 17.7258 36.0372 17.8211 35.322C18.0435 33.2446 18.0752 31.2012 17.8211 29.1238C17.7576 28.7492 17.7258 28.3746 17.6305 28C15.6927 29.0217 13.6597 29.839 11.5948 30.5201C8.06874 31.644 4.3838 32.291 0.730635 32.291C0.317668 34.5046 0.0635334 36.7523 0 39C2.63664 38.9319 5.27327 38.6935 7.87814 38.4211C9.05351 38.2848 10.1971 38.1827 11.3089 38.0805Z" fill="url(#paint16_linear_47_740)"/>
<path d="M10.4215 45.1771C11.8218 45.3829 13.1897 45.6229 14.5575 46C15.0785 44.9371 15.5345 43.8743 15.9904 42.7771C16.3487 41.8514 16.6743 40.9257 17 40C16.5766 40.0343 16.1533 40.1029 15.6973 40.1371C13.5805 40.3429 11.4636 40.5143 9.34674 40.72C7.22988 40.9257 5.11303 41.1657 2.9636 41.3029C1.98659 41.3714 1.00958 41.4057 0 41.44C0.0651341 42.7771 0.162835 44.1486 0.358237 45.4857C0.423371 45.4857 0.488505 45.4514 0.521072 45.4514C2.4751 45.1086 4.42912 44.9029 6.41571 44.9029C7.75096 44.9029 9.08621 45.0057 10.4215 45.1771Z" fill="url(#paint17_linear_47_740)"/>
<path d="M13 48.789C12.136 48.5918 11.24 48.3945 10.344 48.263C9.032 48.0986 7.688 48 6.376 48C5.032 48 3.688 48.0986 2.344 48.263C1.896 48.3288 1.448 48.3945 1 48.4932C1.032 48.5918 1.032 48.7233 1.064 48.8219C1.64 51.5836 2.6 54.3781 3.88 57.2055C4.296 58.126 4.776 59.0466 5.288 60C5.896 59.2438 6.472 58.4548 7.048 57.6986C9.224 54.8384 11.24 51.8794 13 48.789Z" fill="url(#paint18_linear_47_740)"/>
<path d="M24.6171 10.4094C26.4238 11.7271 28.3643 12.8141 30.4387 13.6706C30.7398 13.8024 31.0074 13.9012 31.3085 14C31.3085 13.9671 31.342 13.9671 31.342 13.9341C33.316 11.3976 35.0223 8.66353 36.3271 5.69882C37.0967 3.85412 37.6989 1.97647 38 0C37.9331 0 37.8662 0 37.7993 0C34.7546 0.197647 31.7435 0.691767 28.8996 1.5153C26.1561 2.30588 23.4461 3.39294 20.803 4.80941C20.5353 4.94118 20.2677 5.10588 20 5.23765C20.368 5.86353 20.7695 6.48941 21.2379 7.08235C22.2082 8.36706 23.3457 9.45412 24.6171 10.4094Z" fill="url(#paint19_linear_47_740)"/>
<path d="M15.6077 17.174C16.6022 18.3767 17.4972 19.6444 18.2265 21.0096C18.7238 21.9847 19.1878 22.9924 19.5856 24C21.0442 23.1549 22.4696 22.2122 23.8287 21.2046C25.6851 19.7744 27.4088 18.1491 29 16.4264C28.768 16.3289 28.5359 16.2314 28.337 16.1338C25.5525 14.9312 22.9337 13.3384 20.7127 11.2581C19.6188 10.218 18.6243 9.08031 17.7956 7.81262C17.6298 7.55258 17.4641 7.29254 17.2983 7C16.0055 7.87763 14.7127 8.82027 13.453 9.89293C12.6243 10.5755 11.8287 11.3231 11 12.1358C12.6906 13.696 14.1823 15.4187 15.6077 17.174Z" fill="url(#paint20_linear_47_740)"/>
<path d="M14.7823 26.0771C15.5216 25.7559 16.2608 25.3705 17 24.985C16.846 24.5032 16.692 24.0214 16.5072 23.5396C15.8296 21.9336 14.9979 20.424 13.9815 19.0107C12.6571 17.2441 11.2402 15.5096 9.6386 14C9.20739 14.5139 8.77618 15.0921 8.31417 15.7345C6.71253 17.9186 5.32649 20.3276 4.15606 22.8972C3.26283 24.8565 2.55441 26.9122 2 29C3.20123 28.9679 4.40246 28.8715 5.57289 28.7109C8.71458 28.2612 11.8255 27.3619 14.7823 26.0771Z" fill="url(#paint21_linear_47_740)"/>
<defs>
<linearGradient id="paint0_linear_47_740" x1="34" y1="0" x2="45" y2="0" gradientUnits="userSpaceOnUse">
<stop stop-color="white"/>
<stop offset="1" stop-color="white"/>
</linearGradient>
<linearGradient id="paint1_linear_47_740" x1="21" y1="18" x2="42" y2="18" gradientUnits="userSpaceOnUse">
<stop stop-color="white"/>
<stop offset="1" stop-color="white"/>
</linearGradient>
<linearGradient id="paint2_linear_47_740" x1="17" y1="36" x2="40" y2="36" gradientUnits="userSpaceOnUse">
<stop stop-color="white"/>
<stop offset="1" stop-color="white"/>
</linearGradient>
<linearGradient id="paint3_linear_47_740" x1="45" y1="1" x2="55" y2="1" gradientUnits="userSpaceOnUse">
<stop stop-color="white"/>
<stop offset="1" stop-color="white"/>
</linearGradient>
<linearGradient id="paint4_linear_47_740" x1="44" y1="20" x2="49" y2="20" gradientUnits="userSpaceOnUse">
<stop stop-color="white"/>
<stop offset="1" stop-color="white"/>
</linearGradient>
<linearGradient id="paint5_linear_47_740" x1="54" y1="5" x2="67" y2="5" gradientUnits="userSpaceOnUse">
<stop stop-color="white"/>
<stop offset="1" stop-color="white"/>
</linearGradient>
<linearGradient id="paint6_linear_47_740" x1="47" y1="14" x2="74" y2="14" gradientUnits="userSpaceOnUse">
<stop stop-color="white"/>
<stop offset="1" stop-color="white"/>
</linearGradient>
<linearGradient id="paint7_linear_47_740" x1="45" y1="23" x2="78" y2="23" gradientUnits="userSpaceOnUse">
<stop stop-color="white"/>
<stop offset="1" stop-color="white"/>
</linearGradient>
<linearGradient id="paint8_linear_47_740" x1="55" y1="34" x2="79" y2="34" gradientUnits="userSpaceOnUse">
<stop stop-color="white"/>
<stop offset="1" stop-color="white"/>
</linearGradient>
<linearGradient id="paint9_linear_47_740" x1="30" y1="38" x2="52" y2="38" gradientUnits="userSpaceOnUse">
<stop stop-color="white"/>
<stop offset="1" stop-color="white"/>
</linearGradient>
<linearGradient id="paint10_linear_47_740" x1="39" y1="70" x2="46" y2="70" gradientUnits="userSpaceOnUse">
<stop stop-color="white"/>
<stop offset="1" stop-color="white"/>
</linearGradient>
<linearGradient id="paint11_linear_47_740" x1="50" y1="57" x2="67" y2="57" gradientUnits="userSpaceOnUse">
<stop stop-color="white"/>
<stop offset="1" stop-color="white"/>
</linearGradient>
<linearGradient id="paint12_linear_47_740" x1="49" y1="71" x2="59" y2="71" gradientUnits="userSpaceOnUse">
<stop stop-color="white"/>
<stop offset="1" stop-color="white"/>
</linearGradient>
<linearGradient id="paint13_linear_47_740" x1="7" y1="49" x2="27" y2="49" gradientUnits="userSpaceOnUse">
<stop stop-color="white"/>
<stop offset="1" stop-color="white"/>
</linearGradient>
<linearGradient id="paint14_linear_47_740" x1="17" y1="58" x2="36" y2="58" gradientUnits="userSpaceOnUse">
<stop stop-color="white"/>
<stop offset="1" stop-color="white"/>
</linearGradient>
<linearGradient id="paint15_linear_47_740" x1="27" y1="72" x2="39" y2="72" gradientUnits="userSpaceOnUse">
<stop stop-color="white"/>
<stop offset="1" stop-color="white"/>
</linearGradient>
<linearGradient id="paint16_linear_47_740" x1="0" y1="28" x2="18" y2="28" gradientUnits="userSpaceOnUse">
<stop stop-color="white"/>
<stop offset="1" stop-color="white"/>
</linearGradient>
<linearGradient id="paint17_linear_47_740" x1="0" y1="40" x2="17" y2="40" gradientUnits="userSpaceOnUse">
<stop stop-color="white"/>
<stop offset="1" stop-color="white"/>
</linearGradient>
<linearGradient id="paint18_linear_47_740" x1="1" y1="48" x2="13" y2="48" gradientUnits="userSpaceOnUse">
<stop stop-color="white"/>
<stop offset="1" stop-color="white"/>
</linearGradient>
<linearGradient id="paint19_linear_47_740" x1="20" y1="0" x2="38" y2="0" gradientUnits="userSpaceOnUse">
<stop stop-color="white"/>
<stop offset="1" stop-color="white"/>
</linearGradient>
<linearGradient id="paint20_linear_47_740" x1="11" y1="7" x2="29" y2="7" gradientUnits="userSpaceOnUse">
<stop stop-color="white"/>
<stop offset="1" stop-color="white"/>
</linearGradient>
<linearGradient id="paint21_linear_47_740" x1="2" y1="14" x2="17" y2="14" gradientUnits="userSpaceOnUse">
<stop stop-color="white"/>
<stop offset="1" stop-color="white"/>
</linearGradient>
</defs>
</svg>
