<svg width="80" height="80" viewBox="0 0 100 100" fill="none" xmlns="http://www.w3.org/2000/svg">
<path fill-rule="evenodd" clip-rule="evenodd" d="M99.8889 0H-0.111084V100H99.8889V0ZM35.9167 27.7778V72.2222H52.4246C58.7738 72.2222 63.8531 67.1429 63.8531 60.7937V58.254C63.8531 54.6349 62.2023 51.4603 59.6627 49.3651C61.5039 47.3968 62.5833 44.6667 62.5833 41.746V39.2063C62.5833 32.8571 57.504 27.7778 51.1548 27.7778H35.9167ZM52.4246 65.873H42.2659V53.1746H52.4246C55.2818 53.1746 57.504 55.3968 57.504 58.254V60.7937C57.504 63.6508 55.2818 65.873 52.4246 65.873ZM51.1548 46.8254H42.2659V34.127H51.1548C54.0119 34.127 56.2342 36.3492 56.2342 39.2063V41.746C56.2342 44.6032 54.0119 46.8254 51.1548 46.8254Z" fill="#F03603"/>
</svg>
