<svg viewBox="0 0 80 80" width="80" height="80" fill="none" xmlns="http://www.w3.org/2000/svg"><g transform="translate(0.0000, 0.0000) scale(1.000000)">
<path d="M46.8755 2.23596C53.7975 -0.0813941 60.4365 -0.664526 66.0297 0.802184L66.1115 0.82394L66.1602 0.8355L66.1612 0.835725L66.2112 0.850636C67.7754 1.27503 69.2146 1.85022 70.5242 2.56362L70.5781 2.59099L70.5793 2.59155L70.5804 2.59222L70.6211 2.61667C72.4891 3.64894 74.0908 4.96468 75.4148 6.52688L75.4698 6.58734L75.4706 6.58823L75.4713 6.58924L75.5398 6.67595C75.7032 6.87341 75.8623 7.07481 76.017 7.27988L76.0243 7.28707L76.0266 7.28931L76.0283 7.29189L76.0612 7.33844C76.4357 7.83923 76.7841 8.36239 77.1063 8.90671L77.1345 8.94429H77.1285C77.2246 9.10757 77.3184 9.27277 77.4098 9.43991L77.4189 9.45692C77.4204 9.45959 77.4219 9.46236 77.4234 9.46502L77.4509 9.51237H77.4492C77.4715 9.55366 77.4938 9.59527 77.5159 9.63688L77.5339 9.66947C77.6328 9.85639 77.728 10.0457 77.821 10.2372L77.8554 10.306L77.856 10.3073L77.8566 10.3087L77.8616 10.3212C77.9505 10.5066 78.0366 10.6942 78.12 10.8837L78.1333 10.9103L78.1347 10.9135L78.1472 10.9456C78.3995 11.5243 78.6265 12.1221 78.8277 12.7378C78.8452 12.7914 78.8625 12.8453 78.8796 12.8991L78.8825 12.902L78.885 12.9113L78.8949 12.9475C79.0812 13.5388 79.2441 14.1464 79.3833 14.7694L79.391 14.7923L79.3918 14.7949L79.3925 14.7967L79.3929 14.7988L79.4413 15.0284L79.4416 15.0299L79.4473 15.0643C79.4917 15.2756 79.5332 15.4887 79.5721 15.7035L79.5796 15.737H79.5872V15.7866C79.7055 16.452 79.7978 17.1337 79.8641 17.8307L79.8647 17.8357L79.8649 17.8379V17.8392C79.9305 18.5317 79.9704 19.2394 79.9841 19.9613L79.9855 19.9756L79.9857 19.9775V19.9792L79.9892 20.0154H79.9857L79.9856 20.0582C79.9907 20.3759 79.9908 20.6963 79.9856 21.0194V21.0812L79.9855 21.0831V21.1154H79.9841C79.9704 21.8459 79.9307 22.5898 79.865 23.3463V23.3634H79.8636C79.7689 24.4474 79.6206 25.5573 79.4179 26.6903L79.3933 26.8381L79.393 26.8392L79.3601 27.0068C78.8982 29.4756 78.1792 32.0521 77.195 34.7096L77.1566 34.8209L77.1307 34.8957L77.0959 34.8357C77.0901 34.8305 77.086 34.8235 77.0845 34.816L76.3783 33.5946L75.6537 32.3627L74.903 31.1583L74.8833 31.1274L74.113 29.942L74.108 29.9344L73.2986 28.7257L72.8157 28.0376L72.4656 27.5303L72.4552 27.5159L71.596 26.3462L71.0886 25.6695L70.7139 25.1617L70.7048 25.1492L70.7072 25.135C70.7073 25.1347 70.7073 25.1343 70.7073 25.1339L70.8155 24.4962V24.4729L70.8159 24.4704L70.9004 23.8659L70.9675 23.3634H70.9649L70.9734 23.32L70.9769 23.3029L70.9852 23.2607L71.0452 22.6587L71.0454 22.6564L71.0814 22.0679L71.1175 21.501L71.1296 20.9333L71.1297 20.9282V20.8977L71.1417 20.3913L71.1307 20.0154L71.1298 19.9827L71.1297 19.9802V19.86L71.1055 19.3403L71.0721 18.9398H71.0692V18.9066L71.0691 18.905V18.8455L71.0213 18.3527L70.9609 17.8939L70.8887 17.4357L70.8261 17.0498L70.8164 16.99L70.7687 16.8226L70.7682 16.821L70.7678 16.8193L70.7196 16.5655L70.6235 16.1698L70.6222 16.165L70.5227 15.8337H70.5137V15.8031L70.5136 15.7974L70.5135 15.7787L70.3946 15.41L70.2737 15.0475L70.1781 14.8203L70.1774 14.8191L70.1771 14.8177L70.1414 14.7108L69.9974 14.3864L69.8549 14.0778L69.8528 14.0732L69.8495 14.0668L69.6963 13.7719L69.5401 13.4835L69.3721 13.2072L69.1913 12.9418L69.0108 12.6892L68.6371 12.2069L68.2278 11.7733L67.9274 11.4971L67.6155 11.2209L67.2783 10.9558L66.9655 10.7401L66.9297 10.7153L66.6531 10.5366L66.5564 10.4743L66.3283 10.3543L66.3272 10.3536L66.1581 10.2572L65.7376 10.0407L65.2931 9.8485L64.8231 9.66762L64.8215 9.66701L64.4504 9.5593L64.4493 9.55899L64.4481 9.55858L64.3181 9.51124L63.7864 9.36613L63.2327 9.23369L62.6426 9.11323L62.6006 9.10661L62.0273 9.01664L61.3759 8.94418L60.6897 8.89595L59.9801 8.87194H59.2344L58.4693 8.88383L57.6733 8.94418L57.2817 8.97885L56.852 9.01687L56.0204 9.11312L55.1514 9.24593L54.27 9.41522L53.3646 9.60839L53.3608 9.60921L52.4416 9.82421L52.4353 9.82575L51.4937 10.0793L50.5408 10.3567L50.5056 10.368L49.5633 10.6706L48.5847 11.0212L47.8365 11.3109L47.6044 11.3993L47.5829 11.4076L46.5811 11.8179L45.5686 12.2522L45.5672 12.2528L44.5402 12.7242L43.5263 13.2252L43.5151 13.2311L43.5071 13.2352L42.476 13.7624L41.4371 14.3185L40.3986 14.8984L39.3604 15.5142L38.6359 15.9612L38.3092 16.155L38.035 16.3302L37.2712 16.8189L37.2694 16.8201L37.0673 16.963L37.0664 16.9636L36.2454 17.507L36.2256 17.5209L35.557 17.9905L35.2062 18.2323L34.1798 18.9693L34.1781 18.9705L33.2041 19.7013L33.1656 19.7302L32.6827 20.1045L32.1512 20.5155L31.3974 21.1274H31.3999L31.3222 21.1885L31.3181 21.1918L31.1485 21.3252L30.1593 22.1577L29.1811 23.0154L28.2194 23.8933L28.215 23.8976L27.2604 24.7798L26.3308 25.6978L26.3188 25.7095L25.4007 26.6282L24.5075 27.5696L24.0606 28.0533L23.6223 28.5154L23.6134 28.525L22.7566 29.5026L21.912 30.4802L21.9025 30.4945H21.9001L21.0776 31.4844L20.933 31.6651L20.2686 32.487L19.967 32.885L19.5401 33.4436L19.4959 33.5017L18.7352 34.5159L17.9986 35.5428L17.2858 36.5702L16.5979 37.6085L15.9565 38.6117L15.9336 38.6474L15.9273 38.6576L15.3087 39.6811L15.3057 39.6862L14.9432 40.3026L14.6895 40.7258L14.6871 40.7298L14.2431 41.5464L14.2423 41.5479L14.1105 41.7634L14.1003 41.783L13.579 42.7906L13.5764 42.7958L13.5723 42.7998L13.5647 42.8071L13.048 43.8408L12.9635 44.0222L12.565 44.8674L12.1084 45.8892L11.8525 46.4867L11.6715 46.9085L11.6712 46.9096L11.2878 47.9042L11.2855 47.9107L10.913 48.896L10.9131 48.9136L10.9132 48.9501H10.9024L10.5726 49.8926L10.5004 50.1328L10.271 50.8586L10.1383 51.329L9.9932 51.813L9.82434 52.4643L9.75201 52.7422L9.56912 53.5307L9.5588 53.5757L9.53459 53.6726L9.35361 54.5654L9.19685 55.4458L9.19594 55.4519L9.07619 56.3036L9.07395 56.3229L9.01575 56.8584L8.98032 57.1303L8.97964 57.1357L8.91976 57.9387L8.91965 57.9401V57.9422L8.91976 57.9784H8.9173L8.8711 58.7301L8.87099 58.7318V58.8488L8.8711 58.9696V59.006L8.85899 59.4902L8.8711 59.9961V60.2146L8.90721 60.9114L8.91562 60.9881L8.91932 61.0201L8.91943 61.0212L8.96754 61.5883L9.02786 62.0103L9.02797 62.0114L9.05141 62.2233L9.05208 62.2281L9.16018 62.8421L9.28083 63.4332L9.40956 63.9719L9.41381 63.9888L9.56969 64.505L9.69415 64.8557H9.69527L9.70133 64.876L9.70267 64.8797L9.70324 64.8815L9.73564 64.9898L9.73889 65.0007L9.91976 65.4587L10.124 65.8913L10.3284 66.3123L10.5453 66.6742L10.5505 66.6828V66.706L10.6328 66.8296L10.7853 67.0582L11.0388 67.4085L11.3021 67.7318L11.5794 68.0334L11.8679 68.3341L11.8816 68.3466L12.1658 68.6083L12.1687 68.6109L12.482 68.8761L12.8183 69.1286L13.1225 69.3276H13.124L13.1338 69.3349L13.1638 69.3575L13.1799 69.3696L13.564 69.5978L13.667 69.6524L13.9737 69.8148L14.3957 70.0199L14.8507 70.2114L14.8532 70.2124L15.2142 70.348L15.3348 70.3932L15.799 70.537L15.8396 70.5496L16.3831 70.6945L16.9487 70.8148L17.5512 70.9233L17.8016 70.9592H17.8027L17.8056 70.9598L18.18 71.0201L18.7223 71.0694L18.8411 71.0801L19.1739 71.1035L19.5287 71.1284L20.2531 71.1525L21.0009 71.1405L21.7847 71.1044L22.5811 71.056L23.4127 70.9717L24.2577 70.851L25.1235 70.7065L25.1263 70.7061L25.1424 70.7028L25.1554 70.7126L25.176 70.7283L25.2036 70.749L25.339 70.8506L25.3464 70.8561L25.3486 70.8577L25.35 70.859L25.3621 70.869L25.6536 71.0891L25.6761 71.1043L25.6839 71.1094L25.6853 71.1105L25.687 71.1116L25.7253 71.1405H25.7497V71.1588L25.8216 71.2131H25.8177L26.3314 71.6012L26.339 71.6068L26.353 71.617L27.5225 72.4647L27.9745 72.7844L28.5611 73.1896L28.5626 73.1907L28.7179 73.3102L29.5632 73.8659L29.5642 73.8665L29.9256 74.1196L29.9725 74.15L31.1458 74.9051L31.1687 74.9193L31.4956 75.1225L32.365 75.666L32.3717 75.6699L33.5969 76.3909L33.6249 76.4071L33.715 76.4586L34.809 77.0923C34.8191 77.0903 34.8295 77.093 34.8374 77.099H35.02L34.8967 77.143L34.8234 77.1696L34.485 77.2904L34.4793 77.2923L34.2918 77.3581C34.0262 77.454 33.7615 77.5474 33.4975 77.638L33.2527 77.7254L33.247 77.7274L32.3577 78.0158L32.0318 78.1245L32.0306 78.1248L31.3752 78.3198H31.4099L31.136 78.3909L30.9247 78.4457C30.6101 78.535 30.2968 78.6199 29.985 78.7014L29.9275 78.7173L29.8546 78.7354C29.6399 78.7909 29.4259 78.8445 29.2127 78.8962L29.0042 78.9484H29.0401L28.7216 79.019L28.7186 79.0198L28.7176 79.02L28.5057 79.0671L28.3915 79.0924L27.5332 79.2739L27.5321 79.2741L27.2533 79.3239C27.0272 79.3676 26.8021 79.4094 26.5779 79.4489L26.3484 79.4916L26.3468 79.4918L26.2319 79.5082C25.9399 79.5569 25.6495 79.6019 25.3606 79.6434L25.1756 79.673L25.1738 79.6732L25.0307 79.6891C24.8239 79.7169 24.6179 79.7429 24.4128 79.767L24.0268 79.8181L24.0258 79.8182L24.0246 79.8183L24.0047 79.8197L23.7667 79.8368C23.5352 79.8596 23.3047 79.88 23.0756 79.8981L22.8894 79.9152L22.5263 79.9393L22.3063 79.9499C22.1434 79.959 21.9812 79.967 21.8196 79.9736L21.7762 79.9757H21.7669L21.7616 79.9758C21.4101 79.9896 21.0617 79.9974 20.7163 79.9994L20.7 79.9997L20.6431 79.9998C20.3434 80.0008 20.046 79.9975 19.7509 79.9897L19.5872 79.9877L19.5858 79.9876L19.4734 79.9809C19.2976 79.9746 19.1226 79.9668 18.9485 79.9573L18.523 79.9394L18.5207 79.9392L18.2946 79.9153H18.2935L18.2918 79.9152L18.1618 79.9034C18.0408 79.8934 17.9202 79.8826 17.7999 79.871L17.4849 79.8427H17.4837L17.482 79.8424L17.2403 79.8182L17.239 79.8181L16.4576 79.7099H16.4559L16.4533 79.7094L16.2146 79.6734H16.2136L16.2105 79.6728L15.4616 79.5399L15.2191 79.4915L14.4818 79.3342L14.48 79.3338L14.2508 79.2735L13.5379 79.0921L13.5365 79.0916L13.4542 79.0671L13.2949 79.0193L13.2908 79.018L13.0581 78.9484H13.0703L12.6114 78.8033H12.6097L12.6033 78.8008L12.3962 78.7202C12.2647 78.6747 12.1342 78.6277 12.0044 78.5798L11.7163 78.4769L11.7093 78.4744L11.4918 78.3899L10.8389 78.1236L10.8372 78.123L10.8357 78.1221L10.6319 78.0143L10.0037 77.7242L10.0022 77.7234L10.0006 77.7225L9.83645 77.6261C9.73191 77.5721 9.62817 77.517 9.52506 77.4612L9.1927 77.2883L9.19113 77.2874L8.9857 77.1666L8.40542 76.816L8.4034 76.8146L8.10389 76.6055C8.00875 76.542 7.91434 76.4775 7.82065 76.4122L7.65559 76.3078L7.65436 76.3069L7.65301 76.3061L6.94008 75.7622L6.89208 75.726L6.89118 75.7253L6.8904 75.7246L6.6057 75.4829C6.55424 75.4398 6.50311 75.3962 6.45219 75.3525L6.25012 75.1809L6.24856 75.1796L6.16199 75.0975C6.03566 74.9838 5.91101 74.8683 5.78815 74.7507L5.59662 74.5756L5.59561 74.5747L5.59472 74.5736L5.41946 74.3871C5.17824 74.1418 4.94415 73.8888 4.7175 73.6281L4.48248 73.3643L4.48125 73.3629L4.38459 73.242L3.84053 72.5407L3.83839 72.5378L3.83682 72.5347L3.82515 72.5116L3.78176 72.4496C3.67081 72.2964 3.56203 72.1411 3.45557 71.9835L3.33089 71.8053L3.32068 71.7906L3.32 71.7898L3.31911 71.7886L3.23444 71.6556L3.22649 71.6429L3.19913 71.5998L2.95637 71.2079L2.95546 71.2065L2.95479 71.2048L2.95277 71.2009L2.94268 71.1809L2.93327 71.1619C2.92555 71.149 2.91773 71.1362 2.91005 71.1233L2.87428 71.0787L2.87092 71.0744L2.8689 71.0694L2.84905 71.0198C2.84422 71.0116 2.8394 71.0033 2.83459 70.9951L2.82416 70.9793L2.82337 70.9781L2.8227 70.9768L2.78928 70.9169C2.77391 70.8901 2.75856 70.8634 2.74331 70.8366L2.69027 70.7482L2.6896 70.7471L2.68892 70.7458L2.66269 70.6934C2.63202 70.6383 2.60148 70.5832 2.5713 70.5277L2.52129 70.4465L2.52073 70.4455L2.52016 70.4445L2.43371 70.2823L2.42654 70.2687L2.42363 70.2634L2.42306 70.2624L2.40904 70.2343L2.39884 70.2142L2.32663 70.0691L2.32484 70.0655L2.30038 70.0164H2.30174L2.2746 69.9588C2.22929 69.8681 2.18463 69.7768 2.1406 69.685L2.13107 69.6659L2.12322 69.6503L2.12109 69.6459L2.09485 69.5936H2.09631L2.01299 69.4179L1.99046 69.384L1.98844 69.3811L1.98799 69.3802L1.95311 69.3276H1.96646L1.90276 69.1727L1.82405 68.989C1.81293 68.9632 1.80167 68.9374 1.79063 68.9116L1.67289 68.6524L1.67245 68.6511L1.62468 68.5197L1.57366 68.3969H1.57221L1.56357 68.373L1.56268 68.3707L1.54349 68.3245H1.54608L1.45491 68.0708L1.44179 68.0343C1.40723 67.9411 1.37313 67.8474 1.33975 67.7531L1.2865 67.6253L1.28559 67.6229L1.22504 67.4416L1.11605 67.0904L0.99562 66.7284L0.993714 66.7228V66.6975L0.95615 66.5567C0.911954 66.4035 0.869114 66.249 0.82787 66.0934L0.777636 65.9171L0.777299 65.9159L0.75319 65.8192L0.752854 65.8182L0.728073 65.702C0.67268 65.4766 0.620528 65.2495 0.571649 65.0208L0.536103 64.9023L0.53543 64.8999L0.535094 64.8976L0.49383 64.6421C0.451702 64.4279 0.412416 64.2123 0.375867 63.9954L0.366448 63.9579L0.355234 63.9129H0.359832L0.342563 63.7921C0.314936 63.6194 0.288995 63.4458 0.264856 63.2714L0.2209 63.0001L0.220676 62.9988L0.220563 62.9974L0.208453 62.8529L0.199819 62.7649C0.155458 62.3897 0.119052 62.0108 0.0903784 61.6286L0.0875751 61.5946L0.0858932 61.5681C0.0737953 61.4019 0.0630962 61.235 0.0539355 61.0676L0.0513565 61.0266L0.0512443 61.0254V61.0156C0.0337087 60.6839 0.0220271 60.3496 0.0159227 60.0132L0.0150257 59.999V59.9707C-0.00669354 58.671 0.0563118 57.3368 0.201277 55.9754L0.220563 55.7636L0.220788 55.7615L0.238281 55.6435C0.27398 55.3354 0.313834 55.0258 0.357813 54.7151L0.358374 54.7101C0.408317 54.3575 0.463708 54.0033 0.524217 53.6475L0.534869 53.5625L0.534982 53.5615L0.535207 53.5604L0.605737 53.1855C0.633158 53.0349 0.661677 52.8841 0.690958 52.733L0.692191 52.7264L0.692415 52.7254C0.859797 51.8628 1.0574 50.9918 1.28459 50.1142L1.2848 50.1131L1.28514 50.1119C1.59059 48.9323 1.94928 47.7404 2.35994 46.5406L2.37002 46.5086H2.36733L2.38527 46.4599L2.39278 46.4362H2.39402L2.42912 46.3402C2.69065 45.586 2.97257 44.8288 3.27448 44.0693L3.30375 43.9938L3.30464 43.9915L3.31002 43.9799C3.36717 43.8368 3.42493 43.6936 3.48349 43.5505C6.80107 35.4396 12.3839 27.1086 19.7455 19.7444L20.0914 19.4005C20.2146 19.2786 20.3382 19.1574 20.4619 19.0365H20.4544L20.5081 18.9916C24.5302 15.0699 28.824 11.6749 33.2008 8.88394H33.1114L33.2967 8.8227C33.6907 8.57232 34.0856 8.32704 34.4807 8.08652H34.4774L34.4967 8.07675C34.9043 7.82885 35.3124 7.5863 35.721 7.34899L35.7246 7.34685C38.3279 5.8348 40.9475 4.53887 43.5447 3.47569C44.6597 3.01924 45.7708 2.60594 46.8745 2.23641L46.8755 2.23596ZM53.7788 13.9482C53.7901 13.9368 53.8072 13.9339 53.8211 13.9412L53.8273 13.9452L54.1782 14.2306C68.9956 26.3515 79.1185 43.3777 79.9454 57.6287L79.9632 57.9643C80.0553 59.8869 79.9736 61.708 79.7281 63.4173H79.7302L79.7251 63.4368C79.5855 64.4046 79.3932 65.3367 79.15 66.2311L79.1495 66.2336H79.1618L79.1382 66.2812L79.138 66.2822L79.1362 66.286L79.1336 66.291C78.7081 67.8386 78.13 69.273 77.4087 70.585L77.397 70.6113L77.3954 70.6151L77.3929 70.6184L77.3831 70.6315C77.3062 70.7703 77.2277 70.9079 77.1476 71.0439H77.1504L77.1186 71.0964L77.1101 71.1166H77.1066L77.0969 71.1327L77.0921 71.1405H77.112L77.1136 71.1406L77.0561 71.1976C76.9544 71.3665 76.8502 71.5331 76.7436 71.6976L76.6938 71.7764L76.4276 72.1758L76.4271 72.1768L76.4263 72.1776L76.3432 72.2884C76.2307 72.4472 76.1157 72.604 75.9984 72.7583L75.8952 72.902L75.8946 72.903L75.8937 72.904L75.6951 73.1458C75.5987 73.2654 75.5006 73.3833 75.4011 73.5001L75.3137 73.6052L75.3125 73.6067L75.2653 73.6575C75.1154 73.8291 74.9622 73.9976 74.8056 74.1629L74.7088 74.271L74.4048 74.575L74.0664 74.9013L74.0654 74.9023L73.9045 75.0453C73.6443 75.2816 73.3767 75.5103 73.1013 75.7308L73.0494 75.7735L72.6867 76.0638L72.6857 76.0645L72.6847 76.0652L72.3409 76.3061C72.1334 76.454 71.9221 76.5978 71.707 76.7374L71.5727 76.8271L71.1733 77.0812L71.1724 77.0818L70.7851 77.3L70.6136 77.3928C70.5366 77.4354 70.4593 77.4773 70.3815 77.5188L70.3616 77.5297L70.3494 77.5359C70.2017 77.6142 70.0527 77.691 69.9021 77.7657L69.5269 77.9535L69.5254 77.9541L69.1144 78.1354L68.6672 78.3289L68.666 78.3295L68.231 78.4986L68.1873 78.5147C68.0524 78.566 67.9166 78.6161 67.7796 78.6649L67.7712 78.668L67.7699 78.6686L67.7632 78.6707C67.5 78.7643 67.2328 78.8531 66.9621 78.937L66.8643 78.9705L66.8624 78.9711L66.6767 79.0234C66.5142 79.0713 66.3505 79.1175 66.1855 79.162L65.9201 79.237L65.9183 79.2374L65.7164 79.2828C65.5436 79.3253 65.3695 79.3661 65.194 79.4049L64.9401 79.4669L64.9389 79.4672L64.9376 79.4674L64.7785 79.4946L64.716 79.5053C64.5013 79.5481 64.2847 79.5882 64.0662 79.6254L63.9476 79.6486L63.946 79.6488L63.9442 79.6493L63.7822 79.6723C63.5337 79.7118 63.2828 79.7475 63.0295 79.7799L62.931 79.794L62.9285 79.7943H62.9269L62.7534 79.8136C62.6676 79.8237 62.5815 79.8333 62.4951 79.8424L62.3864 79.8546L61.8904 79.9029L61.8891 79.9031L61.7247 79.9132C61.522 79.929 61.3178 79.9425 61.1123 79.954L60.8262 79.9756L60.8249 79.9757H60.8179L60.5028 79.9812C60.2896 79.9884 60.075 79.9934 59.859 79.996L59.7375 79.9997L59.7359 79.9998L59.5941 79.9982C59.3089 79.9991 59.0213 79.9958 58.7312 79.9888L58.6364 79.9877L58.2288 79.9757H58.2243L57.5157 79.9395H57.5118L57.5105 79.9394L57.1901 79.9146C57.0935 79.9077 56.9968 79.9004 56.8998 79.8927L56.3749 79.8547L56.3732 79.8546L56.009 79.81C55.8187 79.7899 55.628 79.7682 55.4369 79.745L55.2257 79.7216L55.2247 79.7214L54.9279 79.6799C54.8818 79.6736 54.8358 79.6671 54.7896 79.6606L54.7053 79.6489L54.6819 79.6455C54.5201 79.6225 54.358 79.5986 54.1958 79.5734L54.0564 79.5527H54.0549L54.0521 79.5523L53.5205 79.4674L52.8673 79.3465L52.583 79.2883C52.4285 79.2579 52.2739 79.2267 52.1191 79.1943L51.6705 79.1046L51.6691 79.1043L51.3023 79.0146C51.0662 78.9604 50.8296 78.9039 50.5926 78.8454L50.4611 78.8143L50.2602 78.7618C50.1186 78.7256 49.9768 78.6888 49.835 78.6511L49.2521 78.5L49.2509 78.4996L48.6832 78.3304L48.0189 78.1372L47.4557 77.9573L47.4497 77.9555L47.4308 77.9493L47.2286 77.8848H47.2336L46.7853 77.7379L46.7842 77.7376L46.4868 77.6299C46.3031 77.5668 46.1194 77.5021 45.9355 77.4366L45.5404 77.3027L45.5391 77.3023L44.9715 77.0845L44.295 76.8307L44.2937 76.8303L43.7871 76.6192C43.7127 76.5891 43.6381 76.5591 43.5637 76.5285L43.0496 76.323L43.0486 76.3226L42.469 76.0688L41.7924 75.7787L41.7911 75.7782L41.4248 75.6026C41.2718 75.5328 41.1188 75.4619 40.9657 75.3906L40.5354 75.1984L40.534 75.1977L39.9538 74.9077L39.2779 74.5815L39.2768 74.581L38.6969 74.2789L38.0203 73.9284L37.4399 73.6139L36.7833 73.2557L36.7746 73.2509L36.7697 73.2481L36.6507 73.1832H36.6561L36.1911 72.9172L36.1823 72.9122L36.1744 72.9076L36.0643 72.8447H36.0663L35.5179 72.5256L34.9464 72.192L34.9375 72.1868L34.9312 72.1831L34.8223 72.1196H34.8253L34.2725 71.7877L33.7015 71.4307L33.6923 71.4251L33.6614 71.4056L33.5856 71.3582L33.3662 71.2195L33.3629 71.2173L33.3599 71.2146L33.3512 71.2058L33.3366 71.1971L33.2943 71.1716L33.2065 71.1166L33.197 71.1109L33.064 71.0261L33.0453 71.0136L33.027 71.0014L32.882 70.9047L32.6772 70.7722L32.6674 70.7657L32.5744 70.7054H32.5771L32.5125 70.6623C32.4639 70.6307 32.4154 70.5987 32.367 70.5669L32.1215 70.4097L31.7948 70.1916L31.7918 70.1898L31.7794 70.1773L31.6192 70.0689C31.527 70.0067 31.4348 69.9442 31.3427 69.8815L31.0063 69.6539L30.9968 69.6476L30.9836 69.6385L30.8994 69.5815L30.574 69.3575L30.5474 69.3397L30.5371 69.3328L30.4387 69.2673H30.4466L30.1656 69.0634C29.9345 68.8996 29.7038 68.7343 29.4738 68.5673L29.3542 68.4875L29.3526 68.4865L28.9782 68.2084L28.3979 67.7733L28.145 67.5925L28.1436 67.5914L27.7931 67.3134L27.1654 66.8303L27.1644 66.8296L27.058 66.7419C26.8884 66.6085 26.7189 66.4746 26.5499 66.3395L26.5126 66.3102L25.8358 65.7663L25.7753 65.7179L25.6949 65.6534H25.6974L25.1466 65.1978L24.6027 64.7383L24.4456 64.6054L24.0897 64.2916C23.9461 64.1672 23.8028 64.0421 23.6597 63.9165L23.4551 63.7475L23.4536 63.7463L23.059 63.3834C22.9691 63.3029 22.8793 63.2222 22.7899 63.1413L22.3183 62.7192L22.2566 62.6573L22.038 62.4531C21.6479 62.0917 21.2606 61.7258 20.8762 61.3556L20.7711 61.2562L20.6347 61.1221C20.1944 60.6945 19.7579 60.261 19.3255 59.8219L19.018 59.5143L18.4865 58.9585L17.9776 58.4257L17.9667 58.4145L17.7251 58.1607L16.9644 57.3273L16.9284 57.291L16.9275 57.2902L16.5803 56.8956C16.397 56.6905 16.2146 56.4843 16.0332 56.2771L15.9121 56.1413L15.4646 55.6213L15.4239 55.5733C15.2899 55.4167 15.1565 55.2595 15.0236 55.1017L14.9207 54.9804L14.8701 54.9208L14.7154 54.7388L13.989 53.8572H13.9867L13.9759 53.8411L13.9515 53.8047L13.9425 53.7911L13.9467 53.7753L14.0917 53.2315L14.1764 52.8927L14.2368 52.6751L14.4062 52.1064L14.5842 51.5486L14.5877 51.5375L14.5918 51.5245L14.7414 51.0652L14.7569 51.0173L14.7781 50.9539L14.781 50.9451L14.9743 50.3648L15.1921 49.7597L15.4334 49.1563L15.445 49.1105L15.4455 49.1079L15.4465 49.1055L15.6761 48.5495L15.8451 48.127L15.8454 48.1259L15.9299 47.9326L16.1958 47.3162L16.2682 47.1472L16.2688 47.1458L16.4862 46.6865L16.4882 46.6821L16.7045 46.2064H16.702L16.7282 46.154L16.7605 46.0896L16.7765 46.0573L16.7866 46.0373L17.2262 45.1579L17.4048 44.8004L17.7436 44.159L17.771 44.107L17.805 44.155L17.8079 44.159L18.5144 45.1536L18.5176 45.1578L19.2419 46.1481L19.6527 46.6799L19.9925 47.1252L20.0033 47.1392L20.7758 48.1175L21.573 49.0963L22.3818 50.0621L22.8656 50.6094L23.1548 50.9323L23.1556 50.9332L23.2161 51.0056L23.217 51.0069L24.0607 51.9472L24.9299 52.8772L25.256 53.2154L25.7876 53.7593L25.79 53.7617L25.7918 53.7645L25.814 53.7977L26.717 54.6891L26.9706 54.9307L27.6349 55.5711L27.6425 55.5782L28.5579 56.4225L28.5649 56.4289L29.5069 57.2745L29.5081 57.2755L29.591 57.338H29.5796L30.4604 58.1077L31.4169 58.8972L31.4267 58.9052L32.4054 59.6907L33.3855 60.4441L33.3962 60.4521L33.403 60.4576L34.3847 61.2001L34.9768 61.6109L34.9776 61.6115L35.3875 61.913L36.3902 62.6019L37.3929 63.2786L38.4063 63.9184L39.4208 64.5466L39.6615 64.6789L39.6626 64.6794L39.7848 64.7468H39.7758L40.4348 65.1383L41.3653 65.6579L41.4501 65.7065L42.4633 66.2496L43.152 66.6001L43.4618 66.7669L43.4665 66.7694L44.4678 67.2522L45.4579 67.7112L46.4477 68.1458L46.4586 68.1502L47.4353 68.5433L47.4378 68.5444L48.4044 68.919L48.5971 68.989L49.369 69.2689L50.3227 69.583L51.2523 69.8607L52.1699 70.1144L52.1756 70.1158L52.218 70.1264L53.0747 70.3437L53.9688 70.5371L54.8339 70.7054L54.8367 70.7059L55.6817 70.8387L56.3824 70.9354L56.384 70.9355L56.5162 70.9597L57.3106 71.0439L58.096 71.1044L58.1267 71.1058L58.856 71.1406L59.5852 71.1526H59.5905L60.3036 71.1405H60.3085L60.9775 71.1044L61.6403 71.0442L62.2556 70.9598L62.5904 70.9051L62.846 70.8632L63.4126 70.7428L63.9441 70.6098L63.9463 70.6091L64.4609 70.4535L64.838 70.3278L64.9315 70.2966L65.388 70.1164L65.8231 69.923L66.2308 69.719L66.6165 69.5017L66.9766 69.2739L67.1583 69.1441L67.3148 69.0323L67.3713 68.987L67.414 68.9529H67.4084L67.4953 68.8877L67.6381 68.7806L67.9393 68.5155L68.2286 68.2383L68.2304 68.2363L68.5058 67.949L68.7706 67.6479L69.023 67.3232L69.2637 66.986L69.4913 66.6263L69.7089 66.2516L69.9123 65.8446L70.0932 65.4225L70.2739 64.9646L70.443 64.4812L70.5874 63.9755L70.7318 63.446L70.7511 63.3449L70.8403 62.8787L70.9006 62.5171L70.9009 62.5158L70.9488 62.2753L71.0212 61.6486L71.0215 61.6451L71.0814 60.9975L71.1296 60.3221L71.1417 59.6229L71.1297 58.8862L71.1056 58.1265L71.1055 58.1248L71.048 57.4106H71.0452V57.3772L71.0451 57.3758V57.3527L71.0199 57.1112L70.9607 56.5451L70.9601 56.5404L70.9246 56.3039L70.8528 55.7287L70.8522 55.7241L70.8503 55.7124L70.7075 54.8673L70.5385 53.9978L70.3458 53.1183L70.3456 53.1172L70.3094 52.9843L70.116 52.2107L70.1116 52.1943L69.8644 51.2881L69.8623 51.2804L69.5852 50.3521L69.3192 49.5538L69.2712 49.3976L68.9297 48.4668H68.9276L68.9204 48.4419L68.5587 47.4647L68.4264 47.1638L68.4259 47.1624L68.1619 46.4904L68.1601 46.486L67.7258 45.4965L67.2671 44.4939L66.8059 43.5477H66.802L66.7938 43.5226L66.7827 43.4888L66.2779 42.4905L66.1691 42.3091L66.1686 42.3081L65.7338 41.4747L65.5044 41.0758L65.1663 40.46L65.1413 40.4184L64.5623 39.4569L64.5507 39.4381L64.0656 38.6526L64.0549 38.6354L64.0209 38.5801H64.024L63.9466 38.4425L63.2964 37.4306L63.287 37.4212L63.2845 37.4187L63.2826 37.4158L62.6183 36.425L61.9302 35.4227L61.604 34.9755L61.2093 34.4251L61.2052 34.4194L60.7102 33.7552L60.4689 33.4294L59.696 32.4386L58.9214 31.4733L58.9176 31.4686L58.9109 31.4602L58.1141 30.4938L58.1117 30.491L57.8355 30.1801L57.8238 30.1672L57.82 30.1628L57.771 30.1075H57.7733L57.2968 29.5441L57.2924 29.539L57.2883 29.5344L56.4476 28.5972L55.7226 27.8116L55.7215 27.8104L55.5887 27.6534L54.7083 26.7365L54.6243 26.6522L53.8151 25.8308L52.9141 24.9534L52.9091 24.9486L52.3049 24.3685L51.9918 24.0672L51.0961 23.2668H51.0949L51.0843 23.2562L51.0486 23.2204L50.0954 22.3756L50.0903 22.3711L49.1417 21.5664L49.1291 21.556L48.166 20.7712L48.1632 20.769L47.1855 19.996L46.1947 19.2468L46.1848 19.2392L45.2042 18.5095L44.3475 17.9181L44.3463 17.9173L44.2055 17.8115L44.2022 17.8092L44.1541 17.7756L44.1561 17.7744L44.2059 17.7475L44.8342 17.4091L45.4751 17.0825L45.8214 16.9093H45.7939L45.9597 16.8401L45.961 16.8395L46.1047 16.7796L46.7326 16.4778L47.3495 16.1995L47.9657 15.9214L47.9668 15.9209L48.5798 15.6683L48.583 15.6671L49.1868 15.4133L49.1878 15.413L49.7798 15.1836L50.1809 15.036H50.1501L50.3699 14.9663L50.3724 14.9656L50.9651 14.7599L50.9662 14.7595L51.546 14.5783L52.1137 14.397L52.1151 14.3966L52.6829 14.2396L53.2385 14.0824L53.2398 14.0821L53.7588 13.9493L53.7632 13.9482H53.7788ZM62.2572 44.1591L62.5956 44.7997L62.9219 45.4407L63.2244 46.0699L63.5118 46.693L63.5192 46.7004L63.5817 46.7623H63.5502L63.8046 47.3154L64.0708 47.9326L64.3365 48.549L64.3369 48.55L64.5696 49.1435H64.5731L64.5792 49.1683L64.8083 49.7589L65.0261 50.364L65.0296 50.3745L65.2317 50.9567L65.4251 51.5372L65.4614 51.6459L65.6021 52.0919L65.6062 52.1052L65.6069 52.1071L65.7638 52.6744L65.8119 52.8312L65.8123 52.8323L65.921 53.2311L65.9213 53.2322L66.0485 53.7646C66.0595 53.7747 66.0629 53.7902 66.0579 53.8037L66.0582 53.8052L66.0564 53.8073C66.0552 53.8097 66.0539 53.8119 66.0522 53.814C66.0452 53.8227 66.038 53.8315 66.0309 53.8402L65.8783 54.0365L65.8775 54.0375L65.5114 54.4758C64.8058 55.3301 64.0813 56.1718 63.3389 56.9996L63.2431 57.1081L63.2423 57.1091L63.212 57.1406C62.6311 57.7854 62.0394 58.4217 61.4376 59.0487L61.2728 59.224L61.2722 59.2248L61.1456 59.3514C59.8443 60.6936 58.4968 61.9928 57.1096 63.2421L57.1075 63.2465L57.1022 63.2512L56.928 63.4053C56.7061 63.604 56.4831 63.8014 56.2593 63.9975L56.1601 64.0847L56.0967 64.1426H56.1076L56.0274 64.2056L56.017 64.215H56.0154L55.9558 64.2619C55.7196 64.4668 55.4821 64.6702 55.2437 64.8722L55.0479 65.0404L55.0471 65.0411L54.9834 65.0918C54.5993 65.4147 54.2124 65.7338 53.8231 66.0488L53.8165 66.0547L53.8019 66.0681L53.7827 66.063L53.7666 66.0586L53.243 65.9192L53.2393 65.9181L52.6833 65.773L52.1151 65.6158L52.1137 65.6154L51.5458 65.4341L51.1588 65.305L50.9656 65.2406L50.3737 65.0474L50.3724 65.0469L49.7805 64.8292L49.1759 64.5994L49.1747 64.599L48.5774 64.3479L48.571 64.3454L48.2514 64.215L48.2443 64.2122L47.9684 64.0922L47.9665 64.0914L47.357 63.8284L47.35 63.8253L46.7209 63.5349L46.7163 63.5328L46.136 63.2603H46.1332L46.1267 63.2559L46.1239 63.2542L46.1058 63.242L46.0898 63.2312L45.4639 62.9305L45.4629 62.9298L44.8345 62.6035L44.2064 62.2771L44.187 62.2671L44.1868 62.2454L44.1867 62.2333L44.1866 62.2144L44.202 62.2036L45.3784 61.3628H45.377L45.4479 61.313L45.4705 61.2969L46.7026 60.3814L46.7386 60.3547L46.741 60.3527L47.994 59.3766L49.2378 58.3616L50.458 57.3105L51.6649 56.236L51.9426 55.9703L52.8367 55.124L53.0279 54.9328H53.0263L53.0822 54.8783L53.0897 54.871L53.1003 54.8603L53.9602 54.0236L53.9962 53.9883L54.6853 53.2769L54.7447 53.2155L54.755 53.2045L55.1312 52.8167L55.2757 52.6602L55.795 52.0922L56.2305 51.6324L57.3043 50.4255L57.3646 50.3532L57.8845 49.7483L58.3457 49.216H58.3438L58.3911 49.157L58.4012 49.1435L58.8865 48.5407L59.3699 47.9604L59.3921 47.9269L59.3928 47.9257L59.3938 47.9246L59.877 47.3082L60.314 46.7477L60.3481 46.7039L61.2894 45.4362L62.1957 44.1551L62.2297 44.1069L62.2572 44.1591ZM14.6785 0.631679C19.1748 -0.395148 24.4489 -0.169286 30.1473 1.33914L30.261 1.3664H30.2499C31.6593 1.74296 33.0945 2.19766 34.55 2.73132L34.8364 2.83721L34.8429 2.84046C34.8485 2.844 34.8529 2.84908 34.8558 2.85481L34.8973 2.86985L34.8479 2.89777C34.8439 2.90143 34.8392 2.90408 34.8341 2.90563L34.8289 2.90866L33.805 3.49106L33.591 3.61299L32.3651 4.34626L31.6692 4.76948L30.7468 5.34896L30.2758 5.65126L29.7797 5.97017L29.2716 6.31083L28.7783 6.64186L27.8628 7.28045L27.8535 7.28998L27.8512 7.29222L27.8488 7.29391L27.1656 7.77681L27.039 7.86868H27.0412L27.0129 7.88741L26.3873 8.34081L26.2667 8.42965L26.0492 8.59398H26.0543L25.9662 8.65792L25.9562 8.66644H25.9547L25.9183 8.69281L25.7133 8.84772V8.85792L25.6935 8.8679L25.673 8.878L25.6182 8.9195L25.5722 8.95652H25.5913L25.4938 9.02158L25.4848 9.02909H25.4827L25.4646 9.04109L25.402 9.08294L25.2034 9.23291L25.1576 9.27359L25.1451 9.28476L25.1394 9.28394L25.1257 9.29091L25.1157 9.29593L25.1049 9.29449L25.0488 9.28753L25.0081 9.2825L25.0062 9.2822L24.4645 9.18592L24.1559 9.1434L23.8486 9.10122L23.2324 9.02887L22.6311 8.96863L22.6295 8.96853L22.0523 8.9204L22.0503 8.92029L21.7691 8.90256L21.4703 8.88394L20.916 8.87183H20.6018L20.3745 8.85983L20.2685 8.8716L20.2664 8.87183H19.8432L19.3246 8.89584L18.8171 8.9324L18.8158 8.93252H18.8147L18.3354 8.98042L17.8657 9.04054L17.4189 9.11312L16.9861 9.18524L16.6116 9.27072L16.5633 9.28179L16.1652 9.37853L15.7867 9.4849L15.7799 9.48675L15.5897 9.54208L15.4056 9.59558L15.0582 9.71527L14.7214 9.84758L14.3952 9.99279L14.0817 10.1376L13.7814 10.2936L13.4924 10.4502L13.2161 10.6185L12.9511 10.7994L12.7018 10.9774L12.6995 10.9789L12.4933 11.1441L12.217 11.3653L11.7855 11.773L11.7844 11.7742L11.3757 12.207L10.9896 12.6897L10.8095 12.9418L10.6301 13.2047L10.5463 13.3611L10.5453 13.3625L10.4774 13.4752L10.4733 13.4825L10.3047 13.7715L10.1485 14.0721L10.0979 14.1899H10.1013L10.0773 14.2382L10.0763 14.2405L10.0758 14.2414L10.0754 14.2424L10.0036 14.3859L9.87131 14.7107L9.73912 15.0475L9.71097 15.1318L9.70301 15.156L9.70245 15.1576L9.60613 15.4104L9.49792 15.7828L9.49231 15.8034L9.41349 16.0852L9.38926 16.1695L9.28083 16.5672L9.20525 16.9455H9.20694L9.19808 16.9819L9.19662 16.9884L9.11443 17.4224L9.11207 17.4355L9.03986 17.8939L9.03369 17.9554L9.02808 18.0126L9.02483 18.0452H9.02338L8.97941 18.3527L8.93142 18.8448V18.8466L8.93154 19.0003V19.0015L8.93142 19.0029L8.90721 19.3402L8.88321 19.86L8.8831 19.8611L8.8711 20.391V20.9334L8.88321 21.501L8.9173 22.034H8.91943V22.0673L8.96114 22.5811L8.96765 22.6587L9.01598 23.1422L9.0273 23.2561L9.02797 23.263L9.1003 23.8655L9.19685 24.4934L9.3055 25.1341L9.30808 25.1492L9.299 25.1616L9.16612 25.3429L8.41562 26.3317L8.40508 26.3457L7.54727 27.5302L6.71502 28.7245L6.7065 28.7417H6.70347L6.06175 29.6926L5.89602 29.9294L5.89264 29.9346L5.88311 29.949L5.3977 30.7074L5.10818 31.1417L4.74565 31.7339L4.34736 32.3619L4.34366 32.3683L4.11805 32.7604L3.6268 33.587L3.62265 33.5942L3.51411 33.7875L3.10325 34.5128L2.92821 34.8161C2.92665 34.8235 2.92276 34.8304 2.917 34.8356L2.88392 34.893L2.85667 34.8221L2.73591 34.5078L2.73546 34.5068L2.48204 33.7825L2.40949 33.5891L2.40904 33.5876L2.13129 32.7538L2.0546 32.5006C2.02038 32.3938 1.98657 32.287 1.95323 32.1804L1.80488 31.7263L1.80454 31.725L1.63533 31.1328L1.51456 30.6976L1.29703 29.9239L1.29669 29.9229L1.23637 29.6812L1.00695 28.7143L0.994723 28.6661L0.994387 28.6648L0.752854 27.5407L0.752069 27.5371V27.5123L0.744557 27.4727C0.692485 27.2109 0.643279 26.9499 0.596879 26.6903L0.547653 26.43L0.523544 26.3333L0.523208 26.3317L0.522984 26.3302L0.365887 25.327L0.365663 25.3254L0.36555 25.3239L0.354674 25.163C0.327885 24.9688 0.302837 24.7752 0.279321 24.5824L0.269117 24.5043L0.237047 24.2578L0.232674 24.2253L0.232225 24.2211L0.227515 24.1854L0.196455 23.8747L0.13938 23.3029L0.135792 23.2702L0.12727 23.1822H0.125476L0.123794 23.1478L0.123681 23.1458L0.120205 23.1096H0.121888L0.104283 22.7599C0.0899979 22.5546 0.0776851 22.3502 0.0672792 22.1467L0.0641395 22.0982L0 22.034H0.0505715L0.0392462 21.5032L0.0271359 21.0439V20.8572C0.0247819 20.6381 0.0248202 20.4201 0.0271359 20.2032V19.8575L0.0273602 19.8547L0.0410403 19.5596C0.0463192 19.3969 0.0527006 19.2349 0.0606635 19.0735L0.0633546 19.0003L0.0632425 18.8432V18.8419L0.0633546 18.8406L0.0996854 18.345L0.121103 18.0452L0.12357 18.0103L0.123906 18.0066L0.124018 18.0055L0.136016 17.8847L0.184345 17.4252L0.232562 17.0276V16.9787L0.233122 16.9757L0.289525 16.6462C0.298738 16.5809 0.3082 16.5158 0.317894 16.4508L0.348843 16.1961L0.353776 16.1548L0.365774 16.0702L0.365887 16.0692L0.366111 16.0682L0.42655 15.7661L0.498987 15.3916L0.547317 15.1379L0.547541 15.1368L0.571537 15.0284L0.644086 14.6899L0.70688 14.4074H0.70531L0.716636 14.3623L0.753079 14.2174L0.753415 14.2163L0.801744 14.047L0.823497 13.9693C0.85309 13.8562 0.883317 13.7435 0.914548 13.6315L0.947291 13.501H0.944712L0.958841 13.4541L0.965344 13.4285H0.966578L0.995284 13.3333L1.02915 13.2229L1.04204 13.1809L1.0435 13.1761L1.05135 13.1505L1.12828 12.9098L1.15395 12.8324C1.17557 12.7652 1.19765 12.698 1.21988 12.6311L1.26081 12.488L1.26115 12.4869L1.37014 12.1717L1.37059 12.1705L1.53924 11.7368L1.56346 11.6644L1.56391 11.6631L1.56447 11.6618L1.63477 11.4976C1.69661 11.3431 1.76002 11.1896 1.82539 11.0377L1.86566 10.9386L1.88976 10.8667L1.89077 10.8636L1.89246 10.8607L1.94504 10.7655C1.95041 10.7535 1.95591 10.7416 1.9613 10.7296L2.00346 10.6244H1.99819L2.02443 10.572L2.03239 10.5519H2.03452L2.10853 10.4037L2.18097 10.2467L2.22975 10.141H2.22301L2.25498 10.0865L2.33269 9.95344C2.34999 9.91921 2.36731 9.88508 2.38483 9.85106L2.41106 9.79849L2.42104 9.7784L2.43932 9.74653C2.46218 9.70288 2.48521 9.65922 2.5084 9.61577L2.54394 9.54465L2.55403 9.52466H2.55515L2.60438 9.43581L2.65282 9.33918L2.65539 9.33395L2.65943 9.32995L2.66841 9.32073L2.67334 9.31304C2.70337 9.25914 2.73373 9.20549 2.76428 9.15204L2.77347 9.13376L2.77448 9.13174L2.77571 9.12983L2.78458 9.11636C2.79904 9.09118 2.81395 9.0662 2.82853 9.04109H2.82629L2.85937 8.98613L2.86834 8.96863H2.8699L2.88773 8.93914L2.89177 8.93252H2.88336L2.9188 8.87901L2.91947 8.87789L2.9207 8.87598L2.94144 8.84491L2.94414 8.84098L2.9549 8.81934L2.96298 8.80318V8.78736L2.97822 8.78725L3.04618 8.66644H3.04371L3.07679 8.61148L3.07971 8.60654L3.08677 8.59398L3.11323 8.55113L3.11402 8.54979L3.51579 7.94125H3.50771L3.54763 7.88685L3.55672 7.86879L3.56109 7.86868L4.02128 7.24287L4.02285 7.24074L4.02475 7.23872L4.0363 7.22717L4.08429 7.16659C4.18458 7.03615 4.28668 6.90715 4.39065 6.77971L4.54157 6.58924L4.54292 6.58768L4.69744 6.41415C4.8058 6.28869 4.91612 6.16483 5.02822 6.04252L5.13486 5.92294L5.13554 5.92216L5.13632 5.92149L5.20472 5.85295C5.31318 5.73819 5.42323 5.6247 5.53506 5.51284C5.57603 5.47186 5.61726 5.43111 5.65863 5.39057L5.75203 5.29343L5.75293 5.29253L5.75383 5.29175L5.89994 5.15905C6.04311 5.02422 6.18853 4.892 6.33613 4.76242H6.33042L6.40285 4.70218L6.46037 4.65406C6.64376 4.49619 6.83063 4.34248 7.02058 4.19258L7.09627 4.13032L7.09773 4.12908L7.18463 4.06471C7.83079 3.56748 8.5137 3.11559 9.23082 2.70911L9.3481 2.64035L9.34901 2.63978L9.422 2.6022C9.65433 2.47421 9.89018 2.35086 10.1294 2.23226L10.1588 2.21655L10.1607 2.21566L10.1995 2.19772C10.4449 2.07736 10.6939 1.96195 10.9463 1.85144L10.9942 1.82912L10.9952 1.82867L11.0307 1.81442C11.4008 1.65446 11.7786 1.50528 12.1634 1.3664H12.1518L12.3397 1.30359C12.6964 1.17858 13.059 1.06258 13.4276 0.955524H13.3979L13.6402 0.894835C13.949 0.808538 14.2617 0.728389 14.5784 0.654562L14.6249 0.642337L14.6262 0.641998L14.6785 0.631679Z" fill="#141414"/>
</g></svg>