<svg width="177" height="81" viewBox="0 0 177 81" fill="none" xmlns="http://www.w3.org/2000/svg">
<path d="M120.36 78.9566L121.254 75.8164C122.338 72.0992 121.934 68.6384 120.126 66.1177C118.468 63.789 115.703 62.422 112.343 62.2512L48.7607 61.4395C48.3356 61.418 47.9741 61.2256 47.7614 60.9051C47.5487 60.5847 47.4849 60.1573 47.634 59.7515C47.8465 59.132 48.4632 58.6409 49.1012 58.6194L113.258 57.8076C120.871 57.4657 129.1 51.2493 131.993 43.6868L135.65 34.0736C135.756 33.8172 135.799 33.5396 135.799 33.2618C135.799 33.1123 135.778 32.9627 135.756 32.8132C131.631 14.0353 114.938 0 95.0124 0C76.6395 0 61.0309 11.9204 55.4381 28.4766C51.8229 25.7635 47.2085 24.3108 42.2324 24.802C33.4075 25.678 26.3263 32.8132 25.4544 41.6786C25.2204 43.9859 25.4118 46.186 25.9433 48.2797C11.547 48.7071 0 60.5632 0 75.1114C0 76.4358 0.106326 77.7175 0.276446 78.9994C0.361505 79.6191 0.893135 80.0675 1.50982 80.0675L118.872 80.089C118.893 80.089 118.893 80.089 118.914 80.089C119.574 80.0675 120.169 79.6191 120.36 78.9566Z" fill="#F6821F"/>
<path d="M141.541 34.7822C140.946 34.7822 140.371 34.8037 139.776 34.8249C139.67 34.8249 139.585 34.8462 139.5 34.889C139.202 34.9957 138.947 35.2521 138.862 35.5727L136.353 44.2458C135.268 47.963 135.672 51.4235 137.48 53.9443C139.138 56.273 141.903 57.6402 145.263 57.8112L158.809 58.623C159.212 58.6443 159.553 58.8366 159.765 59.1569C159.999 59.4775 160.042 59.9046 159.914 60.3108C159.702 60.93 159.085 61.4214 158.447 61.4429L144.369 62.2546C136.735 62.6177 128.484 68.8129 125.592 76.3754L124.572 79.0455C124.38 79.5372 124.742 80.0498 125.231 80.0711C125.252 80.0711 125.252 80.0711 125.274 80.0711H173.737C174.311 80.0711 174.821 79.6865 174.991 79.1313C175.842 76.1189 176.289 72.9574 176.289 69.6676C176.289 50.4197 160.722 34.7822 141.541 34.7822Z" fill="#FBAD41"/>
</svg>
