<svg width="177" height="80" viewBox="0 0 177 80" fill="none" xmlns="http://www.w3.org/2000/svg">
<path d="M120.461 78.8359L121.362 75.707C122.432 71.9878 122.036 68.5554 120.234 66.0253C118.55 63.6977 115.805 62.3314 112.445 62.1712L48.8465 61.3616C48.6469 61.3587 48.451 61.3075 48.2755 61.2125C48.0999 61.1174 47.9499 60.9812 47.8383 60.8156C47.7266 60.6499 47.6566 60.4596 47.6342 60.261C47.6118 60.0624 47.6377 59.8613 47.7097 59.6749C47.8178 59.3626 48.0151 59.0891 48.277 58.8881C48.539 58.6872 48.8541 58.5678 49.1833 58.5448L113.397 57.7014C120.975 57.3556 129.261 51.1654 132.149 43.6089L135.803 34.0284C135.907 33.7596 135.958 33.4733 135.955 33.1851C135.95 33.0321 135.934 32.8798 135.904 32.7297C133.911 23.8184 129.064 15.8039 122.102 9.90637C115.141 4.00884 106.445 0.551433 97.3407 0.0605782C88.2359 -0.430277 79.2205 2.07232 71.667 7.1873C64.1135 12.3023 58.4358 19.7494 55.4985 28.3948C52.3804 26.0735 48.6213 24.7756 44.7373 24.6794C40.8534 24.5831 37.0348 25.6932 33.8059 27.8572C30.5769 30.0212 28.0958 33.1331 26.7031 36.7658C25.3104 40.3985 25.0743 44.3738 26.0273 48.1462C22.2436 48.2441 18.5238 49.1462 15.1144 50.7926C11.705 52.439 8.68371 54.7921 6.25076 57.6961C3.8178 60.6002 2.02868 63.9888 1.00189 67.6376C-0.024902 71.2864 -0.265916 75.1121 0.294808 78.8612C0.335376 79.1571 0.481227 79.4283 0.705545 79.6251C0.929862 79.8219 1.21757 79.931 1.51576 79.9322H118.971C119.304 79.9356 119.63 79.8306 119.899 79.6329C120.167 79.4352 120.365 79.1555 120.461 78.8359Z" fill="white"/>
<path d="M141.652 34.7536C141.09 34.7536 140.501 34.7705 139.883 34.8042C139.791 34.8068 139.699 34.8268 139.614 34.8632C139.46 34.9143 139.321 35.0026 139.209 35.1203C139.098 35.238 139.017 35.3814 138.974 35.5379L136.448 44.1907C135.37 47.9099 135.766 51.3424 137.576 53.8725C138.491 55.0697 139.668 56.04 141.018 56.7083C142.367 57.3766 143.851 57.7251 145.357 57.7266L158.922 58.57C159.111 58.5758 159.297 58.6261 159.464 58.717C159.631 58.8078 159.774 58.9365 159.882 59.0928C159.996 59.2599 160.069 59.452 160.094 59.6531C160.119 59.8541 160.095 60.0582 160.025 60.2482C159.917 60.5605 159.719 60.834 159.457 61.0349C159.195 61.2358 158.88 61.3552 158.551 61.3783L144.464 62.2217C136.81 62.5759 128.566 68.7577 125.678 76.3057L124.659 78.9707C124.617 79.0823 124.601 79.2023 124.614 79.3211C124.626 79.4399 124.666 79.5541 124.731 79.6543C124.796 79.7546 124.883 79.8381 124.987 79.8981C125.09 79.9581 125.205 79.9929 125.325 79.9996H173.851C174.147 80.0067 174.436 79.9129 174.672 79.7337C174.907 79.5544 175.075 79.3002 175.148 79.0129C176.594 73.8351 176.826 68.3924 175.824 63.1102C174.822 57.8281 172.613 52.8496 169.372 48.564C166.13 44.2784 161.942 40.8018 157.136 38.406C152.331 36.0102 147.037 34.7602 141.668 34.7536H141.652Z" fill="white"/>
</svg>
