<svg width="78" height="80" viewBox="0 0 78 80" fill="none" xmlns="http://www.w3.org/2000/svg">
<path d="M48.6402 0L24.884 23.6342V13.5287H15.2852V36.6072H24.884V23.6342L31.6715 30.3869L55.4276 6.75265L48.6402 0Z" fill="white"/>
<path d="M41.6836 20.6907H73.68V30.2404H41.6836V20.6907Z" fill="white"/>
<path d="M4.09189 54.1148H18.0974L0 36.1102L6.78746 29.3575L25.032 47.5085L18.3916 54.1148H32.0888V63.6646H4.09189V54.1148Z" fill="white"/>
<path d="M29.8031 80L48.8897 61.0113V75.6016H58.4887V46.9525H48.8897V60.7237L42.2468 54.1148L23.0156 73.2473L29.8031 80Z" fill="white"/>
<path d="M48.8828 36.9936L70.3765 58.377L77.1639 51.6244L55.6703 30.241L48.8828 36.9936Z" fill="white"/>
</svg>
