<svg width="78" height="80" viewBox="0 0 78 80" fill="none" xmlns="http://www.w3.org/2000/svg">
<path fill-rule="evenodd" clip-rule="evenodd" d="M65.2484 54.495C64.7101 54.495 64.3737 55.0703 64.6429 55.5304L70.2733 65.1587C70.5848 65.6913 70.0883 66.3298 69.4867 66.1707L52.4108 61.653C51.6647 61.4556 50.8977 61.8929 50.6981 62.6294L46.1225 79.4883C45.961 80.0823 45.153 80.1872 44.8415 79.6546L39.2102 70.0246C38.941 69.5645 38.268 69.5645 37.9992 70.0246L32.3676 79.6546C32.0562 80.1872 31.248 80.0823 31.0867 79.4883L26.5111 62.6294C26.3112 61.8929 25.5444 61.4556 24.7984 61.653L7.72235 66.1707C7.12065 66.3298 6.62439 65.6913 6.93585 65.1587L12.5661 55.5304C12.8353 55.0703 12.4988 54.495 11.9606 54.495H0.700592C0.0776737 54.495 -0.234278 53.7515 0.206198 53.3166L12.7069 40.9751C13.253 40.436 13.253 39.5621 12.7069 39.0229L0.206204 26.6812C-0.23427 26.2463 0.0776983 25.5028 0.700624 25.5028L11.9594 25.5029C12.4976 25.5029 12.8341 24.9277 12.5649 24.4675L6.93585 14.8414C6.62439 14.3088 7.12065 13.6703 7.72235 13.8295L24.7984 18.3469C25.5444 18.5443 26.3112 18.1072 26.5111 17.3707L31.0867 0.511834C31.248 -0.0822053 32.0562 -0.187249 32.3676 0.345354L37.9988 9.9752C38.268 10.4354 38.941 10.4354 39.2102 9.9752L44.8415 0.345354C45.1527 -0.18725 45.961 -0.082206 46.1221 0.511834L50.6981 17.3707C50.8977 18.1072 51.6647 18.5443 52.4108 18.3469L69.4867 13.8295C70.0883 13.6703 70.5848 14.3088 70.2733 14.8414L64.644 24.4675C64.3748 24.9277 64.7115 25.5029 65.2495 25.5029L76.5087 25.5028C77.1317 25.5028 77.4436 26.2463 77.0031 26.6812L64.5024 39.0229C63.9563 39.5621 63.9563 40.436 64.5024 40.9751L77.0031 53.3166C77.4436 53.7515 77.1317 54.495 76.5087 54.495H65.2484ZM60.9508 28.0332C61.4567 27.5339 60.9662 26.6956 60.2754 26.8783L45.0691 30.9011C44.3231 31.0985 43.5564 30.6614 43.3564 29.9249L39.2798 14.9046C39.0948 14.2224 38.1142 14.2224 37.9292 14.9046L33.8525 29.9249C33.6526 30.6614 32.8858 31.0985 32.1398 30.9011L16.9342 26.8785C16.2432 26.6957 15.753 27.534 16.2588 28.0334L27.39 39.0229C27.9362 39.5621 27.9362 40.4363 27.39 40.9755L16.2562 51.9674C15.7503 52.4669 16.2406 53.3049 16.9316 53.1223L32.1398 49.0989C32.8858 48.9015 33.6526 49.3388 33.8525 50.075L37.9292 65.0955C38.1142 65.7775 39.0948 65.7775 39.2798 65.0955L43.3564 50.075C43.5564 49.3388 44.3231 48.9015 45.0691 49.0989L60.2778 53.1223C60.969 53.3052 61.4591 52.4669 60.9532 51.9674L49.8195 40.9755C49.2731 40.4363 49.2731 39.5621 49.8195 39.0229L60.9508 28.0332Z" fill="black"/>
</svg>
