<svg viewBox="0 0 80 80" width="80" height="80" fill="none" xmlns="http://www.w3.org/2000/svg"><g transform="translate(0.0000, 0.0000) scale(1.000000)">
<path d="M17.7838 44.4521C16.0064 44.4521 14.2734 43.3412 13.6069 41.5638L0.3208 6.01581C-0.523465 3.70519 0.631846 1.17239 2.94247 0.283691C5.25309 -0.560575 7.78588 0.594736 8.67458 2.90536L21.9607 38.4534C22.8049 40.764 21.6496 43.2968 19.339 44.1855C18.8058 44.3632 18.317 44.4521 17.7838 44.4521Z" fill="#FBBC04"/>
<path d="M75.5498 44.4518C74.6611 44.4518 73.7279 44.1852 72.9281 43.6075L36.047 16.7687L44.1342 38.453C44.9785 40.7636 43.8232 43.2964 41.5125 44.1851C39.2019 45.0738 36.6691 43.8741 35.7804 41.5635L22.5388 6.01547C21.8723 4.19363 22.4499 2.10519 24.0051 0.905442C25.5604 -0.294303 27.7377 -0.294303 29.2929 0.861007L78.127 36.409C80.1266 37.8754 80.5265 40.6303 79.1046 42.6299C78.2159 43.8297 76.8828 44.4518 75.5053 44.4518H75.5498Z" fill="#EA4335"/>
<path d="M67.9953 40.0078L36.0021 63.2918L44.1337 41.563C44.3115 41.0298 44.4003 40.541 44.4003 40.0078H35.2023L22.4939 74.0006C21.8273 75.8224 22.405 77.9109 23.9602 79.1106C24.76 79.7327 25.6932 79.9993 26.6263 79.9993C27.5595 79.9993 28.4482 79.7327 29.248 79.1551L78.1265 43.6071C79.3262 42.7184 79.9483 41.3853 79.9483 40.0078H67.9509H67.9953Z" fill="#4285F4"/>
<path d="M13.0287 40.0078L0.275878 74.0006C-0.568387 76.3112 0.586924 78.844 2.89754 79.7327C3.43076 79.9105 3.91955 79.9993 4.45277 79.9993C6.23017 79.9993 7.96314 78.8885 8.62966 77.111L21.9602 41.563C22.1379 41.0298 22.2268 40.4966 22.2268 40.0078H13.0287Z" fill="#34A853"/>
</g></svg>