<svg width="83" height="70" viewBox="0 0 83 70" fill="none" xmlns="http://www.w3.org/2000/svg">
<path d="M80.2517 7.54669C82.5673 8.45564 83.5861 11.0916 82.6599 13.2731C81.9188 15.0002 80.2517 16 78.4921 16C77.9365 16 77.288 15.9091 76.7324 15.6364C65.5259 11.0007 53.5782 8.72833 41.4455 8.72833C38.945 8.72833 37 6.72864 37 4.36533C37 2.00205 39.0376 0.00235123 41.4455 0.00235123C54.8749 -0.0885445 67.9338 2.45653 80.2517 7.54669Z" fill="#1F2DCF"/>
<path d="M80.2523 25.5933C82.5674 26.4971 83.586 29.1188 82.66 31.2881C81.9193 33.0056 80.2523 34 78.493 34C77.9375 34 77.2894 33.9096 76.7336 33.6386C65.5293 29.0284 53.6768 26.7684 41.4536 26.7684C29.138 26.7684 17.2855 29.0284 6.17372 33.5482C3.85875 34.4521 1.26601 33.4577 0.340026 31.1977C-0.58596 28.938 0.432616 26.4069 2.74758 25.5029C14.9706 20.5311 27.9344 18 41.4536 18C54.8804 18 67.9367 20.5311 80.2523 25.5933Z" fill="#1F2DCF"/>
<path d="M62.4874 38.2726C64.8777 38.8182 66.4408 41.0908 65.889 43.4546C65.3375 45.8182 63.0389 47.3636 60.6487 46.8182C54.1211 45.4545 47.5936 44.7272 41.2497 44.7272C29.022 44.7272 17.2541 47.0001 6.2216 51.6365C5.66998 51.8184 5.11835 52 4.4748 52C2.72797 52 1.0731 51 0.337599 49.2727C-0.581778 47.0001 0.429528 44.4547 2.72797 43.5456C14.8637 38.5454 27.735 36 41.1577 36C48.2371 36 55.4081 36.7272 62.4874 38.2726Z" fill="#1F2DCF"/>
<path d="M41.5542 54C44.055 54 46 56 46 58.3638C46 60.7273 43.9624 62.7273 41.5542 62.7273C29.2363 62.7273 17.3815 65.0002 6.26753 69.6365C5.71184 69.8181 5.15614 70 4.50781 70C2.74811 70 1.08102 69 0.34009 67.2728C-0.586072 64.9999 0.4327 62.4545 2.74811 61.5455C15.0661 56.5456 28.0325 54 41.5542 54Z" fill="#1F2DCF"/>
</svg>
