<svg width="76" height="96" viewBox="0 0 76 96" fill="none" xmlns="http://www.w3.org/2000/svg">
<path d="M34.6641 50.0723C36.5361 50.0723 38.1311 50.693 39.4727 51.9453L39.7373 52.2041L39.7432 52.21C41.1624 53.6114 41.8671 55.3017 41.8672 57.3096V88.2617C41.8672 90.2698 41.1622 91.9749 39.7402 93.4033C38.3459 94.8039 36.6635 95.4999 34.6641 95.5C32.6725 95.5 30.9945 94.7969 29.6016 93.3789L16.625 78.5273L16.5068 78.4121C15.889 77.8962 14.9065 78.3308 14.9062 79.1758V88.2617C14.9062 90.2699 14.2013 91.9749 12.7793 93.4033C11.3849 94.8039 9.70264 95.4999 7.70312 95.5C5.82826 95.5 4.21931 94.8882 2.85449 93.6553L2.58496 93.4004C1.19174 91.9739 0.5 90.2698 0.5 88.2617V57.3096L0.507812 56.9365C0.589123 55.0888 1.28059 53.5203 2.58789 52.207C4.00977 50.7787 5.70608 50.0723 7.70312 50.0723C9.69842 50.0723 11.3913 50.7659 12.8105 52.1631L25.7412 67.002C26.3415 67.6905 27.4607 67.2565 27.4609 66.3545V57.3096C27.461 55.299 28.1553 53.6078 29.5498 52.207C30.9716 50.779 32.6673 50.0723 34.6641 50.0723ZM52.8906 50.0723C54.7626 50.0723 56.3577 50.693 57.6992 51.9453L57.9639 52.2041L57.9697 52.21C59.3889 53.6114 60.0937 55.3017 60.0938 57.3096V79.1699C60.0938 79.9775 60.7457 80.6367 61.5557 80.6367H68.2969C70.2936 80.6368 71.9751 81.3441 73.3701 82.7695L73.376 82.7754C74.7951 84.1768 75.5 85.8671 75.5 87.875C75.5 89.8832 74.795 91.5882 73.373 93.0166C71.9787 94.4171 70.2963 95.1132 68.2969 95.1133H52.8906C50.8937 95.1132 49.1983 94.4191 47.7783 93.0195H47.7793C46.382 91.5917 45.6875 89.8859 45.6875 87.875V57.3096C45.6876 55.299 46.3819 53.6078 47.7764 52.207C49.1982 50.779 50.8939 50.0723 52.8906 50.0723ZM70.0264 50.0723C73.0471 50.0725 75.4997 52.5324 75.5 55.5723C75.5 58.6124 73.0472 61.073 70.0264 61.0732C67.0054 61.0732 64.5527 58.6125 64.5527 55.5723C64.553 52.5323 67.0056 50.0723 70.0264 50.0723ZM7.70312 0.5C9.69973 0.500052 11.3814 1.20662 12.7764 2.63184V2.63281L12.7832 2.63867C14.2021 4.04004 14.9062 5.73048 14.9062 7.73828V11.4756C14.9062 12.414 16.1021 12.8275 16.6719 12.0664L23.1631 3.39551L23.165 3.39258C24.3425 1.79947 25.9031 0.877129 27.875 0.611328H27.8809C29.8524 0.321547 31.6306 0.763471 33.2432 1.94531H33.2441C34.8326 3.15422 35.7527 4.73728 36.0176 6.7207V6.72656C36.3065 8.70983 35.8535 10.4847 34.6504 12.0801L34.6484 12.082L27.9551 21.0586C27.5668 21.5794 27.5673 22.2953 27.9551 22.8164L36.5352 34.3457L36.5371 34.3486C37.7403 35.944 38.1941 37.7181 37.9053 39.7012V39.707C37.6404 41.6902 36.72 43.2725 35.1318 44.4814C33.5189 45.6642 31.7408 46.1073 29.7686 45.8174L29.7627 45.8164L29.3975 45.7588C27.5968 45.4327 26.1556 44.5296 25.0518 43.0361L25.0498 43.0332L16.6709 31.8799L16.5566 31.752C15.9557 31.1752 14.9065 31.5924 14.9062 32.4717V38.6904C14.9062 40.6985 14.2012 42.4037 12.7793 43.832C11.385 45.2324 9.70252 45.9277 7.70312 45.9277C5.70335 45.9277 4.00614 45.2315 2.58496 43.8281H2.58398C1.19131 42.4018 0.500058 40.698 0.5 38.6904V7.73828L0.507812 7.36523C0.589019 5.51742 1.28065 3.94905 2.58789 2.63574C3.92088 1.29672 5.49498 0.59075 7.33203 0.507812L7.70312 0.5ZM48.1309 0.886719H59.6855C63.815 0.886723 67.3212 2.34317 70.2314 5.2666C73.1417 8.19011 74.5918 11.7131 74.5918 15.8633C74.5917 20.0134 73.1417 23.5365 70.2314 26.46C70.1259 26.566 70.0203 26.6691 69.915 26.7695C69.3753 27.2845 69.2612 28.1435 69.7275 28.7695L73.8828 34.3467L73.8838 34.3486C75.0869 35.944 75.5408 37.7181 75.252 39.7012L75.251 39.707C74.9861 41.6903 74.0667 43.2726 72.4785 44.4814C70.8656 45.6642 69.0875 46.1073 67.1152 45.8174L67.1094 45.8164C65.1464 45.5519 63.5915 44.6371 62.416 43.0576L57.166 33.8633C56.663 32.9832 55.3341 33.3511 55.334 34.3525V38.6904C55.3339 40.6986 54.6299 42.4037 53.208 43.832C51.8136 45.2327 50.1305 45.9277 48.1309 45.9277C46.1313 45.9276 44.4338 45.2314 43.0127 43.8281C41.6198 42.4017 40.9278 40.698 40.9277 38.6904V8.125C40.9278 6.11436 41.6221 4.42328 43.0166 3.02246C44.4384 1.59431 46.134 0.886821 48.1309 0.886719ZM57.5742 12.0742C55.569 12.0743 53.9483 13.7082 53.9482 15.7178C53.9482 17.7274 55.569 19.3613 57.5742 19.3613C59.5795 19.3613 61.2002 17.7274 61.2002 15.7178C61.2001 13.7082 59.5794 12.0742 57.5742 12.0742Z" stroke="#1C2024"/>
</svg>
