<svg viewBox="0 0 80 80" width="80" height="80" fill="none" xmlns="http://www.w3.org/2000/svg"><g transform="translate(0.0000, 0.0000) scale(1.000000)">
<path d="M0.00699552 74.6671V69.3343L1.14963 67.3494C2.48565 65.0287 2.69508 64.6559 2.90723 64.2207C3.20185 63.6164 3.18156 63.4609 2.81641 63.5247C2.55049 63.5711 2.43888 63.6289 2.3117 63.786C2.24872 63.8637 1.93385 64.2244 1.61199 64.5874C1.03012 65.2436 0.643795 65.6998 0.26411 66.1791L0.0654308 66.4298L0.0601943 65.7449C0.0573142 65.3682 0.0448657 59.1841 0.0325316 52.0024L0.0101059 38.9449L0.215763 38.3531C0.409342 37.796 0.479028 37.6123 0.702457 37.07C0.7529 36.9476 0.897164 36.5521 1.02304 36.1913C1.30391 35.3861 1.40055 35.1564 1.4848 35.0939C1.54745 35.0473 1.55157 35.0472 1.74191 35.0877C2.01728 35.1464 2.8493 35.4268 3.13912 35.5587C3.2741 35.6201 3.68957 35.7887 4.06239 35.9333C4.43521 36.0779 4.89275 36.2601 5.07916 36.3381C5.86763 36.6682 6.38188 36.7705 7.75549 36.8705C9.54674 37.001 11.7104 37.1709 13.1315 37.2927C14.8888 37.4432 15.941 37.5226 16.8597 37.5738C17.6701 37.619 18.1146 37.6562 19.1036 37.7615C19.9857 37.8553 20.4425 37.8951 21.3942 37.961C22.3979 38.0304 22.705 38.0686 22.9307 38.1524L23.053 38.1978L23.1122 38.3896C23.2031 38.6841 23.7737 40.997 24.2694 43.0804C25.1923 46.9594 25.7743 49.3531 25.84 49.5404C25.866 49.6145 25.9593 49.6937 26.4941 50.096C27.3413 50.7333 28.0608 51.2563 28.5233 51.5712C28.9221 51.8426 29.236 52.0672 30.1946 52.7669C30.5031 52.992 31.1132 53.4343 31.5502 53.7496C31.9873 54.0649 32.5027 54.4462 32.6956 54.5969C32.8884 54.7476 33.1531 54.9463 33.2839 55.0385C33.4146 55.1306 33.6039 55.2713 33.7046 55.3511C33.9247 55.5255 34.4403 55.9844 34.429 55.9957C34.4032 56.0215 33.931 55.8954 33.7603 55.8171C33.6504 55.7666 33.308 55.639 32.9994 55.5334C32.6909 55.4278 32.1597 55.2362 31.819 55.1075C31.4784 54.9789 30.8262 54.7334 30.3699 54.5619C29.9135 54.3904 29.3034 54.1607 29.0142 54.0514C28.7249 53.9421 28.0739 53.7031 27.5675 53.5202C27.0611 53.3374 26.5142 53.1348 26.3521 53.0701C26.19 53.0054 25.9574 52.9126 25.8353 52.864C25.7132 52.8154 25.3345 52.6784 24.9938 52.5596C24.2886 52.3137 24.1495 52.2475 23.9986 52.0858C23.8598 51.937 23.7664 51.7343 23.4534 50.9026C22.9897 49.6706 22.619 48.7485 22.3763 48.2238C22.3018 48.0627 22.2297 47.8777 22.2162 47.8127C22.2026 47.7477 22.1318 47.5526 22.0589 47.3792C21.9859 47.2058 21.8685 46.9005 21.7981 46.7007C21.7276 46.5009 21.6072 46.2025 21.5305 46.0374C21.4539 45.8724 21.3758 45.6635 21.357 45.5732C21.3383 45.4829 21.2978 45.3702 21.2671 45.3226C21.2068 45.2291 21.1433 45.0773 20.937 44.5332C20.8637 44.3399 20.7635 44.1011 20.7143 44.0026C20.6651 43.9041 20.5883 43.6985 20.5435 43.5458C20.4841 43.3429 20.4469 43.2555 20.4053 43.2212C20.326 43.1556 20.3023 43.1026 20.1985 42.7576C20.1483 42.591 20.0285 42.2552 19.9323 42.0114C19.836 41.7676 19.7297 41.4708 19.696 41.3518C19.6248 41.1002 19.5957 41.0366 19.5207 40.9688C19.4416 40.8972 19.355 40.8882 18.9935 40.914C18.4902 40.9498 18.0976 40.9991 17.3272 41.1234C16.9351 41.1866 16.4565 41.2606 16.2636 41.2878C15.6622 41.3726 15.3541 41.4298 15.2968 41.4672C15.1582 41.5577 14.917 42.2013 14.1125 44.6269C13.7621 45.6837 13.3834 46.8015 13.271 47.1108C12.7657 48.5011 12.7275 48.6426 12.4399 50.1894C12.3497 50.6742 12.1759 51.5981 12.0535 52.2425C11.7125 54.0389 11.6186 54.5486 11.365 55.9797C11.1433 57.23 11.0019 58.0036 10.7823 59.1667C10.73 59.4438 10.6084 60.1187 10.512 60.6664C10.4157 61.2141 10.2429 62.1737 10.128 62.7987C10.0131 63.4238 9.84986 64.3359 9.76518 64.8256C9.52352 66.2232 9.45446 66.5537 9.31958 66.958C9.22427 67.2437 9.08885 67.5104 8.701 68.1765C8.50587 68.5115 8.05658 69.2918 7.70256 69.9105C6.83857 71.4202 6.35966 72.245 5.45761 73.7768C4.48173 75.434 3.55992 77.0171 3.2677 77.5377C3.14111 77.7632 2.85964 78.261 2.64222 78.6439C2.21815 79.3906 2.09654 79.641 2.07294 79.8161C2.06472 79.8771 2.04195 79.9403 2.02233 79.9567C1.99507 79.9794 1.75338 79.988 0.996827 79.9932L0.00699552 80V74.6671ZM41.718 79.9739L37.8379 79.9587L37.5574 79.8361C37.2032 79.6813 36.7328 79.5057 35.5121 79.0726C34.5273 78.7232 34.0655 78.5515 33.6656 78.386C33.5435 78.3354 33.27 78.2355 33.0579 78.164C32.6084 78.0124 32.3269 77.908 31.5269 77.5962C31.2055 77.4709 30.7164 77.2915 30.44 77.1975C30.1636 77.1034 29.8112 76.9767 29.657 76.9159C29.3446 76.7929 27.4336 76.1231 27.2475 76.0715C27.1822 76.0534 27.049 76.0017 26.9516 75.9566C26.8542 75.9114 26.529 75.7911 26.2289 75.6892C25.9289 75.5873 25.5256 75.4438 25.3328 75.3704C25.1399 75.297 24.4998 75.0743 23.9103 74.8756C23.3208 74.6768 22.7257 74.4616 22.5878 74.3974C22.4499 74.3332 22.105 74.2022 21.8213 74.1065C21.5376 74.0107 21.2545 73.9065 21.1921 73.8749C21.0225 73.7891 20.5806 73.6194 20.4476 73.589C20.3151 73.5588 20.2898 73.5131 20.3643 73.4385C20.4282 73.3745 20.5547 73.3744 20.6123 73.4383C20.6468 73.4765 20.6732 73.4834 20.74 73.4721C20.8442 73.4545 21.1906 73.4835 22.2708 73.6005C22.7336 73.6506 23.2384 73.7032 23.3927 73.7172C23.547 73.7313 23.7626 73.7583 23.8719 73.7773C24.1554 73.8266 25.7537 74.027 26.8608 74.152C27.7442 74.2518 28.1088 74.2976 28.7103 74.3843C28.8453 74.4037 29.1398 74.4417 29.3648 74.4687C29.8116 74.5223 30.7757 74.6543 31.1646 74.7151C31.3101 74.7379 31.5746 74.755 31.8145 74.7572L32.2189 74.7609L33.2292 72.9918C33.7849 72.0188 34.4696 70.8061 34.7508 70.2971C35.3877 69.144 35.8116 68.3954 36.3743 67.4297C36.6157 67.0156 36.894 66.5327 36.9929 66.3565C37.3339 65.7493 37.5268 65.5173 38.1713 64.9391C38.4122 64.723 38.9616 64.2236 39.3922 63.8292C39.8229 63.4348 40.8064 62.5498 41.5777 61.8626C43.1516 60.4603 45.1344 58.6414 45.5364 58.231C46.2445 57.5084 46.776 56.8279 47.9716 55.1129C48.3746 54.5349 48.8508 53.8829 49.7314 52.7037C50.0941 52.218 50.6811 51.42 51.0359 50.9302C51.9874 49.6167 52.4551 49.0209 52.4574 49.1194C52.4619 49.3153 51.8446 51.3451 51.5742 52.0236C51.5108 52.1826 51.2145 53.0561 50.9156 53.9647C50.6168 54.8733 50.2734 55.8893 50.1525 56.2225C49.8105 57.1647 49.6391 57.8035 49.6579 58.0647C49.6774 58.3347 49.9138 58.5902 51.8267 60.4088C52.3214 60.8791 53.0196 61.5467 53.3782 61.8923C54.049 62.5387 54.4866 62.9255 54.8542 63.1968C54.9699 63.2823 55.5641 63.6773 56.1748 64.0748C57.3765 64.857 59.6259 66.3625 59.9848 66.6248C60.1069 66.714 60.5013 66.9828 60.8613 67.222C61.8654 67.8894 64.11 69.3881 64.53 69.6716C64.9893 69.9816 65.6722 70.3954 65.815 70.45C65.873 70.4722 65.9264 70.5092 65.9337 70.5322C65.952 70.5899 66.1034 70.7005 66.7398 71.1206C67.3316 71.5111 67.7631 71.816 68.1246 72.0989C68.5256 72.4127 68.9788 72.6514 69.2298 72.681C69.3882 72.6997 69.5261 72.5699 70.0972 71.8643C70.697 71.1235 72.3708 69.1282 72.8173 68.6217C72.9537 68.467 73.3585 67.9872 73.7169 67.5555C74.5196 66.5885 76.3822 64.3805 76.8499 63.8415C77.0399 63.6224 77.2682 63.3452 77.3571 63.2256C77.7803 62.656 78.2282 61.7898 78.5954 60.8304C78.6718 60.6306 78.8274 60.2721 78.9411 60.0337C79.0547 59.7953 79.3066 59.2434 79.5007 58.8073C79.9207 57.8639 79.9333 57.8381 79.957 57.8766C79.9669 57.8925 79.9806 62.8764 79.9875 68.9519L80 79.9981L62.799 79.9936C53.3385 79.9912 43.852 79.9823 41.718 79.9739ZM66.9551 59.605C66.8175 59.542 66.7353 59.3837 64.9753 55.7925C64.002 53.8066 63.5323 52.9059 63.3485 52.6732C63.2087 52.4964 62.5879 52.0364 61.4263 51.2492C60.6106 50.6963 60.2409 50.4343 59.7476 50.0594C59.2047 49.6468 59.1239 49.5573 58.9787 49.207C58.9389 49.1109 58.4401 47.6298 57.8703 45.9157C57.3005 44.2016 56.7949 42.7096 56.7467 42.6C56.5789 42.2185 56.497 42.1225 56.1164 41.8615C55.6142 41.5173 55.0521 41.1092 54.2114 40.4785C53.7293 40.1169 53.1928 39.7196 53.0193 39.5958C52.8457 39.472 52.5197 39.2321 52.2947 39.0627C51.5621 38.5113 51.5978 38.5201 49.1275 38.2774C48.6647 38.232 48.102 38.1637 47.877 38.1258C47.2758 38.0243 47.0304 37.9909 46.4979 37.9376C45.5331 37.8411 45.0909 37.7776 44.9384 37.7137C44.8554 37.679 44.8552 37.6785 44.8993 37.6292C45.0345 37.478 45.8767 36.8845 47.2741 35.9557C48.7921 34.9468 50.0034 34.097 50.2839 33.8442C50.4464 33.6977 50.4805 33.6255 50.4638 33.4635C50.439 33.2222 49.9965 32.4019 49.559 31.786C49.44 31.6185 49.1846 31.2441 48.9914 30.9542C48.7983 30.6642 48.5804 30.3478 48.5073 30.2512C48.4342 30.1545 48.2089 29.826 48.0066 29.5211L47.6387 28.9669L47.8491 28.373C47.9648 28.0463 48.1243 27.5734 48.2035 27.3221C48.3978 26.706 48.636 26.032 48.8743 25.4241C49.0949 24.8612 49.1694 24.7145 49.2286 24.726C49.2648 24.733 49.2678 24.8787 49.2678 26.6781C49.2678 28.2098 49.2741 28.6379 49.2978 28.6946C49.3245 28.7586 49.601 29.0273 50.2932 29.6619C50.4105 29.7695 50.7958 30.1067 51.1494 30.4113C51.5029 30.7159 51.871 31.0397 51.9675 31.131C52.0639 31.2223 52.3321 31.4596 52.5635 31.6585C53.0608 32.0859 53.2936 32.295 54.0127 32.9599C54.6913 33.5874 54.918 33.7813 55.1597 33.9409C55.2659 34.011 55.472 34.1814 55.6177 34.3196C56.0603 34.7393 56.3947 34.9134 56.7591 34.9138C56.9199 34.9139 56.9511 34.9055 57.1355 34.8117C57.2461 34.7555 57.4533 34.6705 57.5959 34.6229C57.9619 34.5006 57.9773 34.4827 58.3407 33.7566C58.8455 32.7476 59.1453 32.2192 59.8512 31.0947C60.2305 30.4906 60.457 30.1583 60.5659 30.0461C60.628 29.9822 60.6626 29.9251 60.6626 29.8868C60.6626 29.7935 60.7269 29.6906 60.8941 29.5162C61.144 29.2556 61.4554 29.0335 61.6556 28.9731C61.7504 28.9445 61.7635 28.9458 61.8193 28.9898C61.8578 29.0201 61.8988 29.0327 61.9312 29.0242C62.0008 29.006 62.2195 29.0591 62.6377 29.1958C63.4737 29.4691 63.7179 29.4374 63.8955 29.0327C63.9645 28.8754 63.9418 28.9682 64.4114 26.9238C64.8566 24.9855 65.0048 24.2917 65.1192 23.6091C65.1685 23.3147 65.2947 22.7421 65.4342 22.1797C65.9251 20.2004 66.1872 19.0848 66.26 18.6651C66.3068 18.3947 66.2866 18.3235 66.1355 18.2274C65.9345 18.0997 65.5968 18.0172 64.6596 17.8672C64.1986 17.7934 63.5601 17.6547 61.7447 17.2336C59.7251 16.7653 59.2798 16.6836 58.9966 16.7298C58.8116 16.76 58.7189 16.8097 58.5392 16.9748C58.4536 17.0535 58.2574 17.2227 58.1031 17.3509C57.5451 17.8147 57.4444 17.9014 57.2031 18.1259C56.8536 18.451 56.1022 19.1096 55.7205 19.4254C55.5414 19.5736 55.1312 19.9204 54.8089 20.1959C54.1755 20.7377 53.9612 20.8959 53.8327 20.9168C53.7592 20.9287 53.7437 20.9216 53.6914 20.8515C53.6591 20.8082 53.6113 20.7236 53.5853 20.6634C53.5592 20.6033 53.4898 20.4748 53.4311 20.3778C53.3724 20.2808 53.1439 19.8555 52.9233 19.4327C52.4785 18.58 52.3861 18.4121 52.1608 18.0473C52.0758 17.9096 51.9309 17.6326 51.8389 17.4317C51.5947 16.8984 51.4547 16.6804 51.2609 16.5317C51.1172 16.4214 51.01 16.3946 50.7318 16.399C50.1644 16.4081 48.9789 16.5914 48.8223 16.6943C48.7335 16.7526 48.6485 17.1103 48.4711 18.1718C48.2147 19.7064 48.0139 20.8524 47.9816 20.9645C47.9232 21.1681 47.8633 21.2178 47.5654 21.3106C47.2318 21.4146 46.603 21.5882 45.9486 21.7571C44.7095 22.0769 43.2686 22.4681 42.5919 22.6687C41.5383 22.9809 41.2718 23.1541 39.7428 24.5203C39.4022 24.8248 39.0781 25.1026 39.0227 25.1377C38.7283 25.3241 38.6426 25.3909 38.3327 25.6753C37.9687 26.0094 37.8495 26.1591 37.8495 26.2824C37.8495 26.3247 37.9558 26.6471 38.0857 26.9989C38.4454 27.9731 38.5074 28.1492 38.8549 29.185C39.0322 29.7134 39.3584 30.6677 39.5797 31.3056C40.3476 33.5185 40.5334 34.1307 40.4687 34.2333C40.4521 34.2597 40.4353 34.2616 40.3922 34.2419C40.307 34.203 40.0714 33.9781 40.0051 33.8724C39.9724 33.8203 39.8271 33.6459 39.6822 33.4848C39.3983 33.1693 39.1292 32.8456 38.4939 32.0555C38.0857 31.5478 37.8407 31.2632 37.3725 30.7527C37.2323 30.5998 37.0974 30.4291 37.0729 30.3734C37.0479 30.3169 37.0052 30.2634 36.9761 30.2524C36.8984 30.2227 36.7088 30.0076 36.2964 29.481C36.0926 29.2207 35.8468 28.9158 35.7502 28.8035C35.6536 28.6911 35.3312 28.2934 35.0338 27.9197C34.1256 26.7784 33.78 26.4003 33.3378 26.0642C32.9599 25.777 30.9678 24.5259 30.339 24.181C30.2128 24.1117 30.0656 24.0146 30.0118 23.9651C29.7974 23.7678 29.3099 23.4519 28.8941 23.241C28.6138 23.0988 28.4928 23.0822 27.7286 23.0807C26.3397 23.0781 22.7659 23.1578 22.411 23.1993C22.0874 23.2372 21.6873 23.3332 21.4293 23.4349C21.3007 23.4856 20.5592 23.8487 19.7814 24.2419C16.435 25.9334 11.6375 28.3297 11.5974 28.3297C11.5631 28.3297 11.5538 28.3121 11.5538 28.2477C11.5538 28.1596 11.5561 28.1568 11.7753 27.9849C11.8521 27.9247 12.0646 27.7414 12.2475 27.5777C12.4305 27.414 12.8304 27.075 13.1363 26.8243C13.4422 26.5737 13.8134 26.2606 13.9613 26.1286C14.1091 25.9965 14.4668 25.6953 14.756 25.4593C15.8118 24.5976 15.9938 24.3927 15.9264 24.1415C15.886 23.9912 15.821 23.9545 15.5678 23.939C15.4492 23.9318 15.0996 23.9096 14.7911 23.8897C13.9933 23.8384 13.4408 23.8127 12.255 23.7721C11.6829 23.7525 11.0203 23.7252 10.7824 23.7115C10.3209 23.6849 10.293 23.686 9.11118 23.7742C7.50452 23.8941 5.63913 24.0579 5.12562 24.1242C4.87742 24.1562 4.44813 24.197 1.57306 24.4619C1.01383 24.5134 0.431121 24.5628 0.278143 24.5717L0 24.5878L0.0165831 17.8767C0.0321081 11.5936 0.0454511 9.8889 0.0793694 9.8549C0.101628 9.8327 0.652782 10.011 5.34796 11.56C7.51469 12.2748 8.00845 12.4445 8.18825 12.5365C8.25543 12.5708 8.30575 12.5807 8.36087 12.5704C8.41925 12.5594 8.46936 12.5713 8.56171 12.6182C8.62939 12.6526 8.82076 12.7115 8.98699 12.7491C9.15322 12.7866 9.33857 12.8372 9.39888 12.8614C9.53697 12.9167 9.69626 12.9704 10.9344 13.3791C11.4871 13.5616 12.397 13.8627 12.9562 14.0482C13.5154 14.2338 14.7093 14.6238 15.6092 14.9149C17.3298 15.4715 19.0324 16.0413 19.5243 16.225C19.685 16.285 20.3003 16.486 20.8917 16.6717C21.4831 16.8573 22.456 17.1686 23.0538 17.3634C24.5481 17.8504 24.9544 17.9647 25.123 17.9454C25.243 17.9317 25.2251 17.8646 25.0591 17.7058C24.863 17.5183 24.4823 17.2495 22.8949 16.1779C22.1712 15.6894 20.8137 14.7729 19.8782 14.1414C17.9454 12.8367 17.7026 12.6694 17.5532 12.5397C17.4942 12.4886 17.3272 12.3755 17.1821 12.2883C16.8161 12.0687 16.5085 11.8609 16.1117 11.5656C15.4415 11.0667 13.915 10.0759 13.8165 10.0759C13.7935 10.0759 13.7032 10.0047 13.616 9.9177C13.5288 9.8308 13.2894 9.6446 13.0841 9.504C12.8788 9.3635 12.5635 9.136 12.3835 8.9985C12.2036 8.861 11.9276 8.6677 11.7703 8.569C11.3788 8.3234 10.0449 7.4141 9.46148 6.9951C9.37133 6.9304 9.13366 6.779 8.93333 6.6587C8.733 6.5384 8.48596 6.3767 8.38435 6.2995C8.28273 6.2222 7.93664 5.9814 7.61524 5.7644C7.29385 5.5475 6.94674 5.3052 6.8439 5.2261C6.43519 4.9116 6.31309 4.8232 5.89117 4.5361L5.45266 4.2378L3.3434 4.7433C2.1833 5.0214 0.981693 5.3113 0.673155 5.3877C0.364618 5.4641 0.103733 5.5184 0.0934102 5.5083C0.0416939 5.458 0.0271018 4.9103 0.0145394 2.5483L0.00098652 0H38.0102C58.9152 0 76.0193 0.00790006 76.0192 0.0176001C76.019 0.0272001 76.0088 0.0984002 75.9963 0.1757C75.9522 0.4491 75.7636 1.8934 75.7042 2.4135C75.671 2.7035 75.6232 3.0607 75.5979 3.2072C75.5489 3.4913 75.4438 4.2871 75.3639 4.9794C75.3371 5.2114 75.2588 5.8071 75.1899 6.3033C75.121 6.7995 75.0476 7.3689 75.0266 7.5687C74.913 8.6533 74.8132 9.4428 74.7453 9.7947C74.7052 10.0028 74.6148 10.6768 74.4545 11.9622C74.2756 13.3973 74.2261 13.8461 74.1617 14.6218C74.1021 15.339 74.0806 15.5075 74.0186 15.7465C74.0001 15.8174 73.948 16.1496 73.9026 16.4847C73.8572 16.8197 73.7727 17.4102 73.7147 17.7969C73.5754 18.7259 73.4882 19.3852 73.4142 20.0698C73.3808 20.3791 73.3271 20.8747 73.2949 21.1711C73.2291 21.7759 73.1437 22.4016 72.9925 23.3855C72.8523 24.2975 72.8111 24.6584 72.808 25.0023C72.8052 25.3228 72.8269 25.4007 72.919 25.4007C72.985 25.4007 73.0377 25.3445 73.1805 25.1215C73.3099 24.9195 73.7083 24.1062 73.9104 23.6315C74.1069 23.1702 74.2664 22.8293 74.9907 21.3232C75.6655 19.92 75.9658 19.282 76.3429 18.4506C76.5745 17.94 76.7728 17.5221 77.6319 15.7348C78.1746 14.6058 78.9396 12.9957 79.5264 11.7472L79.9579 10.8292L79.9745 18.9175C79.9912 26.9979 79.9655 36.0721 79.9243 36.653C79.8984 37.0196 79.8892 37.0536 79.8216 37.0331C79.5582 36.9532 79.4642 36.4867 79.3499 34.6916C79.233 32.8551 79.1882 32.5975 78.9555 32.4252C78.7267 32.2556 78.1312 32.0285 77.9024 32.0234L77.7635 32.0203L77.7446 32.1101C77.7109 32.2695 77.5895 33.417 77.4689 34.715C77.4043 35.411 77.3197 36.3125 77.281 36.7185C77.1374 38.2245 77.1186 38.574 77.1653 38.8743C77.2032 39.1179 77.3504 39.3845 77.5247 39.5255C77.5452 39.5421 77.562 39.5858 77.562 39.6226C77.562 39.6691 77.5923 39.7218 77.6614 39.7954C77.716 39.8537 77.8501 40.0399 77.9594 40.2094C78.4252 40.9315 78.8142 41.5142 79.0941 41.9088C79.6351 42.6716 79.8994 43.108 79.8994 43.2381C79.8994 43.3505 79.6095 43.7967 78.9971 44.6269C78.7785 44.9234 78.4329 45.4025 78.2292 45.6916C78.0255 45.9808 77.6902 46.4447 77.4841 46.7226C77.2779 47.0005 76.852 47.5759 76.5374 48.0012C75.7418 49.077 75.1629 49.7996 74.7467 50.2363C74.656 50.3315 74.0402 50.911 73.3781 51.5241C72.716 52.1372 72.0165 52.7873 71.8237 52.9688C71.6309 53.1503 71.3732 53.3785 71.251 53.4759C71.1289 53.5734 70.8449 53.8246 70.6199 54.0341C70.395 54.2436 70.1564 54.4559 70.0898 54.5058C69.9206 54.6325 69.4348 55.1189 69.3024 55.2941C69.049 55.6294 68.8451 56.018 68.1199 57.5482C67.8729 58.0692 67.5602 58.7177 67.425 58.9893C67.1305 59.5807 67.0714 59.6583 66.9551 59.605ZM41.4024 20.8922C42.0798 20.7379 43.3981 20.2952 44.8205 19.7444C45.5515 19.4613 45.6866 19.3952 45.8356 19.2476C46.1094 18.9762 46.2232 18.6442 46.7779 16.4992C47.1306 15.1348 47.221 14.8617 47.3467 14.7792C47.378 14.7586 47.4675 14.7252 47.5457 14.7049C48.1397 14.5506 50.7167 14.3176 51.8322 14.3173C52.2467 14.3171 52.271 14.3196 52.2949 14.3643C52.3087 14.3903 52.3685 14.4711 52.4277 14.544C52.4869 14.6168 52.5531 14.7248 52.5747 14.7839C52.5964 14.8429 52.6667 14.9606 52.7309 15.0453C52.9492 15.3335 53.6971 16.6236 53.6971 16.7119C53.6971 16.7316 53.7506 16.8203 53.816 16.9091C53.8813 16.9979 53.9882 17.1601 54.0534 17.2696C54.1186 17.3792 54.2081 17.5139 54.2521 17.569C54.3304 17.6668 54.477 17.7617 54.5497 17.7617C54.5697 17.7617 54.6817 17.672 54.7987 17.5623C55.0766 17.3017 55.6432 16.8213 56.3968 16.2075C56.7311 15.9353 57.3247 15.4501 57.716 15.1295L58.4275 14.5464L58.6861 14.5739C59.0094 14.6082 59.7742 14.7598 60.6924 14.9715C61.6568 15.1939 62.1155 15.2908 62.4741 15.3482C62.967 15.4271 63.6804 15.5687 65.0102 15.8516C66.4299 16.1536 66.5455 16.1738 66.8684 16.1764C67.1385 16.1785 67.2514 16.1476 67.3344 16.0487C67.3992 15.9715 68.2315 14.3164 68.3487 14.0318C68.3894 13.9328 68.4228 13.813 68.4228 13.7657C68.4228 13.5435 68.2247 13.0564 68.0611 12.8761C68.0144 12.8245 67.8925 12.6642 67.7904 12.5197C67.6882 12.3752 67.5678 12.2276 67.5228 12.1916C67.4679 12.1478 67.4362 12.0993 67.4263 12.0442C67.4075 11.9397 67.3934 11.9133 67.2594 11.7309C67.1986 11.6483 67.1039 11.4978 67.0489 11.3965C66.9939 11.2952 66.8905 11.1333 66.819 11.0366C66.7476 10.94 66.6097 10.7344 66.5127 10.5797C66.2728 10.1974 66.238 10.1538 66.1249 10.0937C66.0424 10.0498 65.992 10.042 65.8049 10.0438C65.4711 10.0471 65.1443 10.1123 63.2221 10.559C61.2834 11.0095 60.4655 11.1814 58.6542 11.5188C58.2631 11.5916 57.9012 11.6634 57.8501 11.6782C57.7227 11.7152 57.6972 11.7621 57.7473 11.8674C57.7979 11.9737 57.8901 12.0301 58.1382 12.1061C58.5875 12.2438 59.1667 12.499 59.1667 12.5592C59.1667 12.6525 58.281 12.993 57.5539 13.1794C56.4718 13.4567 54.8422 13.4471 53.3709 13.1546C52.8306 13.0473 52.9569 13.0354 50.2261 13.4498C48.1188 13.7696 44.8327 14.2513 43.7515 14.399C42.5927 14.5573 42.2656 14.6197 42.0452 14.7248C41.8284 14.8281 41.7262 14.9232 41.291 15.4264C40.8411 15.9466 40.4825 16.3386 39.9794 16.8596C39.5343 17.3206 39.338 17.5586 39.257 17.7351C39.2075 17.843 39.201 17.8846 39.2111 18.028C39.222 18.1823 39.2396 18.2282 39.4392 18.6207C39.5582 18.8547 39.7494 19.1974 39.8641 19.3822C39.9788 19.5671 40.1041 19.7763 40.1424 19.8472C40.2197 19.9901 40.6276 20.5845 40.8005 20.8062C40.9113 20.9482 40.9117 20.9485 41.0342 20.9483C41.1017 20.9481 41.2674 20.923 41.4024 20.8922ZM46.4263 12.6409C46.6496 12.5336 47.0088 12.2857 47.5615 11.8574C48.0553 11.4747 48.2313 11.3523 48.625 11.1176C49.2083 10.7699 50.1379 10.3208 50.5586 10.1834C51.2279 9.9649 52.8216 9.5423 53.1385 9.4993C53.2271 9.4873 53.2487 9.4918 53.2614 9.5251C53.3084 9.6478 53.1039 10.0453 52.6283 10.7555C52.3967 11.1012 52.2012 11.4581 52.2012 11.535C52.2012 11.5844 52.2167 11.6062 52.2655 11.6251C52.5149 11.7216 53.0643 11.3949 53.814 10.7042C54.2678 10.2861 54.6091 9.994 54.8712 9.7996C55.551 9.295 55.735 9.1711 55.9761 9.0559C56.7494 8.6863 58.4134 8.1953 59.1786 8.111C59.4297 8.0833 59.5494 8.101 59.5591 8.1673C59.5785 8.3008 59.0089 9.2894 58.6124 9.8104C58.4485 10.0257 58.3635 10.1906 58.386 10.2494C58.4086 10.3083 58.5535 10.295 58.7109 10.2195C58.8997 10.1289 59.1042 9.9748 59.4501 9.6624C60.0202 9.1476 60.6369 8.6506 60.9873 8.4238C61.179 8.2997 62.0043 7.883 62.2053 7.8089C62.4113 7.7329 62.6682 7.6278 62.8994 7.525C63.0176 7.4725 63.179 7.419 63.2582 7.4063C63.4222 7.3798 63.4675 7.3513 63.4675 7.2746C63.4675 7.1515 63.1165 6.5961 62.87 6.3292C62.7111 6.1572 62.5689 6.0892 62.2053 6.0114C61.8541 5.9363 61.6425 5.8701 61.5692 5.8124C61.5324 5.7833 61.4777 5.7701 61.3985 5.7711C61.3312 5.772 61.203 5.7464 61.095 5.7105C60.9922 5.6763 60.5977 5.5699 60.2185 5.4739C59.5247 5.2983 58.4216 5.0012 54.6075 3.9627C51.9846 3.2485 51.9866 3.249 51.7177 3.247C51.4703 3.2451 51.6379 3.1707 50.2728 3.8885C49.2644 4.4187 48.9095 4.6102 48.5549 4.8156C48.3942 4.9087 48.0891 5.0774 47.877 5.1907C47.6649 5.3039 47.2126 5.5496 46.8719 5.7368C46.5312 5.9239 46.1025 6.1488 45.9191 6.2364C45.7358 6.3241 45.3676 6.516 45.101 6.6629C44.8345 6.8098 44.3902 7.0488 44.1138 7.194C43.8374 7.3392 43.5587 7.4917 43.4944 7.5328C43.3302 7.6378 43.2325 7.7583 43.1944 7.9027C43.149 8.0746 42.8585 9.5693 42.8153 9.8533C42.7621 10.2023 42.7015 10.51 42.545 11.2241C42.3882 11.9401 42.314 12.3251 42.314 12.4228C42.314 12.4991 42.3696 12.5365 42.4819 12.5358C42.5726 12.5352 42.7319 12.4676 42.78 12.4093C42.8309 12.3476 43.0058 12.2665 43.2133 12.2083C43.3159 12.1795 43.5052 12.1109 43.6341 12.0558C43.9019 11.9412 44.2079 11.8438 44.8734 11.6611C45.9261 11.3721 46.8171 11.1538 46.9435 11.1538C46.9963 11.1538 47.0122 11.1645 47.0122 11.2C47.0122 11.2467 46.8111 11.5526 46.4265 12.0911C46.1834 12.4315 46.0897 12.6056 46.1118 12.6755C46.1344 12.747 46.2266 12.7368 46.4263 12.6409ZM62.4922 24.1887C62.4764 24.1832 62.3948 24.0904 62.3108 23.9826C62.2268 23.8748 62.024 23.6409 61.8602 23.463C61.5706 23.1485 60.4629 21.9243 60.14 21.5619C60.0519 21.463 59.8602 21.2324 59.7141 21.0496C59.568 20.8667 59.4114 20.6799 59.366 20.6344C59.3207 20.589 59.2835 20.542 59.2835 20.53C59.2835 20.4866 59.3718 20.4722 59.7015 20.4617C60.3127 20.4424 61.3305 20.5587 62.2381 20.7516C62.3293 20.771 62.6341 20.8232 62.9154 20.8676C63.7547 21.0001 64.1232 21.0984 64.2683 21.2284C64.3253 21.2794 64.3364 21.3041 64.3242 21.3528C64.2876 21.499 64.0715 21.6663 63.561 21.944C63.1431 22.1713 63.0015 22.2753 62.9166 22.4174C62.8239 22.5725 62.7975 22.699 62.7538 23.198C62.6868 23.9646 62.6161 24.2321 62.4922 24.1887Z" fill="#EF4746"/>
</g></svg>