<svg width="68" height="80" viewBox="0 0 68 80" fill="none" xmlns="http://www.w3.org/2000/svg">
<path d="M32.5099 0.410903L1.48526 18.8786C1.03366 19.148 0.658763 19.535 0.398101 20.0005C0.137439 20.466 0.00016851 20.9938 0 21.5311V58.4714C0.00016851 59.0087 0.137439 59.5366 0.398101 60.0021C0.658763 60.4675 1.03366 60.8543 1.48526 61.1239L32.5099 79.5889C32.9629 79.8582 33.4768 80 34.0001 80C34.5232 80 35.0371 79.8582 35.4901 79.5889L66.5148 61.1239C66.9663 60.8543 67.3413 60.4675 67.6019 60.0021C67.8626 59.5366 67.9998 59.0087 68 58.4714V21.5311C67.9998 20.9938 67.8626 20.466 67.6019 20.0005C67.3413 19.535 66.9663 19.148 66.5148 18.8786L35.4901 0.410903C35.0371 0.141682 34.5232 0 34.0001 0C33.4768 0 32.9629 0.141682 32.5099 0.410903ZM27.4531 61.9888L31.1369 45.837C31.1633 45.72 31.1601 45.598 31.1276 45.4826C31.0951 45.3673 31.0345 45.2624 30.9513 45.1782L22.0054 36.2147C21.9414 36.1499 21.8905 36.0726 21.8558 35.9874C21.8211 35.902 21.8032 35.8105 21.8032 35.7181C21.8032 35.6256 21.8211 35.5341 21.8558 35.4489C21.8905 35.3637 21.9414 35.2864 22.0054 35.2215L39.4647 17.3499C39.5685 17.2426 39.7033 17.1732 39.8489 17.1522C39.9945 17.1312 40.1428 17.1597 40.2711 17.2335C40.3995 17.3072 40.5009 17.4221 40.56 17.5607C40.619 17.6993 40.6325 17.8539 40.5982 18.0011L36.9095 34.1932C36.8818 34.3101 36.8844 34.4325 36.917 34.548C36.9496 34.6636 37.011 34.7684 37.0951 34.8519L45.9726 43.7677C46.0365 43.8323 46.0874 43.9094 46.122 43.9944C46.1567 44.0795 46.1746 44.1707 46.1746 44.263C46.1746 44.3551 46.1567 44.4465 46.122 44.5315C46.0874 44.6167 46.0365 44.6937 45.9726 44.7583L28.5719 62.6426C28.4672 62.747 28.3327 62.8139 28.1881 62.8333C28.0435 62.8525 27.8967 62.8233 27.7695 62.7498C27.6424 62.6763 27.5417 62.5626 27.4825 62.4256C27.4233 62.2884 27.4086 62.1352 27.4408 61.9888H27.4531Z" fill="url(#paint0_linear_199_2)"/>
<defs>
<linearGradient id="paint0_linear_199_2" x1="38.7506" y1="32.0513" x2="-53.8688" y2="103.87" gradientUnits="userSpaceOnUse">
<stop stop-color="#BB8BFF"/>
<stop offset="1" stop-color="#75F6FF"/>
</linearGradient>
</defs>
</svg>
