<svg width="152" height="80" viewBox="0 0 152 80" fill="none" xmlns="http://www.w3.org/2000/svg">
<path d="M61.126 1.66667L75.3488 26.6667L45.9542 78.3333C45.3671 79.3625 44.2835 80 43.1092 80H16.5602C15.973 80 15.4105 79.8417 14.9178 79.5542C14.4251 79.2667 14.0104 78.85 13.7148 78.3333L0.440359 55C-0.146786 53.9708 -0.146786 52.7 0.440359 51.6667L28.8902 1.66667C29.1817 1.15 29.6006 0.733337 30.0933 0.445837C30.586 0.158336 31.1485 0 31.7356 0H58.2843C59.4585 0 60.5429 0.6375 61.1301 1.66667H61.126Z" fill="#E0E0E0"/>
<path d="M44.7886 26.9767H75.347L61.023 1.68605C60.4317 0.644913 59.3401 0 58.1574 0H31.4197C30.8283 0 30.2618 0.160177 29.7656 0.451022L44.7886 26.9767Z" fill="url(#paint0_linear_47_188)"/>
<path d="M45.5814 26.83L30.4751 0.930237C29.9762 1.21422 29.5562 1.62578 29.2568 2.13612L0.445947 51.5238C-0.148649 52.5445 -0.148649 53.7956 0.445947 54.8163L13.8888 77.8639C14.1841 78.3742 14.6081 78.7858 15.1071 79.0698L45.5772 26.83H45.5814Z" fill="url(#paint1_linear_47_188)"/>
<path d="M75.3479 26.9767H44.9881L14.8828 79.5568C15.3758 79.8426 15.9386 80 16.5261 80H43.0901C44.2651 80 45.3492 79.3662 45.9367 78.343L75.3479 26.9767Z" fill="#F5F5F5"/>
<path d="M151.181 54.7093C151.478 54.1866 151.628 53.6049 151.628 53.0233H121.241L106.047 79.549C106.549 79.8398 107.122 80 107.72 80H134.762C135.958 80 137.062 79.3551 137.66 78.314L151.181 54.7093Z" fill="#F5F5F5"/>
<path d="M92.8213 0C92.2289 0 91.6612 0.157416 91.1641 0.443245L121.525 53.0233H151.629C151.629 52.4516 151.48 51.8799 151.186 51.3663L122.482 1.65698C121.889 0.633794 120.796 0 119.611 0H92.8172H92.8213Z" fill="url(#paint2_linear_47_188)"/>
<path d="M105.99 79.0698L120.929 53.1701L90.7965 0.930237C90.3031 1.21422 89.8878 1.62578 89.5917 2.13612L75.3477 26.83L104.786 77.8639C105.078 78.3742 105.497 78.7858 105.99 79.0698Z" fill="url(#paint3_linear_47_188)"/>
<defs>
<linearGradient id="paint0_linear_47_188" x1="63.8833" y1="33.7209" x2="40.5652" y2="-5.90613" gradientUnits="userSpaceOnUse">
<stop stop-color="white"/>
<stop offset="1" stop-color="#E0E0E0"/>
</linearGradient>
<linearGradient id="paint1_linear_47_188" x1="3.58421" y1="72.4847" x2="41.028" y2="6.96495" gradientUnits="userSpaceOnUse">
<stop stop-color="#E0E0E0"/>
<stop offset="1" stop-color="#F9F9F9"/>
</linearGradient>
<linearGradient id="paint2_linear_47_188" x1="140.533" y1="59.4275" x2="102.653" y2="-6.19027" gradientUnits="userSpaceOnUse">
<stop stop-color="white"/>
<stop offset="1" stop-color="#E0E0E0"/>
</linearGradient>
<linearGradient id="paint3_linear_47_188" x1="117.005" y1="72.707" x2="79.3513" y2="7.54391" gradientUnits="userSpaceOnUse">
<stop stop-color="#E0E0E0"/>
<stop offset="1" stop-color="white"/>
</linearGradient>
</defs>
</svg>
