<svg width="153" height="80" viewBox="0 0 153 80" fill="none" xmlns="http://www.w3.org/2000/svg">
<path d="M62.0299 1.66667L76.4631 26.6667L46.6338 78.3333C46.0379 79.3625 44.9384 80 43.7467 80H16.8051C16.2092 80 15.6384 79.8417 15.1384 79.5542C14.6384 79.2667 14.2176 78.85 13.9176 78.3333L0.446871 55C-0.148957 53.9708 -0.148957 52.7 0.446871 51.6667L29.3175 1.66667C29.6133 1.15 30.0383 0.733337 30.5383 0.445837C31.0383 0.158336 31.6091 0 32.2049 0H59.1462C60.3378 0 61.4382 0.6375 62.034 1.66667H62.0299Z" fill="#4A4A4A"/>
<path d="M45.6766 26.6667H76.468L62.0348 1.66667C61.439 0.6375 60.339 0 59.1474 0H32.2057C31.6099 0 31.0391 0.158336 30.5391 0.445837L45.6766 26.6667Z" fill="url(#paint0_linear_47_178)"/>
<path d="M45.6759 26.6667L30.5383 0.445831C30.0383 0.733331 29.6175 1.14999 29.3175 1.66666L0.446871 51.6667C-0.148957 52.7 -0.148957 53.9667 0.446871 55L13.9176 78.3333C14.2135 78.85 14.6384 79.2666 15.1384 79.5541L45.6717 26.6667H45.6759Z" fill="url(#paint1_linear_47_178)"/>
<path d="M76.4614 26.6667H45.67L15.1367 79.5541C15.6367 79.8416 16.2075 80 16.8034 80H43.745C44.9367 80 46.0362 79.3625 46.6321 78.3333L76.4614 26.6667Z" fill="#3A3A3A"/>
<path d="M152.482 55C152.778 54.4833 152.928 53.9083 152.928 53.3333H122.653L107.516 79.5542C108.016 79.8417 108.586 80 109.182 80H136.124C137.316 80 138.415 79.3625 139.011 78.3333L152.482 55Z" fill="#3A3A3A"/>
<path d="M93.7838 0C93.188 0 92.6172 0.158336 92.1172 0.445837L122.65 53.3333H152.925C152.925 52.7583 152.775 52.1833 152.479 51.6667L123.612 1.66667C123.017 0.6375 121.917 0 120.725 0H93.7797H93.7838Z" fill="url(#paint2_linear_47_178)"/>
<path d="M107.515 79.5541L122.652 53.3333L92.1189 0.445831C91.6189 0.733331 91.1981 1.14999 90.8981 1.66666L76.4648 26.6667L106.294 78.3333C106.59 78.85 107.015 79.2666 107.515 79.5541Z" fill="url(#paint3_linear_47_178)"/>
<defs>
<linearGradient id="paint0_linear_47_178" x1="64.9169" y1="33.3333" x2="42.0835" y2="-6.22066" gradientUnits="userSpaceOnUse">
<stop stop-color="#A9A9A9"/>
<stop offset="1" stop-color="#7A7A7A"/>
</linearGradient>
<linearGradient id="paint1_linear_47_178" x1="3.59164" y1="72.8875" x2="41.696" y2="6.89193" gradientUnits="userSpaceOnUse">
<stop stop-color="#7A7A7A"/>
<stop offset="1" stop-color="#3A3A3A"/>
</linearGradient>
<linearGradient id="paint2_linear_47_178" x1="141.766" y1="59.775" x2="103.661" y2="-6.22056" gradientUnits="userSpaceOnUse">
<stop stop-color="#A9A9A9"/>
<stop offset="1" stop-color="#7A7A7A"/>
</linearGradient>
<linearGradient id="paint3_linear_47_178" x1="118.676" y1="73.1125" x2="80.5714" y2="7.11277" gradientUnits="userSpaceOnUse">
<stop stop-color="#7A7A7A"/>
<stop offset="1" stop-color="#3A3A3A"/>
</linearGradient>
</defs>
</svg>
