<svg width="488.63" height="85.8" viewBox="0 0 488.63 85.8" fill="none" xmlns="http://www.w3.org/2000/svg">
  <g transform="scale(0.41118) translate(-100.272 -121.086)" fill="#82C38C">
    <path d="M226.328 256.377C252.519 256.377 269.875 267.241 281.797 276.624C284.614 278.841 287.25 281.075 289.324 282.81C291.551 284.674 293.144 285.974 294.533 286.982C295.135 287.42 295.597 287.723 295.928 287.927H350.093V329.754H294.305C283.401 329.754 275.046 324.501 270.004 320.839C267.321 318.89 264.73 316.739 262.538 314.905C260.194 312.943 258.176 311.234 255.982 309.507C247.862 303.115 239.459 298.204 226.328 298.204H225.796C212.665 298.204 204.263 303.115 196.142 309.507C193.948 311.234 191.931 312.944 189.586 314.905C187.394 316.739 184.803 318.89 182.119 320.839C177.077 324.501 168.723 329.754 157.819 329.754H100.482V287.927H156.196C156.528 287.723 156.989 287.42 157.591 286.982C158.98 285.974 160.573 284.674 162.8 282.81C164.874 281.075 167.51 278.841 170.326 276.624C182.248 267.241 199.604 256.377 225.796 256.377H226.328Z" />
    <path d="M316.102 121.086C335.072 121.086 350.449 136.484 350.45 155.477V245.735H308.677V162.912H142.045V245.735H100.272V155.477C100.273 136.484 115.65 121.086 134.62 121.086H316.102Z" />
  </g>
  <g transform="translate(121.67 71.5) scale(0.8)" fill="#FFF">
    <path d="M35.7 0V-62H58.8V-71.5H1.5V-62H24.6V0Z" />
    <path d="M109.6 -26.6C109.6 -42.4 100.9 -52.6 85.4 -52.6C69.8 -52.6 60.2 -41.6 60.2 -25.6C60.2 -10 69.2 1.5 85.4 1.5C98.8 1.5 106.3 -5.9 109 -15.7H99C98.1 -12.3 94.6 -6.5 85.6 -6.5C75.5 -6.5 70.5 -14.4 70.3 -22.9H109.5C109.6 -23.7 109.6 -25.2 109.6 -26.6ZM70.3 -30.6C70.9 -39 76.9 -44.6 85.1 -44.6C93.8 -44.6 99.4 -38.6 99.4 -30.6Z" />
    <path d="M141.7 -52.5C132.9 -52.5 127.6 -48.5 124.9 -44.6H124.7V-51H114.9V0H124.7V-31.3C124.7 -39 130.1 -44.1 138.5 -44.1C145.9 -44.1 148.9 -39.5 148.9 -32.7V0H158.7V-35.4C158.7 -47.1 151.1 -52.5 141.7 -52.5Z" />
    <path d="M186.4 1.4C199.8 1.4 207.4 -4.6 207.4 -14.5C207.4 -25.9 197.2 -28.6 187.8 -30.8C180.6 -32.4 174.9 -32.9 174.9 -38.2C174.9 -42 177.7 -44.6 184.3 -44.6C192.8 -44.6 194.9 -40.1 195.6 -36.2H205.5C204.8 -45 198.1 -52.5 184.1 -52.5C171.8 -52.5 164.7 -46.6 164.7 -37.8C164.7 -27.2 174.9 -24.6 183.8 -22.5C190.4 -21.1 197.2 -20.4 197.2 -14C197.2 -10.3 194.9 -6.5 186.3 -6.5C176.8 -6.5 173.2 -11.1 172.8 -17H162.9C163.2 -6.6 170.9 1.4 186.4 1.4Z" />
    <path d="M234.9 1.5C250.8 1.5 260.4 -9.6 260.4 -25.6C260.4 -41.5 250.8 -52.6 235 -52.6C219 -52.6 209.4 -41.4 209.4 -25.5C209.4 -9.5 219 1.5 234.9 1.5ZM235 -6.6C224.4 -6.6 219.6 -14.9 219.6 -25.5C219.6 -36.2 224.4 -44.4 235 -44.4C245.4 -44.4 250.2 -36.2 250.2 -25.5C250.2 -14.9 245.4 -6.6 235 -6.6Z" />
    <path d="M289.4 -52.2C282.5 -52.2 278.4 -47.7 275.7 -41.3H275.5V-51H265.7V0H275.5V-26.4C275.5 -36.1 281.9 -42.8 290.8 -42.8C292 -42.8 292.9 -42.7 294.1 -42.5V-51.9C292.6 -52.1 291.2 -52.2 289.4 -52.2Z" />
    <path d="M307.3 0V-71.5H297.5V0Z" />
    <path d="M329.4 1.4C337.7 1.4 343.5 -1.9 346.8 -7.2H347C347.6 -1.4 350.2 0.5 355.1 0.5C356.7 0.5 358.4 0.3 360.1 -0.1V-6.1C359.5 -6 359.2 -6 358.9 -6C357 -6 356.5 -7.9 356.5 -11.6V-35C356.5 -48.2 348.1 -52.6 337.6 -52.6C322 -52.6 315.6 -44.9 315.1 -35.1H325.1C325.6 -41.9 328.3 -44.7 337.2 -44.7C344.7 -44.7 346.9 -41.6 346.9 -37.9C346.9 -32.9 342 -31.9 334 -30.4C321.3 -28 312.7 -24.6 312.7 -13.2C312.7 -4.5 319.2 1.4 329.4 1.4ZM331.6 -6.5C325.5 -6.5 322.9 -9.1 322.9 -13.9C322.9 -19.2 326.7 -21.7 335.7 -23.5C340.9 -24.6 345.3 -25.7 346.9 -27.2V-19.9C346.9 -11 340.4 -6.5 331.6 -6.5Z" />
    <path d="M410.9 0L389.2 -32.3L408.8 -51H397.5L375.2 -29.4V-71.5H365.4V0H375.2V-19L382.6 -26.1L399.3 0Z" />
    <path d="M458.7 -26.6C458.7 -42.4 450 -52.6 434.5 -52.6C418.9 -52.6 409.3 -41.6 409.3 -25.6C409.3 -10 418.3 1.5 434.5 1.5C447.9 1.5 455.4 -5.9 458.1 -15.7H448.1C447.2 -12.3 443.7 -6.5 434.7 -6.5C424.6 -6.5 419.6 -14.4 419.4 -22.9H458.6C458.7 -23.7 458.7 -25.2 458.7 -26.6ZM419.4 -30.6C420 -39 426 -44.6 434.2 -44.6C442.9 -44.6 448.5 -38.6 448.5 -30.6Z" />
  </g>
</svg>