<svg width="549" height="92" viewBox="0 0 549 92" fill="none" xmlns="http://www.w3.org/2000/svg">
<path d="M91.0001 1H1V91H91.0001V1Z" stroke="#251F1E" stroke-width="2"/>
<path d="M82.3466 81.2693L77.4858 81.2827V59.3448C77.4858 57.0441 75.6205 55.1773 73.3183 55.1758H58.5658C56.5007 55.1773 54.5921 56.2777 53.5558 58.0655L40.0409 81.399L9.65625 81.4959L50.2353 11.3746L82.3466 11.1479V81.2693ZM77.2547 24.2454C77.2547 22.0327 74.3561 21.2052 73.1871 23.0839L58.6925 46.3786C57.6846 47.9979 58.8491 50.0943 60.7561 50.0943H72.9709C75.3372 50.0943 77.2547 48.1768 77.2547 45.8105V24.2454Z" fill="#251F1E"/>
<path d="M123.424 71.3465H113.359L131.684 19.2952H143.325L161.674 71.3465H151.61L137.708 29.9698H137.301L123.424 71.3465ZM123.754 50.9377H151.204V58.5115H123.754V50.9377ZM163.52 71.3465V19.2952H183.04C187.039 19.2952 190.394 19.9899 193.104 21.3792C195.833 22.7686 197.891 24.7172 199.28 27.2249C200.686 29.7156 201.39 32.6215 201.39 35.9425C201.39 39.2804 200.679 42.1778 199.255 44.6346C197.849 47.0745 195.773 48.9637 193.028 50.3024C190.283 51.6239 186.912 52.2847 182.913 52.2847H169.01V44.4567H181.643C183.981 44.4567 185.895 44.1348 187.386 43.491C188.877 42.8301 189.979 41.8727 190.69 40.6189C191.418 39.3482 191.783 37.7893 191.783 35.9425C191.783 34.0955 191.418 32.5198 190.69 31.2151C189.961 29.8936 188.852 28.8938 187.361 28.216C185.87 27.5213 183.946 27.1741 181.592 27.1741H172.95V71.3465H163.52ZM190.41 47.7607L203.296 71.3465H192.775L180.117 47.7607H190.41ZM249.614 36.8574H240.108C239.837 35.2987 239.337 33.9176 238.608 32.7147C237.879 31.4947 236.973 30.4611 235.889 29.6139C234.805 28.7668 233.567 28.1313 232.177 27.7077C230.806 27.2672 229.324 27.047 227.731 27.047C224.901 27.047 222.393 27.7585 220.207 29.1819C218.021 30.5883 216.31 32.6553 215.074 35.3833C213.836 38.0944 213.219 41.4068 213.219 45.3208C213.219 49.3026 213.836 52.6575 215.074 55.3854C216.327 58.0964 218.039 60.1466 220.207 61.536C222.393 62.9085 224.892 63.5947 227.704 63.5947C229.264 63.5947 230.721 63.3914 232.076 62.9847C233.449 62.5611 234.678 61.9427 235.762 61.1294C236.864 60.3162 237.787 59.3164 238.532 58.1304C239.294 56.9443 239.819 55.5888 240.108 54.0639L249.614 54.1147C249.257 56.5885 248.487 58.9098 247.301 61.0785C246.131 63.2474 244.598 65.1621 242.7 66.8225C240.803 68.4661 238.583 69.7538 236.041 70.6857C233.5 71.6006 230.679 72.0582 227.577 72.0582C223.003 72.0582 218.919 70.9991 215.327 68.8812C211.735 66.7632 208.906 63.7049 206.838 59.7062C204.772 55.7074 203.739 50.9122 203.739 45.3208C203.739 39.7125 204.779 34.9174 206.864 30.9355C208.948 26.9368 211.786 23.8785 215.378 21.7605C218.971 19.6424 223.037 18.5835 227.577 18.5835C230.475 18.5835 233.169 18.9901 235.66 19.8035C238.151 20.6168 240.371 21.8113 242.32 23.3871C244.267 24.946 245.868 26.8606 247.122 29.1311C248.393 31.3846 249.223 33.96 249.614 36.8574ZM253.239 71.3465V19.2952H262.668V41.3306H286.787V19.2952H296.242V71.3465H286.787V49.2348H262.668V71.3465H253.239ZM310.916 19.2952V71.3465H301.488V19.2952H310.916ZM316.116 71.3465V19.2952H325.546V63.4423H348.471V71.3465H316.116Z" fill="#251F1E"/>
</svg>
