<svg width="548" height="80" viewBox="0 0 548 80" fill="none" xmlns="http://www.w3.org/2000/svg">
<path fill-rule="evenodd" clip-rule="evenodd" d="M0 0H80V80H0V0ZM71.8184 8.18187V71.8181H8.18191V8.18187H71.8184Z" fill="#151515"/>
<path d="M146 46.9577H137.367C136.113 54.7211 130.874 59.1887 123.644 59.1887C114.052 59.1887 107.78 51.7915 107.78 40C107.78 28.3551 113.83 20.8113 123.127 20.8113C130.653 20.8113 135.597 25.2057 136.998 33.1155H145.631C143.934 21.5438 134.564 14 122.832 14C108.74 14 99 25.572 99 40C99 54.8677 108.961 66 123.054 66C134.785 66 144.229 58.5297 146 46.9577Z" fill="#151515"/>
<path fill-rule="evenodd" clip-rule="evenodd" d="M185 47C185 37.1347 178.167 28 167 28C155.833 28 149 37.1347 149 47C149 56.8653 155.833 66 167 66C178.167 66 185 56.8653 185 47ZM157.449 47C157.449 39.1809 160.902 33.9193 167 33.9193C173.171 33.9193 176.624 39.1809 176.624 47C176.624 54.7461 173.171 60.0807 167 60.0807C160.902 60.0807 157.449 54.7461 157.449 47Z" fill="#151515"/>
<path fill-rule="evenodd" clip-rule="evenodd" d="M216.165 57.6213H215.946C214.188 62.6486 209.941 66 204.377 66C194.418 66 189 57.257 189 47.0571C189 36.8571 194.638 28.1142 204.377 28.1142C209.941 28.1142 214.188 31.393 215.946 36.42H216.165V15H224V65.2714H216.165V57.6213ZM206.939 34.0157C200.862 34.0157 197.421 39.2614 197.421 47.0571C197.421 54.7799 200.862 60.0985 206.939 60.0985C213.09 60.0985 216.458 54.7799 216.458 47.0571C216.458 39.2614 213.09 34.0157 206.939 34.0157Z" fill="#151515"/>
<path fill-rule="evenodd" clip-rule="evenodd" d="M264.211 53.9423H256.053C255.153 56.8653 253.059 60.0807 248.191 60.0807C242.503 60.0807 238.535 56.2078 238.161 49.5576H264.887C266.01 36.8423 258.673 28 247.518 28C236.363 28 230 36.9154 230 47C230 57.0846 236.512 66 247.667 66C256.802 66 262.641 61.1769 264.211 53.9423ZM247.518 33.9193C252.983 33.9193 256.202 37.7192 256.726 43.6385H238.234C238.76 37.7192 242.053 33.9193 247.518 33.9193Z" fill="#151515"/>
<path d="M295.505 36.1916C305.168 38.3887 310 43.3689 310 51.3521C310 59.7747 301.675 66 289.78 66C276.176 66 268.816 56.6254 268 47.4703H276.696C277.216 54.0621 282.643 59.1887 289.855 59.1887C296.397 59.1887 301.228 56.4055 301.228 51.7183C301.228 47.617 298.107 45.4196 291.49 43.8818L284.057 42.1971C274.019 39.8536 269.04 35.2394 269.04 28.2085C269.04 19.7127 277.515 14 287.846 14C300.932 14 307.622 21.0312 308.513 29.7465H299.817C299.147 23.7408 294.016 20.8113 287.997 20.8113C282.123 20.8113 277.887 23.3014 277.887 27.6227C277.887 31.0648 280.488 32.6761 288.07 34.4337L295.505 36.1916Z" fill="#151515"/>
<path fill-rule="evenodd" clip-rule="evenodd" d="M340.944 57.5961H341.164V65.2692H349V28.7308H341.164V36.3309H340.944C339.188 31.2887 334.941 28 329.375 28C319.637 28 314 36.7693 314 47C314 57.2307 319.417 66 329.375 66C334.941 66 339.188 62.6385 340.944 57.5961ZM322.42 47C322.42 39.1809 325.935 33.9193 331.866 33.9193C337.795 33.9193 341.458 39.1809 341.458 47C341.458 54.7461 337.795 60.0807 331.866 60.0807C326.006 60.0807 322.42 54.7461 322.42 47Z" fill="#151515"/>
<path d="M365.084 43.2353V65H357V28.7255H364.862V35.8354H365.009C366.568 30.7569 370.423 28 375.837 28C383.997 28 388 33.4413 388 41.4217V65H379.916V43.7431C379.916 36.9962 377.471 33.9491 372.5 33.9491C367.532 33.9491 365.084 37.2863 365.084 43.2353Z" fill="#151515"/>
<path fill-rule="evenodd" clip-rule="evenodd" d="M420.716 57.6213H420.943V65.2714H429V15H420.943V36.42H420.716C418.907 31.393 414.539 28.1142 408.817 28.1142C398.798 28.1142 393 36.8571 393 47.0571C393 57.257 398.574 66 408.817 66C414.539 66 418.907 62.6486 420.716 57.6213ZM401.66 47.0571C401.66 39.2614 405.202 34.0157 411.453 34.0157C417.778 34.0157 421.243 39.2614 421.243 47.0571C421.243 54.7799 417.778 60.0985 411.453 60.0985C405.202 60.0985 401.66 54.7799 401.66 47.0571Z" fill="#151515"/>
<path fill-rule="evenodd" clip-rule="evenodd" d="M456.622 28.1142C466.36 28.1142 472 36.8571 472 47.0571C472 57.257 466.58 66 456.622 66C451.057 66 446.81 62.6486 445.054 57.6213H444.833V65.2714H437V15H444.833V36.42H445.054C446.81 31.393 451.057 28.1142 456.622 28.1142ZM454.06 34.0157C447.908 34.0157 444.542 39.2614 444.542 47.0571C444.542 54.7799 447.908 60.0985 454.06 60.0985C460.137 60.0985 463.578 54.7799 463.578 47.0571C463.578 39.2614 460.137 34.0157 454.06 34.0157Z" fill="#151515"/>
<path fill-rule="evenodd" clip-rule="evenodd" d="M512 47C512 37.1347 505.167 28 494.001 28C482.833 28 476 37.1347 476 47C476 56.8653 482.833 66 494.001 66C505.167 66 512 56.8653 512 47ZM484.448 47C484.448 39.1809 487.903 33.9193 494.001 33.9193C500.171 33.9193 503.626 39.1809 503.626 47C503.626 54.7461 500.171 60.0807 494.001 60.0807C487.903 60.0807 484.448 54.7461 484.448 47Z" fill="#151515"/>
<path d="M529.535 51.032L519.906 65H511L524.903 45.6321L512.81 29H521.716L529.535 40.232L537.355 29H546.19L534.171 45.5601L548 65H539.165L529.535 51.032Z" fill="#151515"/>
</svg>
