<svg width="548" height="107" viewBox="0 0 548 107" fill="none" xmlns="http://www.w3.org/2000/svg">
<path d="M133 36.7717H139.987V41.672C142.516 37.8689 146.373 36 150.961 36C158.615 36 163 40.8353 163 49.213V69H155.682V50.4356C155.682 45.3448 153.153 42.5739 148.432 42.5739C143.043 42.5739 140.183 46.4422 140.183 53.7877V69H133V36.7717Z" fill="white"/>
<path d="M182.579 36.005C191.571 36.005 196 40.2216 196 48.6547V69.2227H189.065V64.7441C186.883 68.0527 183.283 70 178.855 70C172.369 70 168 65.7832 168 59.8114C168 54.233 171.919 50.3393 178.275 49.7542L187.203 48.8464C188.551 48.7152 189.065 48.2613 189.065 47.3534V46.6372C189.065 43.9136 186.753 42.2895 182.709 42.2895C178.28 42.2895 175.325 44.1708 174.556 47.3534L168.968 43.7875C170.636 38.7236 175.39 36 182.584 36L182.579 36.005ZM179.818 55.4032C176.862 55.7259 175.189 57.2845 175.189 59.6197C175.189 62.2121 177.182 63.8362 180.457 63.8362C185.34 63.8362 189.065 60.3964 189.065 56.1143V54.233L179.818 55.3981V55.4032Z" fill="white"/>
<path d="M239.685 36C247.419 36 252 40.7702 252 49.9246V69H244.973V50.4357C244.973 45.2797 242.652 42.574 238.267 42.574C232.658 42.574 229.951 46.4422 229.951 53.7879V69H222.989V50.4357C222.989 45.2797 220.603 42.574 216.217 42.574C210.669 42.574 207.962 46.4422 207.962 53.7879V69H201V36.7767H207.772V41.8024C209.772 38.0644 213.12 36 217.897 36C222.674 36 226.342 38.0644 228.212 42.1882C230.728 38.1295 234.467 36 239.69 36H239.685Z" fill="white"/>
<path d="M273.264 36C283.3 36 289 43.1369 289 53.1286V55.141H264.126V55.2066C264.775 60.7245 269.175 63.4481 273.843 63.4481C278.119 63.4481 281.291 61.5667 283.556 59.2315L286.86 64.8755C284.206 67.4729 279.991 70 273.904 70C263.541 70 257 63.1253 257 53.1286C257 43.1319 263.284 36 273.259 36H273.264ZM273.133 42.2291C268.017 42.2291 265.037 45.0838 264.196 49.8198H281.361C280.908 45.341 278.189 42.2291 273.133 42.2291Z" fill="white"/>
<path d="M304.888 36C310.819 36 315.101 38.0784 317.933 41.9728L313.124 46.4473C311.347 43.7888 308.054 42.4268 304.361 42.4268C301.068 42.4268 299.024 43.5971 299.024 45.6705C299.024 47.8749 301.201 48.3945 306.799 49.6909C313.39 51.2497 318 53.1313 318 59.6842C318 66.237 313.124 70 304.627 70C297.908 70 292.571 67.5991 290 63.4474L294.876 58.8417C296.786 61.7625 300.213 63.6442 305.15 63.6442C308.643 63.6442 310.753 62.4789 310.753 60.0777C310.753 57.6765 308.709 57.1569 303.439 55.9916C297.775 54.7607 291.777 52.8135 291.777 45.9327C291.777 39.7683 296.786 36.005 304.883 36.005L304.888 36Z" fill="white"/>
<path d="M322 36.7823H328.932V41.39C331.497 37.8825 335.351 36 339.977 36C348.836 36 355 42.9445 355 53.0079C355 63.0713 348.836 70.0154 340.042 70.0154C335.485 70.0154 331.698 68.1331 328.938 64.5652V85H322.005V36.7823H322ZM347.873 53.0129C347.873 46.8457 344.02 42.6921 338.246 42.6921C332.471 42.6921 328.618 46.78 328.618 53.0129C328.618 59.2458 332.471 63.3337 338.246 63.3337C344.02 63.3337 347.873 59.1802 347.873 53.0129Z" fill="white"/>
<path d="M371.579 36.005C380.571 36.005 385 40.2216 385 48.6547V69.2227H378.065V64.7441C375.883 68.0527 372.283 70 367.854 70C361.369 70 357 65.7832 357 59.8114C357 54.233 360.92 50.3393 367.275 49.7542L376.202 48.8464C377.55 48.7152 378.065 48.2613 378.065 47.3534V46.6372C378.065 43.9136 375.753 42.2895 371.709 42.2895C367.281 42.2895 364.325 44.1708 363.556 47.3534L357.969 43.7875C359.637 38.7236 364.389 36 371.584 36L371.579 36.005ZM368.818 55.4032C365.862 55.7259 364.19 57.2845 364.19 59.6197C364.19 62.2121 366.182 63.8362 369.457 63.8362C374.34 63.8362 378.065 60.3964 378.065 56.1143V54.233L368.818 55.3981V55.4032Z" fill="white"/>
<path d="M405.999 36C410.743 36 414.788 37.6241 417.865 40.7361L413.695 46.2489C411.257 43.9792 408.692 42.809 405.805 42.809C400.029 42.809 396.118 46.96 396.118 52.9974C396.118 59.0348 400.098 63.1858 405.74 63.1858C408.757 63.1858 411.58 61.9551 414.02 59.6199L418 65.1982C414.918 68.3104 410.618 70 405.744 70C395.804 70 389 63.1253 389 53.068C389 43.0108 395.993 36.005 406.004 36.005L405.999 36Z" fill="white"/>
<path d="M435.264 36C445.3 36 451 43.1369 451 53.1286V55.141H426.125V55.2066C426.775 60.7245 431.176 63.4481 435.844 63.4481C440.118 63.4481 443.291 61.5667 445.557 59.2315L448.86 64.8755C446.207 67.4729 441.992 70 435.904 70C425.541 70 419 63.1253 419 53.1286C419 43.1319 425.284 36 435.259 36H435.264ZM435.133 42.2291C430.017 42.2291 427.036 45.0838 426.195 49.8198H443.361C442.908 45.341 440.189 42.2291 435.133 42.2291Z" fill="white"/>
<path d="M53.5 107C83.0469 107 107 83.0469 107 53.5C107 23.9528 83.0469 0 53.5 0C23.9528 0 0 23.9528 0 53.5C0 83.0469 23.9528 107 53.5 107Z" fill="#1C32FF"/>
<path d="M81 83V75H55V83H81Z" fill="white"/>
<path d="M61 69H54.5183L35.9011 42.3495V69H28V29H35.7118L53.0989 54.2823V29H61V69Z" fill="white"/>
</svg>
