<svg width="548" height="70" viewBox="0 0 548 70" fill="none" xmlns="http://www.w3.org/2000/svg">
<path d="M132.68 8.92165V0H185.709V8.92165H164.33V68.6902H154.025V8.92165H132.68ZM203.782 69.7298C198.719 69.7298 194.359 68.6457 190.701 66.4764C187.066 64.2854 184.255 61.2107 182.27 57.2529C180.307 53.2728 179.326 48.6111 179.326 43.2666C179.326 37.9901 180.307 33.3389 182.27 29.3141C184.255 25.2893 187.021 22.1476 190.567 19.8893C194.136 17.6309 198.307 16.5018 203.08 16.5018C205.98 16.5018 208.79 16.9825 211.511 17.944C214.232 18.9055 216.675 20.4148 218.838 22.4719C221.002 24.529 222.708 27.201 223.957 30.488C225.206 33.7525 225.831 37.7218 225.831 42.3949V45.9503H184.98V38.437H216.028C216.028 35.7985 215.492 33.4619 214.422 31.4271C213.351 29.37 211.846 27.7489 209.905 26.5638C207.987 25.3787 205.734 24.7861 203.147 24.7861C200.337 24.7861 197.883 25.4793 195.786 26.8656C193.712 28.2296 192.106 30.0184 190.969 32.2321C189.854 34.4234 189.296 36.8047 189.296 39.3761V45.2458C189.296 48.6893 189.898 51.6184 191.102 54.0332C192.329 56.4479 194.036 58.293 196.221 59.5672C198.407 60.8197 200.961 61.4453 203.883 61.4453C205.779 61.4453 207.508 61.177 209.068 60.6404C210.63 60.0815 211.979 59.2543 213.117 58.1588C214.254 57.0628 215.125 55.7104 215.726 54.1005L225.195 55.8109C224.436 58.6058 223.076 61.0543 221.113 63.1562C219.173 65.2353 216.73 66.8566 213.786 68.0194C210.864 69.1601 207.53 69.7298 203.782 69.7298ZM239.396 38.1014V68.6902H229.393V17.1725H238.995V25.5576H239.63C240.813 22.8297 242.664 20.6384 245.184 18.9837C247.727 17.3291 250.928 16.5018 254.786 16.5018C258.288 16.5018 261.355 17.2396 263.987 18.7154C266.619 20.1688 268.66 22.3377 270.109 25.2222C271.559 28.1067 272.284 31.673 272.284 35.9215V68.6902H262.281V37.1289C262.281 33.3948 261.31 30.4768 259.37 28.375C257.429 26.2508 254.764 25.1887 251.373 25.1887C249.054 25.1887 246.991 25.6918 245.184 26.6979C243.4 27.7041 241.983 29.1799 240.935 31.1252C239.909 33.0482 239.396 35.3736 239.396 38.1014ZM316.671 29.7501L307.605 31.36C307.225 30.1973 306.624 29.0905 305.798 28.0396C304.995 26.9886 303.902 26.1277 302.52 25.457C301.136 24.7861 299.408 24.4508 297.334 24.4508C294.501 24.4508 292.137 25.088 290.241 26.3625C288.345 27.6147 287.397 29.2358 287.397 31.2259C287.397 32.9476 288.033 34.3339 289.304 35.3848C290.575 36.4358 292.627 37.2966 295.46 37.9672L303.623 39.846C308.352 40.9414 311.876 42.6295 314.195 44.9101C316.515 47.1907 317.675 50.1535 317.675 53.7986C317.675 56.8841 316.783 59.6345 314.998 62.0493C313.237 64.4418 310.772 66.32 307.605 67.6838C304.46 69.0482 300.813 69.7298 296.665 69.7298C290.91 69.7298 286.215 68.5001 282.579 66.0408C278.943 63.5587 276.713 60.037 275.888 55.4752L285.557 53.9995C286.159 56.5261 287.397 58.438 289.27 59.735C291.144 61.0098 293.587 61.6468 296.597 61.6468C299.876 61.6468 302.497 60.9646 304.46 59.6009C306.423 58.2148 307.404 56.5261 307.404 54.5361C307.404 52.9262 306.802 51.5733 305.597 50.4778C304.415 49.3823 302.598 48.5551 300.144 47.9956L291.445 46.0844C286.65 44.9883 283.103 43.2443 280.806 40.8518C278.531 38.4593 277.393 35.4296 277.393 31.7625C277.393 28.7215 278.241 26.0607 279.936 23.7799C281.631 21.4993 283.973 19.7216 286.962 18.447C289.951 17.1502 293.375 16.5018 297.233 16.5018C302.787 16.5018 307.159 17.7092 310.348 20.1241C313.538 22.5166 315.645 25.7253 316.671 29.7501ZM342.784 69.7298C337.966 69.7298 333.761 68.6228 330.17 66.4096C326.579 64.1958 323.791 61.0988 321.806 57.1187C319.821 53.1386 318.828 48.4877 318.828 43.1661C318.828 37.8222 319.821 33.1489 321.806 29.1464C323.791 25.1439 326.579 22.0359 330.17 19.8222C333.761 17.6086 337.966 16.5018 342.784 16.5018C347.601 16.5018 351.805 17.6086 355.396 19.8222C358.987 22.0359 361.776 25.1439 363.761 29.1464C365.746 33.1489 366.739 37.8222 366.739 43.1661C366.739 48.4877 365.746 53.1386 363.761 57.1187C361.776 61.0988 358.987 64.1958 355.396 66.4096C351.805 68.6228 347.601 69.7298 342.784 69.7298ZM342.817 61.3112C345.94 61.3112 348.527 60.484 350.579 58.8296C352.631 57.1746 354.148 54.9722 355.129 52.2218C356.133 49.4719 356.634 46.4417 356.634 43.1324C356.634 39.846 356.133 36.8271 355.129 34.0768C354.148 31.3041 352.631 29.0793 350.579 27.4023C348.527 25.7253 345.94 24.8868 342.817 24.8868C339.672 24.8868 337.062 25.7253 334.988 27.4023C332.936 29.0793 331.408 31.3041 330.404 34.0768C329.423 36.8271 328.932 39.846 328.932 43.1324C328.932 46.4417 329.423 49.4719 330.404 52.2218C331.408 54.9722 332.936 57.1746 334.988 58.8296C337.062 60.484 339.672 61.3112 342.817 61.3112ZM370.367 68.6902V17.1725H380.037V25.3563H380.572C381.509 22.5837 383.159 20.4036 385.523 18.816C387.91 17.2061 390.609 16.4011 393.62 16.4011C394.244 16.4011 394.981 16.4235 395.828 16.4682C396.698 16.5129 397.378 16.5688 397.869 16.6359V26.2284C397.467 26.1166 396.753 25.9936 395.728 25.8594C394.701 25.7029 393.675 25.6246 392.649 25.6246C390.285 25.6246 388.177 26.1277 386.326 27.134C384.497 28.1178 383.047 29.493 381.977 31.2594C380.906 33.0035 380.371 34.9936 380.371 37.2295V68.6902H370.367ZM408.992 0V68.6902H398.988V0H408.992ZM429.868 69.8308C426.612 69.8308 423.667 69.2268 421.035 68.0194C418.403 66.7898 416.318 65.0121 414.779 62.6864C413.262 60.3613 412.504 57.5103 412.504 54.1336C412.504 51.2268 413.062 48.8343 414.177 46.9561C415.292 45.078 416.797 43.5908 418.694 42.4953C420.589 41.3999 422.708 40.5727 425.05 40.0132C427.392 39.4543 429.778 39.0296 432.21 38.739C435.288 38.3811 437.786 38.0905 439.704 37.8667C441.622 37.6207 443.016 37.2295 443.886 36.6929C444.756 36.1562 445.191 35.2842 445.191 34.0768V33.842C445.191 30.9128 444.366 28.6433 442.715 27.0334C441.087 25.4234 438.656 24.6185 435.422 24.6185C432.054 24.6185 429.4 25.3675 427.459 26.8656C425.541 28.3414 424.214 29.9849 423.477 31.7961L414.076 29.6495C415.191 26.5191 416.82 23.9924 418.961 22.0694C421.125 20.1241 423.611 18.7154 426.422 17.8434C429.232 16.9489 432.188 16.5018 435.288 16.5018C437.34 16.5018 439.515 16.7477 441.812 17.2396C444.131 17.7092 446.295 18.5813 448.303 19.8558C450.332 21.1303 451.994 22.9526 453.287 25.3228C454.581 27.6706 455.228 30.7228 455.228 34.4793V68.6902H445.459V61.6468H445.057C444.41 62.9439 443.44 64.218 442.146 65.4705C440.853 66.7224 439.191 67.7626 437.161 68.5897C435.132 69.4169 432.701 69.8308 429.868 69.8308ZM432.043 61.781C434.808 61.781 437.173 61.233 439.136 60.1375C441.121 59.042 442.626 57.6108 443.652 55.8445C444.7 54.0554 445.225 52.1436 445.225 50.109V43.4681C444.868 43.826 444.176 44.1611 443.15 44.474C442.146 44.7651 440.998 45.022 439.704 45.2458C438.411 45.4467 437.15 45.6368 435.923 45.8161C434.697 45.9725 433.671 46.1067 432.845 46.2186C430.905 46.464 429.132 46.8779 427.526 47.459C425.942 48.0408 424.671 48.8794 423.712 49.9749C422.775 51.0481 422.307 52.4793 422.307 54.2678C422.307 56.7499 423.221 58.6281 425.05 59.9028C426.879 61.1548 429.21 61.781 432.043 61.781ZM470.215 51.2159L470.149 38.9737H471.888L492.364 17.1725H504.341L480.989 41.9924H479.416L470.215 51.2159ZM461.015 68.6902V0H471.018V68.6902H461.015ZM493.468 68.6902L475.067 44.2057L481.959 37.196L505.747 68.6902H493.468ZM525.953 69.7298C520.89 69.7298 516.53 68.6457 512.872 66.4764C509.236 64.2854 506.426 61.2107 504.441 57.2529C502.478 53.2728 501.497 48.6111 501.497 43.2666C501.497 37.9901 502.478 33.3389 504.441 29.3141C506.426 25.2893 509.192 22.1476 512.738 19.8893C516.307 17.6309 520.477 16.5018 525.251 16.5018C528.15 16.5018 530.96 16.9825 533.682 17.944C536.403 18.9055 538.845 20.4148 541.009 22.4719C543.172 24.529 544.878 27.201 546.128 30.488C547.376 33.7525 548.001 37.7218 548.001 42.3949V45.9503H507.151V38.437H538.199C538.199 35.7985 537.663 33.4619 536.592 31.4271C535.522 29.37 534.016 27.7489 532.076 26.5638C530.157 25.3787 527.905 24.7861 525.318 24.7861C522.507 24.7861 520.054 25.4793 517.957 26.8656C515.883 28.2296 514.277 30.0184 513.14 32.2321C512.024 34.4234 511.467 36.8047 511.467 39.3761V45.2458C511.467 48.6893 512.069 51.6184 513.273 54.0332C514.5 56.4479 516.206 58.293 518.392 59.5672C520.578 60.8197 523.132 61.4453 526.053 61.4453C527.95 61.4453 529.678 61.177 531.239 60.6404C532.801 60.0815 534.15 59.2543 535.288 58.1588C536.425 57.0628 537.295 55.7104 537.897 54.1005L547.366 55.8109C546.607 58.6058 545.247 61.0543 543.284 63.1562C541.343 65.2353 538.901 66.8566 535.957 68.0194C533.035 69.1601 529.7 69.7298 525.953 69.7298Z" fill="white"/>
<path d="M31.1065 41.9976C37.5689 41.9976 41.8515 44.6848 44.7931 47.0058C45.4882 47.5544 46.1386 48.1067 46.6504 48.5362C47.1999 48.997 47.5929 49.3189 47.9356 49.5679C48.0842 49.6762 48.1982 49.7514 48.2798 49.8019H61.6448V60.148H47.8794C45.1889 60.148 43.1274 58.8486 41.8833 57.9426C41.2212 57.4607 40.5819 56.9289 40.041 56.4747C39.4627 55.9899 38.9648 55.5669 38.4234 55.1398C36.4198 53.5589 34.3464 52.3436 31.1065 52.3436H30.9752C27.7352 52.3436 25.662 53.5589 23.6582 55.1398C23.1169 55.5669 22.6192 55.9899 22.0406 56.4747C21.4997 56.9289 20.8604 57.4607 20.1981 57.9426C18.9541 58.8486 16.8928 60.148 14.2023 60.148H0.0546875V49.8019H13.8018C13.8837 49.7514 13.9975 49.6762 14.146 49.5679C14.4887 49.3189 14.8818 48.997 15.4313 48.5362C15.943 48.1067 16.5934 47.5544 17.2883 47.0058C20.23 44.6848 24.5124 41.9976 30.9752 41.9976H31.1065Z" fill="#82C38C"/>
<path d="M53.2548 8.53198C57.9355 8.53198 61.7298 12.3409 61.7298 17.039V39.3651H51.4227V18.8781H10.3072V39.3651H0V17.039C0.000246744 12.3409 3.79443 8.53198 8.47516 8.53198H53.2548Z" fill="#82C38C"/>
</svg>
