<svg width="548" height="85" viewBox="0 0 548 85" fill="none" xmlns="http://www.w3.org/2000/svg">
<path d="M104.406 58.5613C104.406 58.03 104.344 57.5613 104.219 57.155C104.094 56.7384 103.875 56.3634 103.562 56.03C103.25 55.6967 102.812 55.379 102.25 55.0769C101.688 54.7748 100.974 54.4675 100.109 54.155C99.1719 53.8217 98.3229 53.4519 97.5625 53.0457C96.8021 52.629 96.151 52.155 95.6094 51.6238C95.0781 51.0925 94.6667 50.4832 94.375 49.7957C94.0833 49.1082 93.9375 48.3217 93.9375 47.4363C93.9375 46.5509 94.0885 45.7332 94.3906 44.9832C94.7031 44.2332 95.1406 43.5821 95.7031 43.03C96.276 42.4675 96.9635 42.03 97.7656 41.7175C98.5677 41.405 99.4635 41.2488 100.453 41.2488C101.932 41.2488 103.177 41.5769 104.188 42.2332C105.208 42.879 105.979 43.7279 106.5 44.78C107.021 45.8217 107.281 46.9363 107.281 48.1238H104.406C104.406 47.2696 104.266 46.5144 103.984 45.8582C103.714 45.1915 103.286 44.6707 102.703 44.2957C102.13 43.9102 101.38 43.7175 100.453 43.7175C99.6198 43.7175 98.9323 43.879 98.3906 44.2019C97.8594 44.5248 97.4635 44.9623 97.2031 45.5144C96.9531 46.0665 96.8281 46.6967 96.8281 47.405C96.8281 47.8842 96.9115 48.3217 97.0781 48.7175C97.2448 49.1029 97.5 49.4623 97.8438 49.7957C98.1979 50.129 98.6354 50.4363 99.1562 50.7175C99.6875 50.9988 100.312 51.2696 101.031 51.53C102.146 51.8946 103.099 52.3009 103.891 52.7488C104.682 53.1967 105.328 53.7019 105.828 54.2644C106.328 54.8165 106.693 55.4467 106.922 56.155C107.161 56.8529 107.281 57.6446 107.281 58.53C107.281 59.4571 107.125 60.2957 106.812 61.0457C106.51 61.7957 106.068 62.4363 105.484 62.9675C104.901 63.4988 104.198 63.9102 103.375 64.2019C102.552 64.4832 101.625 64.6238 100.594 64.6238C99.6979 64.6238 98.8177 64.4779 97.9531 64.1863C97.099 63.8946 96.3229 63.4571 95.625 62.8738C94.9271 62.2904 94.3698 61.5717 93.9531 60.7175C93.5365 59.8529 93.3281 58.8529 93.3281 57.7175H96.2031C96.2031 58.4988 96.3177 59.1707 96.5469 59.7332C96.776 60.2852 97.0938 60.7436 97.5 61.1082C97.9062 61.4727 98.3698 61.7436 98.8906 61.9207C99.4219 62.0873 99.9896 62.1707 100.594 62.1707C101.427 62.1707 102.125 62.0248 102.688 61.7332C103.26 61.4415 103.688 61.0248 103.969 60.4832C104.26 59.9415 104.406 59.3009 104.406 58.5613ZM113.969 51.5144H115.75C116.542 51.5144 117.198 51.3477 117.719 51.0144C118.24 50.6707 118.625 50.2071 118.875 49.6238C119.135 49.03 119.266 48.3634 119.266 47.6238C119.266 46.7488 119.151 46.0144 118.922 45.4207C118.693 44.8269 118.349 44.379 117.891 44.0769C117.443 43.7748 116.875 43.6238 116.188 43.6238C115.542 43.6238 114.979 43.7852 114.5 44.1082C114.021 44.4207 113.651 44.8686 113.391 45.4519C113.13 46.0352 113 46.7227 113 47.5144H110.25C110.25 46.3582 110.49 45.3061 110.969 44.3582C111.458 43.4102 112.146 42.655 113.031 42.0925C113.927 41.53 114.979 41.2488 116.188 41.2488C117.344 41.2488 118.359 41.4936 119.234 41.9832C120.109 42.4623 120.792 43.1811 121.281 44.1394C121.781 45.0873 122.031 46.2696 122.031 47.6863C122.031 48.2592 121.922 48.8738 121.703 49.53C121.495 50.1759 121.156 50.78 120.688 51.3425C120.229 51.905 119.625 52.3686 118.875 52.7332C118.135 53.0873 117.229 53.2644 116.156 53.2644H113.969V51.5144ZM113.969 53.8894V52.155H116.156C117.427 52.155 118.464 52.3269 119.266 52.6707C120.068 53.0144 120.688 53.4727 121.125 54.0457C121.562 54.6186 121.865 55.2488 122.031 55.9363C122.208 56.6134 122.297 57.2904 122.297 57.9675C122.297 59.03 122.141 59.9727 121.828 60.7957C121.526 61.6186 121.094 62.3165 120.531 62.8894C119.979 63.4623 119.333 63.8946 118.594 64.1863C117.854 64.4779 117.047 64.6238 116.172 64.6238C115.318 64.6238 114.526 64.4832 113.797 64.2019C113.068 63.9207 112.427 63.5144 111.875 62.9832C111.323 62.4415 110.891 61.78 110.578 60.9988C110.276 60.2071 110.125 59.3061 110.125 58.2957H112.891C112.891 59.0873 113.021 59.78 113.281 60.3738C113.542 60.9675 113.917 61.4311 114.406 61.7644C114.896 62.0873 115.484 62.2488 116.172 62.2488C116.859 62.2488 117.453 62.0977 117.953 61.7957C118.453 61.4832 118.839 61.0144 119.109 60.3894C119.391 59.7644 119.531 58.9779 119.531 58.03C119.531 57.0821 119.375 56.3061 119.062 55.7019C118.76 55.0873 118.328 54.6342 117.766 54.3425C117.203 54.0404 116.531 53.8894 115.75 53.8894H113.969Z" fill="black"/>
<path d="M162.015 17.2339V14.4941C162.015 14.0795 162.332 13.8013 162.712 13.8013H175.054C175.451 13.8013 175.767 14.0847 175.767 14.4941V16.8403C175.762 17.2339 175.429 17.7483 174.838 18.5619L168.442 27.6369C170.819 27.5792 173.327 27.9308 175.482 29.138C175.968 29.411 176.1 29.8099 176.137 30.2035V33.1271C176.137 33.526 175.693 33.9931 175.229 33.7517C171.431 31.7729 166.388 31.5577 162.189 33.7727C161.761 34.0036 161.312 33.5417 161.312 33.1428V30.3663C161.312 29.9201 161.318 29.159 161.767 28.482L169.176 17.9215H162.728C162.332 17.9215 162.015 17.6433 162.015 17.2339Z" fill="#221F1F"/>
<path d="M117.253 34.235H113.505C113.147 34.2088 112.862 33.9417 112.836 33.6012V14.4898C112.836 14.1074 113.157 13.8037 113.558 13.8037H117.053C117.416 13.8194 117.706 14.097 117.733 14.4426V16.9409H117.801C118.713 14.5264 120.426 13.4004 122.735 13.4004C125.08 13.4004 126.546 14.5264 127.6 16.9409C128.506 14.5264 130.567 13.4004 132.776 13.4004C134.347 13.4004 136.065 14.0446 137.114 15.4901C138.3 17.098 138.057 19.4339 138.057 21.4818L138.052 33.5436C138.052 33.9259 137.731 34.235 137.33 34.235H133.588C133.213 34.2088 132.913 33.9102 132.913 33.5436V23.4144C132.913 22.6078 132.987 20.5966 132.808 19.832C132.528 18.5488 131.69 18.1874 130.604 18.1874C129.698 18.1874 128.749 18.7897 128.364 19.7534C127.979 20.7171 128.016 22.3302 128.016 23.4144V33.5436C128.016 33.9259 127.695 34.235 127.294 34.235H123.552C123.172 34.2088 122.877 33.9102 122.877 33.5436L122.872 23.4144C122.872 21.2827 123.225 18.1455 120.563 18.1455C117.87 18.1455 117.975 21.2042 117.975 23.4144V33.5436C117.975 33.9259 117.654 34.235 117.253 34.235Z" fill="#221F1F"/>
<path d="M186.287 13.4004C191.921 13.4004 194.971 18.1461 194.971 24.1804C194.971 30.0104 191.601 34.6356 186.287 34.6356C180.754 34.6356 177.742 29.8899 177.742 23.9761C177.742 18.0256 180.792 13.4004 186.287 13.4004ZM186.319 17.3028C183.521 17.3028 183.344 21.0428 183.344 23.3737C183.344 25.7099 183.307 30.6966 186.287 30.6966C189.23 30.6966 189.369 26.6737 189.369 24.2223C189.369 22.609 189.299 20.6813 188.802 19.1518C188.375 17.8213 187.526 17.3028 186.319 17.3028Z" fill="#221F1F"/>
<path d="M202.136 34.235H198.446C198.076 34.2088 197.779 33.9102 197.779 33.5436L197.773 14.4269C197.805 14.076 198.112 13.8037 198.488 13.8037H201.922C202.246 13.8194 202.511 14.0394 202.584 14.3379V17.2604H202.652C203.689 14.6469 205.144 13.4004 207.703 13.4004C209.366 13.4004 210.987 14.0027 212.029 15.6525C212.999 17.1818 212.999 19.7534 212.999 21.6022V33.6326C212.957 33.9678 212.649 34.235 212.285 34.235H208.568C208.229 34.2088 207.948 33.9574 207.911 33.6326V23.252C207.911 21.1623 208.151 18.1036 205.592 18.1036C204.69 18.1036 203.861 18.7112 203.45 19.633C202.928 20.8009 202.861 21.9636 202.861 23.252V33.5436C202.855 33.9259 202.532 34.235 202.136 34.235Z" fill="#221F1F"/>
<path d="M152.147 25.088V24.2679C149.481 24.2679 146.665 24.8537 146.665 28.0807C146.665 29.7155 147.489 30.8231 148.905 30.8231C149.943 30.8231 150.871 30.1681 151.457 29.1031C152.183 27.7931 152.147 26.563 152.147 25.088ZM155.866 34.3164C155.622 34.54 155.269 34.556 154.994 34.4069C153.77 33.3632 153.553 32.8786 152.878 31.8828C150.856 34.0022 149.424 34.6359 146.8 34.6359C143.698 34.6359 141.281 32.6709 141.281 28.7357C141.281 25.6631 142.905 23.5703 145.213 22.5479C147.215 21.6426 150.01 21.4829 152.147 21.2326V20.7427C152.147 19.8428 152.214 18.7777 151.701 18.0003C151.25 17.3027 150.389 17.0151 149.632 17.0151C148.226 17.0151 146.971 17.7553 146.665 19.2889C146.603 19.6298 146.359 19.9652 146.027 19.9812L142.448 19.5871C142.147 19.5179 141.815 19.2676 141.898 18.7937C142.723 14.3419 146.639 13 150.145 13C151.94 13 154.284 13.4899 155.7 14.8851C157.494 16.6051 157.323 18.9002 157.323 21.3977V27.2979C157.323 29.0712 158.039 29.8486 158.713 30.8071C158.952 31.1479 159.004 31.558 158.703 31.8136C157.951 32.4579 156.613 33.6561 155.876 34.327L155.866 34.3164Z" fill="#221F1F"/>
<path d="M103.113 25.088V24.2679C100.386 24.2679 97.506 24.8537 97.506 28.0807C97.506 29.7155 98.3493 30.8231 99.7974 30.8231C100.858 30.8231 101.808 30.1681 102.407 29.1031C103.15 27.7931 103.113 26.563 103.113 25.088ZM106.916 34.3164C106.667 34.54 106.306 34.556 106.025 34.4069C104.773 33.3632 104.55 32.8786 103.861 31.8828C101.792 34.0022 100.328 34.6359 97.6439 34.6359C94.4718 34.6359 92 32.6709 92 28.7357C92 25.6631 93.6603 23.5703 96.0207 22.5479C98.0682 21.6426 100.927 21.4829 103.113 21.2326V20.7427C103.113 19.8428 103.182 18.7777 102.657 18.0003C102.195 17.3027 101.314 17.0151 100.54 17.0151C99.1026 17.0151 97.8189 17.7553 97.506 19.2889C97.4423 19.6298 97.193 19.9652 96.8535 19.9812L93.1935 19.5871C92.8858 19.5179 92.5464 19.2676 92.6312 18.7937C93.4746 14.3419 97.4794 13 101.065 13C102.901 13 105.298 13.4899 106.746 14.8851C108.582 16.6051 108.406 18.9002 108.406 21.3977V27.2979C108.406 29.0712 109.138 29.8486 109.828 30.8071C110.072 31.1479 110.125 31.558 109.817 31.8136C109.048 32.4579 107.68 33.6561 106.927 34.327L106.916 34.3164Z" fill="#221F1F"/>
<path fill-rule="evenodd" clip-rule="evenodd" d="M72.7256 46.6123L73.1599 43.3981C76.6193 45.4953 77.6878 46.7069 77.9981 47.2182C77.0809 47.494 75.229 47.251 72.7256 46.6123ZM38.3989 34.9419C38.3989 34.8396 38.4823 34.7567 38.585 34.7567C38.6141 34.7567 38.6355 34.776 38.6607 34.7895L38.5191 35.0731C38.4551 35.0538 38.3989 35.0152 38.3989 34.9419ZM64.9884 74.8537C64.9767 74.9405 64.9709 75.0254 64.9709 75.1103C64.9709 75.4094 64.236 76.5457 60.9685 77.8287C59.5122 78.4017 57.7922 78.9149 55.8531 79.3587C50.8598 80.5085 44.7244 81.1414 38.5812 81.1414C22.1644 81.1414 12.1953 76.9547 12.1953 75.1103C12.1953 75.0254 12.1894 74.9405 12.1778 74.8537L4.73344 19.843C5.21241 20.1209 5.72628 20.3852 6.26537 20.6437C6.41856 20.717 6.58532 20.7865 6.74433 20.8598C7.20973 21.074 7.69257 21.2804 8.19675 21.481C8.41393 21.5659 8.63306 21.6508 8.85606 21.7338C9.39126 21.9344 9.94392 22.1274 10.516 22.3126C10.6847 22.3685 10.8456 22.4264 11.0163 22.4785C11.7512 22.7081 12.5133 22.928 13.2986 23.1345C13.5178 23.1923 13.7446 23.2483 13.9676 23.3023C14.5726 23.4567 15.1893 23.6033 15.8195 23.7422C16.0929 23.8039 16.3644 23.8637 16.6398 23.9197C17.3476 24.0683 18.0709 24.211 18.8058 24.3441C18.9648 24.3731 19.118 24.404 19.2789 24.4329C20.1671 24.5872 21.0765 24.73 21.9996 24.8651C22.2594 24.9017 22.5231 24.9345 22.7868 24.9692C23.4849 25.0657 24.1927 25.1545 24.9063 25.2374C25.1972 25.2702 25.49 25.3049 25.7848 25.3377C26.6457 25.4284 27.5145 25.5114 28.389 25.5866C28.4918 25.5943 28.5965 25.6059 28.7032 25.6136C29.6805 25.6927 30.6636 25.7564 31.6487 25.8143C31.9299 25.8297 32.2111 25.8413 32.4942 25.8548C33.2388 25.8915 33.9835 25.9204 34.7281 25.9455C35.0209 25.9551 35.3098 25.9648 35.6007 25.9725C36.5955 25.9937 37.5903 26.0111 38.5812 26.0111C39.5701 26.0111 40.5649 25.9937 41.5597 25.9725C41.8505 25.9648 42.1434 25.9551 42.4342 25.9455C43.1808 25.9204 43.9235 25.8915 44.6662 25.8548C44.9512 25.8413 45.2324 25.8297 45.5155 25.8143C46.5025 25.7564 47.4838 25.6927 48.4591 25.6136C48.5677 25.604 48.6744 25.5924 48.781 25.5866C49.6556 25.5114 50.5185 25.4284 51.3756 25.3377C51.6742 25.3049 51.967 25.2702 52.2618 25.2374C52.9715 25.1545 53.6774 25.0657 54.3735 24.9712C54.6392 24.9364 54.9068 24.9017 55.1686 24.8631C56.0897 24.73 56.9972 24.5872 57.8872 24.4329C58.0482 24.404 58.2053 24.3731 58.3662 24.3422C59.0992 24.211 59.8186 24.0683 60.5264 23.9197C60.8037 23.8637 61.0733 23.8039 61.3467 23.7422C61.9769 23.6014 62.5935 23.4547 63.2005 23.3023C63.4216 23.2464 63.6484 23.1923 63.8676 23.1364C64.6548 22.928 65.4169 22.7081 66.1519 22.4785C66.3206 22.4264 66.4796 22.3705 66.6444 22.3145C67.2203 22.1293 67.7769 21.9344 68.3159 21.7318C68.5351 21.6508 68.7523 21.5679 68.9675 21.483C69.4755 21.2804 69.9623 21.072 70.4335 20.8559C70.5867 20.7846 70.7496 20.717 70.9008 20.6456C71.4399 20.3871 71.9557 20.1209 72.4347 19.843L68.9597 45.5146C61.9071 43.263 52.002 39.1787 42.6262 34.7432C42.5196 32.6074 40.7569 30.898 38.585 30.898C36.3434 30.898 34.5206 32.7135 34.5206 34.9419C34.5206 37.1703 36.3434 38.9838 38.585 38.9838C39.4654 38.9838 40.276 38.6964 40.9411 38.2198C49.3415 42.2309 60.0668 46.9635 68.4381 49.3674L64.9884 74.8537ZM38.5812 3.85864C58.7851 3.85864 73.0203 10.0865 73.284 13.5457L73.2336 13.947C73.1987 14.0667 73.1231 14.1882 73.0591 14.3117C73.0067 14.412 72.9679 14.5085 72.8962 14.6107C72.8109 14.7303 72.6848 14.8519 72.5743 14.9734C72.4754 15.0796 72.392 15.1857 72.2737 15.2937C72.1419 15.4114 71.9732 15.5329 71.8161 15.6526C71.6707 15.7645 71.5427 15.8744 71.3759 15.9883C71.1994 16.104 70.9881 16.2236 70.7903 16.3433C70.5983 16.4571 70.4219 16.5728 70.2066 16.6867C69.9933 16.8024 69.7432 16.9143 69.5085 17.0301C69.2681 17.1478 69.0431 17.2635 68.7794 17.3812C68.5292 17.4912 68.2442 17.6012 67.9766 17.7111C67.6857 17.8269 67.4123 17.9465 67.102 18.0604C66.8151 18.1684 66.4932 18.2726 66.1887 18.3768C65.8571 18.4906 65.5391 18.6064 65.1862 18.7183C64.8585 18.8224 64.4978 18.9189 64.1507 19.0212C63.7822 19.1292 63.4274 19.2392 63.0395 19.3434C62.6672 19.4437 62.2658 19.5363 61.878 19.6327C61.4766 19.7311 61.0888 19.8334 60.668 19.9299C60.2491 20.0244 59.7992 20.1112 59.361 20.2019C58.9383 20.2887 58.5272 20.3813 58.085 20.4643C57.6196 20.553 57.1213 20.6321 56.6365 20.7151C56.1905 20.7903 55.7581 20.8714 55.2946 20.9428C54.7904 21.0199 54.2552 21.0894 53.7317 21.1608C53.2585 21.2244 52.797 21.2958 52.3083 21.3537C51.7402 21.4232 51.141 21.481 50.5534 21.5408C50.0803 21.591 49.6226 21.647 49.1378 21.6894C48.4863 21.7492 47.8037 21.7936 47.1328 21.8399C46.6809 21.8746 46.2446 21.9132 45.7831 21.9421C45.0482 21.9846 44.2784 22.0116 43.5163 22.0444C43.0974 22.0598 42.6902 22.0849 42.2616 22.0984C41.0613 22.1331 39.8338 22.1524 38.5812 22.1524C37.3285 22.1524 36.101 22.1331 34.8987 22.0984C34.4682 22.0849 34.0571 22.0579 33.6305 22.0425C32.8743 22.0116 32.1122 21.9846 31.3792 21.9421C30.8944 21.9113 30.4329 21.8708 29.9578 21.836C29.3121 21.7897 28.6528 21.7473 28.0264 21.6894C27.5397 21.647 27.082 21.5891 26.607 21.5408C26.0194 21.481 25.4202 21.4232 24.854 21.3537C24.3692 21.2958 23.9096 21.2264 23.4384 21.1608C22.9148 21.0894 22.3758 21.0219 21.8696 20.9428C21.3887 20.8694 20.9388 20.7846 20.4754 20.7054C20.0081 20.6244 19.5291 20.5492 19.0812 20.4643C18.6313 20.3794 18.2144 20.2868 17.78 20.198C17.3495 20.1074 16.9074 20.0225 16.4943 19.9279C16.0755 19.8334 15.6896 19.7311 15.2882 19.6327C14.9004 19.5363 14.497 19.4437 14.1266 19.3434C13.733 19.2392 13.3743 19.1273 13 19.0173C12.6587 18.9189 12.3039 18.8205 11.98 18.7183C11.6213 18.6044 11.2994 18.4887 10.9639 18.371C10.6633 18.2687 10.3473 18.1665 10.0661 18.0604C9.75194 17.9465 9.47852 17.825 9.18765 17.7092C8.92005 17.5992 8.635 17.4893 8.38679 17.3812C8.12694 17.2635 7.90006 17.1478 7.65961 17.0301C7.42497 16.9143 7.17288 16.8024 6.95958 16.6847C6.74627 16.5709 6.56787 16.4552 6.37396 16.3394C6.1781 16.2217 5.96674 16.104 5.79222 15.9883C5.62351 15.8725 5.49165 15.7606 5.34427 15.6468C5.19108 15.5291 5.02431 15.4095 4.89633 15.2937C4.77417 15.1837 4.68884 15.0738 4.58801 14.9677C4.47942 14.848 4.35725 14.7284 4.27193 14.6107C4.19824 14.5065 4.1614 14.4062 4.1071 14.302C4.04505 14.1824 3.96942 14.0628 3.93646 13.947L3.88216 13.5438C4.1517 10.0845 18.3831 3.85864 38.5812 3.85864ZM81.9384 46.7995C81.5254 44.5808 78.956 42.2309 73.7223 39.2559L77.0498 14.6532V14.6455L77.1487 13.8911C77.1604 13.8081 77.1662 13.7252 77.1662 13.6422C77.1662 5.60274 56.8324 0 38.5812 0C20.3319 0 0 5.60274 0 13.6422C0 13.7271 0.00581755 13.812 0.0174524 13.8969L0.118288 14.6493V14.6532L8.31892 75.2608C8.57294 82.353 26.9599 85 38.5812 85C45.0094 85 51.4532 84.3325 56.7257 83.1189C58.8491 82.6327 60.7552 82.0597 62.3919 81.4173C66.592 79.7677 68.7619 77.6956 68.8473 75.2608L72.2233 50.3166C74.0694 50.7064 75.7467 50.9437 77.141 50.9437C79.02 50.9437 80.4259 50.5482 81.186 49.6452C81.8647 48.8426 82.1323 47.8317 81.9384 46.7995Z" fill="#7AA116"/>
</svg>
