<svg viewBox="0 0 548 85" width="548" height="85" fill="none" xmlns="http://www.w3.org/2000/svg"><g transform="translate(0.0000, 0.0000) scale(0.977011)">
<path fill-rule="evenodd" clip-rule="evenodd" d="M43.4629 0C67.4655 0 86.924 19.4758 86.924 43.5008C86.924 54.1981 83.0659 63.9922 76.6649 71.5666L61.3129 56.2012C60.2553 57.5099 59.122 58.7697 57.9299 59.9612C54.8934 63.0004 51.4371 65.6514 47.7991 67.6686C47.2258 67.9868 46.648 68.2896 46.0673 68.5746V86.9209C45.2059 86.9714 44.3366 87 43.4629 87C19.4603 87 0.00158317 67.5257 0 43.5008C0 34.4181 2.78322 25.9962 7.53271 19.0242L34.0461 39.0545C29.1399 44.1807 25.288 49.3033 22.9592 53.5833C20.7664 57.6143 19.8878 60.5918 20.8441 61.5616C21.8129 62.5186 24.7893 61.6407 28.8137 59.4463C32.8492 57.2468 37.6383 53.6894 42.4703 49.1658L38.4521 43.1155C37.746 42.0492 37.0145 41.0368 38.0167 40.0338C39.0205 39.0308 40.0321 39.7612 41.096 40.4664L47.1468 44.491C51.659 39.6614 55.2117 34.8665 57.4121 30.8196C59.608 26.7901 60.4851 23.8111 59.521 22.8493C58.5632 21.889 55.585 22.7669 51.5575 24.9615C47.2734 27.2987 42.152 31.1476 37.0383 36.0502L16.7705 9.17299C24.137 3.42581 33.4002 0 43.4629 0ZM25.3228 65.4215C26.9994 64.9476 28.8422 64.1633 30.799 63.0953C35.8493 60.3399 41.9144 55.6953 47.7896 49.8154L47.785 49.8104L47.7896 49.8075C53.6727 43.9176 58.3128 37.8518 61.0583 32.8066C62.1238 30.8481 62.909 29.0053 63.3821 27.3304C67.0267 33.3121 65.8379 40.8768 62 47.8028C60.1874 51.0781 57.773 54.2217 54.9853 57.014C52.1954 59.8059 49.0512 62.2224 45.7804 64.0366C38.8605 67.8762 31.2993 69.0676 25.3228 65.4215Z" fill="#1E1F24"/>
<path d="M134.65 20.1426L156.816 20.213C166.667 20.213 172.086 25.636 172.086 33.8761C172.086 38.3836 170.186 41.905 165.823 43.6657V43.9474C171.03 45.7786 173.774 49.793 173.774 55.9907C173.774 64.7239 168.075 70.4286 157.66 70.4286H134.65V20.1426ZM142.391 41.4824H155.69C161.32 41.4824 164.205 38.8061 164.205 34.0874C164.205 29.3687 161.32 26.6924 155.69 26.6924H142.391V41.4824ZM142.391 63.8083H156.535C162.727 63.8083 165.893 60.8503 165.893 55.709C165.893 50.5677 162.727 47.6097 156.535 47.6097H142.391V63.8083ZM208.479 58.7374L215.727 59.653C214.038 65.0056 209.535 71.3442 198.557 71.3442C188.143 71.3442 181.106 63.5266 181.106 51.9763C181.106 40.2147 187.862 32.4676 198.487 32.4676C209.324 32.4676 216.853 40.2852 215.938 53.5962H188.354C188.565 60.3573 192.435 65.4986 198.557 65.4986C205.031 65.4986 207.494 61.4137 208.479 58.7374ZM198.487 38.2427C192.295 38.2427 189.058 42.9614 188.495 48.1027H208.69C208.127 42.9614 204.89 38.2427 198.487 38.2427ZM255.603 64.8647C256.025 64.8647 256.729 64.7943 257.292 64.583V70.4286C256.658 70.6399 254.899 70.7807 253.492 70.7807C250.044 70.7807 247.722 69.5834 246.948 66.3437H246.666C244.133 69.9356 238.996 71.2737 234.774 71.2737C228.371 71.2737 222.882 67.048 222.882 60.2164C222.882 52.1876 228.441 49.2296 238.152 48.2436C244.837 47.5393 246.596 46.2716 246.596 43.9474C246.596 40.6373 244.625 38.3131 239.278 38.3131C235.618 38.3131 232.1 40.2147 230.763 44.5813L224.219 43.1023C225.767 36.4116 231.748 32.4676 239.489 32.4676C250.044 32.4676 253.773 37.5384 253.773 43.8066V62.6814C253.773 64.5126 254.618 64.8647 255.603 64.8647ZM246.596 55.7794V51.3424C245.47 52.6806 241.318 53.3144 237.378 53.8074C233.648 54.3004 230.2 56.1316 230.2 60.2164C230.2 63.597 232.522 65.6394 236.181 65.6394C240.826 65.6394 246.596 62.7519 246.596 55.7794ZM305.885 32.4676C312.148 32.4676 318.34 36.4116 318.34 45.7786V70.4286H311.162V47.9619C311.162 40.9894 308.418 38.454 303.563 38.454C299.27 38.454 295.119 42.398 295.119 50.0043V70.4286H287.941V47.9619C287.941 40.9894 285.197 38.454 280.342 38.454C276.049 38.454 271.898 42.398 271.898 50.0043V70.4286H264.72V33.3127H271.546V38.2427H271.827C274.712 34.1579 278.583 32.4676 282.664 32.4676C286.956 32.4676 291.249 34.2987 293.5 38.5244C296.808 34.51 300.467 32.4676 305.885 32.4676Z" fill="#1E1F24"/>
</g></svg>