<svg width="548" height="95" viewBox="0 0 548 95" fill="none" xmlns="http://www.w3.org/2000/svg">
<path d="M123.131 71.8798C120.298 71.8798 117.732 71.1578 115.433 69.7141C113.149 68.2545 111.336 66.1129 109.992 63.2897C108.664 60.4505 108 56.9695 108 52.847C108 48.6122 108.688 45.0911 110.064 42.2839C111.44 39.4607 113.271 37.3514 115.554 35.9557C117.853 34.5441 120.37 33.8383 123.107 33.8383C125.195 33.8383 126.936 34.1913 128.328 34.8971C129.737 35.5868 130.871 36.453 131.729 37.4957C132.603 38.5222 133.267 39.5328 133.721 40.5274H134.036V22H144.357V71.2782H134.157V65.3591H133.721C133.234 66.3856 132.546 67.4043 131.656 68.4149C130.782 69.4094 129.639 70.2355 128.231 70.8933C126.838 71.5509 125.138 71.8798 123.131 71.8798ZM126.41 63.7228C128.077 63.7228 129.486 63.2737 130.636 62.3754C131.801 61.4611 132.692 60.1858 133.308 58.5496C133.939 56.9135 134.254 54.9966 134.254 52.7988C134.254 50.6013 133.947 48.6924 133.331 47.0722C132.717 45.4521 131.826 44.2008 130.66 43.3186C129.495 42.4363 128.077 41.9952 126.41 41.9952C124.71 41.9952 123.277 42.4523 122.111 43.3668C120.946 44.2811 120.063 45.5482 119.464 47.1685C118.865 48.7886 118.565 50.6654 118.565 52.7988C118.565 54.9484 118.865 56.8493 119.464 58.5015C120.078 60.1377 120.961 61.421 122.111 62.3513C123.277 63.2657 124.71 63.7228 126.41 63.7228ZM168.497 72C164.659 72 161.357 71.2301 158.588 69.6902C155.835 68.1341 153.714 65.9365 152.225 63.0973C150.735 60.242 149.99 56.8653 149.99 52.9673C149.99 49.1656 150.735 45.829 152.225 42.9576C153.714 40.0863 155.812 37.8485 158.515 36.2445C161.236 34.6404 164.424 33.8383 168.084 33.8383C170.545 33.8383 172.836 34.2313 174.957 35.0173C177.095 35.7873 178.956 36.9503 180.544 38.5063C182.146 40.0622 183.393 42.0192 184.283 44.3774C185.174 46.7193 185.619 49.4623 185.619 52.6063V55.4216H154.12V49.0693H175.88C175.88 47.5935 175.556 46.2861 174.908 45.1473C174.261 44.0084 173.363 43.1181 172.213 42.4764C171.08 41.8187 169.76 41.4899 168.254 41.4899C166.683 41.4899 165.292 41.8508 164.077 42.5727C162.879 43.2785 161.939 44.2329 161.259 45.436C160.579 46.623 160.232 47.9465 160.215 49.4061V55.4457C160.215 57.2743 160.556 58.8543 161.236 60.1858C161.932 61.5173 162.911 62.5438 164.174 63.2657C165.436 63.9875 166.935 64.3485 168.667 64.3485C169.817 64.3485 170.869 64.188 171.824 63.8673C172.78 63.5464 173.598 63.0652 174.277 62.4236C174.957 61.7818 175.476 60.9959 175.831 60.0654L185.401 60.6911C184.915 62.969 183.919 64.958 182.413 66.6584C180.923 68.3427 178.997 69.6581 176.633 70.6045C174.286 71.5349 171.574 72 168.497 72ZM207.859 72C204.037 72 200.75 71.1981 197.997 69.5939C195.262 67.9738 193.157 65.728 191.684 62.8566C190.226 59.9853 189.497 56.6809 189.497 52.9432C189.497 49.1576 190.234 45.837 191.707 42.9817C193.198 40.1104 195.31 37.8726 198.046 36.2685C200.783 34.6484 204.037 33.8383 207.81 33.8383C211.064 33.8383 213.914 34.4237 216.359 35.5948C218.804 36.7658 220.738 38.41 222.162 40.5274C223.587 42.6449 224.373 45.1312 224.519 47.9865H214.756C214.481 46.1418 213.751 44.658 212.57 43.5352C211.405 42.3963 209.874 41.8268 207.98 41.8268C206.377 41.8268 204.976 42.2599 203.777 43.126C202.596 43.9763 201.673 45.2195 201.01 46.8556C200.345 48.4918 200.013 50.4729 200.013 52.7988C200.013 55.1569 200.337 57.1621 200.985 58.8143C201.649 60.4665 202.579 61.7258 203.777 62.592C204.976 63.4581 206.377 63.8913 207.98 63.8913C209.161 63.8913 210.222 63.6507 211.161 63.1695C212.116 62.6881 212.902 61.9905 213.518 61.076C214.149 60.1457 214.562 59.0309 214.756 57.7315H224.519C224.357 60.5547 223.58 63.0411 222.187 65.1906C220.811 67.324 218.908 68.9924 216.48 70.1955C214.051 71.3986 211.177 72 207.859 72ZM240.121 22V71.2782H229.776V22H240.121ZM257.679 71.976C255.299 71.976 253.178 71.567 251.316 70.7488C249.454 69.9147 247.98 68.6876 246.896 67.0675C245.827 65.4312 245.293 63.394 245.293 60.9558C245.293 58.9025 245.673 57.178 246.435 55.7825C247.195 54.3869 248.232 53.2641 249.543 52.4139C250.855 51.5636 252.344 50.922 254.012 50.4889C255.695 50.0559 257.461 49.7511 259.307 49.5746C261.477 49.3501 263.225 49.1415 264.553 48.9491C265.88 48.7404 266.844 48.4356 267.443 48.0346C268.042 47.6336 268.341 47.0401 268.341 46.254V46.1097C268.341 44.5859 267.856 43.4068 266.884 42.5727C265.929 41.7385 264.568 41.3215 262.804 41.3215C260.941 41.3215 259.459 41.7305 258.359 42.5486C257.258 43.3507 256.529 44.3612 256.173 45.5803L246.604 44.8103C247.091 42.5647 248.046 40.6237 249.47 38.9875C250.895 37.3352 252.733 36.068 254.983 35.1857C257.251 34.2874 259.872 33.8383 262.853 33.8383C264.925 33.8383 266.908 34.0789 268.802 34.5602C270.714 35.0414 272.405 35.7873 273.879 36.7979C275.368 37.8084 276.542 39.1078 277.4 40.6959C278.257 42.2679 278.687 44.1527 278.687 46.3503V71.2782H268.876V66.1531H268.584C267.985 67.3081 267.183 68.3266 266.179 69.2088C265.175 70.0751 263.969 70.7568 262.561 71.2541C261.153 71.7354 259.525 71.976 257.679 71.976ZM260.642 64.9018C262.165 64.9018 263.507 64.6051 264.674 64.0116C265.84 63.4021 266.755 62.5839 267.418 61.5573C268.082 60.5306 268.414 59.3677 268.414 58.0684V54.1463C268.09 54.3548 267.644 54.5473 267.078 54.7237C266.528 54.8842 265.904 55.0366 265.207 55.181C264.512 55.3093 263.816 55.4295 263.12 55.5419C262.423 55.6382 261.792 55.7263 261.225 55.8066C260.01 55.983 258.951 56.2637 258.043 56.6488C257.137 57.0337 256.432 57.5551 255.93 58.2127C255.428 58.8543 255.178 59.6564 255.178 60.6189C255.178 62.0144 255.688 63.0812 256.707 63.8191C257.744 64.541 259.055 64.9018 260.642 64.9018ZM292.704 71.2782L282.553 34.3195H293.02L298.801 59.1511H299.141L305.164 34.3195H315.438L321.558 59.0068H321.874L327.556 34.3195H338L327.872 71.2782H316.92L310.507 48.0346H310.046L303.635 71.2782H292.704Z" fill="black"/>
<path d="M21.1924 1.5H73.8076C84.6834 1.5 93.5 10.3166 93.5 21.1924V73.8076C93.5 84.6834 84.6834 93.5 73.8076 93.5H21.1924C10.3166 93.5 1.5 84.6834 1.5 73.8076V21.1924C1.5 10.3166 10.3166 1.5 21.1924 1.5Z" fill="#0F1418" stroke="#22D3A6" stroke-width="3"/>
<path d="M47.4999 26L68 37.4999L47.4999 49L27 37.4999L47.4999 26Z" fill="#34F5C0"/>
<path d="M27 38V60.6667L47 72V49.3333L27 38Z" fill="#13806A"/>
<path d="M68 38V60.6667L48 72V49.3333L68 38Z" fill="#0A4A3D"/>
</svg>
