<svg width="548" height="70" viewBox="0 0 548 70" fill="none" xmlns="http://www.w3.org/2000/svg">
<path d="M82.6797 8.92165V0H135.709V8.92165H114.33V68.6902H104.025V8.92165H82.6797ZM153.782 69.7298C148.719 69.7298 144.359 68.6457 140.701 66.4764C137.066 64.2854 134.255 61.2107 132.27 57.2529C130.307 53.2728 129.326 48.6111 129.326 43.2666C129.326 37.9901 130.307 33.3389 132.27 29.3141C134.255 25.2893 137.021 22.1476 140.567 19.8893C144.136 17.6309 148.307 16.5018 153.08 16.5018C155.98 16.5018 158.79 16.9825 161.511 17.944C164.232 18.9055 166.675 20.4148 168.838 22.4719C171.002 24.529 172.708 27.201 173.957 30.488C175.206 33.7525 175.831 37.7218 175.831 42.3949V45.9503H134.98V38.437H166.028C166.028 35.7985 165.492 33.4619 164.422 31.4271C163.351 29.37 161.846 27.7489 159.905 26.5638C157.987 25.3787 155.734 24.7861 153.147 24.7861C150.337 24.7861 147.883 25.4793 145.786 26.8656C143.712 28.2296 142.106 30.0184 140.969 32.2321C139.854 34.4234 139.296 36.8047 139.296 39.3761V45.2458C139.296 48.6893 139.898 51.6184 141.102 54.0332C142.329 56.4479 144.036 58.293 146.221 59.5672C148.407 60.8197 150.961 61.4453 153.883 61.4453C155.779 61.4453 157.508 61.177 159.068 60.6404C160.63 60.0815 161.979 59.2543 163.117 58.1588C164.254 57.0628 165.125 55.7104 165.726 54.1005L175.195 55.8109C174.436 58.6058 173.076 61.0543 171.113 63.1562C169.173 65.2353 166.73 66.8566 163.786 68.0194C160.864 69.1601 157.53 69.7298 153.782 69.7298ZM189.396 38.1014V68.6902H179.393V17.1725H188.995V25.5576H189.63C190.813 22.8297 192.664 20.6384 195.184 18.9837C197.727 17.3291 200.928 16.5018 204.786 16.5018C208.288 16.5018 211.355 17.2396 213.987 18.7154C216.619 20.1688 218.66 22.3377 220.109 25.2222C221.559 28.1067 222.284 31.673 222.284 35.9215V68.6902H212.281V37.1289C212.281 33.3948 211.31 30.4768 209.37 28.375C207.429 26.2508 204.764 25.1887 201.373 25.1887C199.054 25.1887 196.991 25.6918 195.184 26.6979C193.4 27.7041 191.983 29.1799 190.935 31.1252C189.909 33.0482 189.396 35.3736 189.396 38.1014ZM266.671 29.7501L257.605 31.36C257.225 30.1973 256.624 29.0905 255.798 28.0396C254.995 26.9886 253.902 26.1277 252.52 25.457C251.136 24.7861 249.408 24.4508 247.334 24.4508C244.501 24.4508 242.137 25.088 240.241 26.3625C238.345 27.6147 237.397 29.2358 237.397 31.2259C237.397 32.9476 238.033 34.3339 239.304 35.3848C240.575 36.4358 242.627 37.2966 245.46 37.9672L253.623 39.846C258.352 40.9414 261.876 42.6295 264.195 44.9101C266.515 47.1907 267.675 50.1535 267.675 53.7986C267.675 56.8841 266.783 59.6345 264.998 62.0493C263.237 64.4418 260.772 66.32 257.605 67.6838C254.46 69.0482 250.813 69.7298 246.665 69.7298C240.91 69.7298 236.215 68.5001 232.579 66.0408C228.943 63.5587 226.713 60.037 225.888 55.4752L235.557 53.9995C236.159 56.5261 237.397 58.438 239.27 59.735C241.144 61.0098 243.587 61.6468 246.597 61.6468C249.876 61.6468 252.497 60.9646 254.46 59.6009C256.423 58.2148 257.404 56.5261 257.404 54.5361C257.404 52.9262 256.802 51.5733 255.597 50.4778C254.415 49.3823 252.598 48.5551 250.144 47.9956L241.445 46.0844C236.65 44.9883 233.103 43.2443 230.806 40.8518C228.531 38.4593 227.393 35.4296 227.393 31.7625C227.393 28.7215 228.241 26.0607 229.936 23.7799C231.631 21.4993 233.973 19.7216 236.962 18.447C239.951 17.1502 243.375 16.5018 247.233 16.5018C252.787 16.5018 257.159 17.7092 260.348 20.1241C263.538 22.5166 265.645 25.7253 266.671 29.7501ZM292.784 69.7298C287.966 69.7298 283.761 68.6228 280.17 66.4096C276.579 64.1958 273.791 61.0988 271.806 57.1187C269.821 53.1386 268.828 48.4877 268.828 43.1661C268.828 37.8222 269.821 33.1489 271.806 29.1464C273.791 25.1439 276.579 22.0359 280.17 19.8222C283.761 17.6086 287.966 16.5018 292.784 16.5018C297.601 16.5018 301.805 17.6086 305.396 19.8222C308.987 22.0359 311.776 25.1439 313.761 29.1464C315.746 33.1489 316.739 37.8222 316.739 43.1661C316.739 48.4877 315.746 53.1386 313.761 57.1187C311.776 61.0988 308.987 64.1958 305.396 66.4096C301.805 68.6228 297.601 69.7298 292.784 69.7298ZM292.817 61.3112C295.94 61.3112 298.527 60.484 300.579 58.8296C302.631 57.1746 304.148 54.9722 305.129 52.2218C306.133 49.4719 306.634 46.4417 306.634 43.1324C306.634 39.846 306.133 36.8271 305.129 34.0768C304.148 31.3041 302.631 29.0793 300.579 27.4023C298.527 25.7253 295.94 24.8868 292.817 24.8868C289.672 24.8868 287.062 25.7253 284.988 27.4023C282.936 29.0793 281.408 31.3041 280.404 34.0768C279.423 36.8271 278.932 39.846 278.932 43.1324C278.932 46.4417 279.423 49.4719 280.404 52.2218C281.408 54.9722 282.936 57.1746 284.988 58.8296C287.062 60.484 289.672 61.3112 292.817 61.3112ZM320.367 68.6902V17.1725H330.037V25.3563H330.572C331.509 22.5837 333.159 20.4036 335.523 18.816C337.91 17.2061 340.609 16.4011 343.62 16.4011C344.244 16.4011 344.981 16.4235 345.828 16.4682C346.698 16.5129 347.378 16.5688 347.869 16.6359V26.2284C347.467 26.1166 346.753 25.9936 345.728 25.8594C344.701 25.7029 343.675 25.6246 342.649 25.6246C340.285 25.6246 338.177 26.1277 336.326 27.134C334.497 28.1178 333.047 29.493 331.977 31.2594C330.906 33.0035 330.371 34.9936 330.371 37.2295V68.6902H320.367ZM358.992 0V68.6902H348.988V0H358.992ZM379.868 69.8308C376.612 69.8308 373.667 69.2268 371.035 68.0194C368.403 66.7898 366.318 65.0121 364.779 62.6864C363.262 60.3613 362.504 57.5103 362.504 54.1336C362.504 51.2268 363.062 48.8343 364.177 46.9561C365.292 45.078 366.797 43.5908 368.694 42.4953C370.589 41.3999 372.708 40.5727 375.05 40.0132C377.392 39.4543 379.778 39.0296 382.21 38.739C385.288 38.3811 387.786 38.0905 389.704 37.8667C391.622 37.6207 393.016 37.2295 393.886 36.6929C394.756 36.1562 395.191 35.2842 395.191 34.0768V33.842C395.191 30.9128 394.366 28.6433 392.715 27.0334C391.087 25.4234 388.656 24.6185 385.422 24.6185C382.054 24.6185 379.4 25.3675 377.459 26.8656C375.541 28.3414 374.214 29.9849 373.477 31.7961L364.076 29.6495C365.191 26.5191 366.82 23.9924 368.961 22.0694C371.125 20.1241 373.611 18.7154 376.422 17.8434C379.232 16.9489 382.188 16.5018 385.288 16.5018C387.34 16.5018 389.515 16.7477 391.812 17.2396C394.131 17.7092 396.295 18.5813 398.303 19.8558C400.332 21.1303 401.994 22.9526 403.287 25.3228C404.581 27.6706 405.228 30.7228 405.228 34.4793V68.6902H395.459V61.6468H395.057C394.41 62.9439 393.44 64.218 392.146 65.4705C390.853 66.7224 389.191 67.7626 387.161 68.5897C385.132 69.4169 382.701 69.8308 379.868 69.8308ZM382.043 61.781C384.808 61.781 387.173 61.233 389.136 60.1375C391.121 59.042 392.626 57.6108 393.652 55.8445C394.7 54.0554 395.225 52.1436 395.225 50.109V43.4681C394.868 43.826 394.176 44.1611 393.15 44.474C392.146 44.7651 390.998 45.022 389.704 45.2458C388.411 45.4467 387.15 45.6368 385.923 45.8161C384.697 45.9725 383.671 46.1067 382.845 46.2186C380.905 46.464 379.132 46.8779 377.526 47.459C375.942 48.0408 374.671 48.8794 373.712 49.9749C372.775 51.0481 372.307 52.4793 372.307 54.2678C372.307 56.7499 373.221 58.6281 375.05 59.9028C376.879 61.1548 379.21 61.781 382.043 61.781ZM420.215 51.2159L420.149 38.9737H421.888L442.364 17.1725H454.341L430.989 41.9924H429.416L420.215 51.2159ZM411.015 68.6902V0H421.018V68.6902H411.015ZM443.468 68.6902L425.067 44.2057L431.959 37.196L455.747 68.6902H443.468ZM475.953 69.7298C470.89 69.7298 466.53 68.6457 462.872 66.4764C459.236 64.2854 456.426 61.2107 454.441 57.2529C452.478 53.2728 451.497 48.6111 451.497 43.2666C451.497 37.9901 452.478 33.3389 454.441 29.3141C456.426 25.2893 459.192 22.1476 462.738 19.8893C466.307 17.6309 470.477 16.5018 475.251 16.5018C478.15 16.5018 480.96 16.9825 483.682 17.944C486.403 18.9055 488.845 20.4148 491.009 22.4719C493.172 24.529 494.878 27.201 496.128 30.488C497.376 33.7525 498.001 37.7218 498.001 42.3949V45.9503H457.151V38.437H488.199C488.199 35.7985 487.663 33.4619 486.592 31.4271C485.522 29.37 484.016 27.7489 482.076 26.5638C480.157 25.3787 477.905 24.7861 475.318 24.7861C472.507 24.7861 470.054 25.4793 467.957 26.8656C465.883 28.2296 464.277 30.0184 463.14 32.2321C462.024 34.4234 461.467 36.8047 461.467 39.3761V45.2458C461.467 48.6893 462.069 51.6184 463.273 54.0332C464.5 56.4479 466.206 58.293 468.392 59.5672C470.578 60.8197 473.132 61.4453 476.053 61.4453C477.95 61.4453 479.678 61.177 481.239 60.6404C482.801 60.0815 484.15 59.2543 485.288 58.1588C486.425 57.0628 487.295 55.7104 487.897 54.1005L497.366 55.8109C496.607 58.6058 495.247 61.0543 493.284 63.1562C491.343 65.2353 488.901 66.8566 485.957 68.0194C483.035 69.1601 479.7 69.7298 475.953 69.7298Z" fill="black"/>
<path d="M31.1065 41.9976C37.5689 41.9976 41.8515 44.6848 44.7931 47.0058C45.4882 47.5544 46.1386 48.1067 46.6504 48.5362C47.1999 48.997 47.5929 49.3189 47.9356 49.5679C48.0842 49.6762 48.1982 49.7514 48.2798 49.8019H61.6448V60.148H47.8794C45.1889 60.148 43.1274 58.8486 41.8833 57.9426C41.2212 57.4607 40.5819 56.9289 40.041 56.4747C39.4627 55.9899 38.9648 55.5669 38.4234 55.1398C36.4198 53.5589 34.3464 52.3436 31.1065 52.3436H30.9752C27.7352 52.3436 25.662 53.5589 23.6582 55.1398C23.1169 55.5669 22.6192 55.9899 22.0406 56.4747C21.4997 56.9289 20.8604 57.4607 20.1981 57.9426C18.9541 58.8486 16.8928 60.148 14.2023 60.148H0.0546875V49.8019H13.8018C13.8837 49.7514 13.9975 49.6762 14.146 49.5679C14.4887 49.3189 14.8818 48.997 15.4313 48.5362C15.943 48.1067 16.5934 47.5544 17.2883 47.0058C20.23 44.6848 24.5124 41.9976 30.9752 41.9976H31.1065Z" fill="#82C38C"/>
<path d="M53.2548 8.53198C57.9355 8.53198 61.7298 12.3409 61.7298 17.039V39.3651H51.4227V18.8781H10.3072V39.3651H0V17.039C0.000246744 12.3409 3.79443 8.53198 8.47516 8.53198H53.2548Z" fill="#82C38C"/>
</svg>
