<svg width="548" height="86" viewBox="0 0 548 86" fill="none" xmlns="http://www.w3.org/2000/svg">
<path d="M262.577 11.5115H277.431V73.4127H266.292V29.288L249.136 73.4127H239.054L221.902 29.1995V73.4127H210.758V11.5115H225.617L244.097 59.2623L262.582 11.5115H262.577ZM330.664 50.8589C330.664 55.4015 329.676 59.4527 327.701 63.0169C325.727 66.5854 322.955 69.3703 319.391 71.376C315.822 73.3817 311.771 74.3823 307.229 74.3823C302.686 74.3823 298.475 73.3684 294.938 71.3317C291.4 69.2995 288.629 66.4969 286.627 62.9327C284.622 59.3686 283.621 55.3395 283.621 50.8589C283.621 46.3782 284.622 42.2828 286.627 38.7452C288.633 35.2076 291.418 32.4227 294.987 30.3905C298.551 28.3582 302.637 27.3399 307.233 27.3399C311.829 27.3399 315.902 28.345 319.44 30.3462C322.978 32.3563 325.731 35.1412 327.71 38.7054C329.685 42.2695 330.672 46.3251 330.672 50.8633L330.664 50.8589ZM319.962 50.8589C319.962 48.1493 319.436 45.7185 318.373 43.5668C317.31 41.415 315.809 39.7635 313.865 38.6124C311.917 37.4657 309.708 36.8901 307.229 36.8901C304.749 36.8901 302.452 37.4657 300.512 38.6124C298.564 39.7635 297.046 41.3973 295.957 43.5181C294.867 45.6433 294.318 48.0873 294.318 50.8589C294.318 53.6305 294.867 56.0745 295.957 58.1997C297.046 60.3249 298.564 61.9587 300.512 63.1098C302.456 64.2566 304.696 64.8321 307.229 64.8321C309.761 64.8321 311.917 64.2566 313.865 63.1098C315.809 61.9587 317.315 60.3249 318.373 58.1997C319.436 56.0789 319.962 53.6305 319.962 50.8589ZM381.593 10.626V73.4127H370.897V68.197C369.484 70.0876 367.62 71.5885 365.326 72.7043C363.029 73.8244 360.288 74.3823 357.101 74.3823C352.974 74.3823 349.317 73.4259 346.138 71.5088C342.955 69.5917 340.48 66.8644 338.709 63.3268C336.942 59.7892 336.057 55.6318 336.057 50.8589C336.057 46.086 336.911 42.1057 338.62 38.5681C340.329 35.0305 342.729 32.2766 345.828 30.3019C348.923 28.3273 352.562 27.3399 356.751 27.3399C359.992 27.3399 362.776 27.8668 365.105 28.9294C367.434 29.992 369.365 31.4354 370.897 33.2595V10.6216H381.593V10.626ZM371.251 50.8589C371.251 48.1493 370.75 45.7185 369.745 43.5668C368.744 41.415 367.328 39.7635 365.504 38.6124C363.675 37.4657 361.524 36.8901 359.049 36.8901C356.45 36.8901 354.227 37.4657 352.372 38.6124C350.516 39.7635 349.1 41.415 348.126 43.5668C347.156 45.7185 346.669 48.1493 346.669 50.8589C346.669 53.5685 347.156 56.0037 348.126 58.1554C349.1 60.3072 350.53 61.9542 352.416 63.1054C354.307 64.2521 356.516 64.8277 359.053 64.8277C361.59 64.8277 363.604 64.2521 365.459 63.1054C367.314 61.9542 368.749 60.3072 369.75 58.1554C370.755 56.0037 371.255 53.573 371.255 50.8589H371.251ZM433.325 28.3095V73.4082H422.628V68.2812C421.153 70.1673 419.267 71.6549 416.969 72.7485C414.672 73.8377 411.926 74.3823 408.743 74.3823C404.616 74.3823 400.964 73.4259 397.78 71.5088C394.597 69.5917 392.135 66.8644 390.395 63.3268C388.655 59.7892 387.787 55.6318 387.787 50.8589C387.787 46.086 388.642 42.1057 390.351 38.5681C392.06 35.0305 394.459 32.2766 397.559 30.3019C400.654 28.3273 404.293 27.3399 408.481 27.3399C411.78 27.3399 414.641 27.9155 417.058 29.0622C419.471 30.2134 421.331 31.701 422.628 33.5252V28.3095H433.325ZM422.978 50.8589C422.978 48.1493 422.477 45.7185 421.472 43.5668C420.471 41.415 419.054 39.7635 417.23 38.6124C415.402 37.4657 413.25 36.8901 410.775 36.8901C408.176 36.8901 405.954 37.4657 404.099 38.6124C402.243 39.7635 400.826 41.415 399.852 43.5668C398.883 45.7185 398.396 48.1493 398.396 50.8589C398.396 53.5685 398.883 56.0037 399.852 58.1554C400.826 60.3072 402.257 61.9542 404.143 63.1054C406.033 64.2521 408.243 64.8277 410.78 64.8277C413.317 64.8277 415.331 64.2521 417.186 63.1054C419.041 61.9542 420.476 60.3072 421.477 58.1554C422.482 56.0037 422.982 53.573 422.982 50.8589H422.978ZM442.299 10.626V73.4127H452.999V10.626H442.299Z" fill="white"/>
<path d="M65.7104 1.79167L81 28.6667L49.4008 84.2083C48.7696 85.3147 47.6048 86 46.3424 86H17.8022C17.171 86 16.5663 85.8298 16.0366 85.5207C15.507 85.2117 15.0612 84.7637 14.7434 84.2083L0.473386 59.125C-0.157795 58.0186 -0.157795 56.6525 0.473386 55.5417L31.057 1.79167C31.3704 1.23625 31.8206 0.788338 32.3503 0.479275C32.8799 0.170211 33.4846 0 34.1158 0H62.6556C63.9179 0 65.0836 0.685312 65.7148 1.79167H65.7104Z" fill="#E0E0E0"/>
<path d="M48.1497 29H81L65.6017 1.8125C64.9661 0.693281 63.7925 0 62.5212 0H33.7781C33.1424 0 32.5334 0.172191 32 0.484848L48.1497 29Z" fill="url(#paint0_linear_26_3734)"/>
<path d="M49 28.8422L32.7608 1C32.2244 1.30528 31.7729 1.7477 31.4511 2.29632L0.479393 55.3881C-0.159798 56.4853 -0.159798 57.8303 0.479393 58.9275L14.9305 83.7037C15.2479 84.2523 15.7038 84.6947 16.2401 85L48.9955 28.8422H49Z" fill="url(#paint1_linear_26_3734)"/>
<path d="M81 29H48.3632L16 85.5235C16.53 85.8308 17.135 86 17.7665 86H46.3228C47.5859 86 48.7514 85.3187 49.3829 84.2188L81 29Z" fill="#F5F5F5"/>
<path d="M162.519 58.8125C162.838 58.2506 163 57.6253 163 57H130.333L114 85.5152C114.539 85.8278 115.155 86 115.798 86H144.869C146.154 86 147.341 85.3067 147.984 84.1875L162.519 58.8125Z" fill="#F5F5F5"/>
<path d="M99.7816 0C99.1446 0 98.5345 0.169222 98 0.476489L130.638 57H163C163 56.3855 162.84 55.7709 162.523 55.2188L131.666 1.78125C131.03 0.681328 129.854 0 128.58 0H99.7771H99.7816Z" fill="url(#paint2_linear_26_3734)"/>
<path d="M113.941 85L130 57.1578L97.6075 1C97.0771 1.30528 96.6306 1.7477 96.3124 2.29632L81 28.8422L112.646 83.7037C112.96 84.2523 113.411 84.6947 113.941 85Z" fill="url(#paint3_linear_26_3734)"/>
<defs>
<linearGradient id="paint0_linear_26_3734" x1="68.6765" y1="36.25" x2="43.6096" y2="-6.34909" gradientUnits="userSpaceOnUse">
<stop stop-color="white"/>
<stop offset="1" stop-color="#E0E0E0"/>
</linearGradient>
<linearGradient id="paint1_linear_26_3734" x1="3.85302" y1="77.9211" x2="44.1051" y2="7.48732" gradientUnits="userSpaceOnUse">
<stop stop-color="#E0E0E0"/>
<stop offset="1" stop-color="#F9F9F9"/>
</linearGradient>
<linearGradient id="paint2_linear_26_3734" x1="151.071" y1="63.8845" x2="110.351" y2="-6.65454" gradientUnits="userSpaceOnUse">
<stop stop-color="white"/>
<stop offset="1" stop-color="#E0E0E0"/>
</linearGradient>
<linearGradient id="paint3_linear_26_3734" x1="125.782" y1="78.16" x2="85.3039" y2="8.1097" gradientUnits="userSpaceOnUse">
<stop stop-color="#E0E0E0"/>
<stop offset="1" stop-color="white"/>
</linearGradient>
</defs>
</svg>
