<svg width="548" height="81" viewBox="0 0 548 81" fill="none" xmlns="http://www.w3.org/2000/svg">
<path d="M120.36 78.9566L121.254 75.8164C122.338 72.0992 121.934 68.6384 120.126 66.1177C118.468 63.789 115.703 62.422 112.343 62.2512L48.7607 61.4395C48.3356 61.418 47.9741 61.2256 47.7614 60.9051C47.5487 60.5847 47.4849 60.1573 47.634 59.7515C47.8465 59.132 48.4632 58.6409 49.1012 58.6194L113.258 57.8076C120.871 57.4657 129.1 51.2493 131.993 43.6868L135.65 34.0736C135.756 33.8172 135.799 33.5396 135.799 33.2618C135.799 33.1123 135.778 32.9627 135.756 32.8132C131.631 14.0353 114.938 0 95.0124 0C76.6395 0 61.0309 11.9204 55.4381 28.4766C51.8229 25.7635 47.2085 24.3108 42.2324 24.802C33.4075 25.678 26.3263 32.8132 25.4544 41.6786C25.2204 43.9859 25.4118 46.186 25.9433 48.2797C11.547 48.7071 0 60.5632 0 75.1114C0 76.4358 0.106326 77.7175 0.276446 78.9994C0.361505 79.6191 0.893135 80.0675 1.50982 80.0675L118.872 80.089C118.893 80.089 118.893 80.089 118.914 80.089C119.574 80.0675 120.169 79.6191 120.36 78.9566Z" fill="#F6821F"/>
<path d="M141.541 34.7821C140.946 34.7821 140.371 34.8036 139.776 34.8249C139.67 34.8249 139.585 34.8461 139.5 34.8889C139.202 34.9957 138.947 35.252 138.862 35.5726L136.353 44.2458C135.268 47.9629 135.672 51.4235 137.48 53.9443C139.138 56.273 141.903 57.6401 145.263 57.8112L158.809 58.6229C159.212 58.6442 159.553 58.8365 159.765 59.1569C159.999 59.4774 160.042 59.9046 159.914 60.3107C159.702 60.9299 159.085 61.4213 158.447 61.4428L144.369 62.2546C136.735 62.6177 128.484 68.8128 125.592 76.3754L124.572 79.0455C124.38 79.5371 124.742 80.0498 125.231 80.071C125.252 80.071 125.252 80.071 125.274 80.071H173.737C174.311 80.071 174.821 79.6864 174.991 79.1312C175.842 76.1188 176.289 72.9573 176.289 69.6676C176.289 50.4197 160.722 34.7821 141.541 34.7821Z" fill="#FBAD41"/>
<path d="M229.723 50.4384H237.739V72.4631H251.775V79.513H229.723V50.4384Z" fill="black"/>
<path d="M260.09 65.0534V64.9679C260.09 56.6151 266.789 49.843 275.719 49.843C284.653 49.843 291.265 56.5298 291.265 64.8826V64.9679C291.265 73.3207 284.568 80.0928 275.636 80.0928C266.704 80.0928 260.09 73.4063 260.09 65.0534ZM283.077 65.0534V64.9679C283.077 60.7809 280.06 57.1065 275.636 57.1065C271.255 57.1065 268.32 60.6741 268.32 64.8826V64.9679C268.32 69.155 271.34 72.8293 275.719 72.8293C280.145 72.8293 283.077 69.262 283.077 65.0534Z" fill="black"/>
<path d="M301.086 66.7591V50.4384H309.229V66.6098C309.229 70.7969 311.334 72.805 314.567 72.805C317.797 72.805 319.905 70.9039 319.905 66.8236V50.4596H328.048V66.5883C328.048 75.988 322.712 80.0897 314.482 80.0897C306.251 80.047 301.086 75.8599 301.086 66.7591Z" fill="black"/>
<path d="M340.348 50.4384H351.511C361.849 50.4384 367.844 56.4197 367.844 64.8155V64.9008C367.844 73.2962 361.761 79.5343 351.34 79.5343H340.348V50.4384ZM351.64 72.3776C356.444 72.3776 359.616 69.7288 359.616 65.0289V64.9436C359.616 60.2866 356.426 57.5948 351.64 57.5948H348.365V72.3776H351.64Z" fill="black"/>
<path d="M379.496 50.4384H402.677V57.488H387.537V62.4441H401.231V69.1306H387.537V79.513H379.496V50.4384Z" fill="black"/>
<path d="M413.84 50.4384H421.855V72.4631H435.87V79.513H413.84V50.4384Z" fill="black"/>
<path d="M456.858 50.2258H464.599L476.932 79.5141H468.319L466.213 74.3232H455.05L452.988 79.5141H444.547L456.858 50.2258ZM463.876 68.0423L460.644 59.775L457.369 68.0423H463.876Z" fill="black"/>
<path d="M487.242 50.4384H500.938C505.359 50.4384 508.424 51.6132 510.36 53.5998C512.059 55.2661 512.93 57.5093 512.93 60.3719V60.4574C512.93 64.9008 510.57 67.8487 506.978 69.3869L513.887 79.5343H504.617L498.788 70.7329H495.26V79.5343H487.242V50.4384ZM500.553 64.3881C503.275 64.3881 504.851 63.0635 504.851 60.9486V60.8633C504.851 58.5774 503.19 57.424 500.513 57.424H495.26V64.4094H500.553V64.3881Z" fill="black"/>
<path d="M524.504 50.4384H547.787V57.2955H532.455V61.6963H546.34V68.0413H532.455V72.6554H547.999V79.513H524.504V50.4384Z" fill="black"/>
<path d="M212.159 68.4715C211.032 71.0138 208.671 72.8293 205.524 72.8293C201.144 72.8293 198.124 69.1762 198.124 64.9679V64.8826C198.124 60.6956 201.059 57.1065 205.439 57.1065C208.735 57.1065 211.266 59.1574 212.329 61.9345H220.793C219.432 55.0129 213.393 49.843 205.524 49.843C196.593 49.843 189.895 56.6151 189.895 64.9679V65.0534C189.895 73.4063 196.508 80.0928 205.439 80.0928C213.074 80.0928 219.049 75.1153 220.623 68.4502H212.159V68.4715Z" fill="black"/>
</svg>
