<svg width="548" height="80" viewBox="0 0 548 80" fill="none" xmlns="http://www.w3.org/2000/svg">
<path d="M120.166 78.6426L121.065 75.5214C122.132 71.8113 121.737 68.3873 119.939 65.8634C118.259 63.5415 115.521 62.1786 112.17 62.0187L48.7267 61.2111C48.5276 61.2083 48.3322 61.1572 48.1571 61.0624C47.982 60.9676 47.8323 60.8317 47.721 60.6664C47.6096 60.5012 47.5398 60.3114 47.5174 60.1132C47.4951 59.9151 47.5209 59.7145 47.5927 59.5285C47.7005 59.2171 47.8973 58.9442 48.1587 58.7438C48.42 58.5433 48.7343 58.4242 49.0627 58.4012L113.119 57.5599C120.678 57.215 128.944 51.0399 131.825 43.502L135.47 33.945C135.574 33.6768 135.625 33.3912 135.621 33.1037C135.617 32.9511 135.6 32.7992 135.571 32.6494C133.582 23.76 128.747 15.7652 121.803 9.88208C114.858 3.99901 106.184 0.550081 97.102 0.0604297C88.0196 -0.429222 79.0262 2.06724 71.4913 7.16968C63.9563 12.2721 58.2926 19.701 55.3624 28.3252C52.2519 26.0096 48.5021 24.7149 44.6277 24.6189C40.7532 24.5228 36.944 25.6302 33.723 27.7889C30.5019 29.9476 28.0269 33.0519 26.6376 36.6757C25.2483 40.2994 25.0129 44.265 25.9635 48.0281C22.1891 48.1259 18.4784 49.0257 15.0773 50.668C11.6763 52.3104 8.66242 54.6578 6.23543 57.5547C3.80844 60.4516 2.0237 63.8319 0.99943 67.4718C-0.024841 71.1116 -0.265264 74.9279 0.294085 78.6678C0.334554 78.963 0.480047 79.2336 0.703815 79.4299C0.927582 79.6262 1.21458 79.735 1.51204 79.7363H118.679C119.012 79.7396 119.337 79.6348 119.605 79.4376C119.873 79.2404 120.07 78.9614 120.166 78.6426Z" fill="white"/>
<path d="M141.305 34.6683C140.745 34.6683 140.157 34.6852 139.541 34.7188C139.449 34.7214 139.358 34.7414 139.272 34.7777C139.119 34.8286 138.98 34.9167 138.869 35.0341C138.758 35.1515 138.677 35.2946 138.634 35.4507L136.114 44.0823C135.039 47.7924 135.434 51.2165 137.24 53.7403C138.152 54.9346 139.327 55.9025 140.673 56.5692C142.019 57.2359 143.499 57.5835 145.001 57.585L158.533 58.4263C158.722 58.4321 158.907 58.4823 159.074 58.5729C159.24 58.6635 159.383 58.792 159.49 58.9479C159.605 59.1145 159.677 59.3062 159.702 59.5067C159.727 59.7073 159.703 59.9109 159.633 60.1005C159.525 60.4119 159.329 60.6848 159.067 60.8852C158.806 61.0856 158.492 61.2048 158.163 61.2278L144.111 62.0691C136.475 62.4224 128.252 68.589 125.371 76.1186L124.355 78.777C124.312 78.8883 124.296 79.0081 124.309 79.1266C124.321 79.2451 124.361 79.359 124.426 79.459C124.491 79.559 124.578 79.6423 124.681 79.7022C124.784 79.762 124.899 79.7967 125.018 79.8034H173.426C173.721 79.8105 174.009 79.7169 174.244 79.5381C174.479 79.3593 174.647 79.1057 174.719 78.8191C176.162 73.654 176.393 68.2247 175.393 62.9554C174.394 57.6862 172.191 52.7199 168.957 48.4449C165.723 44.1698 161.546 40.7017 156.752 38.3118C151.958 35.9219 146.677 34.6749 141.322 34.6683H141.305Z" fill="white"/>
<path d="M229.348 50.2405H237.353V72.1644H251.355V79.1892H229.348V50.2405Z" fill="white"/>
<path d="M259.656 64.8287V64.753C259.656 56.4411 266.376 49.694 275.263 49.694C284.15 49.694 290.786 56.357 290.786 64.6689V64.753C290.786 73.0649 284.066 79.8036 275.179 79.8036C266.292 79.8036 259.656 73.1154 259.656 64.8287ZM282.613 64.8287V64.753C282.613 60.5466 279.597 56.9375 275.179 56.9375C270.761 56.9375 267.871 60.4877 267.871 64.6689V64.753C267.871 68.9595 270.887 72.5686 275.263 72.5686C279.639 72.5686 282.613 69.0099 282.613 64.8287Z" fill="white"/>
<path d="M300.582 66.511V50.2405H308.721V66.3259C308.721 70.5323 310.821 72.4925 314.047 72.4925C317.272 72.4925 319.372 70.5912 319.372 66.5362V50.2405H327.503V66.2838C327.503 75.6305 322.178 79.7444 313.963 79.7444C305.748 79.7444 300.582 75.538 300.582 66.511Z" fill="white"/>
<path d="M339.766 50.2405H350.912C361.235 50.2405 367.224 56.1968 367.224 64.5424V64.6265C367.224 72.9805 361.151 79.1808 350.752 79.1808H339.766V50.2405ZM351.038 72.114C355.826 72.114 359.009 69.4639 359.009 64.7863V64.7106C359.009 60.0751 355.826 57.383 351.038 57.383H347.754V72.0803L351.038 72.114Z" fill="white"/>
<path d="M379.797 50.2405H402.913V57.2736H387.81V62.1952H401.476V68.8498H387.81V79.1892H379.797V50.2405Z" fill="white"/>
<path d="M414.07 50.2405H422.075V72.1644H436.077V79.1892H414.07V50.2405Z" fill="white"/>
<path d="M457.044 50.0386H464.764L477.036 79.1892H468.451L466.343 74.0237H455.188L453.13 79.1892H444.73L457.044 50.0386ZM464.058 67.7729L460.841 59.5451L457.548 67.7729H464.058Z" fill="white"/>
<path d="M487.348 50.2405H501.014C505.441 50.2405 508.49 51.4015 510.43 53.3869C511.299 54.2698 511.976 55.324 512.417 56.4826C512.858 57.6411 513.054 58.8788 512.992 60.1172V60.2013C513.058 62.1211 512.519 64.0129 511.451 65.6088C510.384 67.2048 508.842 68.424 507.045 69.0937L513.941 79.1892H504.701L498.872 70.423H495.361V79.1892H487.348V50.2405ZM500.644 64.1385C503.374 64.1385 504.945 62.8093 504.945 60.7061V60.622C504.945 58.3421 503.265 57.1895 500.602 57.1895H495.361V64.1385H500.644Z" fill="white"/>
<path d="M524.547 50.2405H547.797V57.0633H532.476V61.4464H546.352V67.7729H532.476V72.3663H547.999V79.1892H524.547V50.2405Z" fill="white"/>
<path d="M211.808 68.1937C211.26 69.4943 210.338 70.6019 209.159 71.3751C207.98 72.1483 206.598 72.552 205.189 72.5348C200.804 72.5348 197.797 68.892 197.797 64.7192V64.6351C197.797 60.4287 200.728 56.8953 205.105 56.8953C206.605 56.8862 208.072 57.3433 209.302 58.2036C210.533 59.0639 211.467 60.2851 211.976 61.699H220.375C219.065 54.8089 213.026 49.6854 205.189 49.6854C196.268 49.6854 189.582 56.4157 189.582 64.7445V64.8286C189.582 73.1405 196.184 79.8035 205.105 79.8035C212.732 79.8035 218.695 74.8567 220.266 68.2274L211.808 68.1937Z" fill="white"/>
</svg>
