<svg width="548" height="85" viewBox="0 0 548 85" fill="none" xmlns="http://www.w3.org/2000/svg">
<path d="M95.2957 0V22.0832H25.885C23.7615 22.084 22.036 23.8123 22.036 25.9405V27.6011C22.036 29.7294 23.7615 31.4576 25.885 31.4584H95.2957V53.5415H25.885C23.7615 53.5424 22.036 55.2708 22.036 57.3991V59.0594C22.0366 61.1872 23.7619 62.9104 25.885 62.9109H95.2957V85H14.7333C6.59688 84.9981 9.34952e-05 78.3837 0 70.2294V14.7649C0.00132159 6.61149 6.59759 0.00204362 14.7333 0H95.2957Z" fill="black"/>
<path d="M185.059 0C193.197 0.000732209 199.793 6.61545 199.793 14.7707V39.5109C199.792 47.2699 193.517 53.558 185.774 53.559H174.157C174.075 53.5538 173.99 53.5415 173.908 53.5415H130.237C128.113 53.5424 126.388 55.2708 126.388 57.3991V59.0594C126.389 61.1868 128.114 62.9099 130.237 62.9109H199.752V85H104.352V45.4891C104.352 37.7305 110.629 31.4373 118.37 31.4351H129.946C130.043 31.4423 130.14 31.4582 130.237 31.4584H173.908C176.031 31.4581 177.757 29.7301 177.757 27.6011V25.9405C177.756 23.812 176.031 22.0894 173.908 22.089H104.497V0H185.059Z" fill="black"/>
<path fill-rule="evenodd" clip-rule="evenodd" d="M289.504 0C297.641 0.000173712 304.241 6.6104 304.243 14.7649V70.2294C304.243 78.3851 297.642 85 289.504 85H208.93V0H289.504ZM234.815 53.5415C232.692 53.5424 230.966 55.2708 230.966 57.3991V59.0594C230.966 61.1872 232.692 62.9104 234.815 62.9109H278.358C280.481 62.9104 282.2 61.1877 282.201 59.0594V57.3991C282.201 55.2703 280.481 53.5424 278.358 53.5415H234.815ZM234.815 22.0832C232.692 22.084 230.966 23.8123 230.966 25.9405V27.6011C230.966 29.7293 232.692 31.4576 234.815 31.4584H278.358C280.481 31.4576 282.201 29.7297 282.201 27.6011V25.9405C282.201 23.8119 280.481 22.084 278.358 22.0832H234.815Z" fill="black"/>
</svg>
