<svg width="548" height="95" viewBox="0 0 548 95" fill="none" xmlns="http://www.w3.org/2000/svg">
<path d="M0.442851 39.8935C0.215696 41.5018 0.0678969 43.1205 0 44.7437H72.4189C72.1659 44.2445 71.8262 43.7945 71.4836 43.3541C59.1031 27.1944 52.4432 28.5955 42.9165 28.185C39.7403 28.0529 37.5861 28 24.9433 28C18.1766 28 10.82 28.0174 3.65631 28.0365C2.72903 30.5654 1.83466 33.0168 1.39912 35.0107H38.5091V39.8935H0.442851ZM72.9896 49.6314H0.0372421C0.113624 50.9343 0.233886 52.2199 0.407506 53.4881H67.7604C70.763 53.4881 72.4437 51.767 72.9896 49.6314ZM4.19139 66.8088C4.19139 66.8088 15.3572 94.5077 47.6208 95C66.9043 95 83.4737 83.4292 91 66.8088H4.19139Z" fill="white"/>
<path d="M47.9327 0C30.1544 0 14.6836 9.72744 6.51387 24.1067C12.8983 24.0935 25.3325 24.0858 25.3325 24.0858H25.3353V24.0811C40.0323 24.0811 40.5785 24.1465 43.4497 24.266L45.2273 24.3314C51.4197 24.537 59.0307 25.1993 65.0193 29.7139C68.2702 32.1625 72.9637 37.5668 75.7615 41.417C78.348 44.9783 79.0922 49.072 77.3336 52.9943C75.7148 56.5991 72.2319 58.7493 68.0142 58.7493H2C2 58.7493 2.39296 60.4091 2.98226 62.2412H93.0939C94.6936 57.4485 95.5115 52.4313 95.5165 47.3805C95.5178 21.2156 74.2132 0 47.9327 0ZM143.337 67.1387H154.55V48.4072H162.732L172.78 67.1387H185.158L173.893 46.6012C179.927 44.0212 183.267 38.7835 183.267 31.5593C183.267 21.0584 176.302 14.2987 164.261 14.2987H143.337V67.1387ZM154.55 39.4286V23.4321H162.111C168.585 23.4321 171.718 26.296 171.718 31.5593C171.718 36.797 168.585 39.4286 162.162 39.4286H154.55ZM202.326 67.8869C208.205 67.8869 212.01 65.3327 213.953 61.6431H214.264V67.1387H224.725V40.409C224.725 30.966 216.697 26.9926 207.841 26.9926C198.312 26.9926 192.046 31.5335 190.517 38.7577L200.721 39.5834C201.472 36.9517 203.828 35.0166 207.79 35.0166C211.544 35.0166 213.694 36.9002 213.694 40.1511V40.3058C213.694 42.8602 210.974 43.1955 204.06 43.8663C196.189 44.5888 189.12 47.2204 189.12 56.0701C189.12 63.9136 194.739 67.8869 202.326 67.8869ZM205.485 60.3014C202.093 60.3014 199.658 58.7276 199.658 55.7089C199.658 52.6128 202.222 51.0905 206.106 50.5487C208.515 50.2134 212.45 49.6457 213.771 48.7685V52.974C213.771 57.128 210.327 60.3014 205.485 60.3014ZM233.284 67.1387H244.315V27.5087H233.284V67.1387ZM238.824 22.4001C242.114 22.4001 244.806 19.8974 244.806 16.827C244.806 13.7827 242.114 11.28 238.824 11.28C235.562 11.28 232.869 13.7827 232.869 16.827C232.869 19.8974 235.562 22.4001 238.824 22.4001ZM264.183 14.2987H253.152V67.1387H264.183V14.2987ZM280.865 67.1387H292.517L299.354 42.2152H299.846L306.682 67.1387H318.361L329.158 27.5087H318.025L311.964 53.9803H311.628L305.103 27.5087H294.149L287.726 54.135H287.364L281.201 27.5087H270.041L280.865 67.1387ZM346.385 67.8869C352.263 67.8869 356.07 65.3327 358.012 61.6431H358.322V67.1387H368.785V40.409C368.785 30.966 360.757 26.9926 351.901 26.9926C342.372 26.9926 336.105 31.5335 334.577 38.7577L344.779 39.5834C345.53 36.9517 347.887 35.0166 351.849 35.0166C355.604 35.0166 357.754 36.9002 357.754 40.1511V40.3058C357.754 42.8602 355.034 43.1955 348.12 43.8663C340.248 44.5888 333.178 47.2204 333.178 56.0701C333.178 63.9136 338.799 67.8869 346.385 67.8869ZM349.545 60.3014C346.153 60.3014 343.718 58.7276 343.718 55.7089C343.718 52.6128 346.282 51.0905 350.166 50.5487C352.574 50.2134 356.51 49.6457 357.831 48.7685V52.974C357.831 57.128 354.387 60.3014 349.545 60.3014ZM382.729 82C390.938 82 395.287 77.8202 397.541 71.4215L413 27.5602L401.321 27.5087L393.009 56.6119H392.595L384.36 27.5087H372.759L387.027 68.274L386.38 69.951C384.93 73.6663 382.159 73.8469 378.275 72.66L375.789 80.8647C377.368 81.5355 379.932 82 382.729 82Z" fill="white"/>
</svg>
