<svg width="548" height="64" viewBox="0 0 548 64" fill="none" xmlns="http://www.w3.org/2000/svg">
<path fill-rule="evenodd" clip-rule="evenodd" d="M72.3807 63.2319L36.1904 0L0 63.2319H72.3807ZM108.884 60.3535L139.129 2.87433H126.046L105.183 44.6178L84.3196 2.87433H71.2375L101.482 60.3535H108.884ZM315 2.87433V60.3537H304.17V2.87433H315ZM254.715 38.8998C254.715 34.4202 255.645 30.4803 257.507 27.0801C259.368 23.6799 261.963 21.0624 265.291 19.2274C268.618 17.3923 272.511 16.4748 276.967 16.4748C280.916 16.4748 284.469 17.3384 287.628 19.0654C290.787 20.7925 293.297 23.3561 295.158 26.7563C297.02 30.1565 297.98 34.3122 298.035 39.2236V41.7333H266.138C266.362 45.2954 267.406 48.1019 269.267 50.1528C271.185 52.1498 273.753 53.1482 276.967 53.1482C278.997 53.1482 280.86 52.6085 282.551 51.5291C284.243 50.4496 285.513 48.9925 286.359 47.1575L297.444 47.967C296.089 52.0147 293.551 55.2531 289.829 57.6817C286.105 60.1105 281.819 61.3248 276.967 61.3248C272.511 61.3248 268.618 60.4073 265.291 58.5723C261.963 56.7373 259.368 54.1197 257.507 50.7195C255.645 47.3193 254.715 43.3795 254.715 38.8998ZM286.866 34.852C286.472 31.3438 285.372 28.7803 283.567 27.161C281.761 25.488 279.562 24.6513 276.967 24.6513C273.977 24.6513 271.552 25.5419 269.691 27.323C267.828 29.104 266.673 31.6137 266.221 34.852H286.866ZM236.44 27.161C238.246 28.6183 239.373 30.6422 239.825 33.2328L250.992 32.6661C250.597 29.3739 249.442 26.5134 247.524 24.0846C245.605 21.656 243.125 19.7941 240.077 18.4987C237.089 17.1494 233.789 16.4748 230.178 16.4748C225.722 16.4748 221.831 17.3923 218.501 19.2274C215.174 21.0624 212.579 23.6799 210.717 27.0801C208.856 30.4803 207.926 34.4202 207.926 38.8998C207.926 43.3795 208.856 47.3193 210.717 50.7195C212.579 54.1197 215.174 56.7373 218.501 58.5723C221.831 60.4073 225.722 61.3248 230.178 61.3248C233.901 61.3248 237.286 60.6502 240.331 59.301C243.379 57.8976 245.859 55.9278 247.778 53.391C249.696 50.8544 250.851 47.886 251.246 44.4858L239.994 44C239.599 46.8605 238.498 49.0734 236.694 50.6385C234.889 52.1498 232.716 52.9053 230.178 52.9053C226.682 52.9053 223.974 51.691 222.055 49.2622C220.138 46.8336 219.18 43.3795 219.18 38.8998C219.18 34.4202 220.138 30.9661 222.055 28.5373C223.974 26.1086 226.682 24.8943 230.178 24.8943C232.605 24.8943 234.69 25.6499 236.44 27.161ZM181.5 17.4443H191.579L191.87 25.7025C192.585 23.365 193.579 21.5497 194.854 20.2567C196.701 18.3819 199.278 17.4443 202.58 17.4443H206.696V26.2833H202.497C200.145 26.2833 198.214 26.6047 196.701 27.2475C195.245 27.8905 194.126 28.9081 193.342 30.3011C192.615 31.6938 192.251 33.4616 192.251 35.6043V60.3535H181.5V17.4443ZM135.012 27.0801C133.151 30.4803 132.22 34.4202 132.22 38.8998C132.22 43.3795 133.151 47.3193 135.012 50.7195C136.874 54.1197 139.468 56.7373 142.797 58.5723C146.125 60.4073 150.017 61.3248 154.473 61.3248C159.323 61.3248 163.611 60.1105 167.333 57.6817C171.057 55.2531 173.595 52.0147 174.949 47.967L163.865 47.1575C163.019 48.9925 161.75 50.4496 160.057 51.5291C158.365 52.6085 156.504 53.1482 154.473 53.1482C151.258 53.1482 148.691 52.1498 146.773 50.1528C144.912 48.1019 143.868 45.2954 143.643 41.7333H175.542V39.2236C175.484 34.3122 174.526 30.1565 172.665 26.7563C170.803 23.3561 168.293 20.7925 165.135 19.0654C161.976 17.3384 158.422 16.4748 154.473 16.4748C150.017 16.4748 146.125 17.3923 142.797 19.2274C139.468 21.0624 136.874 23.6799 135.012 27.0801ZM161.073 27.161C162.877 28.7803 163.978 31.3438 164.373 34.852H143.727C144.178 31.6137 145.335 29.104 147.196 27.323C149.058 25.5419 151.483 24.6513 154.473 24.6513C157.067 24.6513 159.268 25.488 161.073 27.161Z" fill="black"/>
</svg>
