<svg width="548" height="85" viewBox="0 0 548 85" fill="none" xmlns="http://www.w3.org/2000/svg">
<path d="M66.8043 45.0723V6.13391H60.7344V45.0723H66.8043Z" fill="white"/>
<path d="M83.9623 45.7387C87.138 45.7387 90.7049 44.1818 92.3163 41.5679V45.0722H98.3341V19.1515H92.3163V22.6558C90.6997 20.0419 87.5813 18.485 84.1291 18.485C76.0515 18.485 71.207 24.4939 71.207 32.1118C71.207 39.7298 75.6083 45.7387 83.9623 45.7387ZM84.854 40.3442C80.119 40.3442 77.277 36.8399 77.277 32.1118C77.277 27.3838 80.119 23.8795 84.854 23.8795C90.0322 23.8795 92.5405 27.6598 92.5405 32.1118C92.5405 36.5639 90.0322 40.3442 84.854 40.3442Z" fill="white"/>
<path d="M116.425 39.9537C114.031 39.9537 112.639 39.3966 112.639 34.8924V24.2128H118.6V19.1515H112.639V11.3097H106.569V19.1515H102.168V24.2128H106.569V36.2827C106.569 45.015 112.029 45.4055 114.981 45.4055C116.764 45.4055 118.547 45.2389 119.491 45.0722V39.7298C118.876 39.8392 117.374 39.9537 116.43 39.9537H116.425Z" fill="white"/>
<path d="M126.632 15.4234C129.307 15.4234 131.143 13.4187 131.143 10.9193C131.143 8.41988 129.307 6.41516 126.632 6.41516C123.957 6.41516 122.121 8.41988 122.121 10.9193C122.121 13.4187 123.962 15.4234 126.632 15.4234ZM129.641 45.0723V19.1516H123.623V45.0723H129.641Z" fill="white"/>
<path d="M147.749 39.9537C145.356 39.9537 143.963 39.3966 143.963 34.8924V24.2128H149.924V19.1515H143.963V11.3097H137.893V19.1515H133.492V24.2128H137.893V36.2827C137.893 45.015 143.353 45.4055 146.305 45.4055C148.088 45.4055 149.872 45.2389 150.816 45.0722V39.7298C150.2 39.8392 148.698 39.9537 147.749 39.9537Z" fill="white"/>
<path d="M164.309 45.7388C168.042 45.7388 170.77 44.2392 172.329 41.4534V45.0671H178.399V19.1464H172.329V33.7782C172.329 37.5064 170.655 40.563 166.035 40.563C162.077 40.563 160.742 38.1157 160.742 33.9448V19.1464H154.672V35.4444C154.672 42.3959 158.625 45.7336 164.309 45.7336V45.7388Z" fill="white"/>
<path d="M203.89 22.6559C202.274 20.042 199.155 18.485 195.703 18.485C187.626 18.485 182.781 24.494 182.781 32.1119C182.781 39.7298 187.182 45.7388 195.536 45.7388C198.712 45.7388 202.279 44.1819 203.89 41.5679V45.0723H209.908V6.13391H203.89V22.6559ZM196.423 40.3443C191.688 40.3443 188.846 36.8399 188.846 32.1119C188.846 27.3839 191.688 23.8796 196.423 23.8796C201.606 23.8796 204.109 27.6599 204.109 32.1119C204.109 36.5639 201.601 40.3443 196.423 40.3443Z" fill="white"/>
<path d="M239.755 30.7737C239.755 23.489 234.744 18.4799 227.334 18.4799C219.423 18.4799 214.297 23.8223 214.297 32.1067C214.297 40.3911 219.366 45.7336 227.553 45.7336C233.795 45.7336 238.697 42.3386 239.474 37.5012H233.346C232.345 39.5059 230.562 40.4484 227.553 40.4484C223.151 40.4484 220.476 38.225 220.309 34.1062H239.583C239.693 32.6587 239.75 31.8255 239.75 30.7685L239.755 30.7737ZM220.315 29.498C220.372 25.827 222.932 23.2703 227.224 23.2703C231.516 23.2703 233.743 25.4938 233.8 29.498H220.32H220.315Z" fill="white"/>
<path d="M247.209 45.5149C249.827 45.5149 251.944 43.3436 251.944 40.7869C251.944 38.2303 249.827 36.1162 247.209 36.1162C244.591 36.1162 242.531 38.2303 242.531 40.7869C242.531 43.3436 244.591 45.5149 247.209 45.5149Z" fill="white"/>
<path d="M266.826 45.7388C273.12 45.7388 277.078 42.7343 277.078 37.6731C277.078 34.0021 274.737 31.3309 271.06 30.2738L265.882 28.7742C263.489 28.1077 262.649 27.16 262.649 25.7697C262.649 24.2128 264.208 23.0985 266.383 23.0985C269.225 23.0985 270.894 24.3795 270.894 26.5456H276.854C276.854 21.5416 272.953 18.4799 266.602 18.4799C260.808 18.4799 256.631 21.7082 256.631 26.103C256.631 29.774 258.691 32.3879 262.315 33.3877L267.494 34.7779C270.278 35.5017 270.894 36.3921 270.894 37.8397C270.894 39.6778 269.444 40.9014 267.16 40.9014C264.041 40.9014 261.867 39.3445 261.867 37.1211H255.797C255.797 42.073 260.475 45.744 266.826 45.744V45.7388Z" fill="white"/>
<path d="M296.289 18.4798C292.445 18.4798 289.437 19.9795 287.82 22.7652V6.13391H281.75V45.0723H287.82V30.831C287.82 26.2696 290.047 23.6557 294.005 23.6557C298.239 23.6557 299.689 26.0457 299.689 31.5548V45.0723H305.759V28.7742C305.759 21.9894 302.525 18.485 296.289 18.485V18.4798Z" fill="white"/>
<path d="M44.3774 41.2607L39.7362 55.075H12.9951L17.6414 41.2607H44.3826H44.3774ZM29.6249 0H13.0473L0 38.8238H16.5776L29.6249 0Z" fill="white"/>
<path fill-rule="evenodd" clip-rule="evenodd" d="M250.477 66.343C250.201 66.0566 249.898 65.8275 249.565 65.6661C248.986 65.3797 248.308 65.2391 247.557 65.2391C246.759 65.2391 246.034 65.4006 245.424 65.713C244.803 66.0254 244.282 66.4472 243.87 66.9783C243.453 67.4938 243.145 68.1082 242.926 68.7851C242.718 69.4621 242.613 70.165 242.613 70.8888C242.613 71.6126 242.707 72.3832 242.89 73.0653C243.072 73.7683 243.375 74.3879 243.766 74.9086C244.167 75.4398 244.689 75.8615 245.32 76.1739C245.94 76.4864 246.691 76.6322 247.546 76.6322C248.25 76.6322 248.918 76.4812 249.554 76.1948C249.914 76.0334 250.222 75.8147 250.488 75.5491V76.0542C250.498 76.7311 250.336 77.3091 250.003 77.7361C249.679 78.1526 249.173 78.3557 248.449 78.3557C247.974 78.3557 247.562 78.262 247.213 78.0693C246.889 77.8975 246.681 77.5851 246.566 77.1268L246.509 76.8717H242.957L242.978 77.231C243.025 77.8975 243.218 78.4859 243.542 78.9701C243.865 79.444 244.277 79.8345 244.762 80.1313C245.236 80.4177 245.779 80.6468 246.352 80.7874C246.931 80.928 247.494 80.9957 248.047 80.9957C249.325 80.9957 250.362 80.8239 251.134 80.4646C251.916 80.1053 252.516 79.6679 252.944 79.1524C253.361 78.6369 253.637 78.0693 253.773 77.4601C253.898 76.8821 253.955 76.3666 253.955 75.9188V65.5255H250.488V66.343H250.467H250.477ZM249.982 68.957C250.154 69.2329 250.279 69.5454 250.352 69.8995C250.43 70.2692 250.467 70.6701 250.467 71.0867C250.467 71.4459 250.42 71.7896 250.326 72.1125C250.232 72.4249 250.096 72.7113 249.909 72.9508C249.726 73.1903 249.507 73.3778 249.231 73.5288C248.965 73.6694 248.642 73.737 248.287 73.737C247.896 73.737 247.572 73.6589 247.317 73.4975C247.051 73.3361 246.842 73.1174 246.681 72.8519C246.519 72.5863 246.394 72.2739 246.321 71.9302C246.253 71.5709 246.217 71.2064 246.217 70.8367C246.217 70.467 246.264 70.1025 246.342 69.7641C246.42 69.4412 246.55 69.1444 246.733 68.8997C246.905 68.6602 247.124 68.4623 247.38 68.3217C247.619 68.1811 247.932 68.1134 248.292 68.1134C248.72 68.1134 249.074 68.1915 249.34 68.3425C249.617 68.4935 249.825 68.7018 249.997 68.9622L249.976 68.9518L249.982 68.957Z" fill="white"/>
<path fill-rule="evenodd" clip-rule="evenodd" d="M277.218 67.1137C276.791 66.5513 276.238 66.0879 275.591 65.7546C274.934 65.411 274.152 65.2391 273.25 65.2391C272.536 65.2391 271.879 65.3797 271.279 65.6661C270.935 65.8275 270.611 66.0566 270.335 66.3326V65.5255H266.867V80.6937H270.486V76.1115C270.763 76.377 271.086 76.5957 271.441 76.7676C272.04 77.0539 272.708 77.205 273.422 77.205C274.262 77.205 275.013 77.0435 275.649 76.7103C276.285 76.3874 276.812 75.9396 277.239 75.3877C277.656 74.8462 277.975 74.2161 278.183 73.5131C278.392 72.8206 278.48 72.0864 278.48 71.3366C278.48 70.5868 278.376 69.7849 278.183 69.0559C277.975 68.3217 277.667 67.6656 277.239 67.0981L277.218 67.1085V67.1137ZM274.856 71.2689C274.856 71.6698 274.82 72.0864 274.741 72.4769C274.663 72.8466 274.533 73.1799 274.361 73.4559C274.189 73.7214 273.959 73.9401 273.683 74.112C273.406 74.2734 273.062 74.3515 272.635 74.3515C272.207 74.3515 271.873 74.2734 271.597 74.112C271.31 73.9401 271.081 73.7318 270.903 73.4559C270.731 73.1799 270.59 72.8466 270.512 72.4769C270.434 72.0864 270.387 71.6803 270.387 71.2793C270.387 70.8784 270.434 70.4514 270.502 70.0609C270.57 69.6808 270.71 69.3475 270.883 69.0715C271.055 68.7956 271.284 68.5664 271.56 68.3946C271.837 68.2228 272.181 68.1395 272.609 68.1395C273.036 68.1395 273.36 68.2176 273.636 68.3946C273.923 68.5664 274.152 68.7956 274.34 69.0871C274.528 69.3787 274.663 69.7224 274.741 70.0869C274.82 70.4774 274.867 70.8836 274.867 71.2845L274.856 71.2741V71.2689Z" fill="white"/>
<path fill-rule="evenodd" clip-rule="evenodd" d="M289.535 66.8846C289.018 66.3691 288.382 65.9525 287.668 65.6661C286.943 65.3797 286.124 65.2391 285.248 65.2391C284.372 65.2391 283.553 65.3901 282.839 65.6661C282.124 65.9525 281.488 66.3587 280.972 66.8846C280.456 67.4001 280.049 68.0457 279.773 68.7851C279.496 69.5193 279.355 70.3525 279.355 71.2377C279.355 72.1229 279.496 72.9508 279.773 73.6798C280.049 74.414 280.451 75.0492 280.972 75.5647C281.488 76.0802 282.114 76.4968 282.839 76.7728C283.553 77.0487 284.362 77.1893 285.248 77.1893C286.135 77.1893 286.943 77.0487 287.668 76.7728C288.393 76.4968 289.029 76.0802 289.545 75.5647C290.061 75.0492 290.468 74.4036 290.744 73.6798C291.021 72.956 291.162 72.1281 291.162 71.2377C291.162 70.3473 291.021 69.5245 290.744 68.7851C290.468 68.0457 290.067 67.4053 289.545 66.8846H289.535ZM286.328 74.1015C286.041 74.263 285.67 74.3411 285.232 74.3411C284.794 74.3411 284.424 74.263 284.148 74.1015C283.861 73.9297 283.642 73.711 283.454 73.435C283.272 73.1487 283.141 72.8154 283.074 72.4457C282.995 72.0656 282.959 71.6646 282.959 71.2481C282.959 70.8315 283.006 70.441 283.074 70.04C283.152 69.6703 283.282 69.3371 283.454 69.0507C283.626 68.7747 283.856 68.556 284.148 68.3738C284.424 68.2019 284.794 68.1186 285.232 68.1186C285.67 68.1186 286.041 68.1967 286.328 68.3738C286.625 68.5456 286.859 68.7643 287.032 69.0403C287.214 69.3267 287.344 69.6599 287.412 70.0296C287.49 70.4202 287.527 70.8263 287.527 71.2377C287.527 71.649 287.49 72.0448 287.412 72.4353C287.334 72.805 287.204 73.1382 287.032 73.4246C286.859 73.7006 286.63 73.9193 286.338 74.0911L286.328 74.1015Z" fill="white"/>
<path fill-rule="evenodd" clip-rule="evenodd" d="M305.679 68.5509V65.234H303.51V62.2972H299.891V74.1641C299.891 74.7629 299.995 75.2472 300.203 75.6273C300.412 76.0178 300.699 76.3198 301.069 76.5229C301.413 76.7208 301.82 76.8562 302.269 76.9239C302.696 76.9915 303.145 77.0176 303.619 77.0176C303.916 77.0176 304.219 77.0176 304.532 76.9968C304.855 76.9863 305.142 76.9499 305.408 76.903L305.684 76.8562V73.8881L305.293 73.9663C305.168 73.9871 305.027 74.0131 304.892 74.0235C304.751 74.0339 304.605 74.0444 304.443 74.0444C303.88 74.0444 303.718 73.9298 303.682 73.8934C303.645 73.8569 303.53 73.6955 303.53 73.1331V68.5301H305.7L305.689 68.5405L305.679 68.5509Z" fill="white"/>
<path fill-rule="evenodd" clip-rule="evenodd" d="M299.039 65.2391C298.637 65.2391 297.818 65.2964 297.438 65.4213C297.067 65.5359 296.713 65.7077 296.379 65.9264C296.045 66.1451 295.759 66.4107 295.493 66.7231C295.493 66.7231 295.482 66.7335 295.472 66.7439V65.5255H292.004V76.9289H295.623V71.7479C295.623 71.2897 295.67 70.8627 295.764 70.4722C295.842 70.1025 295.993 69.7692 296.202 69.5037C296.4 69.2381 296.65 69.0194 296.984 68.8684C297.412 68.6601 298.001 68.5924 298.689 68.6601L299.049 68.6966V65.2339L299.039 65.2391Z" fill="white"/>
<path fill-rule="evenodd" clip-rule="evenodd" d="M240.509 67.322C240.05 66.6867 239.434 66.1712 238.72 65.8015C237.995 65.4214 237.14 65.2391 236.175 65.2391C235.309 65.2391 234.517 65.4006 233.802 65.6974C233.088 66.0098 232.467 66.4316 231.956 66.9627C231.44 67.5042 231.044 68.1343 230.757 68.8737C230.481 69.5974 230.34 70.3941 230.34 71.2325C230.34 72.0708 230.481 72.9143 230.741 73.6381C231.007 74.3723 231.398 75.0076 231.904 75.5387C232.41 76.0698 233.02 76.4812 233.75 76.7728C234.465 77.0592 235.273 77.1997 236.159 77.1997C237.437 77.1997 238.548 76.9029 239.455 76.3145C240.18 75.8407 240.759 75.1273 241.186 74.1849L241.395 73.7266H237.891L237.797 73.8047C237.74 73.8516 237.672 73.9089 237.599 73.9557C237.218 74.2213 236.78 74.3463 236.248 74.3463C235.513 74.3463 234.944 74.164 234.564 73.7943C234.24 73.4819 234.032 72.9664 233.964 72.2739H241.687L241.708 71.9614C241.765 71.0971 241.698 70.2587 241.489 69.4621C241.28 68.6654 240.947 67.9416 240.488 67.3115L240.498 67.322H240.509ZM235.059 68.3217C235.325 68.1811 235.669 68.1134 236.086 68.1134C236.707 68.1134 237.171 68.2748 237.458 68.5873C237.698 68.8632 237.896 69.2434 238.037 69.738H234.016C234.037 69.6443 234.063 69.5558 234.084 69.4516C234.152 69.2329 234.256 69.0143 234.418 68.8164C234.579 68.6185 234.788 68.4467 235.064 68.3113V68.3217H235.059Z" fill="white"/>
<path fill-rule="evenodd" clip-rule="evenodd" d="M265.59 74.2161V68.6237C265.59 67.8999 265.418 67.3115 265.095 66.8637C264.771 66.4263 264.359 66.0826 263.848 65.8379C263.363 65.6088 262.811 65.4474 262.237 65.3641C261.027 65.2027 259.849 65.2027 258.696 65.4318C258.076 65.5567 257.497 65.765 257.001 66.067C256.485 66.3638 256.057 66.77 255.734 67.2751C255.4 67.7801 255.202 68.4154 255.155 69.16L255.134 69.5037H258.743L258.78 69.2069C258.827 68.7226 258.978 68.379 259.228 68.1915C259.504 67.9832 259.896 67.8791 260.401 67.8791C260.641 67.8791 260.876 67.8895 261.095 67.9259C261.277 67.9468 261.439 68.004 261.58 68.0874C261.705 68.1551 261.799 68.2592 261.877 68.3998C261.955 68.5404 261.992 68.733 261.992 69.009C262.002 69.2746 261.914 69.3787 261.841 69.436C261.689 69.561 261.46 69.6651 261.184 69.7328C260.871 69.8109 260.506 69.8734 260.088 69.915C259.65 69.9619 259.202 70.0192 258.764 70.0869C258.315 70.1546 257.851 70.2587 257.403 70.3733C256.928 70.4982 256.506 70.6961 256.136 70.9512C255.755 71.2168 255.442 71.5709 255.202 72.0083C254.962 72.4457 254.832 73.008 254.832 73.6745C254.832 74.2733 254.936 74.8045 255.145 75.2523C255.354 75.7001 255.651 76.0802 256.021 76.3666C256.391 76.653 256.819 76.8717 257.299 77.0123C257.773 77.1528 258.289 77.2101 258.832 77.2101C259.525 77.2101 260.214 77.106 260.881 76.8977C261.366 76.7467 261.815 76.5176 262.206 76.2208C262.242 76.3926 262.284 76.554 262.346 76.7155L262.414 76.9342H265.653V75.1638C265.616 74.8045 265.606 74.5077 265.606 74.2109H265.585L265.59 74.2161ZM261.971 71.8989V72.4405C261.971 72.5915 261.961 72.8102 261.924 73.0601C261.888 73.2892 261.809 73.5339 261.684 73.7631C261.559 73.9818 261.361 74.1796 261.095 74.341C260.829 74.5025 260.438 74.5806 259.922 74.5806C259.703 74.5806 259.494 74.5597 259.301 74.5233C259.119 74.4868 258.967 74.4296 258.827 74.3514C258.712 74.2838 258.618 74.1796 258.55 74.0546C258.482 73.9297 258.446 73.7578 258.446 73.5496C258.446 73.3309 258.482 73.1486 258.55 73.0184C258.628 72.8779 258.722 72.7633 258.837 72.6852C258.962 72.5915 259.124 72.5134 259.311 72.4561C259.51 72.3884 259.713 72.3415 259.922 72.2947C260.151 72.2478 260.381 72.227 260.615 72.1905C260.855 72.1697 261.1 72.1228 261.319 72.0864C261.549 72.0395 261.768 71.9822 261.966 71.9145C261.966 71.9145 261.987 71.9145 262.002 71.9041H261.981L261.971 71.8989Z" fill="white"/>
<path fill-rule="evenodd" clip-rule="evenodd" d="M221.04 71.1179L217.765 63.073H212.613V76.929H216.337V69.3787L219.471 76.929H222.433L225.567 69.285V76.929H229.29V63.073H224.138L221.051 71.1179H221.04Z" fill="white"/>
<path fill-rule="evenodd" clip-rule="evenodd" d="M191.217 67.1919V71.1961L193.246 73.2217L195.264 71.2066V67.1919L193.236 65.1664L191.207 67.1919H191.217Z" fill="#E40046"/>
<path fill-rule="evenodd" clip-rule="evenodd" d="M193.253 55.0073C184.956 55.0073 178.234 61.7192 178.234 70.0036C178.234 78.2881 184.956 85 193.253 85C201.549 85 208.271 78.2881 208.271 70.0036C208.271 61.7192 201.539 55.0073 193.253 55.0073ZM202.045 80.0637L200.465 81.2249L198.885 80.0637V76.1063L196.856 74.0808L194.828 76.1063V80.0637L193.248 81.2249L191.668 80.0637V76.1063L189.639 74.0808L187.61 76.1063V80.0637L186.03 81.2249L184.45 80.0637V74.8046L188.048 71.2117V65.8953L191.657 62.292V57.7254L193.237 56.5642L194.817 57.7254V62.292L198.426 65.8953V71.2013L202.045 74.815V80.0741V80.0637Z" fill="#E40046"/>
<path d="M136.408 76.8822V68.7332H133.895V67.3273H136.408V66.2598C136.408 64.5728 137.122 63.7709 138.901 63.7709H141.414V65.1768H138.995C138.228 65.1768 137.946 65.4944 137.946 66.2234V67.3273H141.414V68.7332H137.946V76.8822H136.408Z" fill="white"/>
<path d="M150.434 67.3273V68.8269H149.198C146.966 68.8269 146.309 70.5296 146.309 72.0501V75.4763H149.104V76.8822H142.633V75.4763H144.771V68.7332H142.633V67.3273H146.236L146.294 68.9362C146.726 68.1864 147.587 67.3273 149.407 67.3273H150.439H150.434Z" fill="white"/>
<path d="M151.035 72.1021C151.035 69.1965 152.985 67.2126 155.781 67.2126C158.576 67.2126 160.526 69.1965 160.526 72.1021C160.526 75.0076 158.576 76.9915 155.781 76.9915C152.985 76.9915 151.035 75.0076 151.035 72.1021ZM158.951 72.1021C158.951 70.0609 157.674 68.5821 155.781 68.5821C153.888 68.5821 152.61 70.0609 152.61 72.1021C152.61 74.1432 153.888 75.622 155.781 75.622C157.674 75.622 158.951 74.1432 158.951 72.1021Z" fill="white"/>
<path d="M174.038 70.7171V76.877H172.5V70.7691C172.5 69.4934 171.9 68.6551 170.717 68.6551C169.46 68.6551 168.73 69.608 168.73 70.8629V76.877H167.191V70.7691C167.191 69.5871 166.701 68.6551 165.351 68.6551C164.115 68.6551 163.421 69.6288 163.421 70.9983V76.877H161.883V67.3221H163.176L163.306 68.3322C163.797 67.6397 164.621 67.2075 165.705 67.2075C166.847 67.2075 167.749 67.7907 168.182 68.6707C168.745 67.7907 169.663 67.2075 170.92 67.2075C172.813 67.2075 174.033 68.5353 174.033 70.7119L174.038 70.7171Z" fill="white"/>
</svg>
