<svg width="548" height="85" viewBox="0 0 548 85" fill="none" xmlns="http://www.w3.org/2000/svg">
<path d="M262.577 11.5115H277.431V73.4127H266.292V29.288L249.136 73.4127H239.054L221.902 29.1995V73.4127H210.758V11.5115H225.617L244.097 59.2623L262.582 11.5115H262.577ZM330.664 50.8589C330.664 55.4015 329.676 59.4527 327.701 63.0169C325.727 66.5854 322.955 69.3703 319.391 71.376C315.822 73.3817 311.771 74.3823 307.229 74.3823C302.686 74.3823 298.475 73.3684 294.938 71.3317C291.4 69.2995 288.629 66.4969 286.627 62.9327C284.622 59.3686 283.621 55.3395 283.621 50.8589C283.621 46.3782 284.622 42.2828 286.627 38.7452C288.633 35.2076 291.418 32.4227 294.987 30.3905C298.551 28.3582 302.637 27.3399 307.233 27.3399C311.829 27.3399 315.902 28.345 319.44 30.3462C322.978 32.3563 325.731 35.1412 327.71 38.7054C329.685 42.2695 330.672 46.3251 330.672 50.8633L330.664 50.8589ZM319.962 50.8589C319.962 48.1493 319.436 45.7185 318.373 43.5668C317.31 41.415 315.809 39.7635 313.865 38.6124C311.917 37.4657 309.708 36.8901 307.229 36.8901C304.749 36.8901 302.452 37.4657 300.512 38.6124C298.564 39.7635 297.046 41.3973 295.957 43.5181C294.867 45.6433 294.318 48.0873 294.318 50.8589C294.318 53.6305 294.867 56.0745 295.957 58.1997C297.046 60.3249 298.564 61.9587 300.512 63.1098C302.456 64.2566 304.696 64.8321 307.229 64.8321C309.761 64.8321 311.917 64.2566 313.865 63.1098C315.809 61.9587 317.315 60.3249 318.373 58.1997C319.436 56.0789 319.962 53.6305 319.962 50.8589ZM381.593 10.626V73.4127H370.897V68.197C369.484 70.0876 367.62 71.5885 365.326 72.7043C363.029 73.8244 360.288 74.3823 357.101 74.3823C352.974 74.3823 349.317 73.4259 346.138 71.5088C342.955 69.5917 340.48 66.8644 338.709 63.3268C336.942 59.7892 336.057 55.6318 336.057 50.8589C336.057 46.086 336.911 42.1057 338.62 38.5681C340.329 35.0305 342.729 32.2766 345.828 30.3019C348.923 28.3273 352.562 27.3399 356.751 27.3399C359.992 27.3399 362.776 27.8668 365.105 28.9294C367.434 29.992 369.365 31.4354 370.897 33.2595V10.6216H381.593V10.626ZM371.251 50.8589C371.251 48.1493 370.75 45.7185 369.745 43.5668C368.744 41.415 367.328 39.7635 365.504 38.6124C363.675 37.4657 361.524 36.8901 359.049 36.8901C356.45 36.8901 354.227 37.4657 352.372 38.6124C350.516 39.7635 349.1 41.415 348.126 43.5668C347.156 45.7185 346.669 48.1493 346.669 50.8589C346.669 53.5685 347.156 56.0037 348.126 58.1554C349.1 60.3072 350.53 61.9542 352.416 63.1054C354.307 64.2521 356.516 64.8277 359.053 64.8277C361.59 64.8277 363.604 64.2521 365.459 63.1054C367.314 61.9542 368.749 60.3072 369.75 58.1554C370.755 56.0037 371.255 53.573 371.255 50.8589H371.251ZM433.325 28.3095V73.4082H422.628V68.2812C421.153 70.1673 419.267 71.6549 416.969 72.7485C414.672 73.8377 411.926 74.3823 408.743 74.3823C404.616 74.3823 400.964 73.4259 397.78 71.5088C394.597 69.5917 392.135 66.8644 390.395 63.3268C388.655 59.7892 387.787 55.6318 387.787 50.8589C387.787 46.086 388.642 42.1057 390.351 38.5681C392.06 35.0305 394.459 32.2766 397.559 30.3019C400.654 28.3273 404.293 27.3399 408.481 27.3399C411.78 27.3399 414.641 27.9155 417.058 29.0622C419.471 30.2134 421.331 31.701 422.628 33.5252V28.3095H433.325ZM422.978 50.8589C422.978 48.1493 422.477 45.7185 421.472 43.5668C420.471 41.415 419.054 39.7635 417.23 38.6124C415.402 37.4657 413.25 36.8901 410.775 36.8901C408.176 36.8901 405.954 37.4657 404.099 38.6124C402.243 39.7635 400.826 41.415 399.852 43.5668C398.883 45.7185 398.396 48.1493 398.396 50.8589C398.396 53.5685 398.883 56.0037 399.852 58.1554C400.826 60.3072 402.257 61.9542 404.143 63.1054C406.033 64.2521 408.243 64.8277 410.78 64.8277C413.317 64.8277 415.331 64.2521 417.186 63.1054C419.041 61.9542 420.476 60.3072 421.477 58.1554C422.482 56.0037 422.982 53.573 422.982 50.8589H422.978ZM442.299 10.626V73.4127H452.999V10.626H442.299Z" fill="#3A3A3A"/>
<path d="M65.9138 1.77101L81.2507 28.3361L49.5537 83.2373C48.9205 84.3309 47.7521 85.0083 46.4858 85.0083H17.8573C17.2242 85.0083 16.6176 84.8401 16.0863 84.5346C15.555 84.2291 15.1078 83.7863 14.7891 83.2373L0.474851 58.4432C-0.158284 57.3496 -0.158284 55.9992 0.474851 54.9012L31.1531 1.77101C31.4675 1.22199 31.9191 0.779248 32.4504 0.473749C32.9817 0.168249 33.5883 0 34.2214 0H62.8495C64.1158 0 65.2851 0.67741 65.9182 1.77101H65.9138Z" fill="#4A4A4A"/>
<path d="M48.5346 28.3361H81.254L65.917 1.77101C65.2839 0.67741 64.115 0 62.8488 0H34.2202C33.5871 0 32.9805 0.168249 32.4492 0.473749L48.5346 28.3361Z" fill="url(#paint0_linear_26_3644)"/>
<path d="M48.5358 28.3361L32.4504 0.473755C31.9191 0.779254 31.4719 1.222 31.1531 1.77101L0.474851 54.9012C-0.158284 55.9993 -0.158284 57.3452 0.474851 58.4432L14.7891 83.2373C15.1034 83.7864 15.555 84.2291 16.0863 84.5346L48.5314 28.3361H48.5358Z" fill="url(#paint1_linear_26_3644)"/>
<path d="M81.2504 28.3361H48.531L16.0859 84.5346C16.6172 84.8401 17.2238 85.0083 17.8569 85.0083H46.4855C47.7518 85.0083 48.9202 84.3309 49.5533 83.2373L81.2504 28.3361Z" fill="#3A3A3A"/>
<path d="M162.028 58.4432C162.343 57.8942 162.502 57.2832 162.502 56.6722H130.331L114.246 84.5346C114.777 84.8401 115.384 85.0084 116.017 85.0084H144.646C145.912 85.0084 147.081 84.3309 147.714 83.2373L162.028 58.4432Z" fill="#3A3A3A"/>
<path d="M99.6577 0C99.0246 0 98.418 0.168249 97.8867 0.473749L130.331 56.6722H162.502C162.502 56.0612 162.343 55.4502 162.028 54.9012L131.354 1.77101C130.721 0.67741 129.552 0 128.286 0H99.6533H99.6577Z" fill="url(#paint2_linear_26_3644)"/>
<path d="M114.244 84.5346L130.329 56.6722L97.8842 0.473755C97.3529 0.779254 96.9057 1.222 96.5869 1.77101L81.25 28.3361L112.947 83.2373C113.261 83.7864 113.713 84.2291 114.244 84.5346Z" fill="url(#paint3_linear_26_3644)"/>
<defs>
<linearGradient id="paint0_linear_26_3644" x1="68.9796" y1="35.4201" x2="44.7168" y2="-6.61028" gradientUnits="userSpaceOnUse">
<stop stop-color="#A9A9A9"/>
<stop offset="1" stop-color="#7A7A7A"/>
</linearGradient>
<linearGradient id="paint1_linear_26_3644" x1="3.81652" y1="77.4506" x2="44.3062" y2="7.32311" gradientUnits="userSpaceOnUse">
<stop stop-color="#7A7A7A"/>
<stop offset="1" stop-color="#3A3A3A"/>
</linearGradient>
<linearGradient id="paint2_linear_26_3644" x1="150.644" y1="63.5172" x2="110.154" y2="-6.61029" gradientUnits="userSpaceOnUse">
<stop stop-color="#A9A9A9"/>
<stop offset="1" stop-color="#7A7A7A"/>
</linearGradient>
<linearGradient id="paint3_linear_26_3644" x1="126.104" y1="77.6897" x2="85.6142" y2="7.55778" gradientUnits="userSpaceOnUse">
<stop stop-color="#7A7A7A"/>
<stop offset="1" stop-color="#3A3A3A"/>
</linearGradient>
</defs>
</svg>
