<svg viewBox="0 0 548 85" width="548" height="85" fill="none" xmlns="http://www.w3.org/2000/svg"><g transform="translate(0.0000, 0.0000) scale(0.800000)">
<path d="M100.899 58.745L68.0819 1.72377C67.4666 0.656675 66.333 0 65.1056 0H46.5299C45.3025 0 44.1689 0.656675 43.5536 1.72377L34.2675 17.8579C33.6552 18.925 33.6552 20.2383 34.2675 21.3024L53.2189 54.2243C54.3737 56.2308 52.9309 58.742 50.6184 58.742H12.7186C11.4912 58.742 10.3577 59.3985 9.74242 60.4657L0.459163 76.603C-0.153054 77.6701 -0.153054 78.9834 0.459163 80.0473L9.74547 96.1846C10.3607 97.2518 11.4942 97.9083 12.7217 97.9083H31.2972C32.5249 97.9083 33.6584 97.2518 34.2735 96.1846L53.2251 63.2627C54.3826 61.2562 57.271 61.2562 58.4259 63.2627L77.3772 96.1846C77.9896 97.2518 79.1261 97.9083 80.3535 97.9083H98.9292C100.157 97.9083 101.29 97.2518 101.905 96.1846L111.192 80.0473C111.804 78.9805 111.804 77.6669 111.192 76.603L100.911 58.745H100.899Z" fill="white"/>
<path d="M168.62 0L130.277 97.9053H147.15L157.466 71.0515H197.482L207.802 97.9053H224.674L186.325 0H168.62ZM162.064 57.4834L177.121 18.0433H177.679L192.736 57.4834H162.061H162.064Z" fill="white"/>
<path d="M268.93 25.3155C258.055 25.3155 250.109 29.7907 245.784 38.601V27.4133H232.121V97.9025H247.042V63.2173C247.181 46.2927 254.291 38.4611 265.723 38.4611C275.204 38.4611 279.946 44.0552 279.946 56.225V97.9025H295.003V53.1451C295.003 35.5214 285.105 25.3125 268.93 25.3125V25.3155Z" fill="white"/>
<path d="M339.066 87.1331C327.352 87.1331 319.269 77.4837 319.269 62.6567C319.269 47.8298 327.216 38.1804 338.927 38.1804C348.546 38.1804 355.656 44.7532 357.05 54.4058H371.967C369.877 36.2224 357.05 25.3145 339.063 25.3145C318.008 25.3145 303.926 40.1413 303.926 62.6567C303.926 85.1721 318.008 99.999 339.063 99.999C357.47 99.999 370.854 88.6715 372.665 70.4881H357.884C356.49 80.5573 348.683 87.1331 339.063 87.1331H339.066Z" fill="white"/>
<path d="M418.576 25.3154C408.397 25.3154 401.007 29.371 396.683 37.3423V0H381.766V97.9053H396.683V63.2201C396.822 46.2956 403.934 38.4642 415.364 38.4642C424.844 38.4642 429.589 44.058 429.589 56.2278V97.9053H444.645V53.1482C444.645 35.5243 434.747 25.3154 418.576 25.3154Z" fill="white"/>
<path d="M489.264 25.3145C467.65 25.3145 453.57 40.0014 453.57 62.6567C453.57 85.3121 467.65 99.999 489.264 99.999C510.876 99.999 524.956 85.1721 524.956 62.6567C524.956 40.1413 511.012 25.3145 489.264 25.3145ZM489.264 87.1331C476.993 87.1331 468.908 77.4837 468.908 62.6567C468.908 47.8298 476.993 38.1804 489.264 38.1804C501.532 38.1804 509.482 47.8298 509.482 62.6567C509.482 77.4837 501.535 87.1331 489.264 87.1331Z" fill="white"/>
<path d="M550.549 27.4141C540.513 27.4141 534.934 32.8681 534.934 43.0799V97.9063H549.854V40.2832H572.998V27.4171H550.549V27.4141Z" fill="white"/>
</g></svg>