<svg width="548" height="85" viewBox="0 0 548 85" fill="none" xmlns="http://www.w3.org/2000/svg">
<path d="M262.494 11.5457H277.368V73.4538H266.248V29.3248L249.107 73.4538H239.048L221.906 29.254V73.4538H210.785V11.5457H225.66L244.147 59.287L262.635 11.5457H262.494ZM327.66 38.6747C329.643 42.2165 330.635 46.3246 330.635 50.858C330.635 55.3913 329.643 59.4287 327.66 63.0413C325.676 66.5829 322.914 69.4163 319.371 71.3995C315.831 73.3829 311.723 74.3746 307.188 74.3746C302.655 74.3746 298.406 73.3829 294.864 71.3286C291.323 69.2746 288.559 66.512 286.577 62.8996C284.592 59.3579 283.602 55.3204 283.602 50.858C283.602 46.3954 284.592 42.2871 286.577 38.7456C288.559 35.2038 291.394 32.4415 294.934 30.3872C298.477 28.3331 302.585 27.3414 307.188 27.3414C311.793 27.3414 315.831 28.3331 319.371 30.3163C322.914 32.2998 325.676 35.133 327.66 38.6747ZM319.869 50.858C319.869 48.1663 319.371 45.6871 318.309 43.5622C317.248 41.4373 315.761 39.7373 313.776 38.6039C311.864 37.4704 309.597 36.9038 307.118 36.9038C304.64 36.9038 302.371 37.4704 300.389 38.6039C298.477 39.7373 296.919 41.3665 295.856 43.4914C294.793 45.6163 294.225 48.0954 294.225 50.858C294.225 53.6204 294.793 56.0996 295.856 58.2247C296.919 60.3496 298.477 61.9788 300.389 63.1122C302.301 64.2454 304.567 64.812 307.118 64.812C309.668 64.812 311.793 64.2454 313.776 63.1122C315.688 61.9788 317.248 60.3496 318.309 58.2247C319.371 56.0996 319.869 53.6204 319.869 50.858ZM370.797 10.6248H381.493V73.3829H370.797V68.1412C369.38 70.0537 367.538 71.5412 365.201 72.6746C362.935 73.8078 360.171 74.3746 356.985 74.3746C352.877 74.3746 349.193 73.3829 346.005 71.4703C342.819 69.558 340.339 66.7954 338.568 63.2537C336.796 59.7122 335.947 55.533 335.947 50.7872C335.947 46.0414 336.796 42.0039 338.497 38.4622C340.196 34.9206 342.605 32.1581 345.721 30.1749C348.839 28.1914 352.452 27.1997 356.631 27.1997C359.889 27.1997 362.651 27.6957 364.988 28.758C367.327 29.8206 369.239 31.2372 370.797 33.0789V10.4124V10.6248ZM371.151 50.858C371.151 48.1663 370.656 45.6871 369.663 43.5622C368.671 41.4373 367.256 39.7373 365.415 38.6039C363.573 37.4704 361.447 36.9038 358.967 36.9038C356.347 36.9038 354.151 37.4704 352.309 38.6039C350.467 39.7373 349.05 41.4373 348.06 43.5622C347.068 45.6871 346.573 48.1663 346.573 50.858C346.573 53.5495 347.068 56.0287 348.06 58.1538C349.05 60.2788 350.467 61.9788 352.379 63.1122C354.294 64.2454 356.487 64.812 359.038 64.812C361.588 64.812 363.573 64.2454 365.415 63.1122C367.256 61.9788 368.671 60.2788 369.734 58.1538C370.726 56.0287 371.221 53.5495 371.221 50.858H371.151ZM422.576 28.3331H433.272V73.4538H422.576V68.3537C421.089 70.2663 419.247 71.7538 416.91 72.8161C414.641 73.8787 411.88 74.4453 408.692 74.4453C404.584 74.4453 400.9 73.4538 397.714 71.5412C394.526 69.6286 392.046 66.8663 390.347 63.3245C388.576 59.783 387.726 55.6038 387.726 50.858C387.726 46.1122 388.576 42.0748 390.277 38.533C391.975 34.9915 394.385 32.2289 397.501 30.2455C400.619 28.2623 404.229 27.2706 408.41 27.2706C411.739 27.2706 414.571 27.8371 416.981 28.9706C419.388 30.104 421.229 31.5915 422.576 33.4329V28.1914V28.3331ZM422.93 50.858C422.93 48.1663 422.433 45.6871 421.443 43.5622C420.451 41.4373 419.033 39.7373 417.192 38.6039C415.35 37.4704 413.227 36.9038 410.747 36.9038C408.126 36.9038 405.93 37.4704 404.089 38.6039C402.247 39.7373 400.83 41.4373 399.837 43.5622C398.847 45.6871 398.35 48.1663 398.35 50.858C398.35 53.5495 398.847 56.0287 399.837 58.1538C400.83 60.2788 402.247 61.9788 404.159 63.1122C406.071 64.2454 408.267 64.812 410.817 64.812C413.368 64.812 415.35 64.2454 417.192 63.1122C419.033 61.9788 420.451 60.2788 421.513 58.1538C422.506 56.0287 423.001 53.5495 423.001 50.858H422.93ZM442.197 10.6248V73.3829H452.893V10.6248H442.197Z" fill="white"/>
<path d="M65.8603 1.77082L81.2311 28.3333L49.5689 83.2287C48.9312 84.2912 47.798 84.9995 46.5229 84.9995H17.9064C17.2689 84.9995 16.6314 84.8578 16.1356 84.5038C15.6398 84.2204 15.1439 83.7246 14.8606 83.2287L0.552342 58.4372C-0.0851556 57.3748 -0.0851556 55.958 0.552342 54.8956L31.2229 1.77082C31.5063 1.20416 32.0021 0.77916 32.4981 0.495828C32.9938 0.212497 33.6312 0 34.2689 0H62.8854C64.1603 0 65.2937 0.70833 65.9311 1.77082H65.8603ZM161.981 54.8956L131.31 1.77082C131.027 1.20416 130.531 0.77916 130.035 0.495828C129.539 0.212497 128.902 0 128.264 0H99.6476C98.3727 0 97.2393 0.70833 96.6019 1.77082L81.2311 28.3333L112.894 83.2287C113.531 84.2912 114.664 84.9995 115.939 84.9995H144.556C145.193 84.9995 145.831 84.8578 146.327 84.5038C146.822 84.2204 147.318 83.7246 147.601 83.2287L161.91 58.4372C162.547 57.3748 162.547 55.958 161.91 54.8956H161.981Z" fill="#62DE61"/>
<path d="M48.4971 28.3333H81.2218L65.8513 1.77082C65.2136 0.70833 64.0804 0 62.8053 0H34.1888C33.5514 0 32.9139 0.141664 32.418 0.495828L48.4971 28.3333Z" fill="url(#paint0_linear_104_33)"/>
<path d="M48.503 28.334L32.4239 0.496582C31.9279 0.779912 31.4322 1.27575 31.1488 1.77158L0.478122 54.8964C-0.159374 55.9587 -0.159374 57.3756 0.478122 58.4379L14.7864 83.2294C15.0697 83.7962 15.5655 84.2211 16.0614 84.5045L48.503 28.334Z" fill="url(#paint1_linear_104_33)"/>
<path d="M81.2249 28.3325H48.5001L16.0586 84.5031C16.5544 84.7865 17.1919 84.999 17.8294 84.999H46.446C47.7209 84.999 48.8544 84.2905 49.4918 83.2282L81.154 28.3325H81.2249Z" fill="#09AF58"/>
<path d="M161.976 58.4376C162.259 57.871 162.472 57.3042 162.472 56.6667H130.313L114.234 84.504C114.73 84.7874 115.368 85 116.005 85H144.622C145.897 85 147.03 84.2917 147.667 83.2291L161.976 58.4376Z" fill="#09AF58"/>
<path d="M99.5714 0C98.934 0 98.2965 0.141664 97.8008 0.495828L130.242 56.6663H162.4C162.4 56.0288 162.259 55.4622 161.905 54.8956L131.234 1.77082C130.596 0.70833 129.463 0 128.188 0H99.5714Z" fill="url(#paint2_linear_104_33)"/>
<path d="M114.164 84.5045L130.244 56.667L97.8022 0.496582C97.3062 0.779912 96.8105 1.27575 96.527 1.77158L81.1562 28.334L112.819 83.2294C113.102 83.7962 113.598 84.2211 114.094 84.5045H114.164Z" fill="url(#paint3_linear_104_33)"/>
<defs>
<linearGradient id="paint0_linear_104_33" x1="68.8971" y1="35.4165" x2="44.6721" y2="-6.58747" gradientUnits="userSpaceOnUse">
<stop stop-color="#BFF9B4"/>
<stop offset="1" stop-color="#80EE64"/>
</linearGradient>
<linearGradient id="paint1_linear_104_33" x1="3.80728" y1="77.4213" x2="44.2529" y2="7.29655" gradientUnits="userSpaceOnUse">
<stop stop-color="#80EE64"/>
<stop offset="0.18" stop-color="#7BEB63"/>
<stop offset="0.36" stop-color="#6FE562"/>
<stop offset="0.55" stop-color="#5ADA60"/>
<stop offset="0.74" stop-color="#3DCA5D"/>
<stop offset="0.93" stop-color="#18B759"/>
<stop offset="1" stop-color="#09AF58"/>
</linearGradient>
<linearGradient id="paint2_linear_104_33" x1="150.571" y1="63.5372" x2="110.126" y2="-6.58747" gradientUnits="userSpaceOnUse">
<stop stop-color="#BFF9B4"/>
<stop offset="1" stop-color="#80EE64"/>
</linearGradient>
<linearGradient id="paint3_linear_104_33" x1="126.064" y1="77.7045" x2="85.548" y2="7.57987" gradientUnits="userSpaceOnUse">
<stop stop-color="#80EE64"/>
<stop offset="0.18" stop-color="#7BEB63"/>
<stop offset="0.36" stop-color="#6FE562"/>
<stop offset="0.55" stop-color="#5ADA60"/>
<stop offset="0.74" stop-color="#3DCA5D"/>
<stop offset="0.93" stop-color="#18B759"/>
<stop offset="1" stop-color="#09AF58"/>
</linearGradient>
</defs>
</svg>
