<svg width="548" height="86" viewBox="0 0 548 86" fill="none" xmlns="http://www.w3.org/2000/svg">
<path d="M46.2911 0L23.6822 22.4929V12.8754H14.5469V34.8394H23.6822V22.4929L30.1419 28.9195L52.7508 6.42656L46.2911 0Z" fill="white"/>
<path d="M39.6719 19.6915H70.1231V28.78H39.6719V19.6915Z" fill="white"/>
<path d="M3.89429 51.5015H17.2235L0 34.3664L6.45968 27.9398L23.8231 45.2143L17.5034 51.5015H30.5392V60.5901H3.89429V51.5015Z" fill="white"/>
<path d="M28.362 76.1367L46.5269 58.0649V71.9507H55.6623V44.6851H46.5269V57.7913L40.2048 51.5016L21.9023 69.7101L28.362 76.1367Z" fill="white"/>
<path d="M46.5234 35.2071L66.9791 55.5579L73.4388 49.1314L52.9831 28.7806L46.5234 35.2071Z" fill="white"/>
<path fill-rule="evenodd" clip-rule="evenodd" d="M107.98 66.9863H121.311C128.853 67.1013 134.521 66.6832 138.551 64.9578C142.639 63.1749 145.518 60.2129 147.187 56.0719C148.914 51.9309 149.778 45.9495 149.778 38.1276C149.778 30.8808 149.059 24.868 147.619 20.7845C146.18 16.701 143.733 13.6815 140.278 11.726C136.882 9.71303 132.046 8.39024 125.771 7.75758C122.892 7.47002 120.1 7.32622 117.394 7.32622C115.622 7.28858 113.634 7.30021 111.491 7.31274C110.361 7.31935 109.188 7.3262 107.98 7.32621V66.9863ZM134.32 56.6758C132.247 57.9987 129.368 58.775 125.684 59.0051C124.59 59.1202 123.41 59.1489 122.143 59.0914C120.934 59.0339 119.409 58.9476 117.566 58.8326V15.9559C119.984 15.9559 122.633 16.0997 125.512 16.3872C129.368 16.8474 132.333 17.7676 134.407 19.1479C136.479 20.5283 137.947 22.6563 138.81 25.532C139.674 28.3502 140.106 32.3186 140.106 37.4374C140.106 42.8436 139.646 47.071 138.724 50.1192C137.861 53.1099 136.393 55.2954 134.32 56.6758Z" fill="white"/>
<path fill-rule="evenodd" clip-rule="evenodd" d="M158.048 66.2518C160.236 67.0571 163.316 67.4597 167.289 67.4597C170.801 67.4597 173.478 67.0283 175.321 66.1656C177.162 65.2454 178.861 63.5775 180.416 61.1619H181.106V67.0309H189.57V36.4884C189.57 32.2898 189.023 29.0691 187.929 26.826C186.836 24.5254 184.964 22.9151 182.315 21.9949C179.725 21.0171 176.04 20.5283 171.261 20.5283C166.54 20.5283 162.885 20.9596 160.294 21.8223C157.761 22.6275 155.976 24.0366 154.939 26.0496C153.903 28.005 153.208 30.8298 153.208 34.5041H162.798C162.798 32.0885 163.374 30.4494 164.525 29.5867C165.734 28.724 167.98 28.2926 171.261 28.2926C173.738 28.2926 175.666 28.5515 177.048 29.0691C178.43 29.5867 179.408 30.4206 179.984 31.5709C180.56 32.7212 180.847 34.3603 180.847 36.4884V37.6961H173.507C167.922 37.6961 163.604 38.1851 160.553 39.1627C157.502 40.083 155.342 41.7221 154.076 44.0802C152.809 46.3807 152.176 49.6303 152.176 53.8288C152.176 57.3947 152.608 60.1554 153.471 62.1109C154.392 64.0663 155.918 65.4467 158.048 66.2518ZM176.098 58.2287C174.486 59.0914 172.154 59.5228 169.103 59.5228C166.109 59.5228 164.065 59.0626 162.971 58.1424C161.877 57.2222 161.33 55.5255 161.33 53.0524C161.33 51.0394 161.647 49.5152 162.28 48.48C162.914 47.3873 163.95 46.6108 165.389 46.1508C166.886 45.6906 168.987 45.4318 171.693 45.3743L180.761 45.288C180.646 49.0264 180.243 51.9022 179.552 53.9151C178.861 55.9281 177.71 57.3659 176.098 58.2287Z" fill="white"/>
<path fill-rule="evenodd" clip-rule="evenodd" d="M279.686 67.4597C274.274 67.4597 270.1 66.7695 267.164 65.3892C264.227 64.0088 262.155 61.6507 260.946 58.3149C259.737 54.9791 259.133 50.2343 259.133 44.0802C259.133 37.8687 259.737 33.095 260.946 29.7592C262.155 26.4234 264.227 24.0654 267.164 22.685C270.1 21.2472 274.274 20.5283 279.686 20.5283C285.098 20.5283 289.243 21.2472 292.122 22.685C295.058 24.0654 297.13 26.4234 298.34 29.7592C299.606 33.095 300.24 37.8687 300.24 44.0802C300.24 50.2343 299.606 54.9791 298.34 58.3149C297.13 61.5932 295.058 63.9513 292.122 65.3892C289.185 66.7695 285.04 67.4597 279.686 67.4597ZM279.686 59.5228C282.68 59.5228 284.954 59.0626 286.508 58.1424C288.121 57.2222 289.272 55.6693 289.963 53.4838C290.654 51.2982 291 48.1637 291 44.0802C291 39.9392 290.654 36.7759 289.963 34.5904C289.272 32.3474 288.121 30.7658 286.508 29.8455C284.954 28.8678 282.68 28.3789 279.686 28.3789C276.693 28.3789 274.389 28.8678 272.777 29.8455C271.165 30.7658 270.014 32.3474 269.323 34.5904C268.632 36.7759 268.287 39.9392 268.287 44.0802C268.287 48.1637 268.632 51.2982 269.323 53.4838C270.014 55.6693 271.165 57.2222 272.777 58.1424C274.389 59.0626 276.693 59.5228 279.686 59.5228Z" fill="white"/>
<path d="M303.41 20.9545H312.651V28.0338H313.341C314.781 25.1006 316.393 23.1164 318.178 22.0811C320.02 21.0459 322.668 20.5283 326.123 20.5283C330.268 20.5283 333.464 21.0746 335.709 22.1674C337.954 23.2026 339.566 24.9568 340.545 27.43C341.523 29.903 342.013 33.4401 342.013 38.0412V67.0309H332.773V37.8687C332.773 35.5106 332.514 33.6702 331.996 32.3474C331.477 31.0245 330.585 30.1043 329.318 29.5867C328.052 29.0691 326.239 28.8102 323.878 28.8102C320.941 28.8102 318.667 29.2416 317.055 30.1043C315.501 30.967 314.378 32.4337 313.687 34.5041C312.996 36.5746 312.651 39.5078 312.651 43.3038V67.0309H303.41V20.9545Z" fill="white"/>
<path fill-rule="evenodd" clip-rule="evenodd" d="M360.718 67.4597C356.746 67.4597 353.665 67.0571 351.477 66.2518C349.348 65.4467 347.822 64.0663 346.901 62.1109C346.037 60.1554 345.605 57.3947 345.605 53.8288C345.605 49.6303 346.238 46.3807 347.505 44.0802C348.771 41.7221 350.931 40.083 353.982 39.1627C357.034 38.1851 361.351 37.6961 366.936 37.6961H374.277V36.4884C374.277 34.3603 373.989 32.7212 373.413 31.5709C372.837 30.4206 371.859 29.5867 370.476 29.0691C369.095 28.5515 367.166 28.2926 364.691 28.2926C361.409 28.2926 359.164 28.724 357.955 29.5867C356.803 30.4494 356.228 32.0885 356.228 34.5041H346.83C346.83 30.4821 347.333 28.005 348.369 26.0496C349.405 24.0366 351.19 22.6275 353.723 21.8223C356.314 20.9596 359.97 20.5283 364.691 20.5283C369.469 20.5283 373.154 21.0171 375.745 21.9949C378.393 22.9151 380.264 24.5254 381.358 26.826C382.452 29.0691 382.999 32.2898 382.999 36.4884V67.0309H374.536V61.1619H373.845C372.291 63.5775 370.592 65.2454 368.749 66.1656C366.907 67.0283 364.23 67.4597 360.718 67.4597ZM362.532 59.5228C365.583 59.5228 367.915 59.0914 369.526 58.2287C371.139 57.3659 372.291 55.9281 372.981 53.9151C373.672 51.9022 374.075 49.0264 374.19 45.288L365.123 45.3743C362.417 45.4318 360.315 45.6906 358.818 46.1508C357.379 46.6108 356.342 47.3873 355.709 48.48C355.076 49.5152 354.76 51.0394 354.76 53.0524C354.76 55.5255 355.306 57.2222 356.4 58.1424C357.494 59.0626 359.538 59.5228 362.532 59.5228Z" fill="white"/>
<path d="M229.785 20.8595H220.89L212.154 58.7542H208.975L200.588 20.8595H191.852L199.275 58.436C200.241 63.3272 204.551 66.8544 209.561 66.8544H211.247L209.359 72.7528C209.265 72.9933 209.178 73.2349 209.091 73.4747C208.334 75.5686 207.624 77.5278 203.516 77.5278H197.793V85.0025L208.398 85.1114C211.596 85.057 215.614 82.7427 218.603 72.7528L229.785 20.8595Z" fill="white"/>
<path d="M251.826 67.1463C247.872 67.1463 244.879 66.6258 242.843 65.5846C240.867 64.5436 239.53 62.9819 238.832 60.8997C238.135 58.7597 237.786 55.8388 237.786 52.1371V28.5389H232.387L233.959 20.9042H238.135V11.1873H246.594V20.9042H257.135V28.5389H246.594V51.7901C246.594 53.6988 246.768 55.1736 247.117 56.2148C247.524 57.198 248.309 57.9499 249.471 58.4705C250.634 58.9911 252.379 59.2513 254.703 59.2513H257.135V67.1463H251.826Z" fill="white"/>
</svg>
