<svg viewBox="0 0 548 85" width="548" height="85" fill="none" xmlns="http://www.w3.org/2000/svg"><g transform="translate(0.0000, 0.0000) scale(0.254491)">
<path d="M102 151.001L14.92 100.361C14.73 98.5908 15.46 97.1508 16.1 95.5908C17.14 93.0708 28.81 73.0708 30.01 72.4408C30.75 72.0508 31.44 71.8808 32.25 72.1408L117.99 120.991L69.02 34.3808L69.12 32.1208C74.3 31.2608 93.25 16.3208 96.3 17.1208C97.99 17.5608 101.18 23.2908 102.41 25.0908C127.06 61.0608 148.34 99.5508 172.97 135.531C180.15 146.011 186.57 155.101 198.07 161.431L316.55 236.011C317.44 237.051 316.57 237.791 316.22 238.711C313.47 245.901 303.51 255.751 300.84 263.881L299.57 264.041L211 214.011L261.03 302.581L259.78 304.331L233.63 318.861L181 230.011V333.011H148V232.011L96.4 318.931L69.99 304.531L68.97 301.581L118.51 214.031L31.48 264.001C30.62 264.051 30.07 263.571 29.44 263.101C28.36 262.281 16.81 242.141 15.79 239.741C15.23 238.431 14.43 236.481 15.18 235.191L103 184.011H0V151.011H102V151.001Z" fill="white"/>
<path d="M1354.76 184.27H1205.76C1206.51 203.89 1215.34 222.6 1230.84 234.69C1256.97 255.06 1313.13 246.81 1325.8 213.29L1350.75 222.29C1345.21 239.67 1327.6 256.48 1311.11 264.14C1235.28 299.33 1166.1 237.88 1174.77 158.8C1187.09 46.3898 1349.55 50.2098 1355.8 156.74C1356.34 165.99 1354.81 175.09 1354.76 184.28V184.27ZM1323.76 159.27C1325.82 104.53 1254.41 83.4798 1220.79 123.8C1212.7 133.5 1206.75 146.51 1206.76 159.27H1323.76Z" fill="white"/>
<path d="M764.561 75.5693C841.211 69.6793 885.541 137.759 864.481 208.489C838.751 294.929 705.621 295.149 681.841 207.689C664.801 144.999 695.771 80.8493 764.561 75.5693ZM762.541 103.549C689.521 112.309 690.481 239.499 764.221 245.309C815.751 249.369 841.571 212.349 837.631 163.899C834.331 123.299 802.941 98.6993 762.541 103.549Z" fill="white"/>
<path d="M633.76 270.269H604.76V150.769C604.76 126.159 584.73 103.949 560.3 102.229C517.49 99.219 503.59 129.379 501.72 166.729C500.02 200.719 503.08 236.139 501.76 270.269H473.76V78.269H499.76L501.77 104.259L511.75 92.759C563.94 54.309 629.15 80.999 633.75 147.779V270.269H633.76Z" fill="white"/>
<path d="M957.76 24.2695V78.2695H1008.76V105.27H957.76V218.77C957.76 219.63 961.18 229.4 961.9 230.63C965.52 236.75 978.29 244.27 985.26 244.27H1008.76V267.77C1008.76 269.29 997.32 271.09 995.24 271.25C968.76 273.38 942.96 263.53 932.99 237.53C931.98 234.88 928.75 224.9 928.75 222.77V105.27H899.75V78.2695H928.75V24.2695H957.75H957.76Z" fill="white"/>
<path d="M1092.76 24.2695V78.2695H1143.76V105.27H1092.76V218.77C1092.76 219.63 1096.18 229.4 1096.9 230.63C1100.52 236.75 1113.29 244.27 1120.26 244.27H1143.76V267.77C1143.76 269.29 1132.32 271.09 1130.24 271.25C1103.76 273.38 1077.96 263.53 1067.99 237.53C1066.98 234.88 1063.75 224.9 1063.75 222.77V105.27H1034.75V78.2695H1063.75V24.2695H1092.75H1092.76Z" fill="white"/>
<path d="M232 0C231.04 19.84 231.21 39.61 231.04 59.54C231 63.75 229.71 67.52 230.02 72.49C231.02 88.75 242.83 103.3 259.51 104.99C279.24 106.99 300.76 104.42 320.46 103.96C328.96 103.76 337.51 104.19 346 104V138C320.84 137.85 295.64 138.23 270.46 137.95C249.51 137.72 235.46 136.4 218.99 121.51C184.68 90.51 201.18 46.02 197.96 5.45L199.01 0H232.01L232 0Z" fill="white"/>
</g></svg>