<svg width="551" height="91" viewBox="0 0 551 91" fill="none" xmlns="http://www.w3.org/2000/svg">
<path d="M45.5 88C68.9721 88 88 68.9721 88 45.5C88 22.0279 68.9721 3 45.5 3C22.0279 3 3 22.0279 3 45.5C3 68.9721 22.0279 88 45.5 88Z" stroke="#0A0A0A" stroke-width="6" stroke-linejoin="round"/>
<path d="M45.4992 3L82.2992 66.75H8.69922L45.4992 3Z" stroke="#0A0A0A" stroke-width="6" stroke-linejoin="round"/>
<path d="M130.442 70.5005V24H142.914V70.5005H130.442ZM136.675 17.9382C134.796 17.9382 133.187 17.3103 131.847 16.0545C130.506 14.7988 129.836 13.2918 129.836 11.5338C129.836 9.7398 130.506 8.22227 131.847 6.98116C133.187 5.74004 134.796 5.11948 136.675 5.11948C138.561 5.11948 140.176 5.73924 141.518 6.97875C142.861 8.21825 143.532 9.7362 143.532 11.5326C143.532 13.293 142.861 14.8008 141.518 16.0557C140.176 17.3107 138.561 17.9382 136.675 17.9382Z" fill="#0A0A0A"/>
<path d="M169.448 71.4092C165.705 71.4092 162.391 70.8736 159.505 69.8025C156.619 68.7313 154.263 67.1797 152.438 65.1474C150.613 63.1152 149.43 60.6634 148.891 57.7918L160.517 55.7946C161.123 57.9563 162.187 59.5772 163.709 60.6572C165.231 61.7372 167.266 62.2772 169.814 62.2772C172.19 62.2772 174.068 61.8236 175.449 60.9163C176.829 60.009 177.52 58.8607 177.52 57.4715C177.52 56.2526 177.029 55.2553 176.048 54.4797C175.068 53.7041 173.554 53.1053 171.507 52.6833L163.501 51.0329C159.017 50.1096 155.667 48.5487 153.45 46.3504C151.233 44.1521 150.125 41.3122 150.125 37.8306C150.125 34.8543 150.937 32.2909 152.562 30.1406C154.187 27.9902 156.46 26.3322 159.382 25.1665C162.304 24.0008 165.722 23.418 169.635 23.418C173.318 23.418 176.504 23.9262 179.193 24.9428C181.882 25.9593 184.053 27.3924 185.708 29.2422C187.363 31.0919 188.477 33.2843 189.051 35.8192L177.981 37.7682C177.493 36.1794 176.579 34.8815 175.237 33.8747C173.896 32.8679 172.095 32.3644 169.834 32.3644C167.78 32.3644 166.059 32.7963 164.672 33.6601C163.285 34.5238 162.591 35.6642 162.591 37.0811C162.591 38.2463 163.039 39.2327 163.935 40.0405C164.831 40.8482 166.375 41.4811 168.569 41.9392L176.923 43.6029C181.422 44.5113 184.77 46.001 186.966 48.072C189.163 50.1431 190.261 52.8404 190.261 56.1639C190.261 59.2107 189.372 61.877 187.593 64.1629C185.815 66.4489 183.363 68.228 180.237 69.5005C177.111 70.773 173.515 71.4092 169.448 71.4092Z" fill="#0A0A0A"/>
<path d="M216.938 71.4092C212.274 71.4092 208.239 70.4072 204.832 68.4033C201.425 66.3994 198.8 63.5988 196.958 60.0016C195.116 56.4044 194.195 52.2211 194.195 47.4518C194.195 42.6443 195.116 38.4387 196.958 34.8351C198.8 31.2316 201.425 28.4278 204.832 26.4239C208.239 24.4199 212.274 23.418 216.938 23.418C221.615 23.418 225.652 24.4199 229.051 26.4239C232.449 28.4278 235.069 31.2316 236.911 34.8351C238.753 38.4387 239.674 42.6443 239.674 47.4518C239.674 52.2211 238.753 56.4044 236.911 60.0016C235.069 63.5988 232.449 66.3994 229.051 68.4033C225.652 70.4072 221.615 71.4092 216.938 71.4092ZM216.938 61.591C219.158 61.591 221.014 60.974 222.507 59.7401C224 58.5061 225.119 56.8186 225.865 54.6774C226.611 52.5362 226.984 50.1127 226.984 47.4069C226.984 44.6735 226.611 42.241 225.865 40.1095C225.119 37.978 224 36.2995 222.507 35.0742C221.014 33.8489 219.158 33.2362 216.938 33.2362C214.716 33.2362 212.861 33.8489 211.374 35.0742C209.886 36.2995 208.77 37.9748 208.024 40.0999C207.278 42.225 206.905 44.6607 206.905 47.4069C206.905 50.1127 207.278 52.5362 208.024 54.6774C208.77 56.8186 209.886 58.5061 211.374 59.7401C212.861 60.974 214.716 61.591 216.938 61.591Z" fill="#0A0A0A"/>
<path d="M245.809 70.5005V24H257.897V32.0972H258.396C259.241 29.2312 260.668 27.0617 262.678 25.5888C264.687 24.1159 266.996 23.3794 269.604 23.3794C270.249 23.3794 270.941 23.4157 271.681 23.4884C272.421 23.561 273.073 23.6636 273.636 23.7961V34.9403C273.085 34.7501 272.28 34.5958 271.22 34.4774C270.161 34.359 269.169 34.2998 268.246 34.2998C266.342 34.2998 264.633 34.7119 263.12 35.5359C261.606 36.36 260.421 37.5008 259.565 38.9582C258.709 40.4156 258.281 42.1082 258.281 44.0358V70.5005H245.809Z" fill="#0A0A0A"/>
<path d="M293.96 71.0825C290.752 71.0825 287.943 70.3817 285.535 68.98C283.127 67.5784 281.261 65.5668 279.936 62.9454C278.612 60.3239 277.949 57.2006 277.949 53.5754V23.9997H290.422V51.4018C290.422 54.29 291.17 56.5553 292.666 58.1977C294.162 59.84 296.226 60.6612 298.856 60.6612C300.625 60.6612 302.184 60.277 303.533 59.5087C304.882 58.7403 305.942 57.6262 306.714 56.1663C307.485 54.7064 307.871 52.9587 307.871 50.9235V23.9997H320.363V70.5002H308.566L308.387 58.8917H309.115C307.883 62.7959 306.018 65.8038 303.519 67.9153C301.021 70.0268 297.835 71.0825 293.96 71.0825Z" fill="#0A0A0A"/>
<path d="M340.898 43.5767V70.5005H328.426V24H340.203L340.402 35.6085H339.654C340.873 31.7298 342.726 28.7283 345.212 26.6041C347.697 24.4798 350.903 23.4177 354.829 23.4177C358.052 23.4177 360.86 24.1185 363.255 25.5202C365.649 26.9218 367.509 28.9302 368.833 31.5453C370.158 34.1603 370.82 37.2869 370.82 40.9248V70.5005H358.347V43.0984C358.347 40.2102 357.603 37.9449 356.113 36.3025C354.623 34.6602 352.563 33.839 349.932 33.839C348.178 33.839 346.62 34.2231 345.257 34.9915C343.894 35.7599 342.827 36.8671 342.055 38.3131C341.284 39.7592 340.898 41.5137 340.898 43.5767Z" fill="#0A0A0A"/>
</svg>
