<svg width="548" height="80" viewBox="0 0 548 80" fill="none" xmlns="http://www.w3.org/2000/svg">
<path d="M316.703 42.7934V64.7912C316.703 64.9614 316.67 65.13 316.605 65.2873C316.541 65.4447 316.445 65.5876 316.325 65.7078C316.205 65.8281 316.062 65.9233 315.905 65.9879C315.747 66.0526 315.579 66.0854 315.409 66.0845H309.797C309.454 66.0834 309.126 65.9468 308.884 65.7046C308.642 65.4623 308.505 65.134 308.503 64.7912V43.609C308.503 37.9067 305.247 34.7934 300.001 34.7934C294.231 34.7934 290.368 38.3623 290.368 45.7356V64.8067C290.369 64.9771 290.336 65.146 290.271 65.3036C290.206 65.4612 290.111 65.6043 289.991 65.7248C289.871 65.8453 289.728 65.9407 289.57 66.0055C289.413 66.0703 289.244 66.1032 289.074 66.1023H283.468C283.125 66.1023 282.796 65.9658 282.554 65.7228C282.311 65.4799 282.175 65.1503 282.175 64.8067V14.2223C282.176 13.8791 282.312 13.5502 282.555 13.3075C282.797 13.0648 283.126 12.9279 283.468 12.9267H289.074C289.244 12.9262 289.413 12.9593 289.57 13.0242C289.727 13.0891 289.87 13.1845 289.99 13.3049C290.11 13.4253 290.206 13.5684 290.271 13.7258C290.335 13.8833 290.368 14.052 290.368 14.2223V32.9601C292.873 29.0823 296.746 27.1112 302.132 27.1112C310.862 27.1356 316.703 33.0667 316.703 42.7934ZM444.669 42.789V64.7867C444.67 64.9569 444.637 65.1256 444.572 65.2829C444.507 65.4402 444.412 65.5831 444.292 65.7034C444.171 65.8236 444.029 65.9188 443.871 65.9835C443.714 66.0481 443.546 66.081 443.376 66.0801H437.763C437.594 66.0807 437.425 66.0476 437.268 65.9829C437.111 65.9181 436.968 65.8229 436.848 65.7027C436.728 65.5825 436.632 65.4397 436.568 65.2825C436.503 65.1253 436.469 64.9569 436.47 64.7867V43.6045C436.47 37.9001 433.214 34.789 427.968 34.789C422.2 34.789 418.334 38.3579 418.334 45.7312V64.8023C418.335 64.9727 418.303 65.1415 418.238 65.2991C418.173 65.4567 418.078 65.5999 417.958 65.7204C417.837 65.8408 417.694 65.9362 417.537 66.001C417.379 66.0658 417.211 66.0987 417.041 66.0979H411.435C411.092 66.0979 410.763 65.9614 410.52 65.7184C410.278 65.4754 410.141 65.1459 410.141 64.8023V29.4112C410.14 29.2408 410.173 29.0719 410.238 28.9144C410.303 28.7568 410.398 28.6136 410.518 28.4931C410.639 28.3726 410.782 28.2772 410.939 28.2125C411.096 28.1477 411.265 28.1148 411.435 28.1156H417.041C417.211 28.1152 417.379 28.1485 417.536 28.2138C417.693 28.279 417.835 28.3748 417.955 28.4956C418.075 28.6158 418.171 28.7585 418.236 28.9156C418.301 29.0727 418.334 29.2411 418.334 29.4112V32.9801C420.84 29.1023 424.712 27.1312 430.098 27.1312C438.82 27.1312 444.669 33.0623 444.669 42.789ZM188.803 61.3334C185.424 58.0374 183.294 53.6679 182.778 48.9728C182.262 44.2776 183.392 39.5488 185.974 35.5959C188.556 31.6429 192.43 28.7115 196.932 27.3036C201.435 25.8957 206.286 26.0987 210.656 27.878C215.025 29.6572 218.642 32.9021 220.885 37.057C223.129 41.2119 223.861 46.0186 222.955 50.6543C222.05 55.2899 219.563 59.4663 215.921 62.4684C212.28 65.4705 207.709 67.1118 202.992 67.1112C200.358 67.1688 197.741 66.6859 195.3 65.6923C192.86 64.6986 190.649 63.2152 188.803 61.3334ZM202.992 59.1334C204.554 59.1692 206.107 58.8841 207.555 58.296C209.003 57.7078 210.316 56.8289 211.412 55.7134C213.605 53.3939 214.827 50.321 214.827 47.1267C214.827 43.9325 213.605 40.8596 211.412 38.5401C209.154 36.3473 206.133 35.121 202.988 35.121C199.843 35.121 196.821 36.3473 194.564 38.5401C192.372 40.8603 191.151 43.9329 191.151 47.1267C191.151 50.3206 192.372 53.3931 194.564 55.7134C195.66 56.8305 196.974 57.7105 198.424 58.2991C199.873 58.8877 201.428 59.1702 202.992 59.1334ZM236.837 34.509C238.787 30.0201 242.458 28.2934 247.722 28.1379C247.937 28.1384 248.144 28.2246 248.296 28.3775C248.449 28.5304 248.534 28.7375 248.534 28.9534V34.8112C248.538 35.1315 248.421 35.4414 248.207 35.6797C247.994 35.918 247.698 36.0672 247.38 36.0979C244.837 36.2373 242.39 37.1212 240.343 38.6401C237.991 40.309 236.852 43.1201 236.852 46.9979V64.8467C236.851 65.19 236.714 65.5188 236.472 65.7615C236.23 66.0043 235.901 66.1411 235.559 66.1423H229.953C229.783 66.1429 229.614 66.1098 229.457 66.0449C229.3 65.98 229.157 65.8846 229.037 65.7641C228.917 65.6437 228.821 65.5007 228.756 65.3432C228.692 65.1858 228.659 65.017 228.659 64.8467V29.4179C228.661 29.0746 228.797 28.7457 229.039 28.5023C229.158 28.3816 229.301 28.2858 229.458 28.2206C229.615 28.1554 229.783 28.122 229.953 28.1223H235.559C235.901 28.1241 236.229 28.2611 236.471 28.5037C236.714 28.7463 236.851 29.0748 236.852 29.4179L236.837 34.509ZM395.415 28.1245H400.996C401.338 28.1263 401.666 28.2634 401.908 28.5061C402.15 28.7487 402.286 29.0772 402.288 29.4201V64.8267C402.287 65.1697 402.151 65.4985 401.91 65.7423C401.667 65.9831 401.338 66.1187 400.996 66.1201H395.39C395.134 66.1217 394.883 66.0464 394.67 65.9038C394.457 65.7612 394.291 65.5579 394.194 65.3201C394.13 65.1635 394.097 64.996 394.097 64.8267V60.6556C390.988 64.9801 386.587 67.1156 380.819 67.1156C378.311 67.151 375.825 66.6544 373.522 65.6586C371.219 64.6628 369.153 63.1903 367.46 61.3379C363.898 57.4659 361.921 52.3943 361.921 47.1301C361.921 41.8659 363.898 36.7943 367.46 32.9223C369.153 31.07 371.22 29.5978 373.522 28.6023C375.825 27.6069 378.312 27.1108 380.819 27.1467C386.587 27.1467 390.988 29.2734 394.097 33.5245V29.4534C394.093 29.2786 394.124 29.1048 394.189 28.9423C394.254 28.7799 394.35 28.6323 394.473 28.5082C394.597 28.3841 394.743 28.2862 394.905 28.2203C395.067 28.1544 395.24 28.1218 395.415 28.1245ZM382.129 59.2801C383.715 59.3234 385.294 59.0422 386.768 58.4538C388.243 57.8654 389.582 56.9821 390.704 55.8579C391.828 54.7035 392.71 53.3351 393.297 51.8335C393.884 50.3319 394.164 48.7276 394.121 47.1156C394.17 45.5152 393.892 43.9216 393.305 42.4325C392.717 40.9434 391.832 39.5901 390.704 38.4556C388.411 36.2138 385.333 34.9589 382.129 34.9589C378.924 34.9589 375.847 36.2138 373.554 38.4556C372.424 39.5895 371.539 40.9426 370.951 42.4319C370.363 43.9212 370.086 45.5151 370.136 47.1156C370.091 48.7275 370.37 50.3321 370.957 51.8336C371.545 53.3352 372.428 54.703 373.554 55.8556C374.674 56.9825 376.013 57.8682 377.487 58.4582C378.962 59.0482 380.541 59.3302 382.129 59.2867V59.2779V59.2801ZM355.021 12.9267H349.416C349.073 12.9267 348.743 13.0632 348.501 13.3062C348.258 13.5492 348.122 13.8787 348.122 14.2223V64.8223C348.122 65.5379 348.701 66.1179 349.416 66.1179H355.021C355.736 66.1179 356.315 65.5401 356.315 64.8223V14.2223C356.315 13.8787 356.179 13.5492 355.936 13.3062C355.694 13.0632 355.364 12.9267 355.021 12.9267ZM168.615 14.2223V52.2601L146.416 13.8979C146.247 13.6029 146.003 13.3579 145.709 13.1874C145.415 13.0169 145.081 12.927 144.741 12.9267H136.743C136.4 12.9267 136.071 13.0632 135.828 13.3062C135.586 13.5492 135.449 13.8787 135.449 14.2223V64.8223C135.449 65.1659 135.586 65.4954 135.828 65.7384C136.071 65.9814 136.4 66.1179 136.743 66.1179H142.886C143.229 66.1179 143.558 65.9814 143.801 65.7384C144.043 65.4954 144.179 65.1659 144.179 64.8223V26.8334L166.267 65.1245C166.437 65.4189 166.681 65.6633 166.975 65.8334C167.269 66.0034 167.603 66.0931 167.942 66.0934H176.078C176.421 66.0934 176.75 65.9569 176.993 65.7139C177.235 65.471 177.372 65.1415 177.372 64.7979V14.2223C177.372 13.8791 177.236 13.5499 176.994 13.307C176.751 13.0641 176.423 12.9273 176.08 12.9267H169.937C169.766 12.9235 169.595 12.9546 169.435 13.0183C169.275 13.0819 169.13 13.1768 169.007 13.2975C168.884 13.4181 168.787 13.562 168.72 13.7208C168.653 13.8796 168.619 14.0501 168.619 14.2223H168.615ZM483.396 66.1179H476.717C476.373 66.1174 476.036 66.025 475.74 65.8504C475.444 65.6758 475.199 65.4252 475.032 65.1245L467.101 50.5667H459.427V64.8467C459.426 65.1898 459.29 65.5186 459.048 65.7614C458.806 66.0042 458.478 66.1411 458.135 66.1423H452.521C452.351 66.1429 452.182 66.1098 452.025 66.0449C451.868 65.98 451.725 65.8846 451.605 65.7641C451.485 65.6437 451.389 65.5007 451.324 65.3432C451.26 65.1858 451.227 65.017 451.227 64.8467V14.2245C451.226 14.054 451.259 13.8848 451.323 13.727C451.388 13.5692 451.483 13.4257 451.603 13.305C451.724 13.1843 451.867 13.0887 452.024 13.0238C452.182 12.9588 452.351 12.9259 452.521 12.9267H458.135C458.478 12.9285 458.806 13.0656 459.048 13.3083C459.289 13.5509 459.426 13.8794 459.427 14.2223V43.0001H466.369L474.324 29.1112C474.494 28.8137 474.739 28.5665 475.035 28.3947C475.331 28.223 475.667 28.1328 476.009 28.1334H482.817C482.949 28.143 483.076 28.1849 483.188 28.2554C483.3 28.3259 483.393 28.4229 483.458 28.5379C483.523 28.6528 483.559 28.7816 483.564 28.9135C483.569 29.0454 483.542 29.1764 483.485 29.2956L473.372 46.7467L484.08 64.9556C484.138 65.076 484.164 65.2089 484.158 65.3423C484.151 65.5437 484.069 65.7353 483.928 65.8792C483.787 66.0232 483.597 66.1069 483.396 66.1179ZM342.514 18.949V14.2223C342.513 13.8791 342.376 13.5502 342.134 13.3075C341.891 13.0648 341.563 12.9279 341.22 12.9267H332.719C332.002 12.9262 331.293 13.067 330.631 13.3412C329.97 13.6154 329.368 14.0175 328.862 14.5246C328.355 15.0318 327.954 15.6339 327.68 16.2966C327.406 16.9593 327.265 17.6696 327.266 18.3867V28.1201H322.792C322.622 28.1198 322.453 28.1532 322.296 28.2183C322.139 28.2835 321.996 28.3791 321.876 28.4997C321.756 28.6203 321.66 28.7635 321.596 28.921C321.531 29.0786 321.498 29.2475 321.498 29.4179V34.7356C321.499 35.0797 321.636 35.4094 321.878 35.6534C321.998 35.7737 322.14 35.8691 322.297 35.9339C322.454 35.9988 322.622 36.0318 322.792 36.0312H327.266V64.8312C327.267 65.1744 327.404 65.5033 327.646 65.746C327.889 65.9887 328.217 66.1256 328.56 66.1267H334.174C334.518 66.1267 334.847 65.9902 335.089 65.7473C335.332 65.5043 335.468 65.1748 335.468 64.8312V36.0223H341.227C341.397 36.0229 341.565 35.9898 341.723 35.9249C341.88 35.86 342.023 35.7646 342.143 35.6441C342.263 35.5237 342.359 35.3807 342.423 35.2232C342.488 35.0658 342.521 34.897 342.521 34.7267V29.4067C342.519 29.0635 342.383 28.7346 342.141 28.4912C342.022 28.3703 341.879 28.2744 341.722 28.2091C341.565 28.1439 341.397 28.1106 341.227 28.1112H335.468V20.2267H341.227C341.565 20.2239 341.89 20.0887 342.13 19.85C342.37 19.6113 342.508 19.288 342.514 18.949ZM267.153 43.0134V36.0245H275.289C275.632 36.0245 275.961 35.888 276.203 35.6451C276.446 35.4021 276.582 35.0726 276.582 34.729V29.4179C276.583 29.2475 276.55 29.0786 276.486 28.921C276.421 28.7634 276.326 28.6203 276.205 28.4998C276.085 28.3793 275.942 28.2839 275.785 28.2191C275.627 28.1543 275.459 28.1214 275.289 28.1223H267.153V14.2223C267.152 13.8791 267.015 13.5502 266.773 13.3075C266.53 13.0648 266.202 12.9279 265.859 12.9267H260.245C259.902 12.9267 259.572 13.0632 259.33 13.3062C259.087 13.5492 258.951 13.8787 258.951 14.2223V28.1223H253.257C253.087 28.122 252.918 28.1553 252.761 28.2203C252.604 28.2853 252.461 28.3807 252.341 28.5011C252.221 28.6215 252.126 28.7644 252.061 28.9217C251.996 29.079 251.962 29.2476 251.963 29.4179V34.729C251.962 34.8993 251.995 35.0682 252.059 35.2258C252.124 35.3834 252.219 35.5266 252.34 35.647C252.46 35.7675 252.603 35.8629 252.76 35.9277C252.918 35.9925 253.086 36.0254 253.257 36.0245H258.951V57.9067C258.95 58.9853 259.163 60.0534 259.575 61.0498C259.987 62.0462 260.592 62.9514 261.354 63.7134C262.116 64.4759 263.02 65.0808 264.015 65.4933C265.01 65.9059 266.076 66.1181 267.153 66.1179H275.289C275.632 66.1179 275.961 65.9814 276.203 65.7384C276.446 65.4954 276.582 65.1659 276.582 64.8223V60.0979C276.583 59.9275 276.55 59.7586 276.486 59.601C276.421 59.4434 276.326 59.3003 276.205 59.1798C276.085 59.0593 275.942 58.9639 275.785 58.8991C275.627 58.8343 275.459 58.8014 275.289 58.8023H270.171C269.371 58.8023 268.603 58.4839 268.037 57.9171C267.471 57.3503 267.153 56.5816 267.153 55.7801V43.0134Z" fill="black"/>
<path d="M78.1363 37.9978L69.952 40.0178L65.2806 31.8711L62.3935 26.8511L59.1402 21.2467L51.5728 8.12222H39.3362L8.73152 61.2156L14.8565 71.8067H19.53V79.9533H12.5174C11.807 79.9512 11.1094 79.7628 10.4942 79.4069C9.87907 79.0509 9.36774 78.5398 9.01114 77.9245L0.544976 63.26C0.187956 62.6408 0 61.9384 0 61.2233C0 60.5083 0.187956 59.8059 0.544976 59.1867L33.502 2.02889C33.8588 1.4132 34.3705 0.901895 34.986 0.545914C35.6016 0.189933 36.2996 0.00170941 37.0105 0L53.934 0C54.6444 0.00209725 55.342 0.190504 55.9572 0.546466C56.5723 0.902428 57.0837 1.41353 57.4403 2.02889L68.5228 21.2289L69.9609 23.7489L73.2164 29.3444L74.6655 31.8556L78.1363 37.9978Z" fill="url(#paint0_linear_93_42)"/>
<path d="M44.026 58.7466L32.9523 77.9488C32.5966 78.5657 32.0857 79.0784 31.4705 79.436C30.8553 79.7935 30.1573 79.9834 29.446 79.9866H19.5285L8.73438 61.2488L14.8593 71.8399H27.0648L39.3147 50.5933L44.026 58.7466Z" fill="url(#paint1_linear_93_42)"/>
<path d="M78.1339 42.0533L69.6721 56.7199C69.3164 57.3365 68.8054 57.849 68.1902 58.2061C67.575 58.5633 66.877 58.7527 66.1658 58.7555H56.2727L53.0194 53.1488L51.5703 50.6399H63.7758L69.8918 40.051L68.729 38.0288H78.0762C78.4332 38.6371 78.6263 39.3279 78.6364 40.0334C78.6465 40.7389 78.4734 41.4349 78.1339 42.0533Z" fill="url(#paint2_linear_93_42)"/>
<path d="M100.572 8.16439H88.3199L76.1145 29.4044L71.4453 21.2555L82.5257 2.0555C82.8823 1.44014 83.3936 0.929039 84.0088 0.573077C84.6239 0.217116 85.3215 0.0287086 86.032 0.0266113H95.9007L100.572 8.16439Z" fill="url(#paint3_linear_93_42)"/>
<path d="M114.88 20.8134L81.9299 77.9645C81.5741 78.5811 81.0631 79.0935 80.4479 79.4507C79.8327 79.8079 79.1347 79.9973 78.4236 80H61.5023C60.7912 79.9973 60.0932 79.8079 59.478 79.4507C58.8628 79.0935 58.3518 78.5811 57.996 77.9645L48.3648 61.2623L45.4666 56.2512L42.2132 50.6467L40.7641 48.1378L37.2578 42.0534L45.4421 40.0156L50.1202 48.1623L51.5693 50.6734L53.0162 53.18L56.2717 58.7867L57.712 61.2867L62.3878 69.4334L63.8369 71.9445H76.0424L106.654 18.84L100.535 8.24894H96.0039L95.8596 0.104492H102.872C103.583 0.106589 104.28 0.294997 104.895 0.650958C105.511 1.00692 106.022 1.51802 106.379 2.13338L114.84 16.7978C115.193 17.4067 115.381 18.0966 115.388 18.8003C115.395 19.504 115.22 20.1976 114.88 20.8134Z" fill="url(#paint4_linear_93_42)"/>
<path d="M51.5859 29.3954L45.4676 39.9866L46.6393 42.0221H37.2833C36.9262 41.4029 36.7383 40.7005 36.7383 39.9854C36.7383 39.2704 36.9262 38.568 37.2833 37.9488L45.745 23.2843C46.1015 22.6664 46.6139 22.1532 47.2308 21.7959C47.8477 21.4387 48.5475 21.25 49.2602 21.2488H59.1599L62.4155 26.8532L63.8624 29.3621L51.5859 29.3954Z" fill="url(#paint5_linear_93_42)"/>
<defs>
<linearGradient id="paint0_linear_93_42" x1="-2.72387" y1="57.6222" x2="66.4686" y2="17.7288" gradientUnits="userSpaceOnUse">
<stop offset="0.2" stop-color="#668CFF"/>
<stop offset="0.49" stop-color="#00AAFF"/>
<stop offset="0.8" stop-color="#00BFB5"/>
</linearGradient>
<linearGradient id="paint1_linear_93_42" x1="15.5029" y1="73.0044" x2="43.0773" y2="57.1016" gradientUnits="userSpaceOnUse">
<stop offset="0.5" stop-color="#668CFF"/>
<stop offset="1" stop-color="#00AAFF" stop-opacity="0"/>
</linearGradient>
<linearGradient id="paint2_linear_93_42" x1="54.7193" y1="56.0755" x2="80.113" y2="41.4323" gradientUnits="userSpaceOnUse">
<stop stop-color="#00AAFF" stop-opacity="0"/>
<stop offset="0.4" stop-color="#00BFB5"/>
</linearGradient>
<linearGradient id="paint3_linear_93_42" x1="70.835" y1="20.3111" x2="98.4094" y2="4.41712" gradientUnits="userSpaceOnUse">
<stop stop-color="#00BFB5" stop-opacity="0"/>
<stop offset="0.5" stop-color="#00CC7C"/>
</linearGradient>
<linearGradient id="paint4_linear_93_42" x1="49.015" y1="62.3956" x2="118.199" y2="22.5088" gradientUnits="userSpaceOnUse">
<stop offset="0.2" stop-color="#00AAFF"/>
<stop offset="0.51" stop-color="#00BFB5"/>
<stop offset="0.8" stop-color="#00CC7C"/>
</linearGradient>
<linearGradient id="paint5_linear_93_42" x1="35.3237" y1="38.6488" x2="60.7241" y2="23.9989" gradientUnits="userSpaceOnUse">
<stop offset="0.6" stop-color="#00AAFF"/>
<stop offset="1" stop-color="#00BFB5" stop-opacity="0"/>
</linearGradient>
</defs>
</svg>
