<svg viewBox="0 0 548 85" width="548" height="85" fill="none" xmlns="http://www.w3.org/2000/svg"><g transform="translate(0.0000, 0.0000) scale(2.656250)">
<path d="M23.0043 10.0843L14.7243 4.65427C13.9011 4.11434 13.9525 2.88787 14.8181 2.41924L18.942 0.186502C19.3611 -0.0403415 19.8703 -0.018854 20.2687 0.242488L29.7265 6.44486C30.0938 6.68577 30.3148 7.09655 30.314 7.53674L30.2937 18.8707C30.2929 19.3483 30.0313 19.787 29.6123 20.0139L25.4884 22.2466C24.6227 22.7151 23.5724 22.0853 23.5741 21.0988L23.592 11.1761C23.5927 10.736 23.3718 10.3252 23.0043 10.0843Z" fill="#047BFF"/>
<path d="M12.1624 17.4774L12.1387 30.6442C12.137 31.6307 13.1874 32.2607 14.053 31.792L19.8787 28.638C20.2977 28.4111 20.5591 27.9722 20.5601 27.4947L20.5863 12.9166C20.5871 12.4764 20.3661 12.0656 19.9986 11.8247L7.83378 3.84697C7.43527 3.58564 6.92609 3.56415 6.5071 3.79099L0.681378 6.94509C-0.184216 7.41374 -0.235665 8.64021 0.587623 9.18011L11.5748 16.3855C11.9421 16.6264 12.1632 17.0372 12.1624 17.4774Z" fill="#047BFF"/>
<path d="M4.64596 20.6339C4.64526 21.019 4.8406 21.3785 5.16506 21.5894L9.20832 24.2156C9.38093 24.3277 9.48481 24.5188 9.48445 24.7237L9.47694 28.8111C9.47607 29.2922 8.93858 29.5804 8.53338 29.3171L0.532786 24.1202C0.208291 23.9095 0.0129747 23.55 0.0136737 23.1649L0.0308913 13.1351C0.0317674 12.6541 0.569263 12.3659 0.974451 12.6291L4.37841 14.8401C4.55102 14.9522 4.65489 15.1434 4.65453 15.3483L4.64596 20.6339Z" fill="#047BFF"/>
<path d="M67.6837 30.5178C66.2273 30.5178 65.3887 29.5324 65.3887 28.01C65.3887 26.4962 66.2273 25.502 67.6837 25.502C69.1398 25.502 69.9787 26.4962 69.9787 28.01C69.9787 29.5324 69.1398 30.5178 67.6837 30.5178ZM67.6837 29.4878C68.3496 29.4878 68.7226 28.9413 68.7226 28.01C68.7226 27.0784 68.3496 26.5319 67.6837 26.5319C67.0177 26.5319 66.6358 27.0784 66.6358 28.01C66.6358 28.9413 67.0177 29.4878 67.6837 29.4878Z" fill="black"/>
<path d="M53.5771 30.4197C52.8046 30.4197 52.334 30.0524 52.334 29.1658V24.0605H52.7637C53.262 24.0605 53.6659 24.4679 53.6659 24.9706V28.7737C53.6659 29.0602 53.7991 29.1677 54.0477 29.1677H54.6984C55.1967 29.1677 55.6006 29.5753 55.6006 30.0778V30.4197H53.5771Z" fill="black"/>
<path d="M57.3892 30.4189C56.4036 30.4189 55.8477 29.8635 55.8477 28.7081V25.6182H56.2773C56.7756 25.6182 57.1796 26.0255 57.1796 26.5283V28.3946C57.1796 29.1381 57.4016 29.4605 57.881 29.4605C58.4227 29.4605 58.7423 29.0933 58.7423 28.3319V25.6182H59.1721C59.6702 25.6182 60.0742 26.0255 60.0742 26.5283V30.4189H59.2277C59.0235 30.4189 58.8578 30.2519 58.8578 30.0457C58.6534 30.3568 58.0818 30.4189 57.3892 30.4189Z" fill="black"/>
<path d="M60.4121 30.4189L62.017 28.1132C62.0716 28.035 62.0718 27.9305 62.0172 27.852L60.4653 25.6182H61.538C61.7497 25.6182 61.9475 25.7251 62.0645 25.9034L62.6997 26.8701C62.7894 27.0065 62.9881 27.0055 63.0767 26.8686L63.697 25.9075C63.8135 25.727 64.0126 25.6182 64.2264 25.6182H65.3223L63.7702 27.8607C63.7158 27.9394 63.716 28.0439 63.7707 28.1222L65.3757 30.4189H64.2997C64.0848 30.4189 63.8847 30.3087 63.7685 30.1263L63.1042 29.084C63.0157 28.9453 62.815 28.9445 62.7255 29.0824L62.0463 30.1305C61.9296 30.3104 61.7309 30.4189 61.5177 30.4189H60.4121Z" fill="black"/>
<path d="M70.4258 30.4189V25.6182H71.6868L71.7134 26.5855C71.9087 25.9047 72.2638 25.6182 72.85 25.6182H73.2851V26.2898C73.2851 26.5323 73.0902 26.7287 72.85 26.7287C72.1041 26.7287 71.7577 27.0065 71.7577 27.723V29.5088C71.7577 30.0113 71.3537 30.4189 70.8556 30.4189H70.4258Z" fill="black"/>
<path d="M44.7438 28.2556C44.7438 27.4644 44.4551 27.0688 43.8777 27.0688C43.7524 27.0688 43.6271 27.0852 43.5018 27.1182C43.382 27.1511 43.2839 27.1923 43.2077 27.2419V29.4754C43.2676 29.4864 43.3439 29.4974 43.4365 29.5082C43.5291 29.5137 43.6298 29.5166 43.7388 29.5166C44.0711 29.5166 44.3216 29.4013 44.4905 29.1704C44.6594 28.9396 44.7438 28.6346 44.7438 28.2556ZM45.9857 28.2886C45.9857 28.6346 45.934 28.9479 45.8305 29.2282C45.7325 29.5082 45.5881 29.7472 45.3974 29.945C45.2068 30.143 45.0216 30.3307 44.7438 30.4406C44.466 30.5451 44.101 30.5319 43.747 30.5319C43.5999 30.5319 43.4391 30.5319 43.2459 30.5319C43.0527 30.5319 42.9561 30.5319 42.8073 30.5319C42.6663 30.5319 42.4732 30.5319 42.3661 30.5319C42.1834 30.5319 42.0868 30.5319 41.9902 30.5319V24.0605H42.2418C42.7752 24.0605 43.2077 24.493 43.2077 25.0263V26.2199C43.3439 26.1595 43.4855 26.1127 43.6326 26.0797C43.7796 26.0468 43.9376 26.0303 44.1065 26.0303C44.4115 26.0303 44.6811 26.0852 44.9154 26.1952C45.1496 26.2995 45.3457 26.4506 45.5037 26.6483C45.6616 26.8461 45.7815 27.0852 45.8632 27.3654C45.9449 27.6401 45.9857 27.9479 45.9857 28.2886Z" fill="black"/>
<path d="M50.4308 26.1201C50.1857 26.9554 49.9297 27.7383 49.6628 28.4691C49.3959 29.1998 49.1045 29.9087 48.7885 30.5954C48.6741 30.8428 48.5597 31.0516 48.4453 31.2218C48.3309 31.3976 48.2057 31.5404 48.0695 31.6504C47.9333 31.7658 47.7781 31.8482 47.6038 31.8976C47.4349 31.9525 47.2361 31.9801 47.0073 31.9801C46.8166 31.9801 46.6396 31.9609 46.4762 31.9223C46.3182 31.8895 46.1875 31.8509 46.084 31.807L46.2229 31.1658C46.2619 30.9854 46.4495 30.8863 46.6314 30.9169C46.7295 30.9334 46.833 30.9416 46.9419 30.9416C47.1598 30.9416 47.3259 30.8811 47.4403 30.7603C47.5602 30.645 47.6609 30.4829 47.7426 30.2741C47.4648 29.7246 47.187 29.1092 46.9092 28.4279C46.6314 27.741 46.37 26.9719 46.1248 26.1201H46.6905C47.1171 26.1201 47.4886 26.4099 47.6038 26.8206C47.68 27.068 47.759 27.3207 47.8407 27.5789C47.9224 27.8316 48.0041 28.079 48.0858 28.3207C48.173 28.5626 48.2547 28.7822 48.3309 28.98C48.4018 28.7822 48.4753 28.5626 48.5516 28.3207C48.6278 28.079 48.7013 27.8316 48.7722 27.5789C48.8484 27.3207 48.9192 27.068 48.9846 26.8206C49.0997 26.4099 49.4712 26.1201 49.8979 26.1201H50.4308Z" fill="black"/>
<path d="M46.4307 15.7145C46.4307 17.2558 47.0827 17.7004 48.3869 17.7004H50.6097V21.0201H46.7567C43.4666 21.0201 42.0005 19.5647 42.0005 16.245V13.11C42.0005 10.5691 44.1097 8.47617 46.4307 8.45538V15.7145ZM59.7559 5.13296C64.4686 5.13296 67.5215 8.03774 67.5215 13.3729V14.2623H56.3771C56.466 16.7816 57.7997 17.9967 59.8744 17.9967C61.3564 17.9967 62.394 17.3744 62.8386 16.0702H67.5215C66.8905 19.38 63.6091 21.0201 59.7855 21.0201C54.9247 21.0201 51.7828 18.0857 51.7828 13.0766C51.7828 8.06748 54.9246 5.133 59.7559 5.13296ZM72.8755 7.79C73.7647 5.65592 75.6011 5.13296 77.7055 5.13296C81.1141 5.13296 83.1 7.11888 83.1 10.7942V21.0201H78.654V12.2763C78.654 9.7273 78.0909 8.30452 76.2235 8.30452C74.3859 8.30452 73.3485 9.7273 73.3485 12.2763V21.0201H68.9025V8.76468C69.0906 6.75091 70.856 5.20476 72.7389 5.13296H72.9039L72.8755 7.79ZM88.9532 11.6538L94.8515 5.13296H100.187L94.0216 11.6835L100.365 21.0201H95.5036L91.1465 14.2029L88.9532 16.5445V21.0201H84.5072V3.95975C84.818 1.72431 86.8312 0.0385286 88.9532 0.000927734V11.6538ZM106.316 21.017L101.756 21.0201V9.62358C101.794 7.15527 104.021 5.21136 106.281 5.13H106.316V21.017ZM59.7559 8.0674C57.8886 8.06744 56.6142 9.34196 56.3771 11.5353H62.9868C62.8682 9.22336 61.5935 8.0674 59.7559 8.0674ZM46.4307 3.99296H50.6097V8.45278H46.4307V8.455H42.0005V8.45278H39.4355V3.99296H41.9846V0.0684669H46.4307V3.99296ZM106.316 3.8C104.48 3.8 101.794 1.93644 101.756 0.0406347V0H106.316V3.8Z" fill="black"/>
</g></svg>