<svg xmlns="http://www.w3.org/2000/svg" width="548" height="85" viewBox="0 0 548 85" fill="none"><g transform="translate(-3.28,-24.78) scale(1.6)"><g stroke="#0a0a0a"><g transform="translate(3.00,15.50) scale(1.3500)" fill="none" stroke-width="2.20" stroke-linejoin="round"><circle cx="20" cy="20" r="17"/><polygon points="20,3 34.72,28.5 5.28,28.5"/></g></g><g transform="translate(73.00,0)" fill="#0a0a0a"><g transform="translate(0.000,56.000) scale(0.02246,-0.02246)"><path d="M127.76123046875 0V1118H427.6363525390625V0ZM277.61883544921875 1263.7415161132812Q209.8795166015625 1263.7415161132812 161.53997802734375 1309.0298548591209Q113.200439453125 1354.3181936049602 113.200439453125 1417.7218678491356Q113.200439453125 1482.4194946289062 161.53997802734375 1527.1790771484375Q209.8795166015625 1571.9386596679688 277.61883544921875 1571.9386596679688Q345.6638968331473 1571.9386596679688 394.080575125558 1527.2369319370814Q442.49725341796875 1482.5352042061943 442.49725341796875 1417.7500915527344Q442.49725341796875 1354.2606811523438 394.080575125558 1309.0010986328125Q345.6638968331473 1263.7415161132812 277.61883544921875 1263.7415161132812Z"/></g><g transform="translate(11.086,56.000) scale(0.02246,-0.02246)"><path d="M572.0186157226562 -21.840087890625Q437.0394287109375 -21.840087890625 332.96002197265625 16.789703369140625Q228.880615234375 55.41949462890625 163.05093383789062 128.70919799804688Q97.22125244140625 201.9989013671875 77.76123046875 305.55859375L357.29681396484375 353.57830810546875Q379.13690185546875 275.61773681640625 434.0273742675781 236.66757202148438Q488.9178466796875 197.7174072265625 580.8181762695312 197.7174072265625Q666.4994506835938 197.7174072265625 716.2902526855469 230.4381103515625Q766.0810546875 263.1588134765625 766.0810546875 313.25958251953125Q766.0810546875 357.22015380859375 730.7108459472656 385.1905822753906Q695.3406372070312 413.1610107421875 621.520263671875 428.38116455078125L429.04052734375 468.06134033203125Q267.3209228515625 501.3614501953125 187.38116455078125 580.6412963867188Q107.44140625 659.921142578125 107.44140625 785.4808349609375Q107.44140625 892.8203735351562 166.03121948242188 970.3702087402344Q224.62103271484375 1047.9200439453125 330.00054931640625 1089.9600219726562Q435.38006591796875 1132 576.5191650390625 1132Q709.3384399414062 1132 806.3077697753906 1095.340087890625Q903.277099609375 1058.68017578125 962.9567260742188 991.9704284667969Q1022.6363525390625 925.2606811523438 1043.3165283203125 833.8411865234375L777.1807250976562 786.9813842773438Q759.5805053710938 844.281494140625 711.2102966308594 880.5920104980469Q662.840087890625 916.9025268554688 581.2990112304688 916.9025268554688Q507.21795654296875 916.9025268554688 457.1872863769531 885.7519226074219Q407.1566162109375 854.601318359375 407.1566162109375 803.5005493164062Q407.1566162109375 761.479736328125 439.4671325683594 732.3493957519531Q471.77764892578125 703.2190551757812 550.87841796875 686.6987915039062L751.7371215820312 646.6987915039062Q913.9967041015625 613.9386596679688 993.2064514160156 539.2486267089844Q1072.4161987304688 464.55859375 1072.4161987304688 344.69879150390625Q1072.4161987304688 234.81927490234375 1008.2765502929688 152.3795166015625Q944.1369018554688 69.93975830078125 831.4074401855469 24.049835205078125Q718.677978515625 -21.840087890625 572.0186157226562 -21.840087890625Z"/></g><g transform="translate(35.469,56.000) scale(0.02246,-0.02246)"><path d="M628.119384765625 -21.840087890625Q459.9200439453125 -21.840087890625 337.0503845214844 50.429901123046875Q214.18072509765625 122.69989013671875 147.75082397460938 252.42990112304688Q81.3209228515625 382.159912109375 81.3209228515625 554.159912109375Q81.3209228515625 727.5399780273438 147.75082397460938 857.5Q214.18072509765625 987.4600219726562 337.0503845214844 1059.7300109863281Q459.9200439453125 1132 628.119384765625 1132Q796.7787475585938 1132 919.3384399414062 1059.7300109863281Q1041.8981323242188 987.4600219726562 1108.3280334472656 857.5Q1174.7579345703125 727.5399780273438 1174.7579345703125 554.159912109375Q1174.7579345703125 382.159912109375 1108.3280334472656 252.42990112304688Q1041.8981323242188 122.69989013671875 919.3384399414062 50.429901123046875Q796.7787475585938 -21.840087890625 628.119384765625 -21.840087890625ZM628.119384765625 214.21685791015625Q708.1807250976562 214.21685791015625 762.0115051269531 258.7174072265625Q815.84228515625 303.21795654296875 842.7426147460938 380.43865966796875Q869.6429443359375 457.65936279296875 869.6429443359375 555.2398681640625Q869.6429443359375 653.8203735351562 842.7426147460938 730.6911315917969Q815.84228515625 807.5618896484375 762.0115051269531 851.7524719238281Q708.1807250976562 895.9430541992188 628.119384765625 895.9430541992188Q547.9780883789062 895.9430541992188 494.33734130859375 851.7524719238281Q440.69659423828125 807.5618896484375 413.7962646484375 730.921142578125Q386.89593505859375 654.2803955078125 386.89593505859375 555.2398681640625Q386.89593505859375 457.65936279296875 413.7962646484375 380.43865966796875Q440.69659423828125 303.21795654296875 494.33734130859375 258.7174072265625Q547.9780883789062 214.21685791015625 628.119384765625 214.21685791015625Z"/></g><g transform="translate(62.299,56.000) scale(0.02246,-0.02246)"><path d="M127.76123046875 0V1118H418.396484375V923.3209228515625H430.396484375Q460.85650634765625 1026.68017578125 533.3367919921875 1079.8001098632812Q605.8170776367188 1132.9200439453125 699.8773193359375 1132.9200439453125Q723.1171875 1132.9200439453125 749.8072204589844 1130.3001098632812Q776.4972534179688 1127.68017578125 796.8170776367188 1122.9003295898438V854.9638671875Q776.9375610351562 861.8236694335938 738.7278137207031 866.0936584472656Q700.51806640625 870.3636474609375 667.2179565429688 870.3636474609375Q598.5574951171875 870.3636474609375 543.9671325683594 840.6434936523438Q489.37677001953125 810.92333984375 458.5065612792969 758.3630981445312Q427.6363525390625 705.8028564453125 427.6363525390625 636.2825927734375V0Z"/></g><g transform="translate(79.652,56.000) scale(0.02246,-0.02246)"><path d="M512.7009887695312 -14Q397.0010986328125 -14 310.1511535644531 36.549835205078125Q223.30120849609375 87.09967041015625 175.53121948242188 181.6396484375Q127.76123046875 276.17962646484375 127.76123046875 406.9200439453125V1118H427.6363525390625V459.17852783203125Q427.6363525390625 355.01751708984375 481.596923828125 295.7869567871094Q535.5574951171875 236.556396484375 630.4183959960938 236.556396484375Q694.2190551757812 236.556396484375 742.8696594238281 264.2666931152344Q791.520263671875 291.97698974609375 819.3406372070312 344.6275939941406Q847.1610107421875 397.2781982421875 847.1610107421875 470.6790771484375V1118H1147.4961547851562V0H863.880615234375L859.560791015625 279.09967041015625H877.0810546875Q832.6407470703125 138.29901123046875 742.54052734375 62.149505615234375Q652.4403076171875 -14 512.7009887695312 -14Z"/></g><g transform="translate(106.910,56.000) scale(0.02246,-0.02246)"><path d="M427.6363525390625 647.3209228515625V0H127.76123046875V1118H410.916748046875L415.69659423828125 838.9003295898438H397.71630859375Q441.69659423828125 978.7809448242188 531.3367919921875 1055.3904724121094Q620.9769897460938 1132 762.556396484375 1132Q878.7962646484375 1132 965.1462097167969 1081.4501647949219Q1051.4961547851562 1030.9003295898438 1099.2661437988281 936.5903625488281Q1147.0361328125 842.2803955078125 1147.0361328125 711.0799560546875V0H847.1610107421875V658.8214721679688Q847.1610107421875 762.9824829101562 793.4304504394531 822.2130432128906Q739.6998901367188 881.443603515625 644.8389892578125 881.443603515625Q581.5783081054688 881.443603515625 532.4277038574219 853.7333068847656Q483.277099609375 826.0230102539062 455.45672607421875 773.8724060058594Q427.6363525390625 721.7218017578125 427.6363525390625 647.3209228515625Z"/></g></g></g></svg>
