<svg width="548" height="87" viewBox="0 0 548 87" fill="none" xmlns="http://www.w3.org/2000/svg">
<path d="M22.0312 0H30.2593V1.19H22.0312V0Z" fill="black"/>
<path d="M124.031 0H132.259V1.19H124.031V0Z" fill="black"/>
<path d="M158.031 0H166.259V1.19H158.031V0Z" fill="black"/>
<path d="M294.031 0H302.259V1.19H294.031V0Z" fill="black"/>
<path d="M19.9234 4.48802C18.8694 5.30402 18.0647 6.24469 17.5094 7.31002C16.9541 8.37535 16.6764 9.53702 16.6764 10.795C16.6764 11.4297 16.7387 12.0303 16.8634 12.597C16.9994 13.1637 17.1977 13.7077 17.4584 14.229C17.7304 14.7503 18.0704 15.2547 18.4784 15.742C18.8977 16.2293 19.3907 16.7167 19.9574 17.204L19.1924 18.224C17.8891 17.2607 16.9144 16.1443 16.2684 14.875C15.6337 13.5943 15.3164 12.2457 15.3164 10.829C15.3164 9.42369 15.6394 8.08069 16.2854 6.80002C16.9314 5.51935 17.9004 4.40869 19.1924 3.46802L19.9404 4.48802H19.9234Z" fill="black"/>
<path d="M22.0312 17H30.2593V18.19H22.0312V17Z" fill="black"/>
<path d="M32.3504 17.204C33.4044 16.388 34.2091 15.4473 34.7644 14.382C35.3311 13.3167 35.6144 12.155 35.6144 10.897C35.6144 10.2623 35.5464 9.66169 35.4104 9.09502C35.2857 8.52835 35.0874 7.98435 34.8154 7.46302C34.5434 6.94169 34.1977 6.43735 33.7784 5.95002C33.3704 5.46269 32.8831 4.97535 32.3164 4.48802L33.0814 3.46802C34.3847 4.43135 35.3537 5.55335 35.9884 6.83402C36.6344 8.10335 36.9574 9.44635 36.9574 10.863C36.9574 11.5657 36.8724 12.257 36.7024 12.937C36.5437 13.617 36.3001 14.2743 35.9714 14.909C35.6541 15.5323 35.2517 16.1217 34.7644 16.677C34.2884 17.2437 33.7274 17.7593 33.0814 18.224L32.3334 17.204H32.3504Z" fill="black"/>
<path d="M39.0312 17H47.2593V18.19H39.0312V17Z" fill="black"/>
<path d="M73.0312 17H81.2592V18.19H73.0312V17Z" fill="black"/>
<path d="M90.0312 17H98.2592V18.19H90.0312V17Z" fill="black"/>
<path d="M98.5312 17H106.759V18.19H98.5312V17Z" fill="black"/>
<path d="M107.031 17H115.259V18.19H107.031V17Z" fill="black"/>
<path d="M119 3.50195H120.309V18.19H119V3.50195Z" fill="black"/>
<path d="M136 3.50195H137.309V18.19H136V3.50195Z" fill="black"/>
<path d="M141.031 17H149.259V18.19H141.031V17Z" fill="black"/>
<path d="M153 3.50195H154.309V18.19H153V3.50195Z" fill="black"/>
<path d="M170 3.50195H171.309V18.19H170V3.50195Z" fill="black"/>
<path d="M175.031 17H183.259V18.19H175.031V17Z" fill="black"/>
<path d="M183.531 17H191.759V18.19H183.531V17Z" fill="black"/>
<path d="M217.531 17H225.759V18.19H217.531V17Z" fill="black"/>
<path d="M226.031 17H234.259V18.19H226.031V17Z" fill="black"/>
<path d="M243.031 17H251.259V18.19H243.031V17Z" fill="black"/>
<path d="M260.031 17H268.259V18.19H260.031V17Z" fill="black"/>
<path d="M268.531 17H276.759V18.19H268.531V17Z" fill="black"/>
<path d="M277.031 17H285.259V18.19H277.031V17Z" fill="black"/>
<path d="M289 3.50195H290.309V18.19H289V3.50195Z" fill="black"/>
<path d="M306 3.50195H307.309V18.19H306V3.50195Z" fill="black"/>
<path d="M311.031 17H319.259V18.19H311.031V17Z" fill="black"/>
<path d="M319.531 17H327.759V18.19H319.531V17Z" fill="black"/>
<path d="M17 20.502H18.309V35.19H17V20.502Z" fill="black"/>
<path d="M34 20.502H35.309V35.19H34V20.502Z" fill="black"/>
<path d="M51 20.502H52.309V35.19H51V20.502Z" fill="black"/>
<path d="M68 20.502H69.309V35.19H68V20.502Z" fill="black"/>
<path d="M84.0153 35.19H82.5703L87.3133 20.502H88.7243L84.0153 35.19Z" fill="black"/>
<path d="M98.5312 34H106.759V35.19H98.5312V34Z" fill="black"/>
<path d="M107.031 34H115.259V35.19H107.031V34Z" fill="black"/>
<path d="M119 20.502H120.309V35.19H119V20.502Z" fill="black"/>
<path d="M132.531 34H140.759V35.19H132.531V34Z" fill="black"/>
<path d="M141.031 34H149.259V35.19H141.031V34Z" fill="black"/>
<path d="M153 20.502H154.309V35.19H153V20.502Z" fill="black"/>
<path d="M171.377 20.842V21.607C171.377 21.8563 171.366 22.1453 171.343 22.474C171.332 22.7913 171.309 23.1257 171.275 23.477C171.252 23.817 171.224 24.157 171.19 24.497C171.156 24.8257 171.116 25.1203 171.071 25.381H170.204C170.159 25.1203 170.119 24.8257 170.085 24.497C170.051 24.157 170.017 23.817 169.983 23.477C169.96 23.1257 169.938 22.7857 169.915 22.457C169.904 22.1283 169.898 21.8393 169.898 21.59V20.842H171.377Z" fill="black"/>
<path d="M175.031 34H183.259V35.19H175.031V34Z" fill="black"/>
<path d="M193.086 20.502H194.497L199.206 35.19H197.778L193.086 20.502Z" fill="black"/>
<path d="M211.515 35.19H210.07L214.813 20.502H216.224L211.515 35.19Z" fill="black"/>
<path d="M226.031 34H234.259V35.19H226.031V34Z" fill="black"/>
<path d="M238.069 20.604L240.007 22.95L239.293 23.579L237.168 21.505L238.069 20.604Z" fill="black"/>
<path d="M254.015 35.19H252.57L257.313 20.502H258.724L254.015 35.19Z" fill="black"/>
<path d="M268.531 34H276.759V35.19H268.531V34Z" fill="black"/>
<path d="M277.031 34H285.259V35.19H277.031V34Z" fill="black"/>
<path d="M289 20.502H290.309V35.19H289V20.502Z" fill="black"/>
<path d="M307.377 20.842V21.607C307.377 21.8563 307.366 22.1453 307.343 22.474C307.332 22.7913 307.309 23.1257 307.275 23.477C307.252 23.817 307.224 24.157 307.19 24.497C307.156 24.8257 307.116 25.1203 307.071 25.381H306.204C306.159 25.1203 306.119 24.8257 306.085 24.497C306.051 24.157 306.017 23.817 305.983 23.477C305.96 23.1257 305.938 22.7857 305.915 22.457C305.904 22.1283 305.898 21.8393 305.898 21.59V20.842H307.377Z" fill="black"/>
<path d="M311.031 34H319.259V35.19H311.031V34Z" fill="black"/>
<path d="M329.086 20.502H330.497L335.206 35.19H333.778L329.086 20.502Z" fill="black"/>
<path d="M17 37.502H18.309V52.19H17V37.502Z" fill="black"/>
<path d="M34 37.502H35.309V52.19H34V37.502Z" fill="black"/>
<path d="M51 37.502H52.309V52.19H51V37.502Z" fill="black"/>
<path d="M56.0312 51H64.2593V52.19H56.0312V51Z" fill="black"/>
<path d="M68 37.502H69.309V52.19H68V37.502Z" fill="black"/>
<path d="M82.5859 37.502H83.9969L88.7059 52.19H87.2779L82.5859 37.502Z" fill="black"/>
<path d="M90.0312 51H98.2592V52.19H90.0312V51Z" fill="black"/>
<path d="M98.5312 51H106.759V52.19H98.5312V51Z" fill="black"/>
<path d="M116.586 37.502H117.997L122.706 52.19H121.278L116.586 37.502Z" fill="black"/>
<path d="M136 37.502H137.309V52.19H136V37.502Z" fill="black"/>
<path d="M141.031 51H149.259V52.19H141.031V51Z" fill="black"/>
<path d="M153 37.502H154.309V52.19H153V37.502Z" fill="black"/>
<path d="M170 37.502H171.309V52.19H170V37.502Z" fill="black"/>
<path d="M175.031 51H183.259V52.19H175.031V51Z" fill="black"/>
<path d="M185.35 51.204C186.404 50.388 187.209 49.4473 187.764 48.382C188.331 47.3167 188.614 46.155 188.614 44.897C188.614 44.2623 188.546 43.6617 188.41 43.095C188.285 42.5283 188.087 41.9843 187.815 41.463C187.543 40.9417 187.197 40.4373 186.778 39.95C186.37 39.4627 185.883 38.9753 185.316 38.488L186.081 37.468C187.384 38.4313 188.353 39.5533 188.988 40.834C189.634 42.1033 189.957 43.4463 189.957 44.863C189.957 45.5657 189.872 46.257 189.702 46.937C189.543 47.617 189.3 48.2743 188.971 48.909C188.654 49.5323 188.251 50.1217 187.764 50.677C187.288 51.2437 186.727 51.7593 186.081 52.224L185.333 51.204H185.35Z" fill="black"/>
<path d="M204 37.502H205.309V52.19H204V37.502Z" fill="black"/>
<path d="M223.923 38.488C222.869 39.304 222.064 40.2447 221.509 41.31C220.954 42.3753 220.676 43.537 220.676 44.795C220.676 45.4297 220.738 46.0303 220.863 46.597C220.999 47.1637 221.197 47.7077 221.458 48.229C221.73 48.7503 222.07 49.2547 222.478 49.742C222.897 50.2293 223.39 50.7167 223.957 51.204L223.192 52.224C221.889 51.2607 220.914 50.1443 220.268 48.875C219.633 47.5943 219.316 46.2457 219.316 44.829C219.316 43.4237 219.639 42.0807 220.285 40.8C220.931 39.5193 221.9 38.4087 223.192 37.468L223.94 38.488H223.923Z" fill="black"/>
<path d="M226.031 51H234.259V52.19H226.031V51Z" fill="black"/>
<path d="M238 37.502H239.309V52.19H238V37.502Z" fill="black"/>
<path d="M252.586 37.502H253.997L258.706 52.19H257.278L252.586 37.502Z" fill="black"/>
<path d="M260.031 51H268.259V52.19H260.031V51Z" fill="black"/>
<path d="M268.531 51H276.759V52.19H268.531V51Z" fill="black"/>
<path d="M286.586 37.502H287.997L292.706 52.19H291.278L286.586 37.502Z" fill="black"/>
<path d="M306 37.502H307.309V52.19H306V37.502Z" fill="black"/>
<path d="M323 37.502H324.309V52.19H323V37.502Z" fill="black"/>
<path d="M340 37.502H341.309V52.19H340V37.502Z" fill="black"/>
<path d="M5.03125 68H13.2592V69.19H5.03125V68Z" fill="black"/>
<path d="M16.0153 69.19H14.5703L19.3133 54.502H20.7243L16.0153 69.19Z" fill="black"/>
<path d="M34 54.502H35.309V69.19H34V54.502Z" fill="black"/>
<path d="M40.0859 54.502H41.4969L46.2059 69.19H44.7779L40.0859 54.502Z" fill="black"/>
<path d="M47.5312 68H55.7593V69.19H47.5312V68Z" fill="black"/>
<path d="M56.0312 68H64.2593V69.19H56.0312V68Z" fill="black"/>
<path d="M66.9297 67.728C67.1337 67.6827 67.332 67.6373 67.5247 67.592C67.7287 67.5467 67.9157 67.4787 68.0857 67.388C68.2557 67.3087 68.4087 67.201 68.5447 67.065C68.6807 66.9403 68.7884 66.7647 68.8677 66.538C68.505 66.504 68.2387 66.368 68.0687 66.13C67.91 65.8807 67.8307 65.637 67.8307 65.399C67.8307 64.9457 67.9554 64.6057 68.2047 64.379C68.4654 64.141 68.76 64.022 69.0887 64.022C69.508 64.022 69.8254 64.175 70.0407 64.481C70.256 64.7757 70.3637 65.1383 70.3637 65.569C70.3637 65.8977 70.2957 66.2377 70.1597 66.589C70.035 66.9517 69.8367 67.286 69.5647 67.592C69.304 67.9093 68.9754 68.1757 68.5787 68.391C68.182 68.6177 67.7117 68.765 67.1677 68.833L66.9297 67.728Z" fill="black"/>
<path d="M73.0312 68H81.2592V69.19H73.0312V68Z" fill="black"/>
<path d="M85 54.502H86.309V69.19H85V54.502Z" fill="black"/>
<path d="M90.0312 68H98.2592V69.19H90.0312V68Z" fill="black"/>
<path d="M98.5312 68H106.759V69.19H98.5312V68Z" fill="black"/>
<path d="M107.031 68H115.259V69.19H107.031V68Z" fill="black"/>
<path d="M118.015 69.19H116.57L121.313 54.502H122.724L118.015 69.19Z" fill="black"/>
<path d="M125.086 54.502H126.497L131.206 69.19H129.778L125.086 54.502Z" fill="black"/>
<path d="M132.531 68H140.759V69.19H132.531V68Z" fill="black"/>
<path d="M141.031 68H149.259V69.19H141.031V68Z" fill="black"/>
<path d="M153 54.502H154.309V69.19H153V54.502Z" fill="black"/>
<path d="M158.031 68H166.259V69.19H158.031V68Z" fill="black"/>
<path d="M171.905 65.297C171.905 65.637 171.792 65.9373 171.565 66.198C171.338 66.4587 171.038 66.589 170.664 66.589C170.279 66.589 169.973 66.4587 169.746 66.198C169.519 65.9373 169.406 65.637 169.406 65.297C169.406 64.9457 169.519 64.6397 169.746 64.379C169.973 64.1183 170.279 63.988 170.664 63.988C171.038 63.988 171.338 64.1183 171.565 64.379C171.792 64.6397 171.905 64.9457 171.905 65.297Z" fill="black"/>
<path d="M175.031 68H183.259V69.19H175.031V68Z" fill="black"/>
<path d="M183.531 68H191.759V69.19H183.531V68Z" fill="black"/>
<path d="M194.515 69.19H193.07L197.813 54.502H199.224L194.515 69.19Z" fill="black"/>
<path d="M210.086 54.502H211.497L216.206 69.19H214.778L210.086 54.502Z" fill="black"/>
<path d="M217.531 68H225.759V69.19H217.531V68Z" fill="black"/>
<path d="M226.031 68H234.259V69.19H226.031V68Z" fill="black"/>
<path d="M236.93 67.728C237.134 67.6827 237.332 67.6373 237.525 67.592C237.729 67.5467 237.916 67.4787 238.086 67.388C238.256 67.3087 238.409 67.201 238.545 67.065C238.681 66.9403 238.789 66.7647 238.868 66.538C238.505 66.504 238.239 66.368 238.069 66.13C237.91 65.8807 237.831 65.637 237.831 65.399C237.831 64.9457 237.956 64.6057 238.205 64.379C238.466 64.141 238.76 64.022 239.089 64.022C239.508 64.022 239.826 64.175 240.041 64.481C240.256 64.7757 240.364 65.1383 240.364 65.569C240.364 65.8977 240.296 66.2377 240.16 66.589C240.035 66.9517 239.837 67.286 239.565 67.592C239.304 67.9093 238.976 68.1757 238.579 68.391C238.182 68.6177 237.712 68.765 237.168 68.833L236.93 67.728Z" fill="black"/>
<path d="M243.031 68H251.259V69.19H243.031V68Z" fill="black"/>
<path d="M255 54.502H256.309V69.19H255V54.502Z" fill="black"/>
<path d="M260.031 68H268.259V69.19H260.031V68Z" fill="black"/>
<path d="M268.531 68H276.759V69.19H268.531V68Z" fill="black"/>
<path d="M277.031 68H285.259V69.19H277.031V68Z" fill="black"/>
<path d="M288.015 69.19H286.57L291.313 54.502H292.724L288.015 69.19Z" fill="black"/>
<path d="M294.031 68H302.259V69.19H294.031V68Z" fill="black"/>
<path d="M306 54.502H307.309V69.19H306V54.502Z" fill="black"/>
<path d="M323 54.502H324.309V69.19H323V54.502Z" fill="black"/>
<path d="M328.031 68H336.259V69.19H328.031V68Z" fill="black"/>
<path d="M340 54.502H341.309V69.19H340V54.502Z" fill="black"/>
<path d="M0 71.502H1.309V86.19H0V71.502Z" fill="black"/>
<path d="M5.03125 85H13.2592V86.19H5.03125V85Z" fill="black"/>
<path d="M13.5312 85H21.7593V86.19H13.5312V85Z" fill="black"/>
<path d="M24.5153 86.19H23.0703L27.8133 71.502H29.2243L24.5153 86.19Z" fill="black"/>
</svg>
