<svg viewBox="0 0 548 85" width="548" height="85" fill="none" xmlns="http://www.w3.org/2000/svg"><g transform="translate(0.0000, 0.0000) scale(0.800000)">
<path d="M100.495 58.5716L67.8091 1.71869C67.1965 0.654739 66.0675 0 64.845 0H46.3437C45.1212 0 43.9922 0.654739 43.3793 1.71869L34.1301 17.8052C33.5205 18.8692 33.5205 20.1787 34.1301 21.2396L53.0058 54.0642C54.1558 56.0648 52.719 58.5686 50.4158 58.5686H12.6677C11.4452 58.5686 10.3162 59.2235 9.70342 60.2875L0.457323 76.3769C-0.152441 77.4409 -0.152441 78.7504 0.457323 79.8114L9.70643 95.9008C10.3192 96.9648 11.4482 97.6197 12.6707 97.6197H31.1719C32.3944 97.6197 33.5234 96.9648 34.1363 95.9008L53.0117 63.076C54.1649 61.0754 57.0417 61.0754 58.1917 63.076L77.0674 95.9008C77.677 96.9648 78.809 97.6197 80.0318 97.6197H98.5328C99.7553 97.6197 100.884 96.9648 101.497 95.9008L110.746 79.8114C111.356 78.7474 111.356 77.438 110.746 76.3769L100.507 58.5716H100.495Z" fill="black"/>
<path d="M167.943 0L129.754 97.6164H146.558L156.834 70.8421H196.689L206.967 97.6164H223.772L185.577 0H167.943ZM161.413 57.3138L176.41 17.9901H176.965L191.962 57.3138H161.41H161.413Z" fill="#070707"/>
<path d="M267.853 25.2413C257.022 25.2413 249.107 29.7031 244.8 38.4875V27.3328H231.191V97.6141H246.052V63.0312C246.191 46.1565 253.273 38.3483 264.659 38.3483C274.101 38.3483 278.826 43.9256 278.826 56.0595V97.6141H293.822V52.989C293.822 35.417 283.963 25.2383 267.853 25.2383V25.2413Z" fill="#070707"/>
<path d="M337.708 86.8774C326.04 86.8774 317.99 77.2564 317.99 62.4732C317.99 47.6904 325.905 38.0691 337.569 38.0691C347.15 38.0691 354.234 44.6225 355.622 54.2467H370.479C368.395 36.1172 355.622 25.2412 337.705 25.2412C316.734 25.2412 302.711 40.0243 302.711 62.4732C302.711 84.9222 316.734 99.7054 337.705 99.7054C356.038 99.7054 369.368 88.4113 371.172 70.2818H356.45C355.062 80.321 347.285 86.8774 337.705 86.8774H337.708Z" fill="#070707"/>
<path d="M416.894 25.2407C406.759 25.2407 399.398 29.2843 395.092 37.2321V0H380.234V97.6164H395.092V63.0335C395.23 46.1589 402.311 38.3507 413.698 38.3507C423.14 38.3507 427.863 43.9279 427.863 56.0619V97.6164H442.862V52.9914C442.862 35.4194 433.001 25.2407 416.894 25.2407Z" fill="#070707"/>
<path d="M487.301 25.2412C465.776 25.2412 451.75 39.8848 451.75 62.4732C451.75 85.0617 465.776 99.7054 487.301 99.7054C508.826 99.7054 522.852 84.9222 522.852 62.4732C522.852 40.0243 508.962 25.2412 487.301 25.2412ZM487.301 86.8774C475.082 86.8774 467.029 77.2564 467.029 62.4732C467.029 47.6904 475.082 38.0691 487.301 38.0691C499.52 38.0691 507.438 47.6904 507.438 62.4732C507.438 77.2564 499.523 86.8774 487.301 86.8774Z" fill="#070707"/>
<path d="M548.346 27.332C538.347 27.332 532.793 32.7699 532.793 42.9519V97.6162H547.65V40.1631H570.705V27.3351H548.346V27.332Z" fill="#070707"/>
</g></svg>