<svg width="548" height="95" viewBox="0 0 548 95" fill="none" xmlns="http://www.w3.org/2000/svg">
<path d="M0 83.1616C15.7847 98.9461 41.3768 98.9461 57.1616 83.1616C72.9461 67.3768 72.9461 41.7848 57.1616 26L50.0163 33.1451C61.8549 44.9837 61.8549 64.1779 50.0163 76.0163C38.1779 87.8549 18.9837 87.8549 7.14513 76.0163L0 83.1616Z" fill="#34D399"/>
<path d="M14 68.1666C22.0067 75.9445 34.9881 75.9445 42.995 68.1666C51.0017 60.3886 51.0017 47.7779 42.995 40L35.7463 47.0416C39.7496 50.9305 39.7496 57.2358 35.7463 61.125C31.7428 65.0139 25.2521 65.0139 21.2487 61.125L14 68.1666Z" fill="#34D399"/>
<path d="M71 11.8385C55.2153 -3.94616 29.6232 -3.94616 13.8386 11.8385C-1.94618 27.6232 -1.94618 53.2153 13.8386 69L20.9836 61.8549C9.14527 50.0163 9.14527 30.8222 20.9836 18.9838C32.8222 7.14519 52.0163 7.14519 63.8547 18.9838L71 11.8385Z" fill="#6EE6B7"/>
<path d="M57 25.8334C49.2222 18.0555 36.6114 18.0555 28.8335 25.8334C21.0555 33.6116 21.0555 46.2221 28.8335 54L35.875 46.9584C31.9861 43.0694 31.9861 36.7642 35.875 32.875C39.764 28.9861 46.0692 28.9861 49.9583 32.875L57 25.8334Z" fill="#6EE6B7"/>
<path d="M121.306 49.7294C121.306 55.5259 117.159 58.3994 113.187 58.3994C108.867 58.3994 105.987 55.3524 105.987 50.5221V27.683H97V51.9093C97 61.0499 102.214 66.2272 109.711 66.2272C115.422 66.2272 119.444 63.2297 121.182 58.969H121.579V65.7316H130.293V27.683H121.306V49.7294ZM138.137 80H147.124V59.7371H147.496C148.911 62.5115 151.866 66.4004 158.42 66.4004C167.407 66.4004 174.135 59.2911 174.135 46.7569C174.135 34.0738 167.209 27.1875 158.395 27.1875C151.667 27.1875 148.862 31.2252 147.496 33.9748H146.975V27.683H138.137V80ZM146.95 46.7073C146.95 39.3255 150.128 34.5447 155.912 34.5447C161.896 34.5447 164.974 39.6227 164.974 46.7073C164.974 53.8415 161.846 59.0434 155.912 59.0434C150.178 59.0434 146.95 54.0891 146.95 46.7073ZM210.573 37.74C209.332 31.2996 204.168 27.1875 195.23 27.1875C186.045 27.1875 179.788 31.6959 179.813 38.731C179.788 44.2796 183.214 47.946 190.538 49.4569L197.043 50.8192C200.543 51.5872 202.182 52.9991 202.182 55.1543C202.182 57.7553 199.352 59.7122 195.081 59.7122C190.96 59.7122 188.279 57.9287 187.509 54.5102L178.745 55.3524C179.863 62.338 185.746 66.4748 195.106 66.4748C204.64 66.4748 211.368 61.5454 211.393 54.3368C211.368 48.9119 207.867 45.5926 200.667 44.032L194.163 42.6448C190.29 41.7779 188.751 40.4402 188.775 38.2355C188.751 35.6594 191.606 33.8757 195.355 33.8757C199.501 33.8757 201.685 36.13 202.38 38.6319L210.573 37.74ZM236.446 27.683H228.926V18.5671H219.938V27.683H214.525V34.6189H219.938V55.7735C219.889 62.9326 225.102 66.4499 231.855 66.2518C234.412 66.1776 236.174 65.6821 237.143 65.3601L235.628 58.3498C235.132 58.4738 234.114 58.6965 232.997 58.6965C230.737 58.6965 228.926 57.9039 228.926 54.2873V34.6189H236.446V27.683ZM253.54 66.4997C259.522 66.4997 263.097 63.7004 264.735 60.5048H265.033V65.7316H273.675V40.2668C273.675 30.2096 265.455 27.1875 258.182 27.1875C250.163 27.1875 244.006 30.7546 242.018 37.6904L250.41 38.8796C251.305 36.2786 253.836 34.0492 258.231 34.0492C262.402 34.0492 264.686 36.1795 264.686 39.9198V40.0687C264.686 42.6447 261.981 42.7687 255.253 43.4869C247.854 44.2796 240.779 46.4844 240.779 55.0553C240.779 62.5361 246.264 66.4997 253.54 66.4997ZM255.873 59.9103C252.123 59.9103 249.443 58.2013 249.443 54.9067C249.443 51.4633 252.447 50.0266 256.469 49.4569C258.828 49.1348 263.544 48.5403 264.712 47.5991V52.0827C264.712 56.3185 261.284 59.9103 255.873 59.9103ZM311.453 37.74C310.211 31.2996 305.047 27.1875 296.11 27.1875C286.923 27.1875 280.666 31.6959 280.692 38.731C280.666 44.2796 284.094 47.946 291.416 49.4569L297.923 50.8192C301.423 51.5872 303.061 52.9991 303.061 55.1543C303.061 57.7553 300.23 59.7122 295.96 59.7122C291.838 59.7122 289.158 57.9287 288.389 54.5102L279.624 55.3524C280.74 62.338 286.625 66.4748 295.986 66.4748C305.518 66.4748 312.248 61.5454 312.271 54.3368C312.248 48.9119 308.745 45.5926 301.546 44.032L295.042 42.6448C291.169 41.7779 289.629 40.4402 289.654 38.2355C289.629 35.6594 292.483 33.8757 296.233 33.8757C300.379 33.8757 302.565 36.13 303.259 38.6319L311.453 37.74ZM327.272 43.4374C327.272 37.9383 330.698 34.7674 335.515 34.7674C340.231 34.7674 343.012 37.7649 343.012 42.8926V65.7316H352V41.5054C352 32.3153 346.785 27.1875 338.866 27.1875C333.007 27.1875 329.283 29.838 327.519 34.1482H327.074V15H318.284V65.7316H327.272V43.4374Z" fill="white"/>
</svg>
