<svg width="548" height="87" viewBox="0 0 548 87" fill="none" xmlns="http://www.w3.org/2000/svg">
<path d="M71.9197 19.2942C69.5747 19.2942 67.6737 17.3922 67.6737 15.046V2.30151H17.0035V19.2914H63.4305C65.7754 19.2914 67.6764 21.1935 67.6764 23.5396V65.7644C67.6764 68.1106 65.7754 70.0126 63.4305 70.0126H21.2495C18.8711 70.0126 17.0035 68.1441 17.0035 65.7644L16.9812 48.9756C16.9812 46.5959 18.8488 44.7274 21.2272 44.7274H38.1415C38.1806 44.7274 38.2197 44.7274 38.2587 44.7274C40.4389 44.7833 42.1614 46.6072 42.1614 48.7885V61.5637H59.204V44.5738H46.5162C44.2913 44.5738 42.4377 42.8114 42.3847 40.5854C42.3847 40.5491 42.3847 40.5156 42.3847 40.4793V27.7375H16.9812V40.4793C16.9812 42.8254 15.0802 44.7274 12.7353 44.7274H0L0.0223327 70.0098H12.7576C15.1025 70.0098 17.0035 71.9118 17.0035 74.258V87H67.6764V74.258C67.6764 71.9118 69.5775 70.0098 71.9225 70.0098H84.6581V19.2942H71.9197Z" fill="white"/>
<path d="M115.525 67.2558C112.34 64.3371 110.746 60.5609 110.746 55.9301C110.746 51.2993 112.27 47.8444 115.324 45.1603C118.375 42.4762 122.786 40.9316 128.553 40.5294L140.929 39.6245C142.201 39.4904 143.142 39.105 143.745 38.4654C144.348 37.8285 144.65 36.77 144.65 35.2953C144.65 32.4101 143.676 30.2623 141.732 28.8518C139.787 27.4441 137.204 26.7375 133.986 26.7375C130.566 26.7375 127.88 27.4917 125.937 29.0027C123.992 30.5137 122.853 32.6755 122.518 35.4936H112.055C112.725 29.7233 114.939 25.3438 118.696 22.3581C122.451 19.3723 127.582 17.8781 134.089 17.8781C140.931 17.8781 146.213 19.5567 149.934 22.9111C153.658 26.2683 155.517 31.4018 155.517 38.3117V60.8598H159.644V70.1214H155.115C149.415 70.1214 146.464 67.0686 146.263 60.9603C144.719 64.4516 142.405 67.0993 139.321 68.912C136.235 70.7247 132.612 71.6297 128.455 71.6297C123.023 71.6297 118.713 70.1689 115.528 67.2502L115.525 67.2558ZM140.781 58.9522C143.497 56.3351 144.853 52.9137 144.853 48.685V46.7718L130.566 47.7773C124.595 48.2465 121.611 50.7631 121.611 55.3268C121.611 57.8098 122.381 59.6895 123.925 60.9632C125.466 62.2395 127.612 62.8763 130.362 62.8763C134.589 62.8763 138.058 61.5692 140.775 58.9494L140.781 58.9522Z" fill="white"/>
<path d="M169.401 22.2602C171.343 20.347 174.129 19.3918 177.75 19.3918H193.947V28.6535H177.246V70.1242H166.48V30.6644C166.48 26.9749 167.452 24.1707 169.398 22.2602H169.401Z" fill="white"/>
<path d="M207.731 68.3115C203.909 66.0967 200.939 62.9601 198.828 58.8991C196.715 54.8409 195.66 50.1263 195.66 44.7553C195.66 39.3843 196.715 34.6724 198.828 30.6114C200.942 26.5532 203.909 23.4138 207.731 21.199C211.556 18.9841 215.98 17.8781 221.01 17.8781C227.514 17.8781 232.914 19.741 237.207 23.4641C241.498 27.1872 244.013 32.3068 244.753 38.8145H233.988C233.45 35.3261 231.992 32.5078 229.611 30.3601C227.23 28.2122 224.33 27.1397 220.907 27.1397C216.681 27.1397 213.261 28.7513 210.645 31.9716C208.029 35.192 206.72 39.4542 206.72 44.7553C206.72 50.0564 208.043 54.3185 210.695 57.5389C213.345 60.7592 216.781 62.3708 221.007 62.3708C224.494 62.3708 227.512 61.2816 230.063 59.1002C232.612 56.9216 234.119 54.0169 234.591 50.3944H245.255C244.585 56.9048 242.051 62.0719 237.66 65.8956C233.265 69.722 227.716 71.6324 221.007 71.6324C215.977 71.6324 211.55 70.5236 207.728 68.3115H207.731Z" fill="white"/>
<path d="M283.742 30.4636C282.031 28.3827 279.465 27.3438 276.045 27.3438C271.819 27.3438 268.533 28.8213 266.186 31.7735C263.838 34.7285 262.629 39.1889 262.565 45.1604V70.1244H251.801V2.31555H262.565V26.5394C265.716 20.769 270.982 17.881 278.359 17.881C284.194 17.881 288.789 19.6434 292.144 23.1654C295.497 26.6874 297.175 31.6059 297.175 37.9125V70.1244H286.31V40.1274C286.31 35.7647 285.456 32.5444 283.744 30.4636H283.742Z" fill="white"/>
<path d="M307.037 11.024C305.762 9.85094 305.125 8.32319 305.125 6.44348C305.125 4.56379 305.778 3.10584 307.087 1.86294C308.394 0.622843 309.988 0 311.867 0C313.746 0 315.336 0.62005 316.646 1.86294C317.955 3.10584 318.609 4.63082 318.609 6.44348C318.609 8.25616 317.969 9.85094 316.696 11.024C315.421 12.1999 313.812 12.7837 311.867 12.7837C309.921 12.7837 308.31 12.1971 307.037 11.024ZM306.432 19.3919H317.196V70.1242H306.432V19.3919Z" fill="white"/>
<path d="M330.577 67.256C328.631 65.3428 327.66 62.5414 327.66 58.8517V2.31555H338.424V60.8628H343.354V70.1244H338.927C335.306 70.1244 332.52 69.1692 330.577 67.256Z" fill="white"/>
</svg>
