<svg width="548" height="85" viewBox="0 0 548 85" fill="none" xmlns="http://www.w3.org/2000/svg">
<path d="M117.655 55.791C115.686 55.791 113.902 55.2845 112.303 54.2715C110.716 53.2473 109.456 51.7448 108.521 49.7638C107.599 47.7717 107.137 45.3293 107.137 42.4368C107.137 39.4654 107.615 36.9948 108.572 35.0251C109.528 33.0442 110.801 31.5642 112.388 30.585C113.986 29.5945 115.736 29.0993 117.638 29.0993C119.09 29.0993 120.3 29.347 121.268 29.8422C122.247 30.3261 123.035 30.9339 123.631 31.6655C124.239 32.3858 124.701 33.0949 125.016 33.7927H125.235V20.793H132.41V55.369H125.319V51.2158H125.016C124.678 51.9361 124.2 52.6508 123.581 53.3599C122.973 54.0577 122.179 54.6374 121.2 55.0989C120.232 55.5603 119.05 55.791 117.655 55.791ZM119.934 50.0677C121.093 50.0677 122.073 49.7526 122.872 49.1223C123.682 48.4808 124.301 47.586 124.729 46.4379C125.168 45.29 125.387 43.945 125.387 42.4029C125.387 40.861 125.174 39.5216 124.746 38.3849C124.318 37.2481 123.699 36.3701 122.888 35.7511C122.079 35.1321 121.093 34.8226 119.934 34.8226C118.753 34.8226 117.756 35.1433 116.946 35.7849C116.136 36.4265 115.522 37.3156 115.106 38.4524C114.689 39.5892 114.481 40.906 114.481 42.4029C114.481 43.9111 114.689 45.2449 115.106 46.4042C115.533 47.5523 116.146 48.4527 116.946 49.1054C117.756 49.747 118.753 50.0677 119.934 50.0677ZM149.191 55.8754C146.523 55.8754 144.227 55.3352 142.302 54.2547C140.389 53.1629 138.914 51.621 137.879 49.6288C136.844 47.6254 136.326 45.2561 136.326 42.5211C136.326 39.8536 136.844 37.5126 137.879 35.4978C138.914 33.4832 140.372 31.9131 142.252 30.7876C144.143 29.6621 146.36 29.0993 148.904 29.0993C150.614 29.0993 152.207 29.3751 153.681 29.9265C155.167 30.4668 156.461 31.2828 157.565 32.3746C158.679 33.4663 159.546 34.8394 160.164 36.494C160.783 38.1372 161.093 40.0619 161.093 42.2679V44.2432H139.196V39.7861H154.323C154.323 38.7506 154.098 37.8333 153.647 37.0343C153.197 36.2351 152.573 35.6104 151.774 35.1602C150.986 34.6987 150.068 34.4681 149.022 34.4681C147.93 34.4681 146.963 34.7212 146.118 35.2278C145.285 35.723 144.632 36.3926 144.159 37.2368C143.687 38.0697 143.445 38.9983 143.434 40.0225V44.2601C143.434 45.5431 143.67 46.6518 144.143 47.586C144.627 48.5202 145.307 49.2405 146.186 49.747C147.063 50.2535 148.105 50.5067 149.309 50.5067C150.108 50.5067 150.839 50.3941 151.503 50.1691C152.168 49.944 152.736 49.6063 153.209 49.1561C153.681 48.7058 154.042 48.1544 154.289 47.5015L160.941 47.9405C160.604 49.5388 159.911 50.9344 158.864 52.1275C157.829 53.3093 156.489 54.2322 154.847 54.8962C153.214 55.5491 151.329 55.8754 149.191 55.8754ZM176.552 55.8754C173.896 55.8754 171.611 55.3127 169.698 54.1872C167.796 53.0504 166.333 51.4747 165.309 49.4599C164.295 47.4453 163.789 45.1267 163.789 42.5042C163.789 39.848 164.301 37.5182 165.325 35.5148C166.361 33.5001 167.83 31.93 169.731 30.8044C171.634 29.6677 173.896 29.0993 176.519 29.0993C178.781 29.0993 180.762 29.5101 182.461 30.3317C184.161 31.1534 185.505 32.307 186.496 33.7927C187.486 35.2784 188.032 37.023 188.133 39.0264H181.347C181.156 37.732 180.649 36.6909 179.827 35.9031C179.017 35.104 177.954 34.7044 176.636 34.7044C175.522 34.7044 174.548 35.0083 173.715 35.616C172.894 36.2126 172.252 37.0849 171.791 38.2329C171.33 39.3809 171.099 40.771 171.099 42.4029C171.099 44.0574 171.324 45.4644 171.774 46.6236C172.236 47.7829 172.882 48.6665 173.715 49.2743C174.548 49.882 175.522 50.1859 176.636 50.1859C177.458 50.1859 178.195 50.0171 178.848 49.6795C179.512 49.3417 180.058 48.8522 180.486 48.2106C180.925 47.5579 181.212 46.7756 181.347 45.8639H188.133C188.021 47.8449 187.481 49.5894 186.513 51.0976C185.556 52.5945 184.234 53.7651 182.545 54.6093C180.857 55.4534 178.859 55.8754 176.552 55.8754ZM198.979 20.793V55.369H191.788V20.793H198.979ZM211.184 55.8586C209.53 55.8586 208.056 55.5716 206.762 54.9975C205.467 54.4122 204.443 53.5512 203.689 52.4145C202.946 51.2664 202.575 49.837 202.575 48.1262C202.575 46.6856 202.839 45.4756 203.368 44.4964C203.897 43.5172 204.617 42.7294 205.529 42.1329C206.441 41.5363 207.476 41.0861 208.635 40.7822C209.806 40.4784 211.033 40.2645 212.316 40.1406C213.824 39.9831 215.04 39.8367 215.963 39.7017C216.886 39.5553 217.555 39.3415 217.972 39.0601C218.388 38.7787 218.596 38.3624 218.596 37.8108V37.7095C218.596 36.6403 218.259 35.8131 217.583 35.2278C216.919 34.6425 215.973 34.3499 214.747 34.3499C213.452 34.3499 212.422 34.6369 211.657 35.2109C210.892 35.7736 210.385 36.4827 210.138 37.3381L203.486 36.7978C203.824 35.2222 204.488 33.8603 205.478 32.7122C206.469 31.5529 207.746 30.6637 209.311 30.0447C210.887 29.4144 212.709 29.0993 214.781 29.0993C216.222 29.0993 217.6 29.2681 218.917 29.6058C220.245 29.9435 221.421 30.4668 222.446 31.1759C223.481 31.8849 224.297 32.7966 224.893 33.9109C225.489 35.0139 225.788 36.3364 225.788 37.8783V55.369H218.968V51.773H218.765C218.349 52.5833 217.791 53.298 217.093 53.917C216.396 54.5248 215.557 55.0031 214.578 55.352C213.599 55.6898 212.468 55.8586 211.184 55.8586ZM213.245 50.895C214.303 50.895 215.236 50.6867 216.047 50.2704C216.858 49.8427 217.493 49.2686 217.954 48.5483C218.416 47.8279 218.647 47.012 218.647 46.1003V43.3484C218.422 43.4947 218.112 43.6298 217.718 43.7535C217.336 43.8661 216.902 43.9731 216.418 44.0743C215.935 44.1644 215.451 44.2488 214.966 44.3276C214.482 44.3952 214.044 44.457 213.649 44.5133C212.805 44.6371 212.069 44.8341 211.438 45.1042C210.808 45.3743 210.318 45.7402 209.969 46.2016C209.62 46.6518 209.446 47.2145 209.446 47.8899C209.446 48.869 209.801 49.6175 210.509 50.1353C211.23 50.6418 212.141 50.895 213.245 50.895ZM235.532 55.369L228.475 29.4369H235.752L239.77 46.86H240.006L244.193 29.4369H251.335L255.59 46.7587H255.809L259.759 29.4369H267.019L259.978 55.369H252.365L247.907 39.0601H247.587L243.13 55.369H235.532Z" fill="white"/>
<path d="M18.9609 1.5H66.0381C75.6817 1.50003 83.499 9.31819 83.499 18.9619V66.0381C83.499 75.6818 75.6817 83.5 66.0381 83.5H18.9609C9.3175 83.4997 1.5 75.6817 1.5 66.0381V18.9619C1.5 9.31833 9.3175 1.50025 18.9609 1.5Z" fill="#0F1418" stroke="#22D3A6" stroke-width="3"/>
<path d="M42.4962 23.5386L60.477 33.6731L42.4962 43.8078L24.5156 33.6731L42.4962 23.5386Z" fill="#34F5C0"/>
<path d="M24.5156 33.6729V53.9421L42.4962 64.0766V43.8074L24.5156 33.6729Z" fill="#13806A"/>
<path d="M60.4807 33.6729V53.9421L42.5 64.0766V43.8074L60.4807 33.6729Z" fill="#0A4A3D"/>
</svg>
