<svg viewBox="0 0 548 85" width="548" height="85" fill="none" xmlns="http://www.w3.org/2000/svg"><g transform="translate(0.0000, 0.0000) scale(0.352697)">
<path d="M97.4204 1.23431L4.45078 56.7091C3.09751 57.5186 1.97408 58.6808 1.19297 60.0792C0.411857 61.4777 0.000504963 63.0629 0 64.6771V175.641C0.000504963 177.256 0.411857 178.841 1.19297 180.24C1.97408 181.638 3.09751 182.8 4.45078 183.609L97.4204 239.076C98.7781 239.885 100.318 240.311 101.886 240.311C103.454 240.311 104.994 239.885 106.351 239.076L199.321 183.609C200.674 182.8 201.798 181.638 202.579 180.24C203.36 178.841 203.771 177.256 203.772 175.641V64.6771C203.771 63.0629 203.36 61.4777 202.579 60.0792C201.798 58.6808 200.674 57.5186 199.321 56.7091L106.351 1.23431C104.994 0.425598 103.454 0 101.886 0C100.318 0 98.7781 0.425598 97.4204 1.23431ZM82.2672 186.207L93.3062 137.689C93.3852 137.338 93.3758 136.971 93.2784 136.625C93.1809 136.278 92.9992 135.963 92.75 135.71L65.9424 108.785C65.7506 108.59 65.5981 108.358 65.494 108.102C65.3899 107.846 65.3365 107.571 65.3365 107.293C65.3365 107.015 65.3899 106.741 65.494 106.485C65.5981 106.228 65.7506 105.996 65.9424 105.801L118.261 52.117C118.572 51.7948 118.977 51.5865 119.413 51.5233C119.849 51.4602 120.294 51.5458 120.678 51.7676C121.063 51.989 121.367 52.3341 121.544 52.7504C121.721 53.1667 121.761 53.6311 121.658 54.0732L110.604 102.713C110.521 103.064 110.529 103.431 110.627 103.778C110.725 104.125 110.909 104.44 111.161 104.691L137.763 131.473C137.955 131.667 138.107 131.899 138.211 132.154C138.315 132.41 138.369 132.684 138.369 132.961C138.369 133.238 138.315 133.512 138.211 133.768C138.107 134.023 137.955 134.255 137.763 134.449L85.6196 188.171C85.3059 188.485 84.9028 188.686 84.4696 188.744C84.0363 188.802 83.5963 188.714 83.2154 188.493C82.8345 188.273 82.5325 187.931 82.3552 187.519C82.1778 187.107 82.1338 186.647 82.2302 186.207H82.2672Z" fill="url(#paint0_linear_198_155)"/>
<path fill-rule="evenodd" clip-rule="evenodd" d="M492.957 100.579C488.819 100.473 484.725 101.439 481.07 103.381C478.585 104.661 476.298 106.291 474.276 108.223V70.6816H457.297V173.708H474.276V133.703C474.067 129.287 475.522 124.953 478.353 121.557C479.727 120.039 481.427 118.846 483.321 118.067C485.215 117.289 487.261 116.943 489.306 117.056C491.295 116.922 493.29 117.251 495.13 118.017C496.971 118.783 498.61 119.966 499.92 121.473C502.446 124.553 503.776 128.445 503.655 132.429V173.708H520.634V130.476C520.866 126.467 520.298 122.453 518.975 118.663C517.648 114.874 515.586 111.383 512.909 108.393C510.275 105.821 507.152 103.805 503.726 102.463C500.296 101.12 496.635 100.479 492.957 100.579Z" fill="#333333"/>
<path fill-rule="evenodd" clip-rule="evenodd" d="M424.523 107.543C422.273 105.675 419.79 104.104 417.137 102.872C413.53 101.277 409.617 100.494 405.677 100.578C400.911 100.559 396.195 101.543 391.835 103.466C387.657 105.322 383.878 107.977 380.714 111.28C377.597 114.623 375.175 118.548 373.58 122.832C371.645 127.314 370.604 132.133 370.523 137.016C370.668 141.809 371.706 146.533 373.58 150.945C375.125 155.177 377.426 159.091 380.375 162.496C383.535 165.864 387.348 168.552 391.58 170.395C396.027 172.327 400.827 173.31 405.677 173.283C412.519 173.4 419.189 171.117 424.523 166.828V170.99C424.765 173.221 424.513 175.478 423.791 177.602C423.065 179.726 421.886 181.665 420.331 183.284C418.779 184.903 416.888 186.162 414.796 186.973C412.707 187.783 410.46 188.126 408.223 187.977C404.494 188.126 400.786 187.337 397.441 185.684C394.633 184.056 392.406 181.591 391.073 178.634V178.039H372.817C373.237 183.193 375.189 188.104 378.42 192.138C382.212 196.106 386.857 199.156 392.006 201.057C397.088 202.946 402.462 203.923 407.883 203.944C412.384 204.253 416.905 203.662 421.178 202.203C425.447 200.745 429.386 198.449 432.759 195.451C435.758 192.414 438.086 188.78 439.594 184.786C441.102 180.792 441.75 176.526 441.505 172.264V101.853H424.523V107.543ZM420.281 151.03C418.564 152.906 416.485 154.41 414.164 155.447C411.843 156.475 409.318 156.968 406.778 156.89C404.269 156.955 401.774 156.462 399.476 155.447C397.145 154.432 395.059 152.925 393.363 151.03C389.88 147.199 387.969 142.194 388.016 137.016C387.925 134.428 388.349 131.848 389.269 129.426C390.186 127.005 391.58 124.792 393.363 122.916C395.063 121.066 397.152 119.616 399.476 118.67C401.794 117.721 404.279 117.259 406.778 117.311C409.287 117.28 411.773 117.772 414.08 118.755C416.378 119.719 418.457 121.134 420.193 122.916C421.984 124.78 423.398 126.972 424.355 129.372C425.346 131.794 425.809 134.4 425.712 137.016C425.735 142.206 423.794 147.213 420.281 151.03Z" fill="#333333"/>
<path fill-rule="evenodd" clip-rule="evenodd" d="M559.523 77.9863L543.391 83.8468V101.768H528.447V117.226H542.286V149.842C542.074 153.183 542.601 156.531 543.834 159.644C545.067 162.758 546.974 165.559 549.42 167.848C554.142 171.891 560.185 174.066 566.398 173.963H571.238H574.889H575.823V158.42H568.86C567.594 158.508 566.324 158.335 565.125 157.91C563.97 157.413 562.909 156.724 561.985 155.872C561.041 154.832 560.322 153.61 559.869 152.28C559.415 150.951 559.241 149.543 559.352 148.143V117.226H578.201V101.768H559.523V77.9863Z" fill="#333333"/>
<path d="M357.534 101.854H340.297V173.708H357.534V101.854Z" fill="#333333"/>
<path d="M610.295 119.264H593.061V174.386H610.295V119.264Z" fill="#333333"/>
<path d="M357.45 70.7656H340.213V88.2625H357.45V70.7656Z" fill="#333333"/>
<path fill-rule="evenodd" clip-rule="evenodd" d="M281.035 70.7656H263.205V173.792H326.544V156.72H281.035V70.7656Z" fill="#333333"/>
<path fill-rule="evenodd" clip-rule="evenodd" d="M743.934 101.682H726.955V119.263H740.283C742.399 119.267 744.495 119.688 746.446 120.505C748.401 121.321 750.171 122.516 751.662 124.02C754.625 127.139 756.294 131.268 756.331 135.571V174.301H773.313V131.834C773.357 123.944 770.307 116.352 764.822 110.685C762.122 107.859 758.88 105.606 755.293 104.059C751.706 102.513 747.844 101.704 743.934 101.682Z" fill="#333333"/>
<path d="M726.7 119.264H709.463V174.386H726.7V119.264Z" fill="#333333"/>
<path fill-rule="evenodd" clip-rule="evenodd" d="M627.531 101.682H610.549V119.263H623.88C625.983 119.259 628.068 119.677 630.01 120.495C631.948 121.312 633.704 122.51 635.172 124.02C636.674 125.542 637.859 127.346 638.659 129.329C639.461 131.311 639.861 133.433 639.841 135.571V174.301H656.823V131.834C656.867 123.944 653.82 116.352 648.332 110.685C645.642 107.869 642.414 105.622 638.843 104.076C635.27 102.529 631.424 101.715 627.531 101.682Z" fill="#333333"/>
<path fill-rule="evenodd" clip-rule="evenodd" d="M839.2 107.458C837.017 105.692 834.619 104.208 832.066 103.041C828.486 101.449 824.606 100.638 820.69 100.663C815.927 100.678 811.221 101.66 806.852 103.551C802.643 105.406 798.838 108.06 795.643 111.365C792.436 114.7 789.9 118.622 788.17 122.916C786.306 127.384 785.325 132.172 785.285 137.015C785.218 141.87 786.114 146.691 787.915 151.199C789.577 155.392 792.026 159.226 795.133 162.495C798.27 166.151 802.186 169.054 806.596 170.989C811.06 172.959 815.897 173.944 820.774 173.877C824.694 173.685 828.536 172.703 832.066 170.989C834.743 169.87 837.232 168.353 839.452 166.487V170.989C839.711 173.223 839.469 175.486 838.75 177.617C838.031 179.748 836.853 181.694 835.294 183.316C833.739 184.938 831.841 186.197 829.742 187.003C827.646 187.808 825.392 188.141 823.152 187.976C819.42 188.136 815.712 187.347 812.37 185.683C809.562 184.055 807.335 181.59 806.002 178.633V178.038H787.491C788.12 183.141 790.051 187.996 793.094 192.138C796.873 196.063 801.488 199.083 806.596 200.971C811.695 202.9 817.106 203.879 822.557 203.859C827.045 204.156 831.549 203.559 835.805 202.1C840.06 200.642 843.987 198.353 847.349 195.365C850.261 192.33 852.518 188.728 853.979 184.782C855.44 180.837 856.075 176.634 855.84 172.433V101.682H838.858L839.2 107.458ZM834.955 150.944C833.285 152.872 831.193 154.384 828.842 155.361C826.531 156.431 823.995 156.926 821.452 156.805C818.943 156.869 816.448 156.376 814.15 155.361C811.819 154.346 809.734 152.839 808.037 150.944C804.608 147.114 802.707 142.157 802.69 137.015C802.532 131.791 804.457 126.72 808.037 122.916C809.797 121.135 811.87 119.695 814.15 118.669C816.478 117.761 818.957 117.3 821.452 117.31C823.958 117.321 826.437 117.811 828.754 118.754C831.052 119.718 833.131 121.133 834.867 122.916C836.685 124.776 838.125 126.967 839.113 129.371C840.104 131.796 840.594 134.396 840.557 137.015C840.514 142.199 838.512 147.174 834.955 150.944Z" fill="#333333"/>
<path d="M691.212 70.6816H673.975V88.2632H691.212V70.6816Z" fill="#333333"/>
<path d="M691.212 101.768H673.975V173.708H691.212V101.768Z" fill="#333333"/>
<defs>
<linearGradient id="paint0_linear_198_155" x1="116.122" y1="96.2785" x2="-161.929" y2="311.363" gradientUnits="userSpaceOnUse">
<stop stop-color="#BB8BFF"/>
<stop offset="1" stop-color="#75F6FF"/>
</linearGradient>
</defs>
</g></svg>