<svg viewBox="0 0 548 85" width="548" height="85" fill="none" xmlns="http://www.w3.org/2000/svg"><g transform="translate(0.0000, 0.0000) scale(1.491228)">
<g clip-path="url(#clip0_220_48)">
<path d="M46.6757 54.0475C46.6546 54.0808 46.632 54.1162 46.6079 54.1541C45.8153 55.3961 48.6269 55.8337 47.5153 55.8527C46.2453 55.8744 46.2571 55.8509 44.8078 56.1367C42.7033 56.5517 42.5792 56.3392 42.6464 56.1874C42.9225 55.5637 43.9869 54.5013 44.1201 54.3682C45.0392 53.4508 46.521 53.6592 46.4536 51.121C46.3269 46.357 42.62 47.0914 40.3317 45.5551C38.6908 44.4536 38.3005 44.8777 37.2236 43.2801C37.0452 43.0155 36.2919 43.9358 36.0473 44.1215C35.5715 44.4826 34.9484 44.721 34.6897 44.9058C34.0677 45.35 37.0399 48.1789 35.9925 49.2044C35.5176 49.6694 35.5897 49.8426 34.8973 49.8565C34.6342 49.8617 34.7357 50.0669 32.1204 51.5357C30.9204 52.2097 32.5469 53.9834 31.2726 53.4555C30.5309 53.1483 30.1254 54.693 31.1014 55.2151C31.1286 55.2295 31.3733 55.3604 30.9026 55.5336C30.8345 55.5586 30.294 55.5266 29.9912 55.5503C29.4054 55.5961 27.5972 55.7966 27.3883 55.8086C27.0559 55.8278 27.1153 55.9808 26.7857 55.9961C25.7128 56.0458 25.1997 57.0071 25.0679 55.9903C25.0581 55.9143 27.159 52.849 30.0923 51.0281C36.4758 47.0653 29.2825 46.1707 29.4927 44.4422C29.509 44.3086 30.2314 43.1713 30.4381 42.9243C30.5618 42.7765 30.4433 42.7605 30.3883 42.7492C29.9932 42.6682 19.2951 41.5061 18.7793 42.6374C18.5814 43.0714 18.5364 43.0768 18.0857 43.2435C17.138 43.594 16.2642 44.6033 16.0578 44.5331C15.9068 44.4818 14.9288 44.7914 14.2087 46.2738C13.3504 48.0408 13.1303 47.9146 13.0609 48.0691C12.9931 48.2202 12.3665 49.6162 12.2766 49.9818C11.9549 51.2889 12.0393 52.6295 12.0354 52.6448C11.8532 53.3472 12.0035 53.3426 12.3658 53.9796C12.6444 54.4696 11.9949 54.5177 11.9699 54.6557C11.8736 55.1871 11.4246 54.5929 11.2534 54.5956C10.1661 54.6122 10.3461 53.3754 9.68153 53.9203C9.23534 54.2863 9.4779 54.7797 9.79406 55.0952C10.7797 56.0792 9.41655 55.6318 8.74855 55.8891C7.23033 56.4738 6.05653 56.3636 5.54524 56.305C5.27467 56.274 5.27759 56.0024 5.68077 55.5372C7.21449 53.7678 7.96802 53.5923 8.03445 53.4978C10.3412 50.2202 10.3851 50.1033 10.5097 49.7711C11.1531 48.0555 10.8592 48.0181 10.9307 47.4923C10.9389 47.4313 11.451 45.5059 11.9591 45.4357C12.5482 45.3542 13.8658 43.6682 13.2543 43.4004C11.6187 42.684 9.76614 42.4643 9.45372 42.4272C8.79522 42.3491 6.02186 42.8473 5.30243 43.1033C5.01569 43.2054 5.20515 43.6794 5.1373 43.9638C5.03928 44.3748 4.7257 45.5537 4.71394 45.5699C3.91374 46.6732 4.88915 46.9012 4.49364 47.3737C4.27258 47.6378 4.30909 47.6421 4.34552 47.9727C4.38211 48.3055 3.79296 48.556 3.74028 48.4492C3.21081 47.3762 1.30758 48.6108 2.34101 48.9017C3.38286 49.1948 2.24215 49.3489 2.15055 49.4177C1.59266 49.8367 1.69735 50.0876 1.50872 50.2374C0.37935 51.1343 0.667422 51.3892 0.548892 51.4307C0.310499 51.5139 -0.105022 51.4528 0.0274278 48.4489C0.0435152 48.0856 0.429529 47.8044 0.4447 47.6885C0.680926 45.8815 1.0221 46.0075 2.15088 44.5464C3.59475 42.6771 3.41103 42.5845 4.52656 40.5214C4.7868 40.0401 6.09813 39.8496 6.23916 39.8917C8.90225 40.6855 9.10464 40.3813 10.2491 40.3031C11.8627 40.1928 11.0437 39.4417 10.3784 38.0318C10.2032 37.6606 10.0644 37.4689 10.1702 37.2034C10.4973 36.3832 12.8077 33.4362 12.341 33.1104C12.0026 32.8741 12.0223 32.7874 12.3067 32.4779C12.4379 32.3351 12.3615 30.0087 11.9767 29.8942C11.367 29.7127 11.4076 29.6325 11.3542 29.6411C10.7981 29.7308 10.7802 29.5392 9.85924 29.251C7.7172 28.5806 7.16715 27.7046 6.93592 28.8863C6.7883 29.6403 4.91958 30.1228 5.7362 28.6004C6.31385 27.5236 4.62084 29.5711 3.955 28.9714C3.15772 28.2534 3.33485 28.1301 3.12771 27.9445C1.92091 26.8636 3.25199 26.7488 3.43104 26.2136C3.87565 24.8838 4.26516 25.1142 5.07637 23.852C5.64393 22.969 6.10263 22.9711 5.59425 22.0381C5.20282 21.3198 6.83756 21.1477 5.96526 20.3769C5.35619 19.8388 5.71111 19.6132 5.10854 19.0922C4.47688 18.5459 5.52857 18.6808 6.13389 18.9882C6.67077 19.2608 6.68369 19.1847 7.25225 19.4293C8.35636 19.9043 6.93967 18.1617 7.01202 17.8114C7.04828 17.6359 7.20799 17.4891 9.24467 18.5003C9.84407 18.7978 10.3541 18.2393 10.4184 18.1688C10.6859 17.8759 10.7686 18.0711 11.1504 17.9058C14.5317 16.4426 14.7377 17.4499 16.1625 17.139C17.7354 16.7957 15.9791 17.4944 15.7739 17.567C15.5086 17.6609 14.5722 17.6797 14.5704 17.7023C14.5688 17.7249 15.285 17.6574 15.6424 17.6688C16.1764 17.6857 17.6104 17.7593 17.7748 17.8038C18.8924 18.1065 16.2014 18.1471 16.606 18.2562C17.0364 18.3723 20.3336 18.3213 20.3568 18.5003C20.4152 18.9513 18.5401 19.009 17.9045 18.9653C17.4051 18.9309 16.2023 18.9247 16.7106 19.5962C16.9996 19.9781 20.1403 20.1919 20.6796 20.1707C21.0634 20.1556 22.2069 19.3254 21.8649 20.0078C21.7744 20.1881 20.8413 20.595 20.7519 20.6454C20.3236 20.8865 19.769 20.8019 20.1958 21.0464C20.2177 21.059 21.1083 21.5694 20.1717 21.35C18.6945 21.004 18.8878 21.6787 18.9792 21.718C19.2792 21.847 19.0922 21.5608 20.5097 21.8971C20.6443 21.929 20.9466 22.1161 20.4535 22.0576C19.7028 21.9687 19.4205 22.0655 19.4891 22.1906C19.5577 22.3157 20.7808 22.6445 20.8148 22.8943C20.9345 23.7711 21.9774 23.6558 22.1921 23.8614C22.2855 23.9509 22.3 24.0854 22.1698 24.1093C21.9692 24.1462 21.4783 24.177 21.0642 23.9636C19.5809 23.1995 21.1265 24.3164 21.1529 24.3335C21.3288 24.4473 22.5745 25.8724 22.6942 26.0094C23.0257 26.3888 23.5669 27.0923 24.0753 27.7676C24.8914 27.2832 25.3852 26.5797 25.0499 25.6609C25.0252 25.5932 24.6571 25.5483 24.7425 25.3632C24.7596 25.3261 24.7951 25.2991 24.8154 25.2635C24.9465 25.0336 24.795 24.794 25.2816 24.7127C25.6578 24.6498 25.4789 24.4538 25.3564 24.0621C25.2814 23.8221 25.2637 23.832 25.1915 23.5924C25.136 23.4081 25.106 23.4173 25.0867 23.226C25.0606 22.9678 24.9414 23.0153 24.8103 22.7577C24.5199 22.1873 24.4636 21.9078 24.2561 21.6298C24.1243 21.4534 23.9557 21.06 23.9336 21.0087C23.904 20.9393 23.7387 20.1357 23.3703 19.6158C23.0555 19.1714 23.1874 18.6407 22.8932 18.2239C22.7653 18.0425 22.4273 17.1821 22.0671 16.6884L21.8836 16.4057C21.8606 16.3447 21.862 16.3467 21.8391 16.2876C21.7276 16.0001 21.6492 16.0386 21.5896 15.8524C21.582 15.8289 21.5617 15.5595 21.4682 15.4063C21.238 15.0294 21.1219 14.9995 21.1368 14.6529C21.1516 14.3108 20.9865 14.3683 20.8535 14.0871C20.7674 13.9049 20.8409 13.8742 20.6531 13.621C20.5355 13.4625 20.3135 12.5285 19.9887 12.0475C19.6982 11.6173 19.826 11.5644 19.5238 10.987C19.2754 10.5855 19.4643 10.5177 19.2241 10.1091C18.9784 9.69092 19.0659 9.6579 18.8546 9.22605C18.7579 9.02846 18.7854 8.74363 18.3653 7.93836C18.1708 7.56573 18.2155 7.45705 17.7952 6.73569C17.6376 6.46507 17.6844 6.40251 17.5294 6.38902C16.9581 6.33916 17.1323 6.77355 16.9501 6.80666C16.9314 6.81007 16.5689 6.80769 16.5426 6.63542C16.5333 6.57398 16.5416 6.51111 16.5368 6.44919C16.5338 6.41164 16.5036 6.41871 16.4404 5.98749C16.4088 5.77149 16.2249 5.60454 16.2844 5.34011C16.3165 5.19746 16.3311 5.19905 16.2947 5.05504C16.2464 4.86452 16.3421 4.81935 16.3016 4.68599C16.2927 4.65677 16.2699 4.63288 16.2592 4.60422C16.1924 4.42362 16.3479 4.34987 16.211 4.20928C16.002 3.99439 16.1301 3.94112 15.9943 3.58262C15.9215 3.39044 16.0093 3.37067 15.9164 3.11458C15.7524 2.66304 15.5742 1.699 15.5089 1.55404C15.3266 1.14902 15.362 1.13958 15.1765 0.736383C15.1532 0.685894 14.9041 0.144415 14.9343 0.0874964C15.0683 -0.165977 15.2405 0.209431 15.2519 0.234119C15.3837 0.521649 15.4326 0.49442 15.8723 1.28914C15.8984 1.33621 15.9326 1.31406 16.2556 1.84538C16.487 2.22587 16.5619 2.20713 16.7999 2.54634C17.2166 3.14037 17.2468 3.12355 17.354 3.39702C17.4007 3.51618 17.6517 3.74481 17.7767 3.97835C17.9427 4.28867 17.9193 4.30264 18.1702 4.55214C18.3205 4.7017 18.3152 4.70488 18.7944 5.24414C18.7944 5.24414 19.1107 5.44347 19.1056 5.80038C19.1007 6.13578 18.5922 5.95081 18.617 6.26002C18.6215 6.31495 18.672 6.4214 18.7181 6.81118C18.7643 7.20278 18.8313 7.18318 18.978 7.55366C19.0706 7.78761 19.0733 7.78396 19.1742 8.01433C19.2649 8.22168 19.2434 8.38847 19.3641 8.66099C19.593 9.17762 19.537 9.2012 19.8417 9.68021C19.8849 9.74808 19.8121 9.77531 20.2257 10.6023C20.4196 10.9899 20.7775 11.9039 21.2427 12.7931C21.5795 13.4369 21.6725 13.82 21.6952 13.9135C21.7085 13.9682 21.7317 13.9592 21.9621 14.5673C22.1392 15.0348 22.1916 15.0136 22.3401 15.4918C22.4717 15.9156 23.3967 17.7033 23.4203 17.7901C23.8021 19.1907 24.0662 19.0931 24.4844 20.2816C24.499 20.3235 24.7089 20.7669 24.8402 21.1847C24.9896 21.6602 25.0826 21.6319 25.166 22.122C25.2308 22.5025 25.309 22.4778 25.4045 22.8543C25.4463 23.0191 25.8444 23.8649 25.9019 23.9305C26.1852 24.2541 26.2763 24.1747 26.5057 24.5351C26.5903 24.668 26.6547 24.7817 26.655 24.7822C26.7508 24.9163 26.781 24.8962 26.813 24.9251C26.8578 24.9001 26.8802 24.847 26.925 24.822C26.9615 24.8016 27.0175 24.821 27.0484 24.7934C27.109 24.7393 27.4192 24.887 27.4087 25.0075C28.3422 24.9814 28.3396 25.0184 28.4794 25.0416C28.6322 25.0669 28.9572 25.0282 29.349 25.0451L29.4381 25.0344C29.5711 25.0162 29.7753 25.0122 30.1103 24.9317L30.2123 24.8786C30.2151 24.8739 30.3229 24.8354 30.3116 24.7011C30.3091 24.6713 30.3086 24.64 30.2962 24.6125C30.2674 24.5486 30.2134 24.4958 30.1895 24.43C30.1325 24.2722 30.5172 24.1571 30.177 23.8109C29.8688 23.4973 29.8009 23.5371 29.6541 23.1278C29.4423 22.5374 29.1728 22.6648 28.9625 22.3925C28.881 22.2869 28.8683 22.3011 28.7699 22.2078C28.6918 22.1336 28.6922 22.1313 28.6921 22.027C28.6917 21.8574 28.7769 21.8993 28.8868 21.7668C28.9626 21.6753 28.969 21.5443 29.1768 21.3095C29.5923 20.8403 29.6123 20.7895 29.6337 20.7356C29.7341 20.4811 29.7598 20.494 29.9861 20.3263C30.3545 20.0534 29.8464 19.6988 29.5562 19.8453C29.4993 19.874 29.1517 19.9626 29.1517 19.9626L28.3739 19.9694L27.7023 19.9754C27.7023 19.9754 27.0919 20.2177 27.0067 20.0087C26.9525 19.8759 27.0042 19.5722 27.0438 19.4158C27.1195 19.1164 27.2979 18.5492 27.4615 18.2127C27.7869 17.543 28.1212 17.0498 28.3798 16.9626C28.4765 16.9299 29.5797 16.7633 29.6272 16.5839C29.6368 16.5472 29.6943 16.3124 29.1448 16.4723C28.7075 16.5996 28.6517 16.5152 28.0827 16.7566C27.8456 16.8572 27.7269 16.796 27.3232 16.9009C26.3527 17.153 26.3119 16.6186 26.5554 16.532C26.604 16.5147 27.3621 16.3677 27.3935 16.3571C27.7849 16.225 27.7842 16.2333 28.1872 16.14C28.4899 16.07 28.5025 16.047 28.6012 15.7656C28.6334 15.6739 28.6702 15.5835 28.703 15.4919C28.8032 15.2123 28.7304 15.1959 28.844 14.9216C28.9702 14.6164 28.952 14.6141 29.005 14.288C29.0136 14.2352 29.1919 13.6558 29.1927 13.6541C29.2884 13.4474 30.081 13.3225 30.315 13.3324C30.7529 13.3509 30.7509 13.344 31.0921 13.3024C31.1302 13.2978 31.1297 13.3124 31.5719 13.3184C31.6108 13.3189 31.6059 13.3524 32.0559 13.3709C32.3255 13.3821 32.8119 13.6 32.936 13.3679C33.0397 13.174 33.1041 13.1914 33.0931 12.9942C33.0737 12.6475 33.2306 12.6839 33.3104 12.3448C33.3974 11.9752 33.3769 11.9672 33.4356 11.9023C33.5579 11.7671 33.6569 11.7924 33.6128 11.5143C33.5821 11.32 33.6963 11.3161 33.726 11.1502C33.7314 11.12 33.7292 11.0889 33.733 11.0585C33.7405 10.9985 33.7344 10.9995 33.7663 10.9465C33.802 10.887 33.8464 10.8319 33.8754 10.7692C33.8786 10.7621 33.8685 10.6661 33.9715 10.5812C34.0006 10.5573 34.2336 10.3653 34.2387 10.2011C34.2393 10.1807 34.2188 10.1629 34.22 10.1425C34.2207 10.1298 34.2435 10.1246 34.2439 10.1118C34.2448 10.0847 34.2016 10.0745 34.2612 10.0243C34.3672 9.93487 34.3844 9.95972 34.488 9.87001L34.5726 9.85406C34.8527 9.8362 34.8522 9.81571 34.9615 9.8531C35.1265 9.90963 35.0745 9.9571 35.1262 10.119C34.8159 10.5979 34.6139 10.4383 34.5095 10.6901C34.498 10.7178 34.5099 10.7509 34.4984 10.7786L34.5782 10.9459C34.6854 10.9376 34.6948 10.97 34.9523 10.8509C35.258 10.7095 35.2019 10.5891 35.5372 10.5591C35.9773 10.5199 36.0208 10.3632 36.8028 10.2381C37.0098 10.205 36.9796 10.1118 37.1874 10.1032C37.5779 10.0867 37.5752 10.0834 37.9639 10.0276C38.1083 9.93535 38.1038 9.93011 38.2664 9.87144C38.3258 9.85811 38.471 9.82556 39.0243 9.78063C39.451 9.74602 39.3644 10.0073 39.2188 10.0354C39.0198 10.0739 39.0162 10.0475 38.8228 10.1048C38.5867 10.1748 38.3964 10.1127 38.3577 10.1058L38.1831 10.1455L38.0804 10.2379C37.822 10.4255 37.7943 10.3601 37.1854 10.4947C36.6163 10.6205 36.6121 10.6379 36.6009 10.6837C36.5275 10.985 37.0971 10.7463 37.6715 10.7017C37.9356 10.6812 39.0065 10.9123 39.3173 10.9644C39.5495 11.0033 39.615 11.1533 39.9952 11.0547C40.3495 10.9628 40.3535 11.0193 40.6765 11.1375C41.048 11.2734 41.2693 11.0958 41.6448 11.1342C41.8672 11.1569 42.1221 10.9261 42.4186 10.6887C42.7602 10.4153 42.8606 10.7217 42.9903 10.6928C43.0243 10.6852 43.0443 10.6469 43.078 10.6383C43.0916 10.6348 43.0989 10.662 43.1131 10.6612C43.1273 10.6603 43.148 10.6091 43.2157 10.6634C43.2839 10.718 43.2974 10.7386 43.2302 10.7947C43.1351 10.8738 43.1238 10.8452 42.992 10.8663C42.7594 10.9035 42.7174 11.2167 42.4175 11.2461C42.3626 11.2515 42.091 11.2781 41.7651 11.4579C41.4695 11.6208 41.1792 11.4394 40.8868 11.5518C40.6901 11.6275 40.6893 11.6485 40.4809 11.6026C40.3291 11.5692 40.2653 11.6166 40.0922 11.6215C39.7456 11.6313 39.7258 11.7546 39.4249 11.5921C39.125 11.4302 39.0403 11.5869 38.8546 11.4051C38.6508 11.2058 38.6258 11.2399 38.3405 11.1845C37.6773 11.0554 37.6744 11.0991 37.0013 11.1811C36.659 11.2228 36.0544 11.4196 36.018 11.5122C35.8165 12.0255 37.0944 11.0628 37.5947 11.8734C37.9192 12.3992 37.9498 12.3798 38.2361 12.5453C38.2601 12.5542 38.3702 12.5949 38.5288 12.672C38.8292 12.6647 38.8312 12.6366 39.1185 12.7202L39.2626 12.7681C39.2828 12.7676 39.294 12.7403 39.3139 12.7377C39.4644 12.7182 39.6088 12.7568 39.6336 12.7634C39.7453 12.7933 39.8374 13.0204 39.4116 13.0134C39.2638 13.0109 39.2693 12.9998 39.1176 12.9699C38.8321 12.9589 38.8356 12.9625 38.5473 12.9551C38.5306 12.9546 38.5323 12.9512 38.3455 12.9031L38.1443 12.7663C37.9468 12.7995 37.9282 12.828 37.78 12.7026C37.6027 12.5526 37.6112 12.5348 37.3779 12.4815C36.9858 12.4044 36.9023 12.4964 36.8967 12.497C36.8019 12.5087 36.5746 12.368 36.5162 12.3702C36.4777 12.3717 36.4433 12.3978 36.4049 12.3993C36.2592 12.3919 36.2636 12.3906 36.1183 12.3685C36.0724 12.3615 35.9923 12.3493 35.5455 12.4612C35.4285 12.4905 35.3499 12.6109 35.1508 12.5659C34.8115 12.4891 34.8067 12.517 34.479 12.6289C34.2792 12.697 34.2737 12.6579 34.0868 12.5623L34.0063 12.719C33.9587 12.8896 33.9566 12.8915 33.813 13.0075C33.5173 13.2465 33.5198 13.2465 33.5082 13.2675C33.3155 13.6186 33.2573 13.6063 33.2514 14.0058C33.2468 14.3108 33.0533 14.3856 32.9599 14.5723C32.8205 14.8511 33.1904 14.8491 33.0692 15.2176C32.9975 15.4357 33.0048 15.4359 32.9856 15.6627C32.9648 15.9081 32.7664 15.929 32.7661 16.0296C32.7659 16.1241 33.0505 16.2566 32.8221 16.4888C32.7776 16.5342 32.7843 16.5361 32.7761 16.5984C32.7265 16.9775 32.6663 16.9691 32.6321 17.0459C32.5769 17.1699 32.5343 17.7291 32.5476 17.7841C32.5809 17.9222 33.2168 18.4391 33.4921 18.5573C33.6725 18.6347 33.6537 18.7879 33.663 18.8141C33.7631 19.0964 34.2006 18.909 34.1342 19.2641C34.1092 19.3977 34.1195 19.395 34.1178 19.5289C34.2463 19.6938 34.2797 19.644 34.484 19.7018C34.751 19.7773 34.7996 19.8742 35.0668 19.9808C35.9328 20.3263 35.9386 20.3229 37.2948 21.2795C37.4145 21.3772 37.6895 21.5538 37.7702 21.657C37.9352 21.8678 38.0268 21.7947 38.1382 22.0352C38.1601 22.0824 38.1839 22.1192 38.21 22.1488C38.4099 22.0094 38.5472 21.9246 38.5724 21.9392C38.7901 22.0649 38.851 21.6544 38.8611 21.6149L38.9639 21.386C39.0124 21.2089 39.0179 21.2136 39.0947 21.0027C39.1592 20.8256 39.0539 20.7472 39.0918 20.604C39.1768 20.2819 39.2441 20.2646 39.4916 20.3264C39.556 20.3425 40.1504 20.4909 40.3163 20.4382C40.3871 20.4157 40.3814 20.3996 40.7393 19.4094C40.8419 19.1256 40.7766 19.1139 40.8632 18.8283C40.9431 18.8681 40.8997 18.9108 40.9794 18.9505C41.0239 18.9728 41.0204 18.9151 41.0681 18.9305C41.0888 18.937 41.0821 18.9704 41.0947 18.9874C41.1815 19.1042 41.1992 19.0963 41.2004 19.1673C41.2022 19.2834 40.6356 20.541 40.7402 20.6732C40.9185 20.8985 41.18 20.2847 41.3069 20.1145C41.56 19.7749 41.5049 19.7354 41.7287 19.5594C42.0201 19.3303 42.1698 18.9496 42.3186 18.9429C42.626 18.9292 42.0975 19.5834 42.0969 19.5843C41.6348 20.2834 40.9716 20.9531 41.3148 21.0033C41.4571 21.0241 41.4406 20.9732 41.5118 20.8535C41.6137 20.6821 41.5752 20.6606 41.7149 20.5135C41.9468 20.2138 41.974 20.2341 41.9867 20.2042C42.1185 19.8913 42.2132 19.9028 42.245 19.8842C42.3866 19.5336 42.4235 19.5545 42.6339 19.2374C42.8474 18.9158 43.0291 18.5883 43.0611 18.5306C43.1665 18.3407 43.222 18.3752 43.3231 18.1392C43.3875 17.9887 43.4706 17.9655 43.5003 17.9075C43.6136 17.6863 43.388 17.6301 43.6839 17.0404C43.8055 16.7982 43.733 16.7776 43.8377 16.5586C44.0199 16.1778 43.9926 15.9112 44.3755 15.5692C44.6401 15.3328 44.5498 15.2097 44.6852 15.0736C44.8824 14.8752 44.9119 14.7352 45.0821 14.8573C45.4236 15.1026 45.1757 15.1734 45.0923 15.4451C44.9823 15.8034 44.9704 15.7997 44.9648 15.8317C44.9005 16.1961 45.5474 15.9816 45.5675 15.9803C45.8627 15.9606 45.9717 15.7949 46.2368 15.6945C46.2603 15.6857 46.4688 15.7112 46.3102 15.9125C45.9834 16.3272 45.5184 16.6051 45.2925 16.9308C45.1511 17.1348 45.0754 17.1122 44.99 17.19C44.7973 17.3658 44.8993 17.4779 44.3325 17.7593C44.2249 17.8747 44.2258 17.8742 44.2163 17.8839C44.1967 17.9042 44.196 17.9 44.1753 17.9212C44.1662 17.9282 44.0983 17.9994 43.9804 18.0502C43.6484 18.1934 43.6996 18.2525 43.4757 18.5277C43.049 19.0522 42.9664 19.343 42.7875 19.5406C42.5786 19.7712 42.6096 19.7943 42.3791 20.0067C42.3624 20.0239 42.3437 20.0394 42.3269 20.0565C42.1784 20.2082 42.2697 20.413 41.8791 20.6419C41.8685 20.6625 41.8334 20.6646 41.8229 20.6852C41.8118 20.7069 41.8246 20.7337 41.8201 20.7574C41.815 20.7845 41.8014 20.8095 41.7945 20.8361C41.7602 20.9688 41.7533 20.964 41.7116 21.0932C41.7275 21.0996 41.7344 21.1197 41.7503 21.1261C41.9561 21.2093 41.9593 21.1966 42.1619 21.2913C42.3721 21.3895 42.4025 21.4048 42.3774 21.6274C42.3344 22.0069 41.6924 21.726 41.654 21.7362C41.4599 21.788 41.6542 21.9633 41.3234 22.1935C41.3081 22.2042 41.3108 22.2067 41.1414 22.3381L41.285 22.4461C41.3013 22.4604 41.3008 22.4884 41.3189 22.5007C41.3966 22.5535 41.4926 22.5056 41.44 22.5828C41.432 22.5943 41.4114 22.5637 41.284 22.6698C41.2609 22.6891 41.2959 22.7027 41.2714 22.7232C41.5116 23.0386 41.5924 22.9467 41.6534 22.974C41.6724 22.9825 41.6819 23.0048 41.7008 23.0133C41.7615 23.0036 41.7816 22.91 41.8423 22.9003C41.8779 22.8946 41.8753 22.9788 41.9114 22.9797C41.9279 22.9801 41.8771 22.9161 42.0714 22.8555C42.1541 22.8297 42.2742 22.9367 42.1577 23.0599C42.125 23.0946 42.0707 23.11 42.0454 23.1498C42.0377 23.1619 42.0453 23.1628 42.0435 23.3268L42.0676 23.3753C42.1312 23.3546 42.1391 23.376 42.3175 23.279C42.3451 23.2797 42.3684 23.253 42.396 23.2536C42.3976 23.2537 42.4465 23.3757 42.4463 23.3796C42.4451 23.4087 42.4027 23.4266 42.4015 23.4557C42.4073 23.4664 42.3899 23.5058 42.4566 23.5565C42.6682 23.7171 42.4992 23.76 42.428 23.8039C42.0479 24.0386 42.053 24.0413 41.6734 24.2815C41.2668 24.5389 40.1896 25.5143 39.6766 26.1766C39.6048 26.2694 39.5505 26.274 39.5051 26.2448C39.5449 27.3777 39.4162 29.0334 39.5928 29.2122C39.7546 29.3759 39.3604 29.4027 39.4996 29.5868C39.5426 29.6434 39.775 29.7154 39.353 30.1247C39.2773 30.1979 38.6032 30.2425 38.9178 30.5889C38.9508 30.6252 38.9679 30.6445 38.9822 30.6637C40.1034 30.7825 41.0255 30.9244 41.1222 30.9611C42.2759 31.3996 42.7546 31.8939 43.2397 32.5687C43.597 33.066 44.1194 33.8861 44.7278 33.6907C45.4697 33.4523 45.469 33.5385 46.2143 33.347C47.4036 33.0416 50.4428 34.4349 50.7486 33.9584C50.8752 33.7613 51.5058 33.1018 53.1015 35.7788C54.5291 38.174 54.651 38.0826 56.4338 40.2499C57.5804 41.6437 57.5466 41.6466 57.6579 41.7562C58.362 42.4489 59.3333 42.6029 59.4327 42.652C60.89 43.3708 58.6971 42.772 58.6351 42.7551C55.103 41.7907 55.3551 41.2134 55.0396 41.2081C54.9544 41.2067 54.964 41.2682 55.4668 42.1364C55.7694 42.6587 57.2537 43.6232 56.3462 43.2703C54.8474 42.6873 57.2555 44.0766 57.2725 44.1446C57.4843 44.9904 54.9592 42.6909 54.629 42.5639C53.8949 42.2813 54.6987 42.759 55.2219 43.3252C55.3367 43.4495 55.3985 43.5007 55.3154 43.5581C55.2323 43.6154 55.0118 43.6609 53.7653 42.6039C53.4232 42.3136 53.3965 42.2521 53.3678 42.1753C53.3666 42.1719 53.3633 42.1387 53.3684 42.1301C53.4028 42.0722 53.5118 42.1101 53.578 42.1314C53.6692 42.1607 53.913 42.3712 53.9156 42.3063C53.9225 42.1326 53.5879 42.0138 53.4365 41.8561C53.2439 41.6555 52.8614 41.5032 52.5913 41.2175C52.3241 40.9349 51.4377 39.2212 51.2724 39.3135C51.0194 39.4548 53.1508 42.9169 51.942 41.4749C51.8845 41.4063 51.6604 41.2042 51.5612 41.121C51.2244 40.8382 49.9393 37.4647 49.8398 39.6719C49.8037 40.4728 48.6791 38.3386 48.3806 37.8102C48.1572 37.4151 48.0988 36.9202 48.048 36.5018C47.9194 35.4424 44.9383 34.7101 45.0346 35.3747C45.3189 37.3343 45.4933 37.3178 45.2602 39.2954C45.1811 39.9664 43.911 41.9066 43.3311 42.2663C41.9747 43.1078 45.4905 45.3868 46.4238 45.4688C49.4993 45.7392 47.3755 47.3431 48.0136 50.4551C48.6069 53.3484 49.522 54.249 48.4343 53.8505C47.8763 53.6462 48.2989 55.4606 47.8527 54.821C47.5948 54.4514 47.6059 54.4544 47.2203 54.1967C47.0111 54.0569 47.0355 54.0294 47.0754 54.028L47.0784 54.0287C47.1537 54.0445 47.1091 54.0269 47.0754 54.028C46.9137 53.9934 46.9128 53.9145 46.7075 54.0487C46.6848 54.0634 46.6754 54.0614 46.6757 54.0475C47.2708 53.1081 46.6777 53.9388 46.6757 54.0475ZM11.8227 26.9937C11.8002 26.9225 11.5207 26.0378 11.1557 26.314C10.6675 26.6836 10.5583 26.4999 10.367 26.705C10.1048 26.9861 10.1932 27.1774 9.66228 27.1264C8.89967 27.053 8.9621 27.182 8.24009 27.4462C7.92517 27.5614 8.52399 27.7977 8.561 27.8124C10.3244 28.5082 12.6739 28.5021 12.1082 27.9741C11.696 27.5892 11.8452 27.065 11.8227 26.9937ZM27.7222 27.1622C27.0314 27.6718 26.9834 28.4155 25.6498 28.6909C28.4814 28.7871 30.1123 28.9972 30.121 28.8991C30.2798 27.116 29.3689 26.5582 28.6424 26.8675L27.7222 27.1622ZM40.9648 18.6135C41.0636 17.9506 41.287 17.6498 41.4676 17.1795C41.4802 17.1466 41.4714 17.1485 41.4155 16.9438C41.4151 16.9427 41.4753 16.2916 41.4902 16.2336C41.5677 15.9329 41.4332 15.7314 41.5646 15.4372C41.8032 14.9023 41.6929 14.8738 41.7983 14.5593C41.849 14.4081 42.0929 14.0595 42.1441 14.0038C42.3039 13.8303 42.2989 13.7298 42.4851 13.7658C42.9389 13.8534 42.7567 14.1238 42.7131 14.2392C42.7014 14.2704 42.6558 14.3913 42.7171 14.6519C42.7492 14.7879 42.9709 14.6674 42.9899 14.6571C43.2242 14.5297 43.2029 14.5051 43.4186 14.3501C43.5896 14.2273 43.7779 14.3265 43.7938 14.3489C43.8197 14.3853 43.8753 14.4638 43.513 14.8293C43.2719 15.0725 43.4379 15.1805 43.1351 15.587C42.9743 15.803 43.0239 15.8284 42.8597 16.0429C42.7138 16.2335 42.7612 16.3174 42.5468 16.5307C42.3988 16.6779 42.4438 16.703 42.3458 16.8844C42.3335 16.907 42.2306 17.1617 42.0705 17.1946C42.0169 17.2055 41.9603 17.2023 41.9077 17.2169C41.6088 17.3001 41.4746 18.0331 41.4665 18.0502C41.4511 18.0822 41.432 18.1125 41.4172 18.1448C41.3463 18.3 41.4246 18.4629 41.397 18.613C41.3597 18.8149 41.1555 18.7803 41.1513 18.7781L40.9648 18.6135Z" fill="white"/>
</g>
<path d="M77.713 51.7022H84.338V19.6372H96.104V14.2842H66V19.6372H77.713M99.178 51.7022H105.114V26.1562H99.178M99.178 20.6442H105.114V14.2842H99.178M110.732 51.7022H116.668V14.2842H110.732M122.286 51.7022H128.222V26.1562H122.286M122.286 20.6442H128.222V14.2842H122.286M145.235 47.7272C140.624 47.7272 138.398 43.0632 138.398 38.9822C138.398 34.9012 140.624 30.0782 145.235 30.0782C149.846 30.0782 152.019 34.9012 152.019 38.9822C152.019 43.0632 149.846 47.7272 145.235 47.7272ZM145.235 52.3382C153.503 52.3382 158.008 45.5012 158.008 38.9822C158.008 32.4632 153.503 25.5202 145.235 25.5202C136.967 25.5202 132.409 32.4632 132.409 38.9822C132.409 45.5012 136.967 52.3382 145.235 52.3382ZM162.195 51.7022H168.131V38.5582C168.131 35.0072 168.661 33.3112 169.933 31.8802C171.099 30.6612 172.477 30.0782 174.067 30.0782C176.187 30.0782 177.406 31.0852 177.989 31.9862C178.678 33.0462 178.837 34.2652 178.837 36.5442V51.7022H184.773V36.5442C184.773 33.4172 184.561 31.2442 183.077 29.0712C181.434 26.7922 178.996 25.5202 175.816 25.5202C170.993 25.5202 168.555 28.2762 167.972 29.8132V26.1562H162.195" fill="white"/>
<defs>
<clipPath id="clip0_220_48">
<rect width="60" height="56.62" fill="white"/>
</clipPath>
</defs>
</g></svg>