<svg width="548" height="80" viewBox="0 0 548 80" fill="none" xmlns="http://www.w3.org/2000/svg">
<path d="M13.3471 0C17.04 0 20.1774 1.31091 22.7579 3.93311C25.3828 6.51086 26.6951 9.64452 26.6951 13.3333V19.7738C26.6951 20.5738 27.7129 20.9143 28.1941 20.275L39.4424 5.33366C41.6226 2.40033 44.5368 0.689084 48.1851 0.200195C51.8333 -0.333019 55.1481 0.489144 58.129 2.66684C61.0652 4.88898 62.7779 7.82227 63.2674 11.4665C63.8012 15.1109 62.9561 18.4005 60.7315 21.3338L49.1341 36.801C48.6901 37.393 48.6898 38.2072 49.1333 38.7997L64.0014 58.6671C66.2259 61.6004 67.0719 64.8891 66.538 68.5335C66.0486 72.178 64.3351 75.111 61.3988 77.3333C58.4179 79.5109 55.1033 80.3331 51.4551 79.7998C47.8069 79.311 44.8924 77.6004 42.7123 74.6672L28.1933 55.45C27.7115 54.8123 26.6951 55.1529 26.6951 55.9522V66.6667C26.6951 70.3556 25.383 73.5114 22.7579 76.1337C20.1774 78.7114 17.04 80 13.3471 80C9.6545 80 6.49536 78.7114 3.87043 76.1337C1.28996 73.5114 0 70.3556 0 66.6667V13.3333C1.3048e-05 9.6445 1.28996 6.51086 3.87043 3.93311C6.49536 1.31098 9.6545 9.91893e-05 13.3471 0Z" fill="#81B300"/>
<path fill-rule="evenodd" clip-rule="evenodd" d="M160.743 0.66626C168.13 0.666266 174.425 3.26666 179.63 8.46656C184.836 13.6665 187.439 19.9553 187.439 27.3329C187.439 34.7107 184.836 41.0002 179.63 46.2002C179.442 46.3883 179.255 46.5717 179.066 46.7503C178.426 47.3576 178.309 48.3512 178.838 49.0574L186.038 58.6668C188.262 61.6 189.107 64.889 188.574 68.5333C188.084 72.1776 186.371 75.1108 183.435 77.333C180.455 79.5107 177.14 80.3329 173.492 79.7996C169.843 79.3107 166.929 77.6 164.749 74.6669L155.626 58.7767C155.201 58.0368 154.07 58.3383 154.07 59.1917V66.6664C154.07 70.3553 152.758 73.5112 150.133 76.1334C147.552 78.7112 144.416 79.9998 140.723 79.9998C137.03 79.9998 133.871 78.711 131.246 76.1334C128.666 73.5112 127.375 70.3553 127.375 66.6664V13.9996C127.375 10.3108 128.666 7.1771 131.246 4.59937C133.871 1.97733 137.03 0.666264 140.723 0.66626H160.743ZM157.085 21.6665C154.094 21.6665 151.668 24.0916 151.668 27.0831C151.668 30.0747 154.094 32.4998 157.085 32.4998C160.077 32.4998 162.502 30.0747 162.502 27.0831C162.502 24.0916 160.077 21.6665 157.085 21.6665Z" fill="#81B300"/>
<path d="M252.128 0C255.82 0.000100049 258.956 1.3112 261.537 3.93311C264.161 6.51088 265.475 9.64447 265.475 13.3333V66.6667C265.475 70.3556 264.161 73.5114 261.537 76.1337C258.956 78.7111 255.82 80 252.128 80C248.435 80 245.297 78.6889 242.717 76.0669L220.217 50.4607C219.71 49.8835 218.758 50.2423 218.758 51.0108V66.6667C218.758 70.3556 217.446 73.5114 214.82 76.1337C212.24 78.7113 209.102 80 205.41 80C201.717 80 198.559 78.7114 195.933 76.1337C193.353 73.5114 192.062 70.3556 192.062 66.6667V13.3333C192.062 9.64447 193.353 6.51088 195.933 3.93311C198.559 1.31096 201.717 3.45101e-05 205.41 0C209.102 0 212.262 1.28876 214.886 3.86637L237.319 29.467C237.826 30.0454 238.779 29.6868 238.779 28.9176V13.3333C238.779 9.64447 240.07 6.51088 242.651 3.93311C245.275 1.31112 248.435 0 252.128 0Z" fill="#81B300"/>
<path d="M110.07 0.66626C113.763 0.666365 116.9 1.97726 119.48 4.59937C122.105 7.1771 123.418 10.3108 123.418 13.9996C123.418 17.6884 122.105 20.8444 119.48 23.4665C116.9 26.0442 113.763 27.3328 110.07 27.3329H98.3891C97.4687 27.3329 96.7225 28.0793 96.7225 28.9996C96.7225 29.92 97.4687 30.6662 98.3891 30.6663H106.733C109.314 30.6663 111.405 31.5776 113.007 33.3999C114.608 35.2221 115.409 37.422 115.409 39.9998C115.409 42.5775 114.608 44.7776 113.007 46.5997C111.405 48.4219 109.314 49.3333 106.733 49.3333H98.3891C97.4687 49.3333 96.7225 50.0795 96.7225 51C96.7225 51.9204 97.4687 52.6666 98.3891 52.6666H110.07C113.763 52.6667 116.9 53.9777 119.48 56.5997C122.105 59.1775 123.418 62.3111 123.418 65.9999C123.418 69.6888 122.105 72.8448 119.48 75.4669C116.9 78.0446 113.763 79.3332 110.07 79.3334H83.3746C79.6819 79.3332 76.5228 78.0446 73.8978 75.4669C71.3174 72.8448 70.0275 69.6888 70.0273 65.9999V13.9996C70.0275 10.3108 71.3174 7.1771 73.8978 4.59937C76.5228 1.97727 79.6819 0.66634 83.3746 0.66626H110.07Z" fill="#81B300"/>
<path d="M310.136 0.66626C313.828 0.66626 316.966 1.9773 319.546 4.59937C322.172 7.1771 323.483 10.3108 323.483 13.9996C323.483 17.6885 322.172 20.8444 319.546 23.4665C316.966 26.0444 313.828 27.3329 310.136 27.3329H298.456C297.536 27.3329 296.79 28.0793 296.788 28.9996C296.788 29.9201 297.536 30.6663 298.456 30.6663H306.799C309.381 30.6663 311.471 31.5777 313.072 33.3999C314.675 35.2221 315.475 37.422 315.475 39.9998C315.475 42.5775 314.675 44.7775 313.072 46.5997C311.471 48.4218 309.381 49.3332 306.799 49.3333H298.455C297.535 49.3336 296.788 50.0796 296.788 51C296.79 51.9202 297.535 52.6664 298.455 52.6666H310.136C313.828 52.6666 316.966 53.9775 319.546 56.5997C322.172 59.1775 323.483 62.3111 323.483 65.9999C323.483 69.6888 322.172 72.8448 319.546 75.4669C316.966 78.0445 313.828 79.3334 310.136 79.3334H283.441C279.748 79.3332 276.59 78.0445 273.964 75.4669C271.384 72.8448 270.094 69.6888 270.094 65.9999V13.9996C270.094 10.3108 271.384 7.1771 273.964 4.59937C276.59 1.97731 279.748 0.666278 283.441 0.66626H310.136Z" fill="#81B300"/>
<path d="M340.789 0C344.481 0 347.619 1.31109 350.199 3.93311C352.825 6.51088 354.137 9.64447 354.137 13.3333V51.0002C354.137 51.9206 354.883 52.6668 355.804 52.6668H367.485C371.177 52.6669 374.315 53.9779 376.895 56.5999C379.519 59.1778 380.832 62.3114 380.832 66.0001C380.832 69.689 379.519 72.845 376.895 75.4672C374.315 78.0449 371.177 79.3335 367.485 79.3336H340.789C337.096 79.3335 333.938 78.0446 331.313 75.4672C328.732 72.845 327.441 69.689 327.441 66.0001V13.3333C327.441 9.64447 328.732 6.51088 331.313 3.93311C333.938 1.31121 337.096 9.30964e-05 340.789 0Z" fill="#81B300"/>
<path d="M370.48 0C376.197 0 380.832 4.62944 380.832 10.3402C380.832 16.051 376.197 20.6803 370.48 20.6803C364.764 20.6803 360.129 16.0509 360.129 10.3402C360.129 4.62951 364.764 0.000109836 370.48 0Z" fill="#81B300"/>
</svg>
