<svg width="548" height="86" viewBox="0 0 548 86" fill="none" xmlns="http://www.w3.org/2000/svg">
<path fill-rule="evenodd" clip-rule="evenodd" d="M83.5367 2.58H2.58361V83.42H83.5367V2.58ZM0 0V86H86.1203V0H0Z" fill="white"/>
<path d="M30.9336 62.1111V23.889H44.0567C49.5246 23.889 53.899 28.2572 53.899 33.7174V35.9016C53.899 38.4136 52.9694 40.7614 51.3837 42.4542C53.5709 44.2559 54.9927 46.9862 54.9927 50.0986V52.2827C54.9927 57.7429 50.6183 62.1111 45.1502 62.1111H30.9336ZM36.4014 56.651H45.1502C47.6108 56.651 49.5246 54.7399 49.5246 52.2827V50.0986C49.5246 47.6414 47.6108 45.7303 45.1502 45.7303H36.4014V56.651ZM36.4014 40.2698H44.0567C46.5174 40.2698 48.4311 38.3588 48.4311 35.9016V33.7174C48.4311 31.2605 46.5174 29.3494 44.0567 29.3494H36.4014V40.2698Z" fill="white"/>
<path d="M109.945 57.3331V29.0703H119.648C123.692 29.0703 126.926 32.3004 126.926 36.3378V37.9528C126.926 39.8104 126.239 41.5465 125.066 42.7981C126.684 44.1303 127.735 46.1491 127.735 48.4507V50.0656C127.735 54.1033 124.5 57.3331 120.457 57.3331H109.945ZM113.988 53.2957H120.457C122.277 53.2957 123.692 51.8826 123.692 50.0656V48.4507C123.692 46.6337 122.277 45.2206 120.457 45.2206H113.988V53.2957ZM113.988 41.1829H119.648C121.468 41.1829 122.883 39.7698 122.883 37.9528V36.3378C122.883 34.5211 121.468 33.1077 119.648 33.1077H113.988V41.1829Z" fill="white"/>
<path d="M131.941 57.3336V36.7419H135.985V39.8508L140.553 36.7419H141.727C145.446 36.7419 148.519 39.9721 148.519 44.0095V45.6244H144.475V44.0095C144.475 42.233 143.344 40.7794 141.727 40.7794H141.362L135.985 44.3728V57.3336H131.941Z" fill="white"/>
<path d="M158.351 57.3336C154.309 57.3336 151.074 54.1438 151.074 50.1063V44.0095C151.074 39.9721 154.309 36.7419 158.351 36.7419H161.586C165.629 36.7419 168.864 39.9721 168.864 44.0095V50.1063C168.864 54.1438 165.629 57.3336 161.586 57.3336H158.351ZM155.118 50.1063C155.118 51.9231 156.532 53.2556 158.351 53.2959H161.586C163.406 53.2959 164.821 51.9231 164.821 50.1063V44.0095C164.821 42.1925 163.406 40.7794 161.586 40.7794H158.351C156.532 40.7794 155.118 42.1925 155.118 44.0095V50.1063Z" fill="white"/>
<path d="M176.236 57.3336L172.395 46.0283V36.7419H176.438V44.8171L178.459 51.2367L181.896 40.3757H185.212L188.648 51.2367L190.67 44.8171V36.7419H194.713V46.0283L190.872 57.3336H187.435L183.554 47.6836L179.673 57.3336H176.236Z" fill="white"/>
<path d="M204.684 57.3336C200.762 57.3336 197.852 54.7898 197.852 51.3579V50.5503H201.894V51.3579C201.894 52.6501 202.946 53.5786 204.684 53.5786H208.363C210.264 53.5786 211.194 52.8113 211.194 51.6404C211.194 47.0781 198.134 50.0255 198.134 42.1925C198.134 38.9223 200.762 36.7419 204.603 36.7419H208.081C211.72 36.7419 214.55 39.3663 214.55 42.7579V43.1213H210.506V42.7579C210.506 41.4658 209.496 40.4969 208.081 40.4969H204.603C202.905 40.4969 202.177 41.1833 202.177 42.1925C202.177 45.4629 215.237 43.404 215.237 51.6404C215.237 55.032 212.447 57.3336 208.363 57.3336H204.684Z" fill="white"/>
<path d="M225.751 57.3336C221.748 57.3336 218.473 54.0226 218.473 50.0254V44.0095C218.473 39.9721 221.748 36.7419 225.751 36.7419H228.985C232.907 36.7419 236.061 39.77 236.262 43.6058V47.9663H222.516V50.0254C222.516 51.8019 223.971 53.2556 225.751 53.2556H228.985C230.764 53.2556 232.22 51.8019 232.22 50.0254V49.6218H236.262V50.0254C236.262 54.0226 233.029 57.3336 228.985 57.3336H225.751ZM222.516 44.7362H232.22V44.0095C232.22 42.1925 230.804 40.7794 228.985 40.7794H225.751C223.931 40.7794 222.516 42.233 222.516 44.0095V44.7362Z" fill="white"/>
<path d="M240.645 57.3336V36.7419H244.687V39.8508L249.257 36.7419H250.429C254.148 36.7419 257.221 39.9721 257.221 44.0095V45.6244H253.178V44.0095C253.178 42.233 252.046 40.7794 250.429 40.7794H250.065L244.687 44.3728V57.3336H240.645Z" fill="white"/>
<path d="M267.864 57.3335L264.508 55.0725V57.3335H260.465V28.6667H264.508V39.0031L267.864 36.7421H270.979C274.981 36.7421 278.256 39.972 278.256 44.0097V50.066C278.256 54.0631 274.981 57.3335 270.979 57.3335H267.864ZM264.508 50.1872L269.117 53.2961H270.979C272.758 53.2961 274.211 51.8424 274.211 50.066V44.0097C274.211 42.2332 272.758 40.7796 270.979 40.7796H269.117L264.508 43.8885V50.1872Z" fill="white"/>
<path d="M289.246 57.3336C285.241 57.3336 281.969 54.0629 281.969 50.0658V44.0095C281.969 39.9721 285.241 36.7419 289.246 36.7419H292.36L295.713 39.0029V36.7419H299.758V57.3336H295.713V55.0726L292.36 57.3336H289.246ZM286.011 50.0658C286.011 51.8425 287.467 53.2959 289.246 53.2959H291.106L295.713 50.187V43.8885L291.106 40.7794H289.246C287.467 40.7794 286.011 42.233 286.011 44.0095V50.0658Z" fill="white"/>
<path d="M310.626 57.3336C306.705 57.3336 303.793 54.7898 303.793 51.3579V50.5503H307.835V51.3579C307.835 52.6501 308.888 53.5786 310.626 53.5786H314.305C316.205 53.5786 317.136 52.8113 317.136 51.6404C317.136 47.0781 304.076 50.0255 304.076 42.1925C304.076 38.9223 306.705 36.7419 310.545 36.7419H314.022C317.661 36.7419 320.492 39.3663 320.492 42.7579V43.1213H316.447V42.7579C316.447 41.4658 315.438 40.4969 314.022 40.4969H310.545C308.847 40.4969 308.118 41.1833 308.118 42.1925C308.118 45.4629 321.179 43.404 321.179 51.6404C321.179 55.032 318.388 57.3336 314.305 57.3336H310.626Z" fill="white"/>
<path d="M331.691 57.3336C327.689 57.3336 324.414 54.0226 324.414 50.0254V44.0095C324.414 39.9721 327.689 36.7419 331.691 36.7419H334.926C338.85 36.7419 342.001 39.77 342.206 43.6058V47.9663H328.456V50.0254C328.456 51.8019 329.912 53.2556 331.691 53.2556H334.926C336.705 53.2556 338.161 51.8019 338.161 50.0254V49.6218H342.206V50.0254C342.206 54.0226 338.971 57.3336 334.926 57.3336H331.691ZM328.456 44.7362H338.161V44.0095C338.161 42.1925 336.745 40.7794 334.926 40.7794H331.691C329.872 40.7794 328.456 42.233 328.456 44.0095V44.7362Z" fill="white"/>
</svg>
