<svg viewBox="0 0 548 85" width="548" height="85" fill="none" xmlns="http://www.w3.org/2000/svg"><g transform="translate(0.0000, 0.0000) scale(0.936750)">
<path d="M17.7838 44.4521C16.0064 44.4521 14.2734 43.3412 13.6069 41.5638L0.3208 6.01581C-0.523465 3.70519 0.631846 1.17239 2.94247 0.283691C5.25309 -0.560575 7.78588 0.594736 8.67458 2.90536L21.9607 38.4534C22.8049 40.764 21.6496 43.2968 19.339 44.1855C18.8058 44.3632 18.317 44.4521 17.7838 44.4521Z" fill="#FBBC04"/>
<path d="M75.5498 44.4518C74.6611 44.4518 73.7279 44.1851 72.9281 43.6075L36.047 16.7687L44.1342 38.453C44.9785 40.7636 43.8232 43.2964 41.5125 44.1851C39.2019 45.0738 36.6691 43.8741 35.7804 41.5635L22.5388 6.01547C21.8723 4.19363 22.4499 2.10519 24.0051 0.905442C25.5604 -0.294303 27.7377 -0.294303 29.2929 0.861007L78.127 36.409C80.1266 37.8754 80.5265 40.6303 79.1046 42.6299C78.2159 43.8297 76.8828 44.4518 75.5053 44.4518H75.5498Z" fill="#EA4335"/>
<path d="M67.9953 40.0078L36.0021 63.2918L44.1337 41.563C44.3115 41.0298 44.4003 40.541 44.4003 40.0078H35.2023L22.4939 74.0006C21.8273 75.8224 22.405 77.9109 23.9602 79.1106C24.76 79.7327 25.6932 79.9993 26.6263 79.9993C27.5595 79.9993 28.4482 79.7327 29.248 79.1551L78.1265 43.6071C79.3262 42.7184 79.9483 41.3853 79.9483 40.0078H67.9509H67.9953Z" fill="#4285F4"/>
<path d="M13.0287 40.0078L0.275878 74.0006C-0.568387 76.3112 0.586924 78.844 2.89754 79.7327C3.43076 79.9105 3.91955 79.9993 4.45277 79.9993C6.23017 79.9993 7.96314 78.8885 8.62966 77.1111L21.9602 41.563C22.1379 41.0298 22.2268 40.4966 22.2268 40.0078H13.0287Z" fill="#34A853"/>
<path d="M138.137 60.0345C135.262 60.0345 132.555 59.5118 130.017 58.4665C127.478 57.4212 125.238 55.9652 123.297 54.0985C121.393 52.1945 119.881 49.9732 118.761 47.4345C117.678 44.8585 117.137 42.0772 117.137 39.0905C117.137 36.1038 117.678 33.3412 118.761 30.8025C119.881 28.2265 121.393 26.0051 123.297 24.1385C125.238 22.2345 127.478 20.7598 130.017 19.7145C132.555 18.6692 135.262 18.1465 138.137 18.1465C141.198 18.1465 144.017 18.6878 146.593 19.7705C149.206 20.8531 151.39 22.3651 153.145 24.3065L148.889 28.5065C148.03 27.5358 147.041 26.7145 145.921 26.0425C144.838 25.3705 143.643 24.8665 142.337 24.5305C141.03 24.1571 139.63 23.9705 138.137 23.9705C136.158 23.9705 134.273 24.3251 132.481 25.0345C130.689 25.7438 129.102 26.7705 127.721 28.1145C126.377 29.4212 125.313 31.0078 124.529 32.8745C123.745 34.7038 123.353 36.7758 123.353 39.0905C123.353 41.4052 123.745 43.4958 124.529 45.3625C125.35 47.1918 126.433 48.7785 127.777 50.1225C129.158 51.4292 130.745 52.4372 132.537 53.1465C134.329 53.8558 136.214 54.2105 138.193 54.2105C140.022 54.2105 141.721 53.9492 143.289 53.4265C144.894 52.9038 146.294 52.1572 147.489 51.1865C148.683 50.2158 149.654 49.0398 150.401 47.6585C151.147 46.2398 151.614 44.6532 151.801 42.8985H138.081V37.4665H157.569C157.643 37.9145 157.718 38.4372 157.793 39.0345C157.867 39.5945 157.905 40.1358 157.905 40.6585V40.7145C157.905 43.5892 157.401 46.2212 156.393 48.6105C155.422 50.9998 154.059 53.0532 152.305 54.7705C150.55 56.4505 148.459 57.7572 146.033 58.6905C143.643 59.5865 141.011 60.0345 138.137 60.0345ZM177.686 60.0345C174.737 60.0345 172.142 59.3625 169.902 58.0185C167.662 56.6745 165.908 54.8638 164.638 52.5865C163.369 50.2718 162.734 47.6958 162.734 44.8585C162.734 42.0212 163.369 39.4638 164.638 37.1865C165.908 34.8718 167.662 33.0425 169.902 31.6985C172.142 30.3545 174.737 29.6825 177.686 29.6825C180.598 29.6825 183.174 30.3732 185.414 31.7545C187.654 33.0985 189.409 34.9092 190.678 37.1865C191.948 39.4638 192.582 42.0212 192.582 44.8585C192.582 47.6958 191.948 50.2718 190.678 52.5865C189.409 54.8638 187.654 56.6745 185.414 58.0185C183.174 59.3625 180.598 60.0345 177.686 60.0345ZM177.686 54.4905C179.254 54.4905 180.71 54.1172 182.054 53.3705C183.398 52.5865 184.481 51.4852 185.302 50.0665C186.161 48.6105 186.59 46.8745 186.59 44.8585C186.59 42.8425 186.161 41.1252 185.302 39.7065C184.481 38.2505 183.398 37.1492 182.054 36.4025C180.71 35.6185 179.254 35.2265 177.686 35.2265C176.118 35.2265 174.644 35.6185 173.262 36.4025C171.918 37.1492 170.817 38.2505 169.958 39.7065C169.137 41.1252 168.726 42.8425 168.726 44.8585C168.726 46.8745 169.137 48.6105 169.958 50.0665C170.817 51.4852 171.937 52.5865 173.318 53.3705C174.7 54.1172 176.156 54.4905 177.686 54.4905ZM211.428 60.0345C208.479 60.0345 205.884 59.3625 203.644 58.0185C201.404 56.6745 199.65 54.8638 198.38 52.5865C197.111 50.2718 196.476 47.6958 196.476 44.8585C196.476 42.0212 197.111 39.4638 198.38 37.1865C199.65 34.8718 201.404 33.0425 203.644 31.6985C205.884 30.3545 208.479 29.6825 211.428 29.6825C214.34 29.6825 216.916 30.3732 219.157 31.7545C221.397 33.0985 223.152 34.9092 224.421 37.1865C225.69 39.4638 226.325 42.0212 226.325 44.8585C226.325 47.6958 225.69 50.2718 224.421 52.5865C223.152 54.8638 221.397 56.6745 219.157 58.0185C216.916 59.3625 214.34 60.0345 211.428 60.0345ZM211.428 54.4905C212.996 54.4905 214.452 54.1172 215.796 53.3705C217.141 52.5865 218.224 51.4852 219.045 50.0665C219.904 48.6105 220.333 46.8745 220.333 44.8585C220.333 42.8425 219.904 41.1252 219.045 39.7065C218.224 38.2505 217.141 37.1492 215.796 36.4025C214.452 35.6185 212.996 35.2265 211.428 35.2265C209.86 35.2265 208.386 35.6185 207.004 36.4025C205.66 37.1492 204.559 38.2505 203.7 39.7065C202.879 41.1252 202.468 42.8425 202.468 44.8585C202.468 46.8745 202.879 48.6105 203.7 50.0665C204.559 51.4852 205.679 52.5865 207.06 53.3705C208.442 54.1172 209.898 54.4905 211.428 54.4905ZM244.611 72.1305C242.11 72.1305 239.944 71.7198 238.115 70.8985C236.323 70.1145 234.867 69.0878 233.747 67.8185C232.627 66.5865 231.824 65.3172 231.339 64.0105L236.939 61.6585C237.536 63.1518 238.488 64.3652 239.795 65.2985C241.139 66.2692 242.744 66.7545 244.611 66.7545C247.262 66.7545 249.334 65.9705 250.827 64.4025C252.32 62.8345 253.067 60.6132 253.067 57.7385V54.9945H252.731C251.835 56.3012 250.603 57.3652 249.035 58.1865C247.467 59.0078 245.656 59.4185 243.603 59.4185C241.176 59.4185 238.936 58.8025 236.883 57.5705C234.867 56.3385 233.243 54.6212 232.011 52.4185C230.816 50.1785 230.219 47.5652 230.219 44.5785C230.219 41.5545 230.816 38.9412 232.011 36.7385C233.243 34.4985 234.867 32.7625 236.883 31.5305C238.936 30.2985 241.176 29.6825 243.603 29.6825C245.656 29.6825 247.467 30.0932 249.035 30.9145C250.603 31.6985 251.835 32.7812 252.731 34.1625H253.067V30.5785H258.835V57.6265C258.835 60.7252 258.219 63.3572 256.987 65.5225C255.792 67.6878 254.131 69.3305 252.003 70.4505C249.875 71.5705 247.411 72.1305 244.611 72.1305ZM244.667 53.9305C246.16 53.9305 247.542 53.5758 248.811 52.8665C250.118 52.1198 251.144 51.0558 251.891 49.6745C252.675 48.2558 253.067 46.5572 253.067 44.5785C253.067 42.4878 252.675 40.7518 251.891 39.3705C251.144 37.9892 250.118 36.9438 248.811 36.2345C247.542 35.5252 246.16 35.1705 244.667 35.1705C243.174 35.1705 241.774 35.5252 240.467 36.2345C239.198 36.9438 238.171 38.0078 237.387 39.4265C236.603 40.8078 236.211 42.5252 236.211 44.5785C236.211 46.5945 236.603 48.3118 237.387 49.7305C238.171 51.1118 239.198 52.1572 240.467 52.8665C241.774 53.5758 243.174 53.9305 244.667 53.9305ZM265.801 59.1385V19.0425H271.849V59.1385H265.801ZM291.92 60.0345C289.12 60.0345 286.618 59.3812 284.416 58.0745C282.213 56.7678 280.477 54.9758 279.208 52.6985C277.976 50.4212 277.36 47.8265 277.36 44.9145C277.36 42.1892 277.957 39.6692 279.152 37.3545C280.346 35.0398 282.008 33.1918 284.136 31.8105C286.301 30.3918 288.784 29.6825 291.584 29.6825C294.533 29.6825 297.034 30.3172 299.088 31.5865C301.178 32.8558 302.765 34.5918 303.848 36.7945C304.93 38.9972 305.472 41.4798 305.472 44.2425C305.472 44.6532 305.453 45.0265 305.416 45.3625C305.416 45.6985 305.397 45.9598 305.36 46.1465H280.776V41.6105H299.48C299.442 40.9012 299.256 40.1545 298.92 39.3705C298.584 38.5492 298.098 37.8025 297.464 37.1305C296.829 36.4585 296.026 35.9172 295.056 35.5065C294.085 35.0585 292.946 34.8345 291.64 34.8345C289.997 34.8345 288.541 35.2638 287.272 36.1225C286.002 36.9438 285.013 38.1012 284.304 39.5945C283.594 41.0878 283.24 42.8238 283.24 44.8025C283.24 46.9678 283.65 48.7785 284.472 50.2345C285.293 51.6905 286.376 52.7918 287.72 53.5385C289.064 54.2852 290.52 54.6585 292.088 54.6585C293.992 54.6585 295.578 54.2292 296.848 53.3705C298.154 52.4745 299.181 51.3732 299.928 50.0665L304.912 52.4745C303.68 54.7145 302 56.5438 299.872 57.9625C297.744 59.3438 295.093 60.0345 291.92 60.0345ZM343.869 60.0345C340.92 60.0345 338.176 59.5118 335.637 58.4665C333.098 57.3838 330.877 55.9092 328.973 54.0425C327.106 52.1385 325.632 49.9172 324.549 47.3785C323.504 44.8025 322.981 42.0398 322.981 39.0905C322.981 36.1038 323.504 33.3412 324.549 30.8025C325.632 28.2638 327.106 26.0611 328.973 24.1945C330.877 22.2905 333.098 20.8158 335.637 19.7705C338.176 18.6878 340.92 18.1465 343.869 18.1465C345.96 18.1465 347.901 18.4078 349.693 18.9305C351.485 19.4531 353.128 20.1998 354.621 21.1705C356.114 22.1411 357.477 23.3171 358.709 24.6985L354.397 28.8985C353.501 27.8158 352.53 26.9198 351.485 26.2105C350.44 25.4638 349.282 24.9038 348.013 24.5305C346.781 24.1571 345.418 23.9705 343.925 23.9705C341.237 23.9705 338.773 24.6051 336.533 25.8745C334.293 27.1065 332.501 28.8425 331.157 31.0825C329.85 33.3225 329.197 35.9918 329.197 39.0905C329.197 42.1518 329.85 44.8212 331.157 47.0985C332.501 49.3385 334.293 51.0932 336.533 52.3625C338.773 53.5945 341.237 54.2105 343.925 54.2105C346.352 54.2105 348.498 53.7065 350.365 52.6985C352.269 51.6905 353.949 50.3092 355.405 48.5545L359.829 52.8105C358.597 54.2665 357.16 55.5358 355.517 56.6185C353.874 57.7012 352.082 58.5412 350.141 59.1385C348.2 59.7358 346.109 60.0345 343.869 60.0345ZM365.442 59.1385V19.0425H371.49V59.1385H365.442ZM391.952 60.0345C389.003 60.0345 386.408 59.3625 384.168 58.0185C381.928 56.6745 380.174 54.8638 378.904 52.5865C377.635 50.2718 377 47.6958 377 44.8585C377 42.0212 377.635 39.4638 378.904 37.1865C380.174 34.8718 381.928 33.0425 384.168 31.6985C386.408 30.3545 389.003 29.6825 391.952 29.6825C394.864 29.6825 397.44 30.3732 399.68 31.7545C401.92 33.0985 403.675 34.9092 404.944 37.1865C406.214 39.4638 406.848 42.0212 406.848 44.8585C406.848 47.6958 406.214 50.2718 404.944 52.5865C403.675 54.8638 401.92 56.6745 399.68 58.0185C397.44 59.3625 394.864 60.0345 391.952 60.0345ZM391.952 54.4905C393.52 54.4905 394.976 54.1172 396.32 53.3705C397.664 52.5865 398.747 51.4852 399.568 50.0665C400.427 48.6105 400.856 46.8745 400.856 44.8585C400.856 42.8425 400.427 41.1252 399.568 39.7065C398.747 38.2505 397.664 37.1492 396.32 36.4025C394.976 35.6185 393.52 35.2265 391.952 35.2265C390.384 35.2265 388.91 35.6185 387.528 36.4025C386.184 37.1492 385.083 38.2505 384.224 39.7065C383.403 41.1252 382.992 42.8425 382.992 44.8585C382.992 46.8745 383.403 48.6105 384.224 50.0665C385.083 51.4852 386.203 52.5865 387.584 53.3705C388.966 54.1172 390.422 54.4905 391.952 54.4905ZM422.615 60.0345C419.105 60.0345 416.455 58.9892 414.663 56.8985C412.908 54.7705 412.031 51.8958 412.031 48.2745V30.5785H418.079V47.4345C418.079 49.8238 418.639 51.5972 419.759 52.7545C420.916 53.9118 422.353 54.4905 424.071 54.4905C425.639 54.4905 426.983 54.0985 428.103 53.3145C429.223 52.4932 430.081 51.4292 430.679 50.1225C431.313 48.8158 431.631 47.4158 431.631 45.9225V30.5785H437.623V59.1385H431.967V55.2745H431.631C431.108 56.1705 430.38 56.9732 429.447 57.6825C428.513 58.3918 427.468 58.9518 426.311 59.3625C425.153 59.8105 423.921 60.0345 422.615 60.0345ZM456.838 60.0345C454.262 60.0345 451.928 59.3812 449.838 58.0745C447.747 56.7678 446.104 54.9758 444.91 52.6985C443.715 50.4212 443.118 47.8078 443.118 44.8585C443.118 41.9092 443.715 39.2958 444.91 37.0185C446.104 34.7412 447.747 32.9492 449.838 31.6425C451.928 30.3358 454.262 29.6825 456.838 29.6825C458.331 29.6825 459.675 29.9065 460.87 30.3545C462.064 30.8025 463.091 31.3998 463.95 32.1465C464.846 32.8558 465.536 33.6212 466.022 34.4425H466.358L466.022 30.4665V19.0425H472.014V59.1385H466.358V55.3305H466.022C465.536 56.1145 464.846 56.8798 463.95 57.6265C463.091 58.3358 462.064 58.9145 460.87 59.3625C459.675 59.8105 458.331 60.0345 456.838 60.0345ZM457.734 54.4905C459.227 54.4905 460.627 54.0985 461.934 53.3145C463.278 52.5305 464.342 51.4292 465.126 50.0105C465.947 48.5545 466.358 46.8372 466.358 44.8585C466.358 42.8798 465.947 41.1812 465.126 39.7625C464.342 38.3065 463.278 37.1865 461.934 36.4025C460.627 35.6185 459.227 35.2265 457.734 35.2265C456.24 35.2265 454.84 35.6185 453.534 36.4025C452.227 37.1865 451.163 38.3065 450.342 39.7625C449.52 41.1812 449.11 42.8798 449.11 44.8585C449.11 46.7998 449.52 48.4985 450.342 49.9545C451.163 51.4105 452.227 52.5305 453.534 53.3145C454.84 54.0985 456.24 54.4905 457.734 54.4905ZM493.106 59.1385V19.0425H507.162C509.626 19.0425 511.829 19.5651 513.77 20.6105C515.712 21.6558 517.242 23.0931 518.362 24.9225C519.52 26.7518 520.098 28.8798 520.098 31.3065C520.098 32.9118 519.762 34.4425 519.09 35.8985C518.456 37.3545 517.522 38.6612 516.29 39.8185C515.096 40.9385 513.621 41.8158 511.866 42.4505C510.149 43.0852 508.208 43.4025 506.042 43.4025H496.466V37.7465H506.994C508.264 37.7465 509.402 37.4665 510.41 36.9065C511.456 36.3465 512.296 35.5812 512.93 34.6105C513.565 33.6025 513.882 32.4825 513.882 31.2505C513.882 30.1678 513.621 29.1412 513.098 28.1705C512.576 27.1625 511.81 26.3598 510.802 25.7625C509.832 25.1278 508.637 24.8105 507.218 24.8105H499.266V59.1385H493.106ZM502.402 40.8265L509.402 40.7145L521.946 58.8025V59.1385H514.834L502.402 40.8265ZM536.911 60.0345C533.402 60.0345 530.751 58.9892 528.959 56.8985C527.205 54.7705 526.327 51.8958 526.327 48.2745V30.5785H532.375V47.4345C532.375 49.8238 532.935 51.5972 534.055 52.7545C535.213 53.9118 536.65 54.4905 538.367 54.4905C539.935 54.4905 541.279 54.0985 542.399 53.3145C543.519 52.4932 544.378 51.4292 544.975 50.1225C545.61 48.8158 545.927 47.4158 545.927 45.9225V30.5785H551.919V59.1385H546.263V55.2745H545.927C545.405 56.1705 544.677 56.9732 543.743 57.6825C542.81 58.3918 541.765 58.9518 540.607 59.3625C539.45 59.8105 538.218 60.0345 536.911 60.0345ZM558.926 59.1385V30.5785H564.638V34.4985H564.974C565.796 33.1172 567.009 31.9785 568.614 31.0825C570.257 30.1492 572.049 29.6825 573.99 29.6825C577.5 29.6825 580.132 30.7278 581.886 32.8185C583.641 34.8718 584.518 37.6345 584.518 41.1065V59.1385H578.526V41.8905C578.526 39.5758 577.948 37.8958 576.79 36.8505C575.633 35.7678 574.121 35.2265 572.254 35.2265C570.798 35.2265 569.529 35.6372 568.446 36.4585C567.364 37.2425 566.505 38.2878 565.87 39.5945C565.273 40.9012 564.974 42.3012 564.974 43.7945V59.1385H558.926Z" fill="white"/>
</g></svg>