<svg width="285" height="85" viewBox="0 0 285 85" fill="none" xmlns="http://www.w3.org/2000/svg">
<path d="M0 74.422C14.1041 88.5259 36.9713 88.5259 51.0753 74.422C65.1792 60.3179 65.1792 37.4507 51.0753 23.3467L44.6908 29.731C55.2689 40.3091 55.2689 57.4595 44.6908 68.0374C34.1129 78.6155 16.9624 78.6155 6.38435 68.0374L0 74.422Z" fill="#34D399"/>
<path d="M12.7695 61.6533C19.8215 68.7052 31.255 68.7052 38.3071 61.6533C45.3591 54.6013 45.3591 43.1677 38.3071 36.1157L31.9228 42.5001C35.4488 46.026 35.4488 51.7428 31.9228 55.2689C28.3966 58.7949 22.6799 58.7949 19.1539 55.2689L12.7695 61.6533Z" fill="#34D399"/>
<path d="M63.8447 10.578C49.7406 -3.52599 26.8734 -3.52599 12.7695 10.578C-1.33461 24.682 -1.33461 47.5492 12.7695 61.6533L19.1537 55.2689C8.57589 44.6908 8.57589 27.5404 19.1537 16.9625C29.7318 6.38441 46.8822 6.38441 57.4601 16.9625L63.8447 10.578Z" fill="#6EE6B7"/>
<path d="M51.0768 23.3466C44.0249 16.2946 32.591 16.2946 25.5391 23.3466C18.487 30.3987 18.487 41.8322 25.5391 48.8841L31.9234 42.4998C28.3975 38.9738 28.3975 33.2571 31.9234 29.7309C35.4494 26.2049 41.1662 26.2049 44.6923 29.7309L51.0768 23.3466Z" fill="#6EE6B7"/>
<path d="M106.123 47.5526C106.123 52.0543 102.91 54.2859 99.8322 54.2859C96.4848 54.2859 94.2532 51.9196 94.2532 48.1682V30.4311H87.2891V49.2456C87.2891 56.3443 91.3291 60.365 97.1389 60.365C101.564 60.365 104.68 58.0372 106.027 54.7283H106.334V59.9802H113.087V30.4311H106.123V47.5526ZM119.165 71.0612H126.129V55.3247H126.417C127.514 57.4794 129.803 60.4996 134.882 60.4996C141.846 60.4996 147.059 54.9784 147.059 45.2441C147.059 35.3943 141.692 30.0463 134.863 30.0463C129.649 30.0463 127.475 33.182 126.417 35.3174H126.013V30.4311H119.165V71.0612ZM125.994 45.2057C125.994 39.4729 128.457 35.76 132.939 35.76C137.575 35.76 139.961 39.7036 139.961 45.2057C139.961 50.7462 137.537 54.7861 132.939 54.7861C128.495 54.7861 125.994 50.9385 125.994 45.2057ZM175.294 38.2415C174.332 33.2398 170.331 30.0463 163.405 30.0463C156.287 30.0463 151.439 33.5475 151.459 39.0111C151.439 43.3203 154.094 46.1676 159.769 47.341L164.81 48.399C167.522 48.9955 168.792 50.0919 168.792 51.7657C168.792 53.7857 166.599 55.3054 163.29 55.3054C160.096 55.3054 158.019 53.9204 157.422 51.2655L150.632 51.9196C151.497 57.3447 156.057 60.5574 163.309 60.5574C170.697 60.5574 175.91 56.7291 175.929 51.1308C175.91 46.9177 173.197 44.34 167.618 43.1279L162.578 42.0506C159.577 41.3774 158.384 40.3385 158.403 38.6263C158.384 36.6257 160.597 35.2405 163.502 35.2405C166.714 35.2405 168.407 36.9912 168.946 38.9342L175.294 38.2415ZM195.343 30.4311H189.515V23.3515H182.55V30.4311H178.356V35.8176H182.55V52.2466C182.512 57.8064 186.552 60.538 191.785 60.3842C193.766 60.3266 195.131 59.9418 195.883 59.6917L194.709 54.2474C194.324 54.3436 193.535 54.5166 192.67 54.5166C190.918 54.5166 189.515 53.9011 189.515 51.0923V35.8176H195.343V30.4311ZM208.588 60.5767C213.223 60.5767 215.993 58.4027 217.263 55.921H217.494V59.9802H224.19V40.2038C224.19 32.3933 217.821 30.0463 212.185 30.0463C205.971 30.0463 201.201 32.8166 199.66 38.203L206.163 39.1265C206.856 37.1066 208.817 35.3752 212.223 35.3752C215.455 35.3752 217.225 37.0296 217.225 39.9344V40.05C217.225 42.0506 215.129 42.1469 209.915 42.7047C204.182 43.3203 198.7 45.0325 198.7 51.6888C198.7 57.4985 202.95 60.5767 208.588 60.5767ZM210.396 55.4593C207.49 55.4593 205.413 54.132 205.413 51.5734C205.413 48.8992 207.741 47.7834 210.858 47.341C212.685 47.0909 216.34 46.6292 217.245 45.8982V49.3803C217.245 52.6699 214.589 55.4593 210.396 55.4593ZM253.463 38.2415C252.501 33.2398 248.499 30.0463 241.574 30.0463C234.456 30.0463 229.607 33.5475 229.627 39.0111C229.607 43.3203 232.264 46.1676 237.937 47.341L242.979 48.399C245.691 48.9955 246.961 50.0919 246.961 51.7657C246.961 53.7857 244.767 55.3054 241.459 55.3054C238.264 55.3054 236.188 53.9204 235.592 51.2655L228.8 51.9196C229.665 57.3447 234.225 60.5574 241.479 60.5574C248.864 60.5574 254.079 56.7291 254.097 51.1308C254.079 46.9177 251.365 44.34 245.787 43.1279L240.747 42.0506C237.746 41.3774 236.552 40.3385 236.572 38.6263C236.552 36.6257 238.764 35.2405 241.67 35.2405C244.882 35.2405 246.576 36.9912 247.114 38.9342L253.463 38.2415ZM265.721 42.6662C265.721 38.3955 268.376 35.933 272.108 35.933C275.763 35.933 277.917 38.2608 277.917 42.2431V59.9802H284.882V41.1658C284.882 34.0286 280.841 30.0463 274.705 30.0463C270.165 30.0463 267.28 32.1047 265.913 35.4521H265.568V20.5813H258.756V59.9802H265.721V42.6662Z" fill="black"/>
</svg>
