<svg width="548" height="86" viewBox="0 0 548 86" fill="none" xmlns="http://www.w3.org/2000/svg">
<path d="M80.2517 7.54669C82.5673 8.45564 83.5861 11.0916 82.6599 13.2731C81.9188 15.0002 80.2517 16 78.4921 16C77.9365 16 77.288 15.9091 76.7324 15.6364C65.5259 11.0007 53.5782 8.72833 41.4455 8.72833C38.945 8.72833 37 6.72864 37 4.36533C37 2.00205 39.0376 0.00235123 41.4455 0.00235123C54.8749 -0.0885445 67.9338 2.45653 80.2517 7.54669Z" fill="#1F2DCF"/>
<path d="M80.2523 25.5933C82.5674 26.4971 83.586 29.1188 82.66 31.2881C81.9193 33.0056 80.2523 34 78.493 34C77.9375 34 77.2894 33.9096 76.7336 33.6386C65.5293 29.0284 53.6768 26.7684 41.4536 26.7684C29.138 26.7684 17.2855 29.0284 6.17372 33.5482C3.85875 34.4521 1.26601 33.4577 0.340026 31.1977C-0.58596 28.938 0.432616 26.4069 2.74758 25.5029C14.9706 20.5311 27.9344 18 41.4536 18C54.8804 18 67.9367 20.5311 80.2523 25.5933Z" fill="#1F2DCF"/>
<path d="M62.4874 38.2726C64.8777 38.8182 66.4408 41.0908 65.889 43.4546C65.3375 45.8182 63.0389 47.3636 60.6487 46.8182C54.1211 45.4545 47.5936 44.7272 41.2497 44.7272C29.022 44.7272 17.2541 47.0001 6.2216 51.6365C5.66998 51.8184 5.11835 52 4.4748 52C2.72797 52 1.0731 51 0.337599 49.2727C-0.581778 47.0001 0.429528 44.4547 2.72797 43.5456C14.8637 38.5454 27.735 36 41.1577 36C48.2371 36 55.4081 36.7272 62.4874 38.2726Z" fill="#1F2DCF"/>
<path d="M41.5542 54C44.055 54 46 56 46 58.3638C46 60.7273 43.9624 62.7273 41.5542 62.7273C29.2363 62.7273 17.3815 65.0002 6.26753 69.6365C5.71184 69.8181 5.15614 70 4.50781 70C2.74811 70 1.08102 69 0.34009 67.2728C-0.586072 64.9999 0.4327 62.4545 2.74811 61.5455C15.0661 56.5456 28.0325 54 41.5542 54Z" fill="#1F2DCF"/>
<path d="M121.802 20.5V41.9346L122.725 40.4736C124.175 38.1776 127.829 35.9727 132.882 35.9727C137.855 35.9727 141.742 37.8752 144.394 41.0068C147.053 44.1479 148.5 48.5647 148.5 53.6309C148.5 58.7926 146.899 63.2622 144.115 66.4336C141.337 69.5993 137.356 71.5 132.526 71.5C130.117 71.5 128.495 71.3766 127.044 70.8174C125.602 70.2614 124.279 69.2535 122.525 67.3779L121.66 66.4531V70.6523H113.5V20.5H121.802ZM130.894 43.3809C125.891 43.3809 120.772 47.1901 120.772 53.8545C120.773 60.4616 125.905 64.0928 130.894 64.0928C135.954 64.0927 141.003 60.5318 141.003 53.8545C141.003 47.1931 135.971 43.3809 130.894 43.3809Z" fill="white" stroke="white"/>
<path d="M163.581 37.5V56.6826C163.581 58.6647 164.078 60.5044 165.179 61.8584C166.292 63.2277 167.978 64.0439 170.227 64.0439C172.362 64.0439 174.091 63.3062 175.282 62.002C176.468 60.7036 177.077 58.8923 177.077 56.8213V37.5H185.159V64.9307C185.159 67.2217 185.315 69.3036 185.446 70.5986H177.755C177.65 69.8293 177.555 68.562 177.555 67.4258V65.5615L176.622 67.1758C174.902 70.1492 171.223 71.5 167.769 71.5C163.838 71.5 160.785 70.0459 158.71 67.7246C156.629 65.3965 155.5 62.1605 155.5 58.5547V37.5H163.581Z" fill="white" stroke="white"/>
<path d="M209.377 36.5947C211.139 36.394 212.787 36.5688 213.868 36.6064C219.374 36.7975 225.5 41.8158 225.5 49.1406V70.5H217.317V50.7617C217.317 48.7509 216.835 46.8962 215.72 45.5352C214.591 44.1581 212.868 43.3516 210.534 43.3516C208.388 43.3516 206.658 44.2074 205.474 45.6191C204.297 47.0218 203.683 48.9409 203.683 51.0439V70.5H195.5V36.8066H203.683V39.6621L204.547 38.7451C205.853 37.3593 207.626 36.7943 209.377 36.5947Z" fill="white" stroke="white"/>
<path d="M322.931 36.5C327.769 36.5 330.947 37.9971 332.964 39.8906C334.82 41.6334 335.72 43.7395 336.012 45.4043L329.122 46.917C328.901 45.9716 328.43 44.9587 327.594 44.1348C326.589 43.1448 325.097 42.4658 323 42.4658C320.391 42.4658 318.047 44.0141 318.047 46.3447C318.047 47.3152 318.427 48.121 319.085 48.7227C319.729 49.3107 320.616 49.6838 321.625 49.8682V49.8691L326.575 50.9033L326.579 50.9043C329.933 51.5789 332.412 52.9012 334.049 54.6201C335.68 56.334 336.5 58.468 336.5 60.8271C336.5 63.4531 335.457 66.1127 333.325 68.1182C331.196 70.1209 327.949 71.5 323.494 71.5C318.376 71.4999 314.986 69.8843 312.826 67.8438C310.828 65.9558 309.858 63.6793 309.561 61.9082L316.633 60.3955C316.847 61.6512 317.444 62.8429 318.449 63.7578C319.607 64.811 321.271 65.4658 323.425 65.4658C325.062 65.4658 326.333 65.0483 327.205 64.3359C328.084 63.618 328.52 62.6289 328.52 61.5859C328.519 60.6981 328.204 59.8747 327.498 59.2061C326.892 58.6322 326.023 58.1947 324.88 57.9023L324.373 57.7861L319.787 56.7539L319.783 56.7529L319.179 56.6133C316.21 55.8804 314.068 54.6361 312.649 53.0771C311.141 51.4192 310.42 49.3703 310.42 47.1035C310.42 41.3734 315.645 36.5 322.931 36.5Z" fill="white" stroke="white"/>
<path d="M352.685 20.5V40.6221L353.57 39.5488C355.651 37.0271 359.21 35.9268 362.365 35.9268C366.552 35.9268 369.563 37.407 371.536 39.7627C373.52 42.1315 374.5 45.4405 374.5 49.1631V70.5H366.318V50.7832C366.318 48.7742 365.836 46.9213 364.72 45.5615C363.591 44.1859 361.867 43.3799 359.534 43.3799C357.463 43.3799 355.789 44.1779 354.613 45.5029C353.445 46.8192 352.792 48.6248 352.685 50.6152V70.5H344.5V20.5H352.685Z" fill="white" stroke="white"/>
<path d="M397.963 36.5C403.184 36.5 407.302 38.1362 410.117 41.0537C412.934 43.9737 414.5 48.2344 414.5 53.5859C414.5 54.2251 414.465 54.8853 414.431 55.4062C414.418 55.5975 414.405 55.7693 414.394 55.9141H389.658L389.683 56.4375C389.906 61.2259 394.022 64.6375 398.874 64.6377C401.132 64.6377 402.922 64.0816 404.301 63.0967C405.551 62.2035 406.431 60.9797 407.022 59.5723L413.874 61.5762C412.037 67.0113 406.836 71.5 398.806 71.5C389.594 71.5 381.5 65.0102 381.5 53.8623C381.5 43.3146 389.403 36.5 397.963 36.5ZM398.104 42.9482C392.978 42.9482 390.121 46.765 389.893 50.1035L389.856 50.6377H406.336L406.314 50.1172C406.24 48.3272 405.608 46.5274 404.26 45.1729C402.906 43.8125 400.876 42.9483 398.104 42.9482Z" fill="white" stroke="white"/>
<path d="M430.5 20.5V70.5H421.5V20.5H430.5Z" fill="white" stroke="white"/>
<path d="M448.5 20.5V70.5H440.5V20.5H448.5Z" fill="white" stroke="white"/>
<path d="M316.206 20.5L285.555 84.5H276.789L307.024 20.5H316.206Z" fill="white" stroke="white"/>
<path d="M278.919 36.5L281.041 41.2607L283.292 46.3174L285.448 51.1611L280.305 61.7832L279.123 58.9502L275.902 51.2363L269.75 36.5H278.919Z" fill="white" stroke="white"/>
<path d="M249.377 36.5947C251.139 36.3939 252.788 36.5688 253.869 36.6064C259.375 36.7978 265.5 41.8159 265.5 49.1406V70.5H257.317V50.7617C257.317 48.7509 256.835 46.8962 255.72 45.5352C254.591 44.1583 252.869 43.3516 250.535 43.3516C248.389 43.3516 246.659 44.2074 245.475 45.6191C244.297 47.0218 243.683 48.9409 243.683 51.0439V70.5H235.5V36.8066H243.683V39.6621L244.547 38.7451C245.853 37.3592 247.626 36.7943 249.377 36.5947Z" fill="white" stroke="white"/>
<path d="M285.87 85L317 20H306.707L276 85H285.87Z" fill="white" stroke="white" stroke-width="0.2"/>
<path d="M279.244 36H269L275.441 51.4286L278.662 59.143L280.271 63L286 51.1711L283.749 46.114L281.498 41.0571L279.244 36Z" fill="white" stroke="white" stroke-width="0.2"/>
</svg>
