<svg xmlns="http://www.w3.org/2000/svg" width="548" height="80" viewBox="0 0 548 80" fill="none">
  <g transform="scale(0.285714)">
    <!-- Icon -->
    <g transform="translate(10,10)">
      <rect x="0" y="0" width="260" height="260" rx="58" fill="#0F1418" stroke="#22D3A6" stroke-width="5"/>
      <g transform="translate(75,72)">
        <path d="M 55 0 L 110 31 L 55 62 L 0 31 Z" fill="#34F5C0"/>
        <path d="M 0 31 L 0 93 L 55 124 L 55 62 Z" fill="#13806A"/>
        <path d="M 110 31 L 110 93 L 55 124 L 55 62 Z" fill="#0A4A3D"/>
      </g>
    </g>
    <!-- Wordmark: "declaw" in Inter Bold, converted to paths for portability -->
    <g fill="#FFFFFF">
      <path transform="translate(320.000 205) scale(0.102539 -0.102539)" d="M536 -19Q408 -19 304.5 47.5Q201 114 141.0 242.5Q81 371 81 557Q81 748 143.0 876.0Q205 1004 308.0 1068.0Q411 1132 535 1132Q630 1132 693.0 1100.0Q756 1068 795.0 1021.0Q834 974 853 930H863V1490H1163V0H868V179H853Q833 134 793.5 88.5Q754 43 691.0 12.0Q628 -19 536 -19ZM629 222Q705 222 759.0 264.0Q813 306 841.0 381.5Q869 457 869 558Q869 660 841.5 734.5Q814 809 760.0 850.5Q706 892 629 892Q550 892 496.5 849.0Q443 806 416.0 731.0Q389 656 389 558Q389 460 416.5 384.0Q444 308 497.5 265.0Q551 222 629 222Z"/>
      <path transform="translate(448.378 205) scale(0.102539 -0.102539)" d="M633 -22Q462 -22 338.0 48.0Q214 118 147.5 247.0Q81 376 81 553Q81 726 147.0 856.0Q213 986 334.0 1059.0Q455 1132 618 1132Q728 1132 823.0 1097.0Q918 1062 990.0 991.5Q1062 921 1102.5 815.0Q1143 709 1143 565V481H204V669H996L856 619Q856 706 829.5 770.5Q803 835 750.5 870.5Q698 906 621 906Q543 906 488.5 870.0Q434 834 406.0 772.5Q378 711 378 632V499Q378 402 410.5 336.0Q443 270 501.5 237.0Q560 204 638 204Q691 204 734.0 219.0Q777 234 807.5 263.5Q838 293 854 336L1126 285Q1099 193 1032.0 123.5Q965 54 864.5 16.0Q764 -22 633 -22Z"/>
      <path transform="translate(569.476 205) scale(0.102539 -0.102539)" d="M628 -22Q459 -22 336.5 50.5Q214 123 147.5 252.5Q81 382 81 554Q81 728 147.5 857.5Q214 987 336.5 1059.5Q459 1132 628 1132Q727 1132 811.0 1106.0Q895 1080 960.0 1032.0Q1025 984 1067.0 915.0Q1109 846 1125 760L846 708Q837 752 818.0 786.5Q799 821 772.0 845.5Q745 870 709.5 883.0Q674 896 631 896Q551 896 496.5 853.0Q442 810 414.5 733.0Q387 656 387 555Q387 456 414.5 379.0Q442 302 496.5 258.0Q551 214 631 214Q674 214 710.0 227.5Q746 241 774.0 266.5Q802 292 821.0 328.0Q840 364 848 409L1127 358Q1111 269 1069.0 199.5Q1027 130 962.0 80.0Q897 30 812.5 4.0Q728 -22 628 -22Z"/>
      <path transform="translate(689.035 205) scale(0.102539 -0.102539)" d="M428 1490V0H128V1490Z"/>
      <path transform="translate(741.944 205) scale(0.102539 -0.102539)" d="M440 -22Q334 -22 249.5 15.5Q165 53 116.5 127.5Q68 202 68 313Q68 406 102.5 469.0Q137 532 196.5 570.0Q256 608 331.5 628.0Q407 648 490 656Q587 666 646.5 674.5Q706 683 733.5 701.5Q761 720 761 756V761Q761 809 741.0 842.0Q721 875 681.5 892.5Q642 910 586 910Q528 910 485.0 892.5Q442 875 415.0 846.0Q388 817 375 781L100 826Q129 924 196.0 992.0Q263 1060 362.5 1096.0Q462 1132 587 1132Q677 1132 762.0 1110.5Q847 1089 914.5 1044.0Q982 999 1021.5 926.5Q1061 854 1061 753V0H777V155H767Q740 103 695.0 63.5Q650 24 586.5 1.0Q523 -22 440 -22ZM525 189Q596 189 649.5 217.0Q703 245 733.0 293.0Q763 341 763 400V521Q750 511 723.0 503.0Q696 495 663.0 489.0Q630 483 598.0 478.0Q566 473 541 470Q486 462 444.0 444.0Q402 426 379.0 396.5Q356 367 356 321Q356 278 378.0 248.5Q400 219 438.0 204.0Q476 189 525 189Z"/>
      <path transform="translate(859.863 205) scale(0.102539 -0.102539)" d="M361 0 31 1118H346L443 705Q468 594 497.0 463.5Q526 333 550 175H516Q542 329 573.0 460.5Q604 592 631 705L733 1118H1009L1109 705Q1134 592 1165.0 461.5Q1196 331 1223 175H1189Q1213 330 1240.5 460.5Q1268 591 1294 705L1391 1118H1710L1378 0H1073L949 431Q931 496 913.0 574.5Q895 653 878.0 734.5Q861 816 843 887H896Q879 816 861.5 734.5Q844 653 826.0 574.0Q808 495 790 431L666 0Z"/>
    </g>
  </g>
</svg>
