<svg width="548" height="77" viewBox="0 0 548 77" fill="none" xmlns="http://www.w3.org/2000/svg">
<path d="M79.0665 66C74.9416 70.7523 69.8055 74.5447 64 77H90.1256L98 66H79.0665Z" fill="black"/>
<path d="M49.2183 0C28.3452 0 11.4246 17.2395 11.4246 38.494C11.4246 47.8705 14.7339 56.4483 20.1948 63.1323H36.7646C28.0061 58.5215 21.9956 49.2165 21.9956 38.494C21.9956 23.2084 34.2037 10.7702 49.2065 10.7702C64.2092 10.7702 76.4176 23.2084 76.4176 38.494C76.4176 53.7795 64.2092 66.2177 49.2065 66.2177H7.83467L0 77H49.2183C70.0914 77 87 59.7605 87 38.5058C87 17.2514 70.0914 0 49.2183 0Z" fill="black"/>
<path d="M124.012 63V14H142.635C145.978 14 148.944 14.579 151.487 15.7487C154.042 16.9185 156.043 18.5727 157.479 20.7468C158.915 22.9209 159.645 25.4968 159.645 28.4862C159.645 31.7473 158.762 34.4886 156.996 36.6745C155.242 38.8604 152.794 40.4202 149.674 41.3652L163 62.9885H150.31L138.668 43.0315H135.042V62.9885H124L124.012 63ZM135.042 33.6733H142.435C144.165 33.6733 145.437 33.4134 146.308 32.8817C147.179 32.3499 147.755 31.6765 148.085 30.8848C148.415 30.0931 148.568 29.3015 148.568 28.5098C148.568 27.7181 148.391 26.9265 148.085 26.1703C147.755 25.4023 147.167 24.7642 146.308 24.2443C145.448 23.7244 144.165 23.4763 142.435 23.4763H135.042V33.6969V33.6733Z" fill="black"/>
<path d="M188.695 63.9881C184.161 63.9881 180.435 63.0755 177.529 61.2503C174.612 59.4373 172.468 56.984 171.074 53.9501C169.68 50.9044 169 47.5385 169 43.8409V14H179.896V43.9003C179.896 47.0766 180.658 49.5295 182.193 51.236C183.728 52.9425 185.954 53.8077 188.93 53.8077C191.906 53.8077 194.109 52.9663 195.702 51.236C197.295 49.5295 198.104 47.0881 198.104 43.9003V14H209V43.8409C209 47.6809 208.379 50.8925 207.126 53.4641C205.872 56.0358 204.243 58.0981 202.228 59.6387C200.213 61.1909 198.01 62.305 195.632 62.9805C193.242 63.6561 190.933 64 188.719 64L188.695 63.9881Z" fill="black"/>
<path d="M221 63V14H232.045L252.955 44.8746V14H264V63H252.955L232.045 32.2672V63H221Z" fill="black"/>
<path d="M278 63V14H288.677V53.4058H308V63H278Z" fill="black"/>
<path d="M337.942 64C334.667 64 331.542 63.4176 328.544 62.2405C325.558 61.0635 322.905 59.3754 320.553 57.1642C318.2 54.9649 316.356 52.2784 315.018 49.1279C313.68 45.9777 313 42.435 313 38.5C313 34.565 313.669 31.0224 315.018 27.872C316.356 24.7336 318.2 22.0587 320.553 19.8357C322.905 17.6364 325.569 15.9364 328.544 14.7594C331.531 13.5825 334.656 13 337.942 13C341.228 13 344.365 13.5825 347.363 14.7594C350.373 15.9364 353.037 17.6245 355.389 19.8357C357.741 22.035 359.598 24.7217 360.959 27.872C362.331 31.0105 363 34.565 363 38.5C363 42.435 362.308 45.9777 360.959 49.1279C359.598 52.2665 357.741 54.941 355.389 57.1642C353.037 59.3635 350.373 61.0635 347.363 62.2405C344.354 63.4176 341.217 64 337.942 64ZM337.942 53.9307C340.168 53.9307 342.37 53.3602 344.503 52.2308C346.637 51.1013 348.413 49.4014 349.796 47.1187C351.18 44.8364 351.884 41.9594 351.884 38.4881C351.884 35.0167 351.18 32.0685 349.762 29.7979C348.344 27.5272 346.579 25.8391 344.434 24.7217C342.301 23.6161 340.133 23.0692 337.942 23.0692C335.751 23.0692 333.606 23.6161 331.496 24.7217C329.374 25.8272 327.621 27.5154 326.238 29.7979C324.854 32.0804 324.151 34.9692 324.151 38.4881C324.151 42.007 324.842 44.8364 326.192 47.1187C327.564 49.4014 329.305 51.1013 331.427 52.2308C333.549 53.3602 335.717 53.9307 337.954 53.9307H337.942Z" fill="black"/>
<path d="M395.941 64C392.668 64 389.543 63.4176 386.546 62.2405C383.556 61.0635 380.905 59.3754 378.553 57.1642C376.201 54.9649 374.355 52.2784 373.018 49.1279C371.68 45.9896 371 42.435 371 38.5C371 34.565 371.669 31.0224 373.018 27.872C374.355 24.7336 376.201 22.0587 378.553 19.8357C380.905 17.6364 383.567 15.9364 386.546 14.7594C389.532 13.5825 392.657 13 395.941 13C399.228 13 402.364 13.5825 405.362 14.7594C408.359 15.9364 411.036 17.6245 413.39 19.8357C415.74 22.035 417.596 24.7217 418.959 27.872C420.33 31.0105 421 34.565 421 38.5C421 42.435 420.307 45.9777 418.959 49.1279C417.596 52.2665 415.74 54.941 413.39 57.1642C411.036 59.3635 408.37 61.0635 405.362 62.2405C402.353 63.4176 399.217 64 395.941 64ZM395.941 53.9307C398.166 53.9307 400.369 53.3602 402.504 52.2308C404.635 51.1013 406.412 49.4014 407.794 47.1187C409.18 44.8364 409.884 41.9594 409.884 38.4881C409.884 35.0167 409.18 32.0685 407.76 29.7979C406.341 27.5154 404.579 25.8391 402.432 24.7217C400.301 23.6161 398.132 23.0692 395.941 23.0692C393.749 23.0692 391.606 23.6161 389.494 24.7217C387.374 25.8272 385.623 27.5154 384.237 29.7979C382.855 32.0804 382.151 34.9692 382.151 38.4881C382.151 42.007 382.844 44.8364 384.192 47.1187C385.563 49.4014 387.306 51.1013 389.426 52.2308C391.55 53.3602 393.715 53.9307 395.952 53.9307H395.941Z" fill="black"/>
<path d="M430.011 62.9763V14H449.315C452.642 14 455.652 14.6141 458.333 15.8306C461.014 17.047 463.133 18.7949 464.682 21.0742C466.227 23.3536 467 26.0935 467 29.2586C467 32.4238 466.239 35.1047 464.74 37.4076C463.24 39.7106 461.144 41.494 458.498 42.7694C455.851 44.0331 452.768 44.659 449.292 44.659H440.962V63H430H430.011V62.9763ZM440.977 35.1873H449.032C451.621 35.1873 453.415 34.5968 454.409 33.404C455.404 32.2112 455.897 30.8294 455.897 29.235C455.897 27.7351 455.404 26.4124 454.409 25.2078C453.415 24.0031 451.621 23.4245 449.032 23.4245H440.977V35.1873Z" fill="black"/>
</svg>
