<svg viewBox="0 0 548 85" width="548" height="85" fill="none" xmlns="http://www.w3.org/2000/svg"><g transform="translate(0.0000, 0.0000) scale(0.400000)">
<mask id="mask0_128_104" style="mask-type:luminance" maskUnits="userSpaceOnUse" x="0" y="0" width="1011" height="200">
<path d="M1010.84 0H0V200H1010.84V0Z" fill="white"/>
</mask>
<g mask="url(#mask0_128_104)">
<path d="M66.0436 0C29.5687 0 0 28.7815 0 64.285C0 99.7885 29.5687 128.57 66.0436 128.57H139.425C143.478 128.57 146.763 131.768 146.763 135.713C146.763 139.658 143.478 142.855 139.425 142.855H5.13669C2.29979 142.855 0 145.095 0 147.855V194.999C0 197.76 2.29979 199.999 5.13669 199.999H139.425C175.9 199.999 205.469 171.216 205.469 135.713C205.469 100.209 175.9 71.428 139.425 71.428H66.0436C61.9907 71.428 58.7052 68.23 58.7052 64.285C58.7052 60.3405 61.9907 57.1425 66.0436 57.1425H190.48C190.585 57.1435 190.689 57.144 190.794 57.144H212.808C216.861 57.144 220.147 60.342 220.147 64.287V195C220.147 197.761 222.446 200 225.284 200H273.715C276.552 200 278.852 197.761 278.852 195V64.287C278.852 28.7831 249.283 0.00160204 212.808 0.00160204H205.469L66.0436 0Z" fill="black"/>
<path d="M431.19 200C414.759 200 400.568 197.215 388.618 191.645C376.667 186.074 367.238 178.347 360.329 168.464C353.608 158.401 349.687 146.721 348.566 133.423L385.537 131.267C387.217 143.666 391.885 153.19 399.541 159.839C407.196 166.487 417.932 169.811 431.751 169.811C443.513 169.811 452.569 167.745 458.918 163.612C465.453 159.299 468.721 153.1 468.721 145.013C468.721 140.162 467.507 135.849 465.079 132.076C462.652 128.302 457.984 124.798 451.076 121.563C444.167 118.328 433.898 115.185 420.267 112.13C403.835 108.536 390.672 104.492 380.775 100C370.879 95.328 363.69 89.5775 359.21 82.7495C354.728 75.741 352.488 67.026 352.488 56.6035C352.488 45.4627 355.382 35.6694 361.169 27.2237C366.958 18.5983 375.174 11.9496 385.817 7.2776C396.46 2.42587 409.251 0 424.188 0C440.059 0 453.503 2.78526 464.519 8.3558C475.723 13.7466 484.405 21.2039 490.567 30.7278C496.916 40.2516 500.837 51.213 502.33 63.612L465.64 65.229C464.332 54.807 460.131 46.3612 453.036 39.8922C445.94 33.4232 436.138 30.1887 423.628 30.1887C413.171 30.1887 404.862 32.5247 398.701 37.1968C392.726 41.8688 389.738 47.8886 389.738 55.256C389.738 60.467 390.952 64.78 393.379 68.194C395.993 71.6085 400.568 74.573 407.103 77.089C413.638 79.6045 422.787 82.1205 434.551 84.636C452.289 88.4095 466.387 93.0815 476.843 98.652C487.3 104.044 494.768 110.422 499.249 117.789C503.732 125.157 505.972 133.602 505.972 143.127C505.972 154.807 502.796 164.959 496.448 173.585C490.287 182.031 481.604 188.59 470.401 193.262C459.385 197.754 446.314 200 431.19 200Z" fill="black"/>
<path d="M585.655 195.686C570.718 195.686 559.703 192.452 552.605 185.983C545.698 179.334 542.241 168.822 542.241 154.447V78.4358H518.719V51.7513H542.241V18.0586H578.092V51.7513H617.583V78.4358H578.092V151.212C578.092 158.041 579.589 162.712 582.575 165.228C585.751 167.744 590.414 169.002 596.58 169.002H617.583V195.686H585.655Z" fill="black"/>
<path d="M700.512 198.922C685.57 198.922 672.597 195.867 661.582 189.758C650.562 183.468 642.066 174.664 636.09 163.343C630.114 152.022 627.129 138.814 627.129 123.72C627.129 108.625 630.114 95.4176 636.09 84.0971C642.066 72.7766 650.471 64.0611 661.301 57.9516C672.316 51.6621 685.104 48.5176 699.671 48.5176C713.862 48.5176 726.279 51.5726 736.919 57.6821C747.563 63.7916 755.778 72.5966 761.568 84.0971C767.544 95.5976 770.53 109.434 770.53 125.606V133.424H664.382C664.943 146.002 668.489 155.525 675.021 161.995C681.558 168.284 690.148 171.429 700.788 171.429C717.037 171.429 727.396 164.78 731.879 151.483L768.571 153.639C764.464 167.655 756.339 178.706 744.202 186.792C732.25 194.879 717.689 198.922 700.512 198.922ZM664.382 110.243H733.557C732.626 98.5626 729.079 89.9376 722.918 84.3666C716.942 78.6166 709.193 75.7411 699.671 75.7411C689.963 75.7411 682.024 78.7061 675.863 84.6361C669.701 90.5661 665.874 99.1021 664.382 110.243Z" fill="black"/>
<path d="M859.05 198.922C844.113 198.922 831.135 195.867 820.12 189.758C809.104 183.468 800.609 174.664 794.633 163.343C788.657 152.022 785.672 138.814 785.672 123.72C785.672 108.625 788.657 95.4176 794.633 84.0971C800.609 72.7766 809.009 64.0611 819.839 57.9516C830.854 51.6621 843.647 48.5176 858.209 48.5176C872.405 48.5176 884.822 51.5726 895.461 57.6821C906.101 63.7916 914.321 72.5966 920.106 84.0971C926.082 95.5976 929.073 109.434 929.073 125.606V133.424H822.92C823.481 146.002 827.027 155.525 833.564 161.995C840.101 168.284 848.686 171.429 859.331 171.429C875.575 171.429 885.939 164.78 890.417 151.483L927.109 153.639C922.996 167.655 914.877 178.706 902.745 186.792C890.793 194.879 876.231 198.922 859.05 198.922ZM822.92 110.243H892.1C891.164 98.5626 887.617 89.9376 881.456 84.3666C875.48 78.6166 867.731 75.7411 858.209 75.7411C848.501 75.7411 840.567 78.7061 834.405 84.6361C828.239 90.5661 824.412 99.1021 822.92 110.243Z" fill="black"/>
<path d="M989.054 200C978.039 200 969.448 196.695 962.912 191.305C956.56 185.914 952.863 173.585 952.863 161.725V0H988.713V158.221C988.713 165.408 992.445 169.003 999.919 169.003H1010.84V200H989.054Z" fill="black"/>
</g>
</g></svg>