<svg width="548" height="69" viewBox="0 0 548 69" fill="none" xmlns="http://www.w3.org/2000/svg">
<path d="M67.9798 16.372C67.9698 16.1361 67.9495 15.9054 67.9293 15.6694C67.9243 15.613 67.9243 15.5516 67.9141 15.4951C67.8989 15.3515 67.8788 15.2131 67.8586 15.0695C67.8384 14.9208 67.8232 14.7772 67.8031 14.6337C67.7879 14.5311 67.7675 14.4286 67.7474 14.3312C67.717 14.1518 67.6867 13.9672 67.6513 13.7877C67.621 13.644 67.5856 13.5058 67.5553 13.3621C67.5251 13.2236 67.4948 13.0904 67.4644 12.9519C67.4291 12.8084 67.3835 12.67 67.3432 12.5264C67.3077 12.393 67.2723 12.2649 67.232 12.1315C67.1864 11.988 67.1359 11.8445 67.0854 11.7008C67.045 11.5777 67.0045 11.4547 66.9642 11.3316C66.8985 11.1522 66.8276 10.9779 66.7619 10.8035C66.7265 10.7164 66.6962 10.6343 66.6608 10.5471C66.58 10.3574 66.4993 10.1729 66.4132 9.98819C66.3829 9.92168 66.3527 9.84974 66.3223 9.78323C66.2415 9.60889 66.1504 9.43963 66.0645 9.27037C66.0242 9.19352 65.9888 9.11651 65.9483 9.03967C65.8473 8.84993 65.7361 8.66018 65.63 8.47569C65.5997 8.42441 65.5743 8.37312 65.5441 8.32183C65.4279 8.12702 65.3065 7.93727 65.1803 7.74753C65.1549 7.70657 65.1298 7.66544 65.1044 7.62448C64.9528 7.39886 64.7961 7.17323 64.6345 6.95286C64.4828 6.74771 64.3262 6.54257 64.1644 6.34268C64.1543 6.32727 64.1443 6.31187 64.1291 6.29647C61.0061 2.45596 56.2911 0.0154017 51.0101 0.0103256V0L50.995 0.0103256H51.0001C49.5346 0.0103256 48.1094 0.199894 46.75 0.553821C45.9365 0.764041 45.1431 1.04095 44.38 1.3639C44.1272 1.47154 43.8746 1.58952 43.627 1.7075C38.6089 4.15838 34.9704 9.03966 34.1668 14.8439H34.1567C33.803 17.3307 33.0499 19.6842 31.9786 21.8481H32.0139C28.2844 29.3546 20.6233 34.5077 11.7696 34.5077C7.81785 34.5077 4.10853 33.4821 0.874266 31.6824C0.495245 31.4722 0.0353476 31.7491 0.0353476 32.1849V34.5077H0V69H34.0001V51.7512H34.0354V43.1269C34.0354 38.3634 37.8406 34.5026 42.5355 34.5026H51.0355C52.4909 34.5026 53.9007 34.3129 55.2501 33.9591C56.0636 33.7437 56.857 33.472 57.6202 33.1489C57.8728 33.0412 58.1255 32.9233 58.3731 32.8055C63.5732 30.2622 67.3027 25.109 67.9141 19.0228C67.9698 18.4434 68 17.8537 68 17.2589C68 16.9615 67.995 16.6641 67.9798 16.372Z" fill="white"/>
<path d="M126.886 12C138.339 12 145.789 18.6359 145.789 29.3072C145.789 37.1185 141.412 42.9146 134.539 45.3929L148 69H138.018L125.458 46.6091H111.59V69H103V12H126.896H126.886ZM111.585 19.9386V38.7572H126.48C133.314 38.7572 136.829 34.8488 136.829 29.3072C136.829 23.7653 133.309 19.9386 126.48 19.9386H111.585Z" fill="white"/>
<path d="M171.744 27.005C184.019 27.005 192 35.742 192 46.5345C192 47.7965 191.911 49.0991 191.65 50.3965H158.987C159.38 56.4467 164.776 61.1891 172.052 61.1891C177.315 61.1891 181.521 59.047 184.676 54.2994L191.076 58.7518C187.172 65.4736 179.504 69 172.052 69C159.337 69 150 60.0138 150 48.0407C150 36.0675 158.987 27 171.744 27M183.185 44.1785C182.658 38.51 177.703 34.5156 171.653 34.5156C165.211 34.5156 160.299 38.5049 159.205 44.1785H183.185Z" fill="white"/>
<path d="M199 69V27.8568H207.431V33.0439C208.787 30.9461 212.641 27 219.927 27C231.109 27 237 34.0302 237 44.0149V69H228.616V45.8115C228.616 38.9993 224.932 35.0532 218.619 35.0532C212.306 35.0532 207.396 38.9941 207.396 45.8115V69H199Z" fill="white"/>
<path d="M263.282 26.9842C270.138 26.9842 274.684 29.5039 277.671 33.3269V9H286V68.1602H277.671V62.6575C274.684 66.4803 270.138 69 263.282 69C251.797 69 243 60.1785 243 47.7835C243 35.3883 251.792 26.9842 263.282 26.9842ZM251.335 47.7835C251.335 55.2204 256.507 61.5222 264.29 61.5222C272.074 61.5222 277.631 55.2204 277.631 47.7835C277.631 40.3464 272.034 34.4619 264.29 34.4619C256.549 34.4619 251.335 40.3464 251.335 47.7835Z" fill="white"/>
<path d="M313.708 27.005C325.397 27.005 333 35.742 333 46.5345C333 47.7965 332.914 49.0991 332.665 50.3965H301.559C301.933 56.4467 307.071 61.1891 314.001 61.1891C319.015 61.1891 323.021 59.047 326.024 54.2994L332.12 58.7518C328.402 65.4736 321.098 69 314.001 69C301.892 69 293 60.0138 293 48.0407C293 36.0268 301.559 27 313.708 27M324.603 44.1785C324.103 38.51 319.384 34.5156 313.623 34.5156C307.487 34.5156 302.808 38.5049 301.766 44.1785H324.603Z" fill="white"/>
<path d="M342 69V27.8568H350.22V33.4696C352.452 28.9678 356.209 27 360.547 27C363.644 27 366 28.028 366 28.028L365.134 35.8269C364.68 35.6555 362.903 34.8818 360.301 34.8818C355.924 34.8818 350.225 37.2806 350.225 46.585V69H342Z" fill="white"/>
</svg>
