<svg width="548" height="86" viewBox="0 0 548 86" fill="none" xmlns="http://www.w3.org/2000/svg">
<path d="M97.0781 5.16973V0.777753H108.203V44.0337C108.259 47.8256 107.43 51.5817 105.776 55.0016C104.195 58.2137 101.675 60.8736 98.5479 62.6377C94.9797 64.5738 90.955 65.5298 86.8903 65.4058C81.3839 65.6656 75.9496 64.0778 71.4606 60.8937C67.556 57.8697 65.0092 53.4339 64.3764 48.5498H75.325C75.8897 50.6658 77.2031 52.5098 79.0295 53.7338C81.1396 55.0697 83.6146 55.7219 86.1137 55.6018C87.5673 55.6656 89.017 55.4416 90.3824 54.9457C91.7481 54.4498 93.0016 53.6897 94.0707 52.7097C95.1598 51.5297 95.9929 50.1336 96.5134 48.6179C97.0339 47.1018 97.2345 45.4896 97.0982 43.8936V35.3057C96.0169 38.1979 94.0388 40.6658 91.4475 42.3578C88.6044 44.1738 85.2767 45.0976 81.9005 45.0016C78.3805 45.0496 74.9125 44.1219 71.8929 42.3216C68.8536 40.4497 66.4349 37.7339 64.9289 34.5097C63.2711 30.7258 62.4141 26.6458 62.4141 22.5178C62.4141 18.3898 63.2711 14.3097 64.9289 10.5257C66.4306 7.30576 68.8536 4.59375 71.8929 2.72976C74.9125 0.921753 78.3805 -0.00624404 81.9005 0.0497559C85.605 0.225755 94.1227 0.225751 97.082 5.16576L97.0781 5.16973ZM76.9548 13.3698C74.8884 16.0417 73.7674 19.3177 73.7674 22.6898C73.7674 26.0617 74.8884 29.3378 76.9548 32.0098C79.2135 34.1818 82.237 35.3897 85.3807 35.3738C88.5201 35.3577 91.5318 34.1178 93.7665 31.9218C95.9089 29.3098 97.082 26.0377 97.082 22.6658C97.082 19.2938 95.9129 16.0217 93.7665 13.4098C92.6931 12.2818 91.3916 11.3898 89.9458 10.7978C88.5044 10.2057 86.9463 9.92173 85.3886 9.96975C83.8187 9.90174 82.2571 10.1697 80.7995 10.7578C79.3455 11.3458 78.0321 12.2378 76.9548 13.3737V13.3698Z" fill="black"/>
<path d="M88.2228 85.5089C85.5595 85.5089 82.9044 85.3208 80.2694 84.9449C61.6321 82.2488 47.0712 70.7169 43.1548 55.5691C42.2335 50.4008 41.897 45.1491 42.1456 39.9088V19.1169H53.3063V39.997C53.114 44.2769 53.3343 48.5608 53.9631 52.797C56.7424 63.6051 67.7111 71.913 81.8633 73.957C92.724 75.525 106.664 73.2328 113.468 62.161L115.238 58.721C120.817 47.4009 133.058 47.293 139.614 47.2249H143.687C144.868 47.0529 146.017 46.6971 147.087 46.1689C149.077 45.2011 150.755 43.6928 151.932 41.8248C153.11 39.9569 153.738 37.7968 153.746 35.5888V19.1889H164.907V35.5888C164.899 41.1569 162.857 46.533 159.161 50.7129C155.464 54.8929 150.367 57.589 144.816 58.301H139.714C130.856 58.3888 127.156 59.7128 125.241 63.5889L123.203 67.6449C116.311 78.9489 103.344 85.5089 88.2146 85.5089H88.2228Z" fill="black"/>
<path d="M128.467 6.28102V0.569017H117.254V42.2731C117.254 42.4369 117.294 42.5971 117.37 42.7411C117.446 42.8852 117.562 43.0048 117.702 43.093C117.843 43.1811 117.999 43.2292 118.163 43.237C118.327 43.2449 118.491 43.213 118.635 43.1371C121.523 41.793 124.562 40.7929 127.69 40.1572C127.906 40.1131 128.102 39.997 128.247 39.825C128.387 39.6569 128.467 39.4409 128.471 39.2208V23.349C128.471 15.745 132.604 11.941 140.873 11.941H144.133V0.00502111C140.697 -0.0669788 131.715 0.569024 128.471 6.28102H128.467Z" fill="black"/>
<path d="M47.9328 14.3379L46.7794 11.8179C46.1186 10.3939 44.9613 9.2579 43.5194 8.62591L40.9688 7.5499L43.4836 6.40191C44.9211 5.74989 46.0666 4.58591 46.6911 3.1379L47.7885 0.5979L48.9419 3.1019C49.5905 4.5379 50.7601 5.6779 52.2176 6.29391L54.7526 7.38589L52.2377 8.53389C50.7999 9.18591 49.6548 10.3499 49.0298 11.7979L47.9328 14.3379Z" fill="#50FFAB"/>
<path d="M20.9402 21.4092V9.87718H31.8888V0.461182H0V9.87718H9.54703V21.3572C9.54703 33.1012 14.5408 46.8012 31.8849 46.8012V37.6852C23.0266 37.7371 20.9362 30.9332 20.9362 21.4092H20.9402Z" fill="black"/>
<path d="M159.327 14.3379L158.174 11.8179C157.514 10.3899 156.348 9.25389 154.898 8.62591L152.348 7.5499L154.879 6.40191C156.312 5.7419 157.453 4.5819 158.086 3.1379L159.184 0.5979L160.317 3.1019C160.965 4.5379 162.139 5.6779 163.593 6.29391L166.144 7.38589L163.628 8.53389C162.191 9.18591 161.045 10.3499 160.421 11.7979L159.324 14.3379H159.327Z" fill="#50FFAB"/>
<path d="M207.892 25.5536C206.246 23.8255 204.187 22.5456 201.905 21.8336C199.005 20.9695 196.046 20.3215 193.047 19.8935C190.311 19.5016 187.62 18.8336 185.021 17.9015C184.268 17.6655 183.608 17.1976 183.143 16.5615C182.679 15.9255 182.43 15.1576 182.434 14.3735C182.45 13.5976 182.687 12.8415 183.111 12.1896C183.535 11.5375 184.136 11.0176 184.841 10.6895C187.048 9.64156 189.486 9.16154 191.925 9.29756C196.487 9.23356 200.984 10.4015 204.928 12.6816L209.005 4.65754C206.622 3.31355 204.039 2.35355 201.352 1.81755C198.289 1.11755 195.157 0.765552 192.017 0.761553C186.871 0.493552 181.774 1.83755 177.437 4.60554C175.755 5.73755 174.389 7.27355 173.46 9.06955C172.531 10.8656 172.07 12.8656 172.123 14.8856C171.906 17.6455 172.767 20.3816 174.533 22.5216C176.191 24.3215 178.302 25.6496 180.644 26.3655C183.636 27.2455 186.691 27.8936 189.787 28.3056C192.43 28.6496 195.033 29.2416 197.564 30.0696C198.277 30.2775 198.897 30.7136 199.334 31.3095C199.77 31.9056 199.995 32.6295 199.975 33.3656C199.975 36.7055 196.803 38.3696 190.46 38.3574C184.697 38.4857 178.966 37.4856 173.596 35.4135V44.2294C178.77 46.1576 184.268 47.0735 189.787 46.9255C196.13 46.9255 201.144 45.6617 204.828 43.1336C206.542 42.0497 207.948 40.5497 208.913 38.7695C209.878 36.9897 210.367 34.9975 210.335 32.9776C210.519 30.2816 209.642 27.6176 207.892 25.5536Z" fill="black"/>
</svg>
