<svg width="548" height="86" viewBox="0 0 548 86" fill="none" xmlns="http://www.w3.org/2000/svg">
<path d="M203 75V11H226.453C233.51 11 238.955 12.5238 242.787 15.5714C246.62 18.5581 248.536 22.6724 248.536 27.9143C248.536 31.7543 247.532 34.8324 245.525 37.1485C243.578 39.4037 240.931 40.9885 237.586 41.9027C240.141 42.3295 242.422 43.122 244.43 44.28C246.437 45.438 248.019 47.0532 249.175 49.1258C250.392 51.1373 251 53.6668 251 56.7142C251 62.3827 248.962 66.8627 244.886 70.1542C240.871 73.3847 235 75 227.274 75H203ZM213.494 66.1315H227.365C231.563 66.1315 234.757 65.3085 236.947 63.6627C239.137 61.9563 240.232 59.6095 240.232 56.6227C240.232 53.5142 239.106 51.1068 236.855 49.4C234.604 47.6932 231.441 46.84 227.365 46.84H213.494V66.1315ZM213.494 38.1542H226.726C230.376 38.1542 233.175 37.3315 235.122 35.6857C237.069 34.04 238.042 31.7848 238.042 28.92C238.042 26.0553 237.069 23.8305 235.122 22.2457C233.175 20.6 230.376 19.7772 226.726 19.7772H213.494V38.1542Z" fill="white"/>
<path d="M151 75V66.806L175.948 45.7223C177.926 44.0653 179.688 42.4386 181.234 40.8426C182.78 39.247 183.985 37.5897 184.851 35.8711C185.717 34.0911 186.149 32.1884 186.149 30.1629C186.149 26.4802 185.006 23.6568 182.718 21.6926C180.492 19.7285 177.524 18.7465 173.815 18.7465C170.105 18.7465 167.106 19.9127 164.819 22.245C162.531 24.5775 161.387 27.7385 161.387 31.7281V32.8329H151.093V31.1756C151.093 27.0633 152.02 23.4419 153.875 20.3116C155.73 17.1199 158.358 14.6034 161.758 12.762C165.221 10.9207 169.239 10 173.815 10C178.699 10 182.811 10.8286 186.149 12.4859C189.55 14.1431 192.116 16.4448 193.847 19.391C195.64 22.3371 196.536 25.7743 196.536 29.7026C196.536 32.8942 195.949 35.7484 194.775 38.2648C193.6 40.7202 191.961 43.0523 189.859 45.262C187.819 47.4103 185.469 49.5893 182.811 51.799L165.56 66.0694H197V75H151Z" fill="white"/>
<path d="M102 75V11H143.9V20.3257H112.544V38.0627H138.399V47.1142H112.544V65.6742H145V75H102Z" fill="white"/>
<path fill-rule="evenodd" clip-rule="evenodd" d="M70.1421 58.5821C69.5633 58.5821 69.2018 59.2006 69.4911 59.6952L75.5437 70.0456C75.8786 70.6181 75.3449 71.3045 74.6981 71.1335L56.3416 66.277C55.5396 66.0648 54.715 66.5349 54.5004 67.3266L49.5817 85.4499C49.408 86.0884 48.5395 86.2012 48.2047 85.6287L42.1509 75.2765C41.8616 74.7819 41.1381 74.7819 40.8491 75.2765L34.7952 85.6287C34.4604 86.2012 33.5916 86.0884 33.4182 85.4499L28.4994 67.3266C28.2845 66.5349 27.4602 66.0648 26.6583 66.277L8.30152 71.1335C7.6547 71.3045 7.12122 70.6181 7.45604 70.0456L13.5086 59.6952C13.7979 59.2006 13.4362 58.5821 12.8576 58.5821H0.753137C0.0834993 58.5821 -0.251849 57.7829 0.221662 57.3154L13.6599 44.0482C14.247 43.4687 14.247 42.5292 13.6599 41.9497L0.22167 28.6823C-0.25184 28.2148 0.0835256 27.4155 0.753171 27.4155L12.8564 27.4156C13.435 27.4156 13.7966 26.7972 13.5073 26.3025L7.45604 15.9545C7.12122 15.382 7.6547 14.6956 8.30152 14.8667L26.6583 19.723C27.4602 19.9351 28.2845 19.4653 28.4994 18.6735L33.4182 0.550221C33.5916 -0.0883707 34.4604 -0.201293 34.7952 0.371256L40.8487 10.7233C41.1381 11.2181 41.8616 11.2181 42.1509 10.7233L48.2047 0.371256C48.5391 -0.201294 49.408 -0.0883714 49.5813 0.550221L54.5004 18.6735C54.715 19.4653 55.5396 19.9351 56.3416 19.723L74.6981 14.8667C75.3449 14.6956 75.8786 15.382 75.5437 15.9545L69.4923 26.3025C69.2029 26.7972 69.5648 27.4156 70.1432 27.4156L82.2469 27.4155C82.9166 27.4155 83.2518 28.2148 82.7783 28.6823L69.3401 41.9497C68.753 42.5292 68.753 43.4687 69.3401 44.0482L82.7783 57.3154C83.2518 57.7829 82.9166 58.5821 82.2469 58.5821H70.1421ZM65.5221 30.1357C66.0659 29.5989 65.5386 28.6977 64.796 28.8942L48.4493 33.2187C47.6473 33.4308 46.8231 32.961 46.6082 32.1692L42.2257 16.0224C42.0269 15.2891 40.9727 15.2891 40.7739 16.0224L36.3915 32.1692C36.1766 32.961 35.3523 33.4308 34.5503 33.2187L18.2042 28.8944C17.4614 28.6979 16.9344 29.599 17.4782 30.1359L29.4443 41.9497C30.0314 42.5292 30.0314 43.4691 29.4443 44.0486L17.4754 55.865C16.9316 56.4019 17.4586 57.3027 18.2014 57.1065L34.5503 52.7813C35.3523 52.5691 36.1766 53.0392 36.3915 53.8306L40.7739 69.9777C40.9727 70.7109 42.0269 70.7109 42.2257 69.9777L46.6082 53.8306C46.8231 53.0392 47.6473 52.5691 48.4493 52.7813L64.7987 57.1065C65.5417 57.3031 66.0685 56.4019 65.5247 55.865L53.556 44.0486C52.9686 43.4691 52.9686 42.5292 53.556 41.9497L65.5221 30.1357Z" fill="white"/>
</svg>
