<svg viewBox="0 0 548 85" width="548" height="85" fill="none" xmlns="http://www.w3.org/2000/svg"><g transform="translate(0.0000, 0.0000) scale(0.400000)">
<mask id="mask0_128_115" style="mask-type:luminance" maskUnits="userSpaceOnUse" x="0" y="0" width="1010" height="200">
<path d="M1009.35 0H0V200H1009.35V0Z" fill="white"/>
</mask>
<g mask="url(#mask0_128_115)">
<path d="M65.9461 0C29.525 0 0 28.7815 0 64.285C0 99.7885 29.525 128.57 65.9461 128.57H139.219C143.266 128.57 146.547 131.768 146.547 135.713C146.547 139.658 143.266 142.855 139.219 142.855H5.12911C2.29639 142.855 0 145.095 0 147.855V194.998C0 197.76 2.29639 199.998 5.12911 199.998H139.219C175.64 199.998 205.165 171.216 205.165 135.713C205.165 100.209 175.64 71.428 139.219 71.428H65.9461C61.8992 71.428 58.6186 68.23 58.6186 64.285C58.6186 60.3405 61.8992 57.1425 65.9461 57.1425H190.199C190.304 57.1435 190.408 57.144 190.512 57.144H212.494C216.541 57.144 219.822 60.342 219.822 64.287V195C219.822 197.761 222.118 200 224.951 200H273.311C276.144 200 278.44 197.761 278.44 195V64.287C278.44 28.7831 248.915 0.00160203 212.494 0.00160203H205.165L65.9461 0Z" fill="white"/>
<path d="M430.549 200C414.142 200 399.972 197.215 388.04 191.644C376.106 186.074 366.691 178.347 359.792 168.463C353.081 158.401 349.166 146.721 348.047 133.423L384.963 131.267C386.64 143.666 391.302 153.189 398.946 159.838C406.59 166.487 417.311 169.811 431.108 169.811C442.854 169.811 451.896 167.745 458.235 163.612C464.761 159.299 468.024 153.1 468.024 145.013C468.024 140.161 466.812 135.848 464.388 132.075C461.964 128.301 457.303 124.798 450.405 121.563C443.507 118.328 433.252 115.184 419.641 112.129C403.234 108.535 390.09 104.492 380.208 100C370.327 95.328 363.149 89.5775 358.675 82.7495C354.199 75.741 351.962 67.026 351.962 56.6035C351.962 45.4627 354.852 35.6694 360.631 27.2237C366.412 18.5983 374.615 11.9496 385.242 7.2776C395.87 2.42587 408.642 0 423.557 0C439.405 0 452.828 2.78526 463.829 8.3558C475.015 13.7466 483.685 21.2039 489.838 30.7277C496.177 40.2515 500.092 51.213 501.583 63.612L464.947 65.229C463.642 54.807 459.447 46.3612 452.363 39.8922C445.277 33.4232 435.489 30.1887 422.998 30.1887C412.556 30.1887 404.26 32.5247 398.107 37.1968C392.141 41.8688 389.157 47.8886 389.157 55.256C389.157 60.467 390.37 64.78 392.793 68.194C395.404 71.6085 399.972 74.573 406.497 77.089C413.023 79.6045 422.158 82.1205 433.905 84.636C451.617 88.4095 465.693 93.0815 476.134 98.652C486.575 104.043 494.033 110.422 498.507 117.789C502.984 125.157 505.22 133.602 505.22 143.127C505.22 154.807 502.049 164.959 495.71 173.585C489.558 182.03 480.888 188.589 469.702 193.261C458.702 197.754 445.65 200 430.549 200Z" fill="white"/>
<path d="M584.807 195.596C569.892 195.596 558.893 192.363 551.805 185.893C544.908 179.244 541.457 168.732 541.457 154.357V78.346H517.969V51.6615H541.457V17.9688H577.254V51.6615H616.688V78.346H577.254V151.122C577.254 157.951 578.75 162.623 581.731 165.138C584.902 167.655 589.558 168.912 595.715 168.912H616.688V195.596H584.807Z" fill="white"/>
<path d="M699.447 198.842C684.527 198.842 671.572 195.787 660.574 189.678C649.57 183.388 641.087 174.583 635.12 163.262C629.153 151.942 626.172 138.734 626.172 123.64C626.172 108.545 629.153 95.3375 635.12 84.017C641.087 72.6965 649.48 63.981 660.294 57.8715C671.292 51.582 684.062 48.4375 698.607 48.4375C712.777 48.4375 725.176 51.4925 735.799 57.602C746.428 63.7115 754.631 72.5165 760.413 84.017C766.38 95.5175 769.361 109.354 769.361 125.526V133.343H663.37C663.93 145.922 667.471 155.445 673.993 161.915C680.52 168.203 689.098 171.348 699.722 171.348C715.948 171.348 726.291 164.7 730.768 151.402L767.405 153.559C763.304 167.575 755.191 178.626 743.072 186.712C731.138 194.799 716.598 198.842 699.447 198.842ZM663.37 110.162H732.443C731.513 98.4825 727.972 89.8575 721.82 84.2865C715.853 78.5365 708.115 75.661 698.607 75.661C688.913 75.661 680.986 78.626 674.834 84.556C668.681 90.486 664.86 99.022 663.37 110.162Z" fill="white"/>
<path d="M857.645 198.842C842.73 198.842 829.771 195.787 818.772 189.678C807.773 183.388 799.29 174.583 793.323 163.262C787.356 151.942 784.375 138.734 784.375 123.64C784.375 108.545 787.356 95.3375 793.323 84.017C799.29 72.6965 807.678 63.981 818.492 57.8715C829.49 51.582 842.265 48.4375 856.805 48.4375C870.98 48.4375 883.379 51.4925 894.003 57.602C904.626 63.7115 912.834 72.5165 918.611 84.017C924.578 95.5175 927.564 109.354 927.564 125.526V133.343H821.568C822.128 145.922 825.669 155.445 832.196 161.915C838.724 168.203 847.297 171.348 857.925 171.348C874.146 171.348 884.494 164.7 888.966 151.402L925.603 153.559C921.497 167.575 913.389 178.626 901.275 186.712C889.341 194.799 874.801 198.842 857.645 198.842ZM821.568 110.162H890.646C889.711 98.4825 886.17 89.8575 880.018 84.2865C874.051 78.5365 866.313 75.661 856.805 75.661C847.112 75.661 839.189 78.626 833.037 84.556C826.88 90.486 823.058 99.022 821.568 110.162Z" fill="white"/>
<path d="M987.7 200C976.701 200 968.123 196.695 961.596 191.304C955.254 185.914 951.562 173.585 951.562 161.725V0H987.36V158.221C987.36 165.408 991.086 169.002 998.549 169.002H1009.45V200H987.7Z" fill="white"/>
</g>
</g></svg>