<svg width="116" height="80" viewBox="0 0 116 80" fill="none" xmlns="http://www.w3.org/2000/svg">
<path d="M78.5444 37.9978L70.3174 40.0178L65.6216 31.8711L62.7194 26.8511L59.4491 21.2467L51.8421 8.12222H39.5417L8.77713 61.2156L14.9341 71.8067H19.6321V79.9533H12.5828C11.8686 79.9512 11.1674 79.7628 10.5491 79.4069C9.93067 79.0509 9.41667 78.5398 9.05821 77.9245L0.547822 63.26C0.188937 62.6408 0 61.9384 0 61.2233C0 60.5083 0.188937 59.8059 0.547822 59.1867L33.677 2.02889C34.0356 1.4132 34.55 0.901895 35.1688 0.545914C35.7876 0.189933 36.4892 0.00170941 37.2038 0L54.2157 0C54.9299 0.00209725 55.6311 0.190504 56.2494 0.546466C56.8678 0.902428 57.3818 1.41353 57.7403 2.02889L68.8807 21.2289L70.3263 23.7489L73.5988 29.3444L75.0555 31.8556L78.5444 37.9978Z" fill="url(#paint0_linear_93_26)"/>
<path d="M44.2572 58.7466L33.1256 77.9488C32.7681 78.5657 32.2546 79.0784 31.6361 79.436C31.0177 79.7935 30.316 79.9834 29.601 79.9866H19.6317L8.78125 61.2488L14.9382 71.8399H27.2074L39.5212 50.5933L44.2572 58.7466Z" fill="url(#paint1_linear_93_26)"/>
<path d="M78.5421 42.0533L70.0362 56.7199C69.6786 57.3365 69.165 57.849 68.5465 58.2061C67.9281 58.5633 67.2265 58.7527 66.5116 58.7555H56.5668L53.2965 53.1488L51.8398 50.6399H64.1091L70.2571 40.051L69.0881 38.0288H78.4841C78.8431 38.6371 79.0371 39.3279 79.0473 40.0334C79.0575 40.7389 78.8834 41.4349 78.5421 42.0533Z" fill="url(#paint2_linear_93_26)"/>
<path d="M101.099 8.16439H88.7831L76.5139 29.4044L71.8203 21.2555L82.9585 2.0555C83.317 1.44014 83.831 0.929039 84.4494 0.573077C85.0678 0.217116 85.769 0.0287086 86.4832 0.0266113H96.4034L101.099 8.16439Z" fill="url(#paint3_linear_93_26)"/>
<path d="M115.481 20.8134L82.3585 77.9645C82.0009 78.5811 81.4873 79.0935 80.8688 79.4507C80.2504 79.8079 79.5487 79.9973 78.8339 80H61.8243C61.1094 79.9973 60.4078 79.8079 59.7894 79.4507C59.1709 79.0935 58.6573 78.5811 58.2997 77.9645L48.6181 61.2623L45.7047 56.2512L42.4344 50.6467L40.9777 48.1378L37.4531 42.0534L45.6802 40.0156L50.3827 48.1623L51.8394 50.6734L53.2938 53.18L56.5664 58.7867L58.0141 61.2867L62.7144 69.4334L64.171 71.9445H76.4403L107.212 18.84L101.061 8.24894H96.5061L96.361 0.104492H103.41C104.124 0.106589 104.826 0.294997 105.444 0.650958C106.062 1.00692 106.576 1.51802 106.935 2.13338L115.441 16.7978C115.795 17.4067 115.985 18.0966 115.992 18.8003C115.999 19.504 115.823 20.1976 115.481 20.8134Z" fill="url(#paint4_linear_93_26)"/>
<path d="M51.8548 29.3954L45.7046 39.9866L46.8824 42.0221H37.4775C37.1186 41.4029 36.9297 40.7005 36.9297 39.9854C36.9297 39.2704 37.1186 38.568 37.4775 37.9488L45.9834 23.2843C46.3418 22.6664 46.8569 22.1532 47.477 21.7959C48.0971 21.4387 48.8006 21.25 49.517 21.2488H59.4684L62.741 26.8532L64.1954 29.3621L51.8548 29.3954Z" fill="url(#paint5_linear_93_26)"/>
<defs>
<linearGradient id="paint0_linear_93_26" x1="-2.7381" y1="57.6222" x2="66.6345" y2="17.4161" gradientUnits="userSpaceOnUse">
<stop offset="0.2" stop-color="#668CFF"/>
<stop offset="0.49" stop-color="#00AAFF"/>
<stop offset="0.8" stop-color="#00BFB5"/>
</linearGradient>
<linearGradient id="paint1_linear_93_26" x1="15.5851" y1="73.0044" x2="43.2313" y2="56.9769" gradientUnits="userSpaceOnUse">
<stop offset="0.5" stop-color="#668CFF"/>
<stop offset="1" stop-color="#00AAFF" stop-opacity="0"/>
</linearGradient>
<linearGradient id="paint2_linear_93_26" x1="55.0053" y1="56.0755" x2="80.4651" y2="41.3175" gradientUnits="userSpaceOnUse">
<stop stop-color="#00AAFF" stop-opacity="0"/>
<stop offset="0.4" stop-color="#00BFB5"/>
</linearGradient>
<linearGradient id="paint3_linear_93_26" x1="71.2069" y1="20.3111" x2="98.8531" y2="4.29249" gradientUnits="userSpaceOnUse">
<stop stop-color="#00BFB5" stop-opacity="0"/>
<stop offset="0.5" stop-color="#00CC7C"/>
</linearGradient>
<linearGradient id="paint4_linear_93_26" x1="49.2717" y1="62.3956" x2="118.635" y2="22.1961" gradientUnits="userSpaceOnUse">
<stop offset="0.2" stop-color="#00AAFF"/>
<stop offset="0.51" stop-color="#00BFB5"/>
<stop offset="0.8" stop-color="#00CC7C"/>
</linearGradient>
<linearGradient id="paint5_linear_93_26" x1="35.5077" y1="38.6488" x2="60.9742" y2="23.8841" gradientUnits="userSpaceOnUse">
<stop offset="0.6" stop-color="#00AAFF"/>
<stop offset="1" stop-color="#00BFB5" stop-opacity="0"/>
</linearGradient>
</defs>
</svg>
