<svg viewBox="0 0 83.12 80" width="83.12" height="80" fill="none" xmlns="http://www.w3.org/2000/svg"><g transform="translate(0.0000, 0.0000) scale(0.240232)">
<path d="M102 151.001L14.92 100.361C14.73 98.5908 15.46 97.1508 16.1 95.5908C17.14 93.0708 28.81 73.0708 30.01 72.4408C30.75 72.0508 31.44 71.8808 32.25 72.1408L117.99 120.991L69.02 34.3808L69.12 32.1208C74.3 31.2608 93.25 16.3208 96.3 17.1208C97.99 17.5608 101.18 23.2908 102.41 25.0908C127.06 61.0608 148.34 99.5508 172.97 135.531C180.15 146.011 186.57 155.101 198.07 161.431L316.55 236.011C317.44 237.051 316.57 237.791 316.22 238.711C313.47 245.901 303.51 255.751 300.84 263.881L299.57 264.041L211 214.011L261.03 302.581L259.78 304.331L233.63 318.861L181 230.011V333.011H148V232.011L96.4 318.931L69.99 304.531L68.97 301.581L118.51 214.031L31.48 264.001C30.62 264.051 30.07 263.571 29.44 263.101C28.36 262.281 16.81 242.141 15.79 239.741C15.23 238.431 14.43 236.481 15.18 235.191L103 184.011H0V151.011H102V151.001Z" fill="white"/>
<path d="M232 0C231.04 19.84 231.21 39.61 231.04 59.54C231 63.75 229.71 67.52 230.02 72.49C231.02 88.75 242.83 103.3 259.51 104.99C279.24 106.99 300.76 104.42 320.46 103.96C328.96 103.76 337.51 104.19 346 104V138C320.84 137.85 295.64 138.23 270.46 137.95C249.51 137.72 235.46 136.4 218.99 121.51C184.68 90.51 201.18 46.02 197.96 5.45L199.01 0H232.01L232 0Z" fill="white"/>
</g></svg>