<svg width="81" height="80" viewBox="0 0 81 80" fill="none" xmlns="http://www.w3.org/2000/svg">
<path d="M0.372928 33.5945C0.181639 34.9488 0.0571764 36.312 0 37.6788H60.9844C60.7713 37.2585 60.4853 36.8795 60.1968 36.5086C49.7711 22.9004 44.1628 24.0803 36.1402 23.7346C33.4655 23.6234 31.6515 23.5789 21.0049 23.5789C15.3066 23.5789 9.11155 23.5935 3.079 23.6096C2.29813 25.7392 1.54497 27.8035 1.1782 29.4826H32.4287V33.5945H0.372928ZM61.465 41.7948H0.0313618C0.0956835 42.8919 0.196957 43.9745 0.343163 45.0425H57.0614C59.5899 45.0425 61.0052 43.5932 61.465 41.7948ZM3.5296 56.26C3.5296 56.26 12.9324 79.5854 40.1017 80C56.3405 80 70.2937 70.2561 76.6316 56.26H3.5296Z" fill="white"/>
<path d="M40.3677 0C25.3964 0 12.3684 8.19154 5.48866 20.3004C10.865 20.2893 21.3359 20.2828 21.3359 20.2828H21.3383V20.2789C33.7147 20.2789 34.1747 20.3339 36.5925 20.4345L38.0895 20.4896C43.3041 20.6627 49.7134 21.2205 54.7565 25.0223C57.494 27.0842 61.4464 31.6353 63.8025 34.8775C65.9806 37.8765 66.6073 41.3239 65.1264 44.6269C63.7632 47.6625 60.8302 49.4731 57.2784 49.4731H1.6875C1.6875 49.4731 2.01841 50.8708 2.51466 52.4137H78.3982C79.7453 48.3778 80.4341 44.1527 80.4383 39.8994C80.4394 17.8657 62.4987 0 40.3677 0Z" fill="white"/>
</svg>
