<svg width="79" height="80" viewBox="0 0 79 80" fill="none" xmlns="http://www.w3.org/2000/svg">
<path d="M78.8172 18.982C78.8056 18.7085 78.782 18.441 78.7586 18.1674C78.7528 18.1021 78.7528 18.0308 78.741 17.9653C78.7234 17.7989 78.7 17.6384 78.6766 17.4719C78.6532 17.2994 78.6356 17.133 78.6123 16.9666C78.5947 16.8477 78.5711 16.7288 78.5477 16.6159C78.5125 16.4079 78.4773 16.1938 78.4363 15.9858C78.4011 15.8192 78.3601 15.6589 78.325 15.4922C78.29 15.3317 78.2548 15.1773 78.2196 15.0167C78.1786 14.8503 78.1258 14.6898 78.079 14.5234C78.0379 14.3687 77.9969 14.2202 77.9501 14.0656C77.8973 13.8991 77.8387 13.7327 77.7801 13.5661C77.7334 13.4234 77.6864 13.2808 77.6396 13.1381C77.5634 12.9301 77.4813 12.728 77.4051 12.5258C77.3641 12.4248 77.3289 12.3296 77.2879 12.2285C77.1942 12.0085 77.1006 11.7946 77.0008 11.5805C76.9656 11.5034 76.9307 11.42 76.8955 11.3429C76.8017 11.1407 76.6961 10.9445 76.5966 10.7483C76.5498 10.6592 76.5088 10.5699 76.4618 10.4808C76.3447 10.2608 76.2157 10.0408 76.0927 9.82689C76.0576 9.76743 76.0282 9.70797 75.9932 9.6485C75.8584 9.42263 75.7177 9.20264 75.5713 8.98265C75.542 8.93516 75.5128 8.88747 75.4834 8.83998C75.3076 8.57838 75.1259 8.31679 74.9386 8.06129C74.7626 7.82344 74.5811 7.58559 74.3935 7.35383C74.3818 7.33597 74.3702 7.31811 74.3526 7.30025C70.7317 2.84749 65.265 0.017857 59.1422 0.0119717V0L59.1246 0.0119717H59.1306C57.4314 0.0119717 55.779 0.231761 54.2029 0.642111C53.2597 0.885845 52.3398 1.2069 51.4551 1.58133C51.162 1.70614 50.8691 1.84292 50.582 1.97971C44.7639 4.82131 40.5454 10.4808 39.6137 17.2103H39.6019C39.1919 20.0936 38.3188 22.8223 37.0766 25.3311H37.1176C32.7935 34.0343 23.9111 40.0089 13.6459 40.0089C9.06418 40.0089 4.76351 38.8199 1.01364 36.7332C0.574197 36.4895 0.0409827 36.8106 0.0409827 37.3159V40.0089H0V80H39.4204V60.0014H39.4614V50.0022C39.4614 44.4793 43.8732 40.003 49.3165 40.003H59.1716C60.859 40.003 62.4936 39.7831 64.058 39.3729C65.0013 39.1231 65.9212 38.8081 66.806 38.4335C67.0989 38.3087 67.3918 38.1719 67.6789 38.0353C73.708 35.0866 78.0321 29.1119 78.741 22.0554C78.8056 21.3837 78.8406 20.7 78.8406 20.0104C78.8406 19.6656 78.8348 19.3208 78.8172 18.982Z" fill="black"/>
</svg>
