<svg width="102" height="80" viewBox="0 0 102 80" fill="none" xmlns="http://www.w3.org/2000/svg">
<path d="M82.1494 68.5714C77.8639 73.5089 72.5277 77.449 66.4961 80H93.6392L101.82 68.5714H82.1494Z" fill="white"/>
<path d="M51.1352 0C29.4492 0 11.8696 17.9112 11.8696 39.9938C11.8696 49.7356 15.3078 58.6476 20.9813 65.592H38.1965C29.0969 60.8016 22.8523 51.134 22.8523 39.9938C22.8523 24.1126 35.5358 11.1898 51.1229 11.1898C66.71 11.1898 79.3939 24.1126 79.3939 39.9938C79.3939 55.8748 66.71 68.7976 51.1229 68.7976H8.13981L0 80H51.1352C72.8213 80 90.3884 62.0888 90.3884 40.006C90.3884 17.9236 72.8213 0 51.1352 0Z" fill="white"/>
</svg>
