<svg width="66" height="80" viewBox="0 0 66 80" fill="none" xmlns="http://www.w3.org/2000/svg">
<path fill-rule="evenodd" clip-rule="evenodd" d="M60.3334 13.8334L46.5 40.1667L60.3334 66.5001L66.0002 63.3334V17L60.3334 13.8334Z" fill="#E25444"/>
<path fill-rule="evenodd" clip-rule="evenodd" d="M60.3363 13.8334L32.6694 17L18.5859 40.1667L32.6694 63.3334L60.3363 66.5001V13.8334Z" fill="#7B1D13"/>
<path fill-rule="evenodd" clip-rule="evenodd" d="M4.50004 13.8334L0 15.8334V64.5001L4.50004 66.5001L32.6669 40.1667L4.50004 13.8334Z" fill="#58150D"/>
<path fill-rule="evenodd" clip-rule="evenodd" d="M4.44141 13.7778L32.7061 21.6297V59.4074L4.44141 66.5185V13.7778Z" fill="#E25444"/>
<path fill-rule="evenodd" clip-rule="evenodd" d="M32.7202 25.7779L20.7188 23.8519L32.7202 10.2222L44.692 23.8519L32.7202 25.7779Z" fill="#58150D"/>
<path fill-rule="evenodd" clip-rule="evenodd" d="M44.692 23.8519L32.7054 25.8074L20.7188 23.8519V10.2222" fill="#58150D"/>
<path fill-rule="evenodd" clip-rule="evenodd" d="M32.7202 54.3704L20.7188 56.5927L32.7202 68.2964L44.692 56.5927L32.7202 54.3704Z" fill="#58150D"/>
<path fill-rule="evenodd" clip-rule="evenodd" d="M32.6681 6.10352e-05L20.668 6.3334V23.8334L32.7054 20.4446L32.6681 6.10352e-05Z" fill="#7B1D13"/>
<path fill-rule="evenodd" clip-rule="evenodd" d="M32.7054 30.074L20.7188 31.3779V48.8509L32.7054 50.2222V30.074Z" fill="#7B1D13"/>
<path fill-rule="evenodd" clip-rule="evenodd" d="M32.7054 59.5556L20.7188 56.55V73.7272L32.7054 80.0001V59.5556Z" fill="#7B1D13"/>
<path fill-rule="evenodd" clip-rule="evenodd" d="M44.6897 56.55L32.7031 59.5564V80.0001L44.6897 73.7272V56.55Z" fill="#E25444"/>
<path fill-rule="evenodd" clip-rule="evenodd" d="M32.7031 30.074L44.6897 31.3779V48.8509L32.7031 50.2222V30.074Z" fill="#E25444"/>
<path fill-rule="evenodd" clip-rule="evenodd" d="M32.6641 6.10352e-05L44.6642 6.3334V23.8334L32.6641 20.5001V6.10352e-05Z" fill="#E25444"/>
</svg>
