<svg width="77" height="80" viewBox="0 0 77 80" fill="none" xmlns="http://www.w3.org/2000/svg">
<path fill-rule="evenodd" clip-rule="evenodd" d="M68.1009 43.8704L68.5076 40.8453C71.7471 42.8191 72.7476 43.9594 73.0381 44.4406C72.1792 44.7003 70.4451 44.4715 68.1009 43.8704ZM35.9571 32.8865C35.9571 32.7902 36.0351 32.7122 36.1314 32.7122C36.1586 32.7122 36.1786 32.7303 36.2022 32.743L36.0696 33.01C36.0097 32.9918 35.9571 32.9555 35.9571 32.8865ZM60.8557 70.4506C60.8448 70.5323 60.8394 70.6122 60.8394 70.6921C60.8394 70.9735 60.1512 72.043 57.0915 73.2506C55.7278 73.7899 54.1172 74.2729 52.3013 74.6905C47.6256 75.7727 41.8803 76.3683 36.1277 76.3683C20.7549 76.3683 11.4198 72.428 11.4198 70.6921C11.4198 70.6122 11.4143 70.5323 11.4034 70.4506L4.43244 18.6758C4.88095 18.9373 5.36214 19.1861 5.86695 19.4294C6.0104 19.4984 6.16656 19.5637 6.31545 19.6327C6.75125 19.8343 7.2034 20.0286 7.67551 20.2174C7.87888 20.2973 8.08407 20.3772 8.29289 20.4553C8.79406 20.6442 9.31157 20.8257 9.84724 21.0001C10.0052 21.0527 10.1559 21.1072 10.3157 21.1562C11.0039 21.3723 11.7175 21.5793 12.453 21.7736C12.6581 21.8281 12.8706 21.8807 13.0794 21.9316C13.646 22.0769 14.2234 22.2149 14.8135 22.3456C15.0696 22.4037 15.3238 22.46 15.5816 22.5127C16.2444 22.6525 16.9217 22.7868 17.6099 22.9121C17.7588 22.9394 17.9023 22.9684 18.053 22.9957C18.8846 23.1409 19.7363 23.2753 20.6006 23.4024C20.8439 23.4369 21.0909 23.4678 21.3378 23.5005C21.9915 23.5913 22.6543 23.6748 23.3225 23.7529C23.5949 23.7837 23.8691 23.8164 24.1451 23.8473C24.9513 23.9326 25.7648 24.0107 26.5837 24.0815C26.68 24.0888 26.778 24.0997 26.8779 24.107C27.7931 24.1814 28.7137 24.2413 29.6362 24.2958C29.8995 24.3103 30.1627 24.3212 30.4279 24.3339C31.1251 24.3684 31.8224 24.3957 32.5197 24.4193C32.7939 24.4284 33.0644 24.4374 33.3368 24.4447C34.2683 24.4647 35.1999 24.481 36.1277 24.481C37.0538 24.481 37.9853 24.4647 38.9169 24.4447C39.1892 24.4374 39.4634 24.4284 39.7358 24.4193C40.4349 24.3957 41.1304 24.3684 41.8258 24.3339C42.0927 24.3212 42.356 24.3103 42.6212 24.2958C43.5454 24.2413 44.4642 24.1814 45.3776 24.107C45.4793 24.0979 45.5791 24.087 45.679 24.0815C46.4979 24.0107 47.306 23.9326 48.1086 23.8473C48.3882 23.8164 48.6624 23.7837 48.9384 23.7529C49.603 23.6748 50.264 23.5913 50.9159 23.5023C51.1646 23.4696 51.4152 23.4369 51.6604 23.4006C52.5229 23.2753 53.3727 23.1409 54.2061 22.9957C54.3569 22.9684 54.5039 22.9394 54.6547 22.9103C55.341 22.7868 56.0147 22.6525 56.6775 22.5127C56.9371 22.46 57.1896 22.4037 57.4456 22.3456C58.0357 22.213 58.6132 22.075 59.1815 21.9316C59.3885 21.8789 59.601 21.8281 59.8062 21.7754C60.5434 21.5793 61.257 21.3723 61.9452 21.1562C62.1032 21.1072 62.2521 21.0545 62.4064 21.0019C62.9457 20.8276 63.4669 20.6442 63.9717 20.4535C64.1769 20.3772 64.3802 20.2992 64.5818 20.2193C65.0575 20.0286 65.5133 19.8325 65.9546 19.6291C66.098 19.5619 66.2505 19.4984 66.3922 19.4312C66.897 19.1879 67.38 18.9373 67.8285 18.6758L64.5745 42.8372C57.9704 40.7182 48.6951 36.8741 39.9156 32.6995C39.8157 30.6893 38.1651 29.0805 36.1314 29.0805C34.0323 29.0805 32.3254 30.7892 32.3254 32.8865C32.3254 34.9838 34.0323 36.6907 36.1314 36.6907C36.9558 36.6907 37.7148 36.4201 38.3376 35.9716C46.2038 39.7467 56.2471 44.2009 64.0861 46.4634L60.8557 70.4506ZM36.1277 3.63166C55.0469 3.63166 68.3769 9.49316 68.6238 12.7489L68.5766 13.1266C68.5439 13.2392 68.4731 13.3536 68.4132 13.4698C68.3642 13.5642 68.3278 13.655 68.2607 13.7513C68.1808 13.8639 68.0627 13.9783 67.9592 14.0927C67.8666 14.1925 67.7885 14.2924 67.6778 14.3941C67.5543 14.5048 67.3963 14.6192 67.2492 14.7318C67.1131 14.8371 66.9932 14.9406 66.8371 15.0478C66.6718 15.1567 66.4739 15.2693 66.2887 15.3819C66.1089 15.489 65.9437 15.598 65.7421 15.7051C65.5424 15.8141 65.3081 15.9194 65.0884 16.0283C64.8632 16.1391 64.6526 16.248 64.4057 16.3588C64.1714 16.4623 63.9045 16.5658 63.6539 16.6693C63.3815 16.7783 63.1255 16.8908 62.835 16.998C62.5662 17.0997 62.2648 17.1977 61.9797 17.2958C61.6692 17.4029 61.3714 17.5119 61.0409 17.6172C60.734 17.7152 60.3963 17.806 60.0713 17.9023C59.7263 18.004 59.394 18.1075 59.0308 18.2055C58.6822 18.2999 58.3063 18.3871 57.9431 18.4779C57.5672 18.5705 57.2041 18.6667 56.81 18.7575C56.4178 18.8465 55.9966 18.9282 55.5862 19.0136C55.1903 19.0953 54.8054 19.1824 54.3914 19.2605C53.9556 19.344 53.4889 19.4185 53.0349 19.4966C52.6173 19.5674 52.2124 19.6436 51.7784 19.7108C51.3063 19.7835 50.8051 19.8488 50.3148 19.916C49.8718 19.9759 49.4396 20.0431 48.982 20.0976C48.45 20.163 47.8889 20.2174 47.3387 20.2737C46.8956 20.3209 46.4671 20.3736 46.0131 20.4136C45.403 20.4698 44.7638 20.5116 44.1356 20.5552C43.7125 20.5879 43.3039 20.6242 42.8717 20.6514C42.1835 20.6914 41.4627 20.7168 40.749 20.7477C40.3568 20.7622 39.9755 20.7858 39.5742 20.7985C38.4502 20.8312 37.3008 20.8494 36.1277 20.8494C34.9547 20.8494 33.8053 20.8312 32.6795 20.7985C32.2764 20.7858 31.8914 20.7604 31.4919 20.7459C30.7838 20.7168 30.0701 20.6914 29.3838 20.6514C28.9298 20.6224 28.4976 20.5842 28.0527 20.5516C27.4481 20.508 26.8307 20.468 26.2442 20.4136C25.7884 20.3736 25.3599 20.3191 24.915 20.2737C24.3648 20.2174 23.8037 20.163 23.2735 20.0976C22.8195 20.0431 22.3892 19.9778 21.9479 19.916C21.4577 19.8488 20.9529 19.7853 20.4789 19.7108C20.0286 19.6418 19.6073 19.5619 19.1733 19.4875C18.7357 19.4112 18.2872 19.3404 17.8678 19.2605C17.4465 19.1806 17.0561 19.0934 16.6493 19.0099C16.2462 18.9246 15.8322 18.8447 15.4454 18.7557C15.0532 18.6667 14.6919 18.5705 14.316 18.4779C13.9528 18.3871 13.5751 18.2999 13.2283 18.2055C12.8597 18.1075 12.5238 18.0021 12.1733 17.8986C11.8537 17.806 11.5214 17.7134 11.2182 17.6172C10.8823 17.51 10.5808 17.4011 10.2667 17.2903C9.98525 17.1941 9.68927 17.0979 9.42597 16.998C9.13181 16.8908 8.87577 16.7764 8.6034 16.6675C8.35282 16.564 8.08589 16.4605 7.85346 16.3588C7.61014 16.248 7.39769 16.1391 7.17253 16.0283C6.95281 15.9194 6.71675 15.8141 6.51701 15.7033C6.31727 15.5962 6.15021 15.4872 5.96863 15.3783C5.78523 15.2675 5.58731 15.1567 5.42388 15.0478C5.26591 14.9388 5.14243 14.8335 5.00443 14.7264C4.86098 14.6156 4.70481 14.503 4.58497 14.3941C4.47057 14.2906 4.39068 14.1871 4.29625 14.0872C4.19457 13.9746 4.08017 13.862 4.00027 13.7513C3.93127 13.6532 3.89677 13.5588 3.84593 13.4607C3.78782 13.3482 3.717 13.2356 3.68613 13.1266L3.63529 12.7471C3.88769 9.49134 17.2141 3.63166 36.1277 3.63166ZM76.7279 44.0466C76.3411 41.9584 73.9351 39.7467 69.0342 36.9467L72.1502 13.7912V13.784L72.2428 13.074C72.2537 12.9959 72.2591 12.9178 72.2591 12.8397C72.2591 5.27317 53.2183 0 36.1277 0C19.039 0 0 5.27317 0 12.8397C0 12.9196 0.0054476 12.9995 0.0163426 13.0794L0.110766 13.7876V13.7912L7.78991 70.8337C8.02778 77.5087 25.2455 80 36.1277 80C42.1472 80 48.1812 79.3717 53.1185 78.2296C55.1068 77.772 56.8918 77.2327 58.4243 76.628C62.3574 75.0755 64.3893 73.1253 64.4692 70.8337L67.6306 47.3568C69.3592 47.7236 70.9299 47.947 72.2355 47.947C73.995 47.947 75.3115 47.5747 76.0233 46.7249C76.6589 45.9695 76.9095 45.018 76.7279 44.0466Z" fill="#7AA116"/>
</svg>
