<svg viewBox="0 0 111 80" width="111" height="80" fill="none" xmlns="http://www.w3.org/2000/svg"><g transform="translate(0.0000, 0.0000) scale(1.000000)">
<path d="M26.2893 0C11.7701 0 0 11.5126 0 25.714C0 39.9154 11.7701 51.4282 26.2893 51.4282H55.4996C57.1129 51.4282 58.4207 52.7074 58.4207 54.2852C58.4207 55.8634 57.1129 57.1422 55.4996 57.1422H2.04471C0.915454 57.1422 0 58.038 0 59.1422V77.9994C0 79.104 0.915454 79.9994 2.04471 79.9994H55.4996C70.0188 79.9994 81.7889 68.4866 81.7889 54.2852C81.7889 40.0838 70.0188 28.5712 55.4996 28.5712H26.2893C24.6761 28.5712 23.3682 27.292 23.3682 25.714C23.3682 24.1362 24.6761 22.857 26.2893 22.857H75.8227C75.8644 22.8574 75.9059 22.8576 75.9475 22.8576H84.7106C86.3239 22.8576 87.6318 24.1368 87.6318 25.7148V78C87.6318 79.1046 88.547 80 89.6765 80H108.955C110.085 80 111 79.1046 111 78V25.7148C111 11.5132 99.2298 0.000640814 84.7106 0.000640814H81.7889L26.2893 0Z" fill="black"/>
</g></svg>