<svg width="556" height="400" viewBox="0 0 556 400" fill="FFF" xmlns="http://www.w3.org/2000/svg">
<path d="M131.683 0C58.9566 0 0 57.5629 0 128.57C0 199.578 58.9566 257.141 131.683 257.141H277.998C286.079 257.141 292.629 263.537 292.629 271.426C292.629 279.316 286.079 285.712 277.998 285.712H10.242C4.58553 285.712 0 290.189 0 295.712V389.997C0 395.52 4.58553 399.997 10.242 399.997H277.998C350.725 399.997 409.681 342.434 409.681 271.426C409.681 200.419 350.725 142.856 277.998 142.856H131.683C123.603 142.856 117.052 136.46 117.052 128.57C117.052 120.681 123.603 114.285 131.683 114.285H379.797C380.005 114.287 380.213 114.288 380.422 114.288H424.317C432.397 114.288 438.948 120.684 438.948 128.574V390C438.948 395.523 443.534 400 449.19 400H545.758C551.415 400 556 395.523 556 390V128.574C556 57.5661 497.043 0.00320407 424.317 0.00320407H409.681V0H131.683Z" fill="white"/>
</svg>
