<svg viewBox="0 0 80 80" width="80" height="80" fill="none" xmlns="http://www.w3.org/2000/svg"><g transform="translate(0.0000, 0.0000) scale(0.615385)">
<rect width="130" height="130" rx="1" fill="#141414"/>
<path d="M1.06356 69.0301C0.534986 69.0301 0.0968668 68.6188 0.0721557 68.0907C0.0242305 67.0667 0 66.0365 0 65.0007C0 64.1616 0.015898 63.3263 0.0474092 62.4949C0.0675582 61.9633 0.507237 61.5469 1.0392 61.5469H24.9166C25.5032 61.5469 25.9627 62.0495 25.9278 62.6351C25.8811 63.4177 25.8574 64.2064 25.8574 65.0007C25.8574 65.9849 25.8937 66.9608 25.9651 67.9269C26.0088 68.5178 25.5473 69.0301 24.9548 69.0301H1.06356Z" fill="#B2FAB4"/>
<path d="M3.55922 83.9948C3.11934 83.9948 2.73035 83.7076 2.60682 83.2854C2.0701 81.4511 1.61207 79.5833 1.23664 77.6857C1.11578 77.0748 1.58751 76.5117 2.2102 76.5117H26.8382C27.2773 76.5117 27.6638 76.7986 27.8008 77.2159C28.5726 79.5672 29.5611 81.8202 30.7428 83.9513C30.7536 83.9708 30.7395 83.9948 30.7172 83.9948C30.7094 83.9948 30.702 83.9979 30.6965 84.0034L12.861 101.839C12.4237 102.276 11.698 102.216 11.3483 101.706C10.2665 100.128 9.25263 98.4997 8.31072 96.8255C8.09291 96.4384 8.16286 95.9544 8.47695 95.6403L18.4152 85.7019C19.0452 85.072 18.599 83.9948 17.7081 83.9948H3.55922Z" fill="#B2FAB4"/>
<path d="M22.9721 113.358C22.6004 113.73 22.0038 113.751 21.6125 113.4C20.2229 112.154 18.8873 110.849 17.6097 109.488C17.2438 109.099 17.2584 108.49 17.6363 108.112L34.5141 91.234C34.9259 90.8222 35.6003 90.8489 35.9914 91.2803C37.1769 92.5881 38.4496 93.8155 39.8003 94.953C40.2572 95.3378 40.2976 96.0331 39.8753 96.4555L22.9721 113.358Z" fill="#B2FAB4"/>
<path d="M35.0994 121.934C34.7887 122.244 34.3112 122.317 33.9255 122.106C32.2333 121.183 30.5868 120.187 28.99 119.123C28.4712 118.777 28.4056 118.044 28.8466 117.603L46.5339 99.9159C46.563 99.8867 46.5794 99.8472 46.5794 99.806C46.5794 99.6887 46.7045 99.6136 46.8084 99.6682C49.0934 100.869 51.5115 101.852 54.0351 102.587C54.1779 102.629 54.2247 102.808 54.1195 102.914C54.083 102.95 54.0625 103 54.0625 103.051V127.901C54.0625 128.52 53.5056 128.991 52.8972 128.876C51.0003 128.519 49.1325 128.079 47.2977 127.561C46.8711 127.44 46.5794 127.049 46.5794 126.606V112.868C46.5794 111.977 45.5023 111.531 44.8723 112.161L35.0994 121.934Z" fill="#B2FAB4"/>
<path d="M69.0301 128.936C69.0301 129.465 68.619 129.903 68.0911 129.927C67.067 129.975 66.0367 129.999 65.0007 129.999C64.1616 129.999 63.3262 129.984 62.4948 129.952C61.9633 129.932 61.5469 129.493 61.5469 128.961V105.083C61.5469 104.496 62.0498 104.037 62.6356 104.072C63.418 104.119 64.2065 104.142 65.0007 104.142C65.9851 104.142 66.9611 104.106 67.9273 104.034C68.518 103.991 69.0301 104.452 69.0301 105.045V128.936Z" fill="#B2FAB4"/>
<path d="M83.9957 126.44C83.9957 126.88 83.7086 127.269 83.2865 127.392C81.4522 127.929 79.5843 128.387 77.6867 128.763C77.0758 128.884 76.5126 128.412 76.5126 127.789V103.088C76.5126 103.012 76.4827 102.94 76.4295 102.887C76.2772 102.735 76.3433 102.475 76.5491 102.411C78.9922 101.657 81.3329 100.671 83.5458 99.4787C83.7484 99.3695 83.9957 99.5152 83.9957 99.7453C83.9957 99.8253 84.0275 99.902 84.084 99.9586L101.497 117.372C101.936 117.811 101.873 118.54 101.359 118.888C99.7712 119.961 98.1341 120.966 96.451 121.898C96.0646 122.112 95.584 122.041 95.2716 121.729L85.7028 112.16C85.0728 111.53 83.9957 111.976 83.9957 112.867V126.44Z" fill="#B2FAB4"/>
<path d="M112.917 107.515C113.291 107.89 113.31 108.492 112.952 108.882C111.692 110.259 110.373 111.581 108.999 112.845C108.609 113.204 108.005 113.187 107.63 112.812L90.743 95.924C90.3265 95.5075 90.3592 94.8239 90.802 94.4354C92.129 93.2712 93.3765 92.0187 94.5356 90.6871C94.9233 90.2416 95.6092 90.2075 96.0269 90.6251L112.917 107.515Z" fill="#B2FAB4"/>
<path d="M121.729 95.2717C122.041 95.5842 122.112 96.065 121.898 96.4515C120.965 98.1347 119.961 99.7723 118.887 101.359C118.539 101.874 117.81 101.936 117.371 101.497L99.9582 84.084C99.9017 84.0275 99.825 83.9957 99.745 83.9957C99.5151 83.9957 99.3695 83.7485 99.4786 83.5461C100.671 81.333 101.658 78.9917 102.411 76.5485C102.475 76.3431 102.734 76.2773 102.886 76.4295C102.939 76.4827 103.011 76.5126 103.087 76.5126H127.789C128.412 76.5126 128.884 77.0758 128.763 77.6867C128.387 79.5843 127.929 81.4522 127.392 83.2865C127.269 83.7086 126.88 83.9957 126.44 83.9957H112.867C111.976 83.9957 111.53 85.0728 112.16 85.7028L121.729 95.2717Z" fill="#B2FAB4"/>
<path d="M128.961 61.5469C129.493 61.5469 129.932 61.9633 129.952 62.4948C129.984 63.3262 129.999 64.1616 129.999 65.0007C129.999 66.0367 129.975 67.067 129.927 68.0911C129.903 68.619 129.465 69.0301 128.936 69.0301H105.045C104.452 69.0301 103.991 68.518 104.034 67.9273C104.106 66.9611 104.142 65.9851 104.142 65.0007C104.142 64.2065 104.119 63.418 104.072 62.6356C104.037 62.0498 104.496 61.5469 105.083 61.5469H128.961Z" fill="#B2FAB4"/>
<path d="M122.106 33.9254C122.316 34.3111 122.244 34.7884 121.933 35.0991L112.161 44.8723C111.531 45.5023 111.977 46.5794 112.868 46.5794H126.606C127.049 46.5794 127.44 46.8711 127.561 47.2977C128.079 49.1325 128.519 51.0003 128.876 52.8972C128.991 53.5056 128.52 54.0625 127.901 54.0625H103.05C102.999 54.0625 102.949 54.083 102.913 54.1195C102.808 54.2245 102.629 54.1779 102.587 54.0355C101.852 51.5117 100.87 49.0933 99.6682 46.8084C99.6136 46.7045 99.6887 46.5794 99.806 46.5794C99.8472 46.5794 99.8867 46.563 99.9159 46.5339L117.603 28.8465C118.044 28.4056 118.777 28.4711 119.123 28.99C120.187 30.5867 121.183 32.2333 122.106 33.9254Z" fill="#B2FAB4"/>
<path d="M108.112 17.6363C108.49 17.2584 109.099 17.2438 109.488 17.6097C110.849 18.8873 112.154 20.2229 113.4 21.6125C113.751 22.0038 113.73 22.6004 113.358 22.9721L96.4555 39.8753C96.0331 40.2976 95.3378 40.2572 94.953 39.8003C93.8155 38.4496 92.5881 37.1769 91.2803 35.9914C90.8489 35.6003 90.8222 34.9259 91.234 34.5141L108.112 17.6363Z" fill="#B2FAB4"/>
<path d="M95.6403 8.47695C95.9544 8.16286 96.4384 8.09291 96.8255 8.31072C98.4997 9.25263 100.128 10.2665 101.706 11.3483C102.216 11.698 102.276 12.4237 101.839 12.861L84.0034 30.6965C83.9979 30.702 83.9948 30.7094 83.9948 30.7172C83.9948 30.7395 83.9708 30.7536 83.9513 30.7428C81.8202 29.5611 79.5672 28.5726 77.2159 27.8008C76.7986 27.6638 76.5117 27.2773 76.5117 26.8382V2.2102C76.5117 1.58751 77.0748 1.11578 77.6857 1.23664C79.5833 1.61207 81.4511 2.0701 83.2854 2.60682C83.7076 2.73035 83.9948 3.11934 83.9948 3.55922V17.7081C83.9948 18.599 85.072 19.0452 85.7019 18.4152L95.6403 8.47695Z" fill="#B2FAB4"/>
<path d="M61.5469 1.03921C61.5469 0.507238 61.9633 0.0675582 62.4949 0.0474092C63.3263 0.015898 64.1616 0 65.0007 0C66.0365 0 67.0667 0.0242305 68.0907 0.0721556C68.6188 0.0968668 69.0301 0.534987 69.0301 1.06357V24.9548C69.0301 25.5473 68.5178 26.0088 67.9269 25.9651C66.9608 25.8937 65.9849 25.8574 65.0007 25.8574C64.2064 25.8574 63.4177 25.8811 62.6351 25.9278C62.0495 25.9627 61.5469 25.5032 61.5469 24.9166V1.03921Z" fill="#B2FAB4"/>
<path d="M46.5806 3.39435C46.5806 2.95103 46.8723 2.55985 47.2989 2.43937C49.1338 1.92121 51.0016 1.48161 52.8985 1.12441C53.5069 1.00986 54.0637 1.48067 54.0637 2.0997V26.6547C54.0637 27.0996 53.7694 27.4897 53.3447 27.622C51.1671 28.3004 49.0712 29.1637 47.0754 30.1937C46.6824 30.3965 46.2021 30.3275 45.8894 30.0148L28.5032 12.6286C28.0641 12.1895 28.127 11.4602 28.6414 11.1124C30.2288 10.0392 31.8661 9.03435 33.5492 8.10202C33.9356 7.88795 34.4164 7.95903 34.7288 8.27141L44.8735 18.4161C45.5035 19.0461 46.5806 18.5999 46.5806 17.709V3.39435Z" fill="#B2FAB4"/>
<path d="M8.27128 34.7288C7.95889 34.4164 7.88781 33.9356 8.10187 33.5492C9.0342 31.8661 10.039 30.2288 11.1122 28.6414C11.46 28.1269 12.1893 28.0641 12.6284 28.5032L30.0148 45.8894C30.3275 46.2021 30.3965 46.6824 30.1937 47.0754C29.1637 49.0712 28.3004 51.167 27.622 53.3444C27.4897 53.7691 27.0996 54.0634 26.6548 54.0634H2.0997C1.48067 54.0634 1.00986 53.5066 1.12441 52.8982C1.48161 51.0013 1.92121 49.1335 2.43937 47.2986C2.55985 46.872 2.95103 46.5803 3.39435 46.5803H17.7087C18.5996 46.5803 19.0458 45.5032 18.4158 44.8732L8.27128 34.7288Z" fill="#B2FAB4"/>
<path d="M39.3742 33.9734C39.7918 34.3911 39.7577 35.077 39.3122 35.4647C37.9805 36.6238 36.7281 37.8713 35.5639 39.1983C35.1754 39.6411 34.4917 39.6738 34.0752 39.2573L17.3536 22.5355C16.9631 22.145 16.9631 21.5118 17.3536 21.1213L21.2308 17.2442C21.6213 16.8537 22.2545 16.8537 22.645 17.2442L39.3742 33.9734Z" fill="#B2FAB4"/>
</g></svg>