<svg viewBox="0 0 80 80" width="80" height="80" fill="none" xmlns="http://www.w3.org/2000/svg"><g transform="translate(0.0000, 0.0000) scale(1.000000)">
<path d="M1.01631 42.4801C0.487735 42.4801 0.049099 42.0687 0.029103 41.5405C0.00975919 41.0296 0 40.5161 0 40.0004C0 39.6067 0.00568943 39.2142 0.0169905 38.8232C0.0323587 38.2915 0.47255 37.875 1.00452 37.875H14.9136C15.5003 37.875 15.9591 38.3777 15.9342 38.9639C15.9197 39.3076 15.9123 39.6531 15.9123 40.0004C15.9123 40.4621 15.9253 40.9208 15.9509 41.3761C15.9842 41.9677 15.5234 42.4801 14.9309 42.4801H1.01631Z" fill="black"/>
<path d="M2.47506 51.689C2.03518 51.689 1.64571 51.4019 1.52521 50.9788C1.27028 50.0838 1.04574 49.176 0.852778 48.2566C0.724879 47.6472 1.19688 47.084 1.81957 47.084H16.2317C16.6708 47.084 17.0566 47.3712 17.1985 47.7868C17.6594 49.1366 18.2368 50.4324 18.9187 51.6622C18.9254 51.6742 18.9167 51.689 18.9029 51.689C18.8982 51.689 18.8936 51.6909 18.8902 51.6943L8.23587 62.3484C7.79861 62.7857 7.07256 62.7256 6.72871 62.2117C6.21131 61.4383 5.72017 60.6458 5.25656 59.8355C5.03596 59.45 5.10634 58.9657 5.42043 58.6516L10.6759 53.3961C11.3059 52.7661 10.8597 51.689 9.96882 51.689H2.47506Z" fill="black"/>
<path d="M14.3906 69.5047C14.0189 69.8764 13.4219 69.8978 13.0337 69.5434C12.3644 68.9322 11.7159 68.2986 11.0895 67.6437C10.72 67.2575 10.735 66.6483 11.1129 66.2704L20.9459 56.4372C21.3577 56.0254 22.0316 56.0526 22.4301 56.4773C22.9802 57.0637 23.5594 57.6225 24.1653 58.1515C24.6152 58.5444 24.6562 59.2393 24.2338 59.6616L14.3906 69.5047Z" fill="black"/>
<path d="M21.8005 74.8353C21.4898 75.146 21.012 75.2186 20.6278 75.0054C19.8085 74.551 19.007 74.0687 18.2243 73.5597C17.7015 73.2198 17.6361 72.4866 18.077 72.0457L28.636 61.4868C28.6539 61.4689 28.664 61.4446 28.664 61.4192C28.664 61.347 28.741 61.3008 28.8049 61.3344C30.2111 62.0736 31.6991 62.6784 33.2521 63.1306C33.34 63.1562 33.3688 63.2668 33.3041 63.3316C33.2816 63.354 33.269 63.3845 33.269 63.4163V78.2531C33.269 78.8721 32.712 79.3433 32.1049 79.2217C31.1859 79.0377 30.2782 78.8222 29.383 78.5764C28.9555 78.459 28.664 78.0673 28.664 77.624V70.3859C28.664 69.4949 27.5868 69.0488 26.9569 69.6787L21.8005 74.8353Z" fill="black"/>
<path d="M42.4801 78.9831C42.4801 79.5115 42.0689 79.9501 41.5409 79.9701C41.0298 79.9895 40.5163 79.9992 40.0004 79.9992C39.6066 79.9992 39.2142 79.9935 38.8231 79.9823C38.2914 79.9669 37.875 79.5268 37.875 78.9949V65.0859C37.875 64.4991 38.378 64.0402 38.9643 64.0651C39.3079 64.0797 39.6533 64.0871 40.0004 64.0871C40.4623 64.0871 40.9211 64.074 41.3765 64.0483C41.968 64.0149 42.4801 64.4757 42.4801 65.068V78.9831Z" fill="black"/>
<path d="M51.6901 77.5248C51.6901 77.9646 51.4031 78.354 50.9802 78.4746C50.0852 78.7296 49.1773 78.9542 48.2579 79.1473C47.6484 79.2752 47.0851 78.8032 47.0851 78.1804V63.4389C47.0851 63.3926 47.0667 63.3481 47.034 63.3154C46.9403 63.2216 46.981 63.0616 47.1076 63.0225C48.611 62.5588 50.0514 61.9519 51.4133 61.218C51.5379 61.1508 51.6901 61.2404 51.6901 61.382C51.6901 61.4312 51.7097 61.4785 51.7445 61.5133L62.1366 71.9057C62.5758 72.3448 62.513 73.0745 61.9945 73.4164C61.2165 73.9296 60.4196 74.4162 59.6049 74.8751C59.22 75.0919 58.7391 75.0203 58.4268 74.708L53.3972 69.6786C52.7673 69.0486 51.6901 69.4948 51.6901 70.3857V77.5248Z" fill="black"/>
<path d="M69.2319 65.9061C69.6064 66.2806 69.6249 66.8831 69.2638 67.2705C68.6457 67.9333 68.0054 68.5751 67.3441 69.1949C66.9569 69.5577 66.3531 69.5399 65.9779 69.1647L56.1415 59.3282C55.725 58.9116 55.7582 58.2284 56.1941 57.8323C56.7893 57.2916 57.3572 56.7214 57.8957 56.1242C58.2912 55.6855 58.9767 55.6508 59.3943 56.0685L69.2319 65.9061Z" fill="black"/>
<path d="M74.7078 58.4268C75.0203 58.7392 75.0917 59.2203 74.8748 59.6052C74.4157 60.4201 73.9291 61.2173 73.4158 61.9953C73.0739 62.5135 72.3445 62.576 71.9055 62.1371L61.5131 51.7445C61.4783 51.7097 61.4311 51.6901 61.3819 51.6901C61.2404 51.6901 61.1508 51.538 61.2179 51.4134C61.9519 50.0516 62.5588 48.6107 63.0226 47.1072C63.0616 46.9808 63.2214 46.9403 63.3149 47.034C63.3476 47.0667 63.3919 47.0851 63.4382 47.0851H78.1804C78.8032 47.0851 79.2752 47.6484 79.1473 48.2579C78.9542 49.1773 78.7296 50.0852 78.4746 50.9802C78.354 51.4031 77.9646 51.6901 77.5248 51.6901H70.3856C69.4947 51.6901 69.0486 52.7672 69.6785 53.3972L74.7078 58.4268Z" fill="black"/>
<path d="M78.9949 37.875C79.5268 37.875 79.9669 38.2914 79.9823 38.8231C79.9935 39.2142 79.9992 39.6066 79.9992 40.0004C79.9992 40.5163 79.9895 41.0298 79.9701 41.5409C79.9501 42.0689 79.5115 42.4801 78.9831 42.4801H65.068C64.4756 42.4801 64.0149 41.968 64.0483 41.3765C64.074 40.9211 64.0871 40.4623 64.0871 40.0004C64.0871 39.6533 64.0797 39.3079 64.0651 38.9643C64.0402 38.378 64.4991 37.875 65.0859 37.875H78.9949Z" fill="black"/>
<path d="M75.0051 20.6278C75.2181 21.012 75.1455 21.4895 74.8349 21.8002L69.6785 26.9569C69.0486 27.5869 69.4948 28.664 70.3857 28.664H77.624C78.0673 28.664 78.459 28.9555 78.5764 29.383C78.8222 30.2782 79.0377 31.1859 79.2217 32.1049C79.3433 32.712 78.8721 33.269 78.2531 33.269H63.4156C63.3839 33.269 63.3535 33.2816 63.3311 33.3041C63.2666 33.3687 63.1563 33.34 63.1308 33.2524C62.6785 31.6993 62.0737 30.211 61.3344 28.8049C61.3008 28.741 61.347 28.664 61.4192 28.664C61.4446 28.664 61.4689 28.6539 61.4868 28.636L72.0457 18.077C72.4866 17.6361 73.2198 17.7015 73.5597 18.2243C74.0687 19.0069 74.5509 19.8086 75.0051 20.6278Z" fill="black"/>
<path d="M66.2704 11.1129C66.6483 10.735 67.2575 10.72 67.6437 11.0895C68.2986 11.7159 68.9322 12.3644 69.5434 13.0337C69.8978 13.4219 69.8764 14.0189 69.5047 14.3906L59.6616 24.2338C59.2393 24.6562 58.5444 24.6152 58.1515 24.1653C57.6225 23.5594 57.0637 22.9802 56.4773 22.4301C56.0526 22.0316 56.0254 21.3577 56.4372 20.9459L66.2704 11.1129Z" fill="black"/>
<path d="M58.6516 5.42043C58.9657 5.10634 59.45 5.03596 59.8355 5.25656C60.6458 5.72017 61.4383 6.21131 62.2117 6.72871C62.7256 7.07256 62.7857 7.79861 62.3484 8.23587L51.6943 18.8902C51.6909 18.8936 51.689 18.8982 51.689 18.9029C51.689 18.9167 51.6742 18.9254 51.6622 18.9187C50.4324 18.2368 49.1366 17.6594 47.7868 17.1985C47.3712 17.0566 47.084 16.6708 47.084 16.2317V1.81957C47.084 1.19688 47.6472 0.724879 48.2566 0.852778C49.176 1.04574 50.0838 1.27028 50.9788 1.52521C51.4019 1.64571 51.689 2.03518 51.689 2.47506V9.96882C51.689 10.8597 52.7661 11.3059 53.3961 10.6759L58.6516 5.42043Z" fill="black"/>
<path d="M37.875 1.00452C37.875 0.472549 38.2915 0.0323587 38.8232 0.0169905C39.2142 0.00568942 39.6067 0 40.0004 0C40.5161 0 41.0296 0.00975919 41.5405 0.029103C42.0687 0.049099 42.4801 0.487735 42.4801 1.01631V14.9309C42.4801 15.5234 41.9677 15.9842 41.3761 15.9509C40.9208 15.9253 40.4621 15.9123 40.0004 15.9123C39.6531 15.9123 39.3076 15.9197 38.9639 15.9342C38.3777 15.9591 37.875 15.5003 37.875 14.9136V1.00452Z" fill="black"/>
<path d="M28.6656 2.37714C28.6656 1.93382 28.9572 1.54215 29.3847 1.42476C30.2799 1.17896 31.1876 0.963477 32.1067 0.779498C32.7137 0.657997 33.2706 1.12911 33.2706 1.74814V16.1149C33.2706 16.5598 32.976 16.9491 32.5529 17.0865C31.4034 17.4599 30.2919 17.9174 29.2256 18.4516C28.8303 18.6497 28.3503 18.5815 28.0376 18.2688L17.8645 8.09575C17.4254 7.65665 17.4882 6.927 18.0066 6.58509C18.7846 6.07194 19.5816 5.58523 20.3963 5.12625C20.7812 4.90942 21.2622 4.98093 21.5746 5.29331L26.9585 10.6772C27.5885 11.3072 28.6656 10.861 28.6656 9.97012V2.37714Z" fill="black"/>
<path d="M5.29323 21.5746C4.98085 21.2622 4.90933 20.7812 5.12616 20.3963C5.58514 19.5816 6.07183 18.7846 6.58498 18.0065C6.92688 17.4881 7.65651 17.4254 8.09561 17.8645L18.2688 28.0376C18.5815 28.3503 18.6497 28.8303 18.4516 29.2256C17.9174 30.2919 17.4599 31.4034 17.0866 32.5528C16.9491 32.9759 16.5598 33.2705 16.1149 33.2705H1.74814C1.12911 33.2705 0.657997 32.7135 0.779498 32.1065C0.963477 31.1874 1.17896 30.2797 1.42476 29.3845C1.54215 28.957 1.93382 28.6655 2.37714 28.6655H9.96991C10.8608 28.6655 11.307 27.5883 10.677 26.9583L5.29323 21.5746Z" fill="black"/>
<path d="M23.9307 20.6061C24.3483 21.0237 24.3136 21.7092 23.875 22.1047C23.2778 22.6432 22.7076 23.2111 22.1669 23.8062C21.7707 24.2422 21.0875 24.2754 20.671 23.8589L10.9512 14.1391C10.5607 13.7486 10.5607 13.1154 10.9513 12.7249L12.7933 10.8829C13.1838 10.4924 13.817 10.4924 14.2075 10.8829L23.9307 20.6061Z" fill="black"/>
</g></svg>