<svg viewBox="0 0 80 80" width="80" height="80" fill="none" xmlns="http://www.w3.org/2000/svg"><g transform="translate(0.0000, 0.0000) scale(1.000000)">
<path d="M57.6544 25.1982L36.9024 11.589C34.839 10.2358 34.968 7.16195 37.1374 5.98742L47.4731 0.391554C48.5234 -0.176981 49.7996 -0.123127 50.7981 0.53187L74.5021 16.0768C75.4226 16.6805 75.9764 17.7101 75.9745 18.8133L75.9235 47.2194C75.9216 48.4165 75.2659 49.516 74.2159 50.0846L63.8801 55.6804C61.7106 56.8547 59.0782 55.2761 59.0825 52.8037L59.1272 27.9347C59.1291 26.8315 58.5753 25.8019 57.6544 25.1982Z" fill="#047BFF"/>
<path d="M30.4824 43.7277L30.4231 76.7274C30.4186 79.1998 33.0514 80.7789 35.2209 79.6041L49.8218 71.6993C50.8718 71.1307 51.527 70.0307 51.5294 68.834L51.5951 32.297C51.597 31.1938 51.0432 30.1642 50.1222 29.5605L19.6337 9.56602C18.6349 8.91106 17.3587 8.8572 16.3086 9.42573L1.70773 17.3308C-0.461698 18.5054 -0.590642 21.5792 1.47275 22.9324L29.0097 40.9911C29.9304 41.5948 30.4844 42.6244 30.4824 43.7277Z" fill="#047BFF"/>
<path d="M11.645 51.6386C11.6432 52.6039 12.1328 53.5048 12.946 54.0334L23.0795 60.6154C23.5122 60.8963 23.7725 61.3754 23.7716 61.8887L23.7528 72.1331C23.7506 73.3388 22.4035 74.0612 21.388 73.4012L1.3362 60.3763C0.522927 59.8482 0.033409 58.9472 0.0351609 57.982L0.0783129 32.8444C0.0805087 31.639 1.42762 30.9166 2.44314 31.5762L10.9744 37.1177C11.407 37.3987 11.6674 37.8779 11.6665 38.3914L11.645 51.6386Z" fill="#047BFF"/>
</g></svg>