<svg width="96" height="80" viewBox="0 0 96 80" fill="none" xmlns="http://www.w3.org/2000/svg">
<path d="M48.2132 51.8684C58.2295 51.8684 64.867 56.0335 69.4262 59.6307C70.5035 60.481 71.5117 61.337 72.3048 62.0027C73.1565 62.7169 73.7657 63.2157 74.2969 63.6018C74.5272 63.7696 74.7038 63.8861 74.8304 63.9645H95.5447V79.9999H74.2097C70.0397 79.9999 66.8445 77.9859 64.9163 76.5817C63.8902 75.8349 62.8993 75.0106 62.061 74.3067C61.1646 73.5552 60.3929 72.8997 59.5538 72.2377C56.4485 69.7873 53.2349 67.9039 48.2132 67.9039H48.0097C42.9881 67.9039 39.7749 69.7873 36.6692 72.2377C35.8302 72.8997 35.0588 73.5552 34.162 74.3067C33.3237 75.0106 32.3328 75.8349 31.3064 76.5817C29.3782 77.9859 26.1834 79.9999 22.0134 79.9999H0.0859375V63.9645H21.3926C21.5196 63.8861 21.6959 63.7696 21.9261 63.6018C22.4573 63.2157 23.0666 62.7169 23.9183 62.0027C24.7113 61.337 25.7195 60.481 26.7964 59.6307C31.3557 56.0335 37.9932 51.8684 48.0097 51.8684H48.2132Z" fill="#82C38C"/>
<path d="M82.5399 0C89.7946 0 95.6754 5.90341 95.6754 13.185V47.7884H79.7004V16.0355H15.9752V47.7884H0V13.185C0.00038243 5.90341 5.88101 0 13.1357 0H82.5399Z" fill="#82C38C"/>
</svg>
