<svg width="80" height="80" viewBox="0 0 80 80" fill="none" xmlns="http://www.w3.org/2000/svg">
<path d="M67.2647 52.2724L65.2735 47.922C64.1327 45.4636 62.1347 43.5025 59.6456 42.4114L55.2422 40.5539L59.5837 38.572C62.0654 37.4464 64.0429 35.4369 65.1211 32.9371L67.0157 28.5521L69.0068 32.875C70.1266 35.354 72.1456 37.3221 74.662 38.3855L79.0382 40.2707L74.6966 42.2526C72.2144 43.3782 70.2375 45.3877 69.1586 47.8875L67.2647 52.2724Z" fill="#50FFAB"/>
<path d="M36.1505 36.164V16.2555H55.052V0H0V16.2555H16.4817V36.0742C16.4817 56.3488 25.1028 80 55.0451 80V64.2624C39.7525 64.3521 36.1436 52.6059 36.1436 36.164H36.1505Z" fill="black"/>
</svg>
