<svg width="61" height="80" viewBox="0 0 61 80" fill="none" xmlns="http://www.w3.org/2000/svg">
<path d="M0 70.0444C13.2744 83.3186 34.7965 83.3186 48.0709 70.0444C61.3451 56.77 61.3451 35.2479 48.0709 21.9735L42.0619 27.9823C52.0178 37.9382 52.0178 54.0797 42.0619 64.0354C32.1062 73.9913 15.9647 73.9913 6.0088 64.0354L0 70.0444Z" fill="#34D399"/>
<path d="M12.0195 58.0266C18.6567 64.6637 29.4176 64.6637 36.0549 58.0266C42.692 51.3894 42.692 40.6283 36.0549 33.9912L30.0461 40C33.3647 43.3186 33.3647 48.699 30.0461 52.0178C26.7274 55.3363 21.3469 55.3363 18.0284 52.0178L12.0195 58.0266Z" fill="#34D399"/>
<path d="M60.0891 9.95575C46.8147 -3.31858 25.2926 -3.31858 12.0183 9.95575C-1.2561 23.2302 -1.2561 44.7522 12.0183 58.0266L18.027 52.0178C8.07142 42.062 8.07142 25.9204 18.027 15.9647C27.9829 6.00886 44.1244 6.00886 54.0801 15.9647L60.0891 9.95575Z" fill="#6EE6B7"/>
<path d="M48.0721 21.9733C41.435 15.3362 30.6737 15.3362 24.0366 21.9733C17.3993 28.6106 17.3993 39.3716 24.0366 46.0087L30.0454 39.9999C26.7268 36.6813 26.7268 31.3008 30.0454 27.9821C33.3639 24.6636 38.7444 24.6636 42.0631 27.9821L48.0721 21.9733Z" fill="#6EE6B7"/>
</svg>
